<svg width="274" height="262" viewBox="0 0 274 262" fill="none" xmlns="http://www.w3.org/2000/svg">
<g clip-path="url(#clip0_10729_113638)">
<path d="M137.276 256.477C200.988 256.477 252.636 250.455 252.636 243.026C252.636 235.597 200.988 229.574 137.276 229.574C73.5645 229.574 21.916 235.597 21.916 243.026C21.916 250.455 73.5645 256.477 137.276 256.477Z" fill="#D3D4D8"/>
<path d="M117.329 197.653L116.824 200.746L116.286 204.069L111.344 234.372H103.267L108.203 204.069L108.747 200.746L109.252 197.653H117.329Z" fill="#B7B9C0"/>
<path d="M116.159 197.653C115.73 200.724 115.275 203.789 114.813 206.848L113.386 216.037L111.892 225.21L111.123 229.791L110.322 234.372L110.981 229.769L111.667 225.172L113.111 215.988L114.605 206.815C115.093 203.756 115.61 200.702 116.159 197.653Z" fill="#9A9BA5"/>
<path d="M116.824 200.746L116.286 204.069H108.203L108.746 200.746H116.824Z" fill="#9A9BA5"/>
<path d="M157.217 197.653L157.722 200.746L158.26 204.069L163.202 234.372H171.279L166.343 204.069L165.799 200.746L165.294 197.653H157.217Z" fill="#B7B9C0"/>
<path d="M158.414 197.653C158.837 200.724 159.298 203.789 159.759 206.848L161.182 216.037L162.675 225.21L163.449 229.791L164.251 234.372L163.592 229.769L162.906 225.172L161.478 215.988L159.984 206.815C159.474 203.756 158.958 200.702 158.414 197.653Z" fill="#9A9BA5"/>
<path d="M157.721 200.746H165.798L166.342 204.069H158.259L157.721 200.746Z" fill="#9A9BA5"/>
<path d="M117.035 189.129H110.632L111.428 183.153H116.238L117.035 189.129Z" fill="#9A9BA5"/>
<path d="M119.714 179.932C120.287 176.685 118.119 173.588 114.873 173.015C111.627 172.442 108.531 174.61 107.958 177.857C107.385 181.104 109.552 184.201 112.798 184.774C116.044 185.347 119.141 183.18 119.714 179.932Z" fill="#B7B9C0"/>
<path d="M118.25 179.934C118.829 177.492 117.319 175.045 114.879 174.466C112.438 173.888 109.991 175.398 109.413 177.839C108.835 180.28 110.344 182.728 112.785 183.306C115.225 183.885 117.672 182.375 118.25 179.934Z" fill="white"/>
<path d="M117.625 178.621C117.583 178.08 117.43 177.553 117.175 177.074C116.92 176.595 116.568 176.173 116.143 175.836C115.715 175.504 115.223 175.262 114.698 175.125C114.173 174.988 113.626 174.959 113.09 175.04C112.558 175.124 112.049 175.319 111.597 175.612C111.144 175.905 110.759 176.291 110.465 176.743C110.155 177.226 109.952 177.77 109.87 178.339C109.787 178.907 109.828 179.487 109.988 180.038C110.26 180.991 110.897 181.798 111.761 182.285C112.603 182.763 113.592 182.916 114.54 182.713C115.456 182.517 116.278 182.013 116.868 181.285C117.451 180.566 117.787 179.678 117.829 178.753C117.829 178.715 117.829 178.676 117.79 178.676C117.752 178.676 117.752 178.709 117.752 178.753C117.731 179.127 117.659 179.497 117.538 179.852C117.411 180.2 117.243 180.532 117.038 180.84C116.821 181.139 116.571 181.412 116.291 181.653C116.004 181.893 115.689 182.098 115.352 182.263C114.869 182.491 114.343 182.615 113.809 182.628C113.275 182.642 112.744 182.543 112.25 182.34C111.754 182.13 111.31 181.815 110.948 181.416C110.586 181.018 110.314 180.546 110.152 180.033C109.986 179.505 109.935 178.948 110.003 178.399C110.071 177.851 110.257 177.323 110.548 176.853C110.828 176.406 111.202 176.025 111.642 175.735C112.083 175.445 112.58 175.253 113.101 175.172C113.805 175.06 114.526 175.14 115.188 175.404C115.85 175.668 116.428 176.106 116.862 176.671C117.071 176.963 117.241 177.28 117.367 177.616C117.49 177.957 117.571 178.311 117.609 178.671C117.609 178.671 117.625 178.638 117.625 178.621Z" fill="#D3D4D8"/>
<path d="M117.093 178.627C117.054 178.163 116.919 177.713 116.698 177.304C116.477 176.895 116.174 176.535 115.808 176.249C115.441 175.966 115.021 175.76 114.573 175.641C114.126 175.522 113.659 175.493 113.2 175.556C112.741 175.625 112.302 175.789 111.911 176.039C111.52 176.289 111.187 176.619 110.932 177.007C110.661 177.42 110.482 177.887 110.406 178.376C110.33 178.865 110.36 179.364 110.493 179.841C110.606 180.253 110.801 180.639 111.065 180.976C111.329 181.312 111.657 181.593 112.03 181.802C112.764 182.221 113.628 182.351 114.452 182.164C115.247 181.993 115.959 181.552 116.467 180.917C116.971 180.292 117.261 179.522 117.296 178.72C117.296 178.687 117.296 178.654 117.263 178.654C117.23 178.654 117.219 178.682 117.219 178.72C117.174 179.364 116.958 179.984 116.593 180.516C116.228 181.048 115.728 181.473 115.144 181.747C114.728 181.949 114.274 182.061 113.812 182.074C113.35 182.087 112.891 182.002 112.464 181.824C112.035 181.642 111.651 181.369 111.338 181.024C111.025 180.679 110.791 180.269 110.652 179.824C110.51 179.368 110.468 178.885 110.531 178.411C110.593 177.937 110.758 177.482 111.015 177.078C111.256 176.697 111.578 176.373 111.957 176.128C112.336 175.883 112.764 175.724 113.211 175.661C113.809 175.572 114.419 175.643 114.981 175.867C115.542 176.091 116.034 176.459 116.407 176.935C116.586 177.183 116.734 177.452 116.846 177.737C116.949 178.029 117.021 178.331 117.06 178.638L117.093 178.627Z" fill="#D3D4D8"/>
<path d="M116.562 178.632C116.522 178.246 116.405 177.872 116.216 177.533C116.027 177.194 115.771 176.897 115.464 176.66C114.846 176.191 114.07 175.982 113.3 176.078C112.915 176.129 112.545 176.261 112.215 176.465C111.884 176.67 111.601 176.942 111.384 177.264C111.149 177.612 110.991 178.007 110.922 178.421C110.853 178.835 110.874 179.259 110.983 179.665C111.075 180.018 111.238 180.349 111.462 180.638C111.686 180.927 111.965 181.168 112.284 181.346C112.914 181.698 113.652 181.803 114.355 181.642C115.032 181.485 115.634 181.096 116.057 180.544C116.475 180.013 116.72 179.367 116.76 178.693C116.76 178.66 116.76 178.632 116.721 178.632C116.715 178.633 116.708 178.635 116.703 178.638C116.697 178.641 116.692 178.645 116.688 178.65C116.684 178.656 116.681 178.661 116.679 178.668C116.677 178.674 116.676 178.681 116.677 178.687C116.635 179.228 116.451 179.747 116.144 180.195C115.838 180.642 115.42 181.001 114.931 181.236C114.581 181.409 114.198 181.505 113.808 181.518C113.418 181.531 113.03 181.461 112.669 181.313C112.304 181.162 111.977 180.932 111.712 180.639C111.448 180.347 111.251 179.999 111.137 179.621C111.023 179.236 110.994 178.831 111.05 178.434C111.107 178.037 111.249 177.657 111.466 177.319C111.674 177.005 111.946 176.74 112.266 176.54C112.585 176.341 112.943 176.214 113.317 176.166C113.81 176.108 114.31 176.166 114.777 176.336C115.247 176.514 115.66 176.818 115.969 177.215C116.122 177.417 116.247 177.639 116.342 177.874C116.435 178.115 116.499 178.366 116.534 178.621C116.534 178.621 116.567 178.638 116.562 178.632Z" fill="#D3D4D8"/>
<path d="M116.033 178.638C115.952 178.018 115.631 177.456 115.138 177.072C114.645 176.703 114.031 176.535 113.419 176.6C113.108 176.636 112.808 176.738 112.538 176.898C112.269 177.057 112.036 177.272 111.854 177.528C111.658 177.81 111.524 178.131 111.461 178.469C111.399 178.808 111.409 179.155 111.492 179.489C111.565 179.783 111.697 180.058 111.882 180.298C112.066 180.539 112.298 180.738 112.563 180.884C113.085 181.173 113.695 181.257 114.276 181.12C114.828 180.987 115.318 180.669 115.665 180.22C115.996 179.781 116.187 179.252 116.214 178.704C116.215 178.698 116.215 178.692 116.213 178.686C116.212 178.681 116.209 178.675 116.205 178.671C116.202 178.666 116.197 178.662 116.192 178.66C116.187 178.657 116.182 178.655 116.176 178.654C116.176 178.654 116.137 178.654 116.132 178.698C116.099 179.133 115.956 179.553 115.715 179.917C115.475 180.281 115.146 180.578 114.759 180.78C114.476 180.928 114.165 181.012 113.846 181.027C113.528 181.042 113.21 180.988 112.914 180.868C112.615 180.744 112.347 180.555 112.131 180.313C111.915 180.071 111.757 179.784 111.668 179.473C111.58 179.16 111.561 178.832 111.612 178.512C111.663 178.191 111.783 177.886 111.964 177.616C112.134 177.368 112.355 177.16 112.613 177.005C112.871 176.851 113.159 176.754 113.458 176.721C113.848 176.685 114.242 176.736 114.611 176.869C114.982 177.006 115.309 177.239 115.561 177.545C115.681 177.706 115.783 177.881 115.863 178.066C115.941 178.259 115.998 178.46 116.033 178.665V178.638Z" fill="#D3D4D8"/>
<path d="M163.777 189.129H157.369L158.165 183.153H162.981L163.777 189.129Z" fill="#9A9BA5"/>
<path d="M166.574 179.411C167.068 176.146 164.824 173.099 161.56 172.604C158.297 172.11 155.25 174.355 154.756 177.62C154.261 180.884 156.506 183.931 159.77 184.426C163.033 184.921 166.079 182.675 166.574 179.411Z" fill="#B7B9C0"/>
<path d="M165.058 179.569C165.436 177.088 163.733 174.771 161.253 174.393C158.774 174.015 156.458 175.719 156.08 178.199C155.702 180.679 157.405 182.996 159.884 183.374C162.364 183.752 164.68 182.049 165.058 179.569Z" fill="white"/>
<path d="M164.372 178.621C164.328 178.08 164.174 177.554 163.919 177.075C163.664 176.595 163.314 176.174 162.889 175.836C162.46 175.504 161.969 175.262 161.444 175.125C160.919 174.988 160.372 174.959 159.836 175.04C159.304 175.124 158.795 175.319 158.343 175.612C157.89 175.905 157.505 176.29 157.211 176.743C156.899 177.225 156.695 177.769 156.612 178.338C156.53 178.907 156.571 179.487 156.734 180.038C157.004 180.992 157.642 181.8 158.507 182.285C159.349 182.764 160.338 182.916 161.286 182.713C162.202 182.517 163.024 182.013 163.614 181.285C164.197 180.565 164.533 179.678 164.575 178.753C164.575 178.714 164.575 178.676 164.536 178.676C164.498 178.676 164.498 178.709 164.492 178.753C164.471 179.126 164.4 179.496 164.284 179.851C164.158 180.201 163.988 180.533 163.778 180.84C163.349 181.452 162.768 181.942 162.093 182.263C161.611 182.492 161.086 182.617 160.552 182.631C160.019 182.644 159.489 182.545 158.996 182.34C158.499 182.13 158.054 181.815 157.691 181.417C157.328 181.019 157.056 180.546 156.893 180.033C156.727 179.505 156.677 178.948 156.746 178.399C156.815 177.85 157.002 177.322 157.294 176.852C157.574 176.406 157.948 176.025 158.388 175.735C158.829 175.445 159.326 175.253 159.847 175.172C160.551 175.06 161.272 175.14 161.934 175.404C162.596 175.668 163.174 176.106 163.608 176.671C163.815 176.964 163.985 177.281 164.113 177.616C164.234 177.957 164.313 178.311 164.35 178.67C164.35 178.67 164.372 178.637 164.372 178.621Z" fill="#D3D4D8"/>
<path d="M163.838 178.627C163.796 178.164 163.66 177.714 163.439 177.306C163.219 176.897 162.917 176.537 162.553 176.249C162.185 175.966 161.766 175.76 161.318 175.641C160.87 175.522 160.403 175.493 159.944 175.556C159.485 175.624 159.045 175.788 158.653 176.038C158.261 176.288 157.926 176.618 157.671 177.007C157.4 177.42 157.221 177.887 157.145 178.376C157.069 178.865 157.099 179.364 157.232 179.841C157.345 180.253 157.54 180.639 157.804 180.976C158.068 181.312 158.396 181.593 158.769 181.802C159.503 182.22 160.367 182.349 161.191 182.164C161.988 181.994 162.702 181.553 163.212 180.917C163.713 180.291 164.003 179.522 164.041 178.72C164.041 178.687 164.041 178.654 164.002 178.654C163.964 178.654 163.964 178.682 163.958 178.72C163.915 179.364 163.7 179.983 163.336 180.516C162.972 181.048 162.472 181.473 161.888 181.747C161.473 181.949 161.019 182.061 160.557 182.074C160.095 182.087 159.635 182.002 159.209 181.824C158.778 181.643 158.393 181.37 158.079 181.025C157.765 180.68 157.53 180.27 157.391 179.824C157.25 179.367 157.21 178.885 157.273 178.412C157.335 177.938 157.499 177.483 157.754 177.078C157.996 176.698 158.318 176.375 158.697 176.13C159.076 175.885 159.504 175.725 159.95 175.661C160.549 175.569 161.162 175.639 161.726 175.863C162.29 176.087 162.783 176.457 163.157 176.935C163.338 177.182 163.486 177.451 163.596 177.737C163.704 178.027 163.776 178.33 163.81 178.638C163.815 178.638 163.82 178.637 163.825 178.635C163.83 178.633 163.834 178.63 163.838 178.627Z" fill="#D3D4D8"/>
<path d="M163.306 178.632C163.264 178.247 163.146 177.874 162.957 177.535C162.768 177.196 162.514 176.899 162.208 176.66C161.59 176.192 160.814 175.983 160.045 176.078C159.662 176.13 159.294 176.263 158.965 176.468C158.637 176.672 158.356 176.944 158.139 177.264C157.905 177.612 157.747 178.007 157.677 178.421C157.607 178.835 157.626 179.259 157.733 179.665C157.828 180.018 157.993 180.348 158.217 180.637C158.441 180.926 158.721 181.166 159.04 181.345C159.668 181.697 160.403 181.803 161.105 181.642C161.784 181.484 162.387 181.096 162.812 180.543C163.232 180.014 163.476 179.367 163.51 178.692C163.51 178.66 163.51 178.632 163.477 178.632C163.47 178.633 163.464 178.635 163.458 178.638C163.452 178.641 163.447 178.645 163.443 178.65C163.439 178.655 163.436 178.661 163.434 178.668C163.432 178.674 163.432 178.68 163.433 178.687C163.389 179.227 163.205 179.747 162.899 180.194C162.592 180.641 162.174 181 161.687 181.236C161.337 181.408 160.954 181.505 160.564 181.518C160.174 181.531 159.785 181.461 159.424 181.312C159.06 181.162 158.733 180.932 158.468 180.639C158.203 180.346 158.006 179.999 157.892 179.621C157.779 179.236 157.749 178.831 157.806 178.434C157.863 178.037 158.005 177.657 158.222 177.319C158.427 177.005 158.699 176.739 159.017 176.54C159.336 176.34 159.694 176.213 160.067 176.166C160.562 176.107 161.064 176.165 161.533 176.336C162.003 176.514 162.415 176.818 162.724 177.215C162.877 177.417 163.003 177.639 163.098 177.874C163.185 178.117 163.249 178.367 163.29 178.621C163.294 178.626 163.3 178.63 163.306 178.632Z" fill="#D3D4D8"/>
<path d="M162.774 178.638C162.736 178.331 162.638 178.035 162.485 177.766C162.333 177.498 162.128 177.262 161.884 177.072C161.391 176.704 160.778 176.535 160.166 176.6C159.854 176.634 159.553 176.734 159.283 176.894C159.013 177.054 158.78 177.271 158.601 177.528C158.404 177.81 158.27 178.131 158.207 178.469C158.145 178.808 158.155 179.155 158.238 179.489C158.311 179.783 158.444 180.058 158.628 180.298C158.812 180.539 159.044 180.738 159.309 180.884C159.829 181.173 160.438 181.257 161.017 181.12C161.57 180.985 162.061 180.668 162.411 180.22C162.742 179.781 162.933 179.253 162.961 178.704C162.962 178.698 162.963 178.692 162.962 178.687C162.961 178.681 162.959 178.676 162.956 178.671C162.953 178.666 162.948 178.662 162.944 178.659C162.939 178.657 162.933 178.655 162.928 178.654C162.916 178.654 162.905 178.659 162.897 178.667C162.888 178.675 162.884 178.686 162.884 178.698C162.844 179.135 162.692 179.555 162.443 179.917C162.194 180.279 161.856 180.57 161.462 180.763C161.18 180.91 160.869 180.994 160.551 181.009C160.234 181.025 159.917 180.971 159.622 180.851C159.323 180.728 159.055 180.538 158.839 180.297C158.623 180.055 158.465 179.768 158.376 179.456C158.288 179.144 158.269 178.816 158.32 178.495C158.371 178.175 158.491 177.869 158.672 177.6C158.842 177.351 159.063 177.143 159.321 176.988C159.579 176.834 159.867 176.737 160.166 176.704C160.554 176.669 160.946 176.72 161.313 176.853C161.685 176.988 162.013 177.222 162.263 177.528C162.388 177.688 162.491 177.864 162.571 178.05C162.649 178.243 162.706 178.444 162.741 178.649C162.741 178.649 162.779 178.643 162.774 178.638Z" fill="#D3D4D8"/>
<path d="M177.521 186.086H97.0173V201.487H177.521V186.086Z" fill="#B7B9C0"/>
<path d="M113.568 186.086L107.726 201.487H97.3257L103.168 186.086H113.568Z" fill="#D3D4D8"/>
<path d="M134.878 186.086L129.035 201.487H118.635L124.478 186.086H134.878Z" fill="#D3D4D8"/>
<path d="M156.186 186.086L150.349 201.487H139.949L145.791 186.086H156.186Z" fill="#D3D4D8"/>
<path d="M177.501 186.086L171.658 201.487H161.258L167.101 186.086H177.501Z" fill="#D3D4D8"/>
<path d="M175.897 215.729H98.6499V225.479H175.897V215.729Z" fill="#B7B9C0"/>
<path d="M114.524 215.729L108.923 225.473H98.9458L104.552 215.729H114.524Z" fill="#D3D4D8"/>
<path d="M134.977 215.729L129.371 225.473H119.388L124.994 215.729H134.977Z" fill="#D3D4D8"/>
<path d="M155.42 215.729L149.813 225.473H139.836L145.442 215.729H155.42Z" fill="#D3D4D8"/>
<path d="M175.869 215.729L170.263 225.473H160.286L165.892 215.729H175.869Z" fill="#D3D4D8"/>
<path d="M274 234H256.28C243.403 234 235.528 226.153 234.112 211.908C233.412 204.883 232.984 196.381 232.534 187.381C231.145 159.727 229.241 121.869 217.032 121.869H203V119H217.032C232.349 119 234.096 153.702 235.783 187.262C236.233 196.233 236.661 204.706 237.356 211.649C238.24 220.534 242.237 231.126 256.28 231.126H274V234Z" fill="#FFD600"/>
<path opacity="0.2" d="M212.811 118.931L212.108 122.227H202.378V118.931H212.811Z" fill="#04070D"/>
<path d="M175.602 100.855H169.858V141.001H175.602V100.855Z" fill="#FFD600"/>
<path d="M169.865 103.821H148.028V137.623H169.865V103.821Z" fill="#FFD600"/>
<path opacity="0.2" d="M169.859 103.826V137.628H164.434L162.001 103.826H169.859Z" fill="#04070D"/>
<path d="M131.269 109.89H148.022V114.944H131.269C130.695 114.944 130.145 114.715 129.739 114.31C129.333 113.904 129.105 113.353 129.105 112.779V112.06C129.105 111.775 129.16 111.493 129.269 111.23C129.377 110.967 129.536 110.728 129.737 110.526C129.938 110.325 130.177 110.165 130.44 110.056C130.703 109.946 130.984 109.89 131.269 109.89Z" fill="#B7B9C0"/>
<path d="M148.02 109.891H142.139V114.938H148.02V109.891Z" fill="#4D4000"/>
<path d="M131.269 126.506H148.022V131.559H131.269C130.695 131.559 130.145 131.331 129.739 130.925C129.333 130.519 129.105 129.969 129.105 129.395V128.675C129.105 128.391 129.16 128.109 129.269 127.845C129.377 127.582 129.536 127.343 129.737 127.141C129.938 126.94 130.177 126.78 130.44 126.671C130.703 126.562 130.984 126.506 131.269 126.506Z" fill="#B7B9C0"/>
<path d="M148.02 126.506H142.139V131.553H148.02V126.506Z" fill="#4D4000"/>
<path d="M209.544 117.498H192.483V124.237H209.544V117.498Z" fill="#FFD600"/>
<path d="M209.544 117.503H192.483V124.243H209.544V117.503Z" fill="#FFD600"/>
<path opacity="0.2" d="M198.474 117.503L197.914 124.243H192.483V117.503H198.474Z" fill="#04070D"/>
<path d="M175.603 105.095H189.106C190.001 105.095 190.86 105.451 191.493 106.085C192.127 106.718 192.483 107.577 192.483 108.473V132.976C192.483 133.872 192.127 134.731 191.493 135.365C190.86 135.998 190.001 136.354 189.106 136.354H175.603V105.095Z" fill="#FFD600"/>
<path opacity="0.2" d="M182.786 105.095L180.353 136.354H175.609V105.095H182.786Z" fill="#04070D"/>
<g opacity="0.2">
<path d="M181.53 111.412H180.453V130.032H181.53V111.412Z" fill="#04070D"/>
<path d="M184.583 111.412H183.506V130.032H184.583V111.412Z" fill="#04070D"/>
<path d="M187.636 111.412H186.559V130.032H187.636V111.412Z" fill="#04070D"/>
</g>
<path d="M119.155 107.924C116.92 109.802 115.619 110.242 112.774 110.632C112.765 110.635 112.756 110.642 112.75 110.65C112.744 110.658 112.741 110.668 112.741 110.679C112.741 110.689 112.744 110.699 112.75 110.707C112.756 110.716 112.765 110.722 112.774 110.725C115.591 110.593 117.304 110.28 119.248 108.028C119.331 107.918 119.243 107.836 119.155 107.924Z" fill="#003859"/>
<path d="M120.488 110.665C118 112.445 116.595 112.9 113.662 113.543C113.624 113.543 113.635 113.626 113.662 113.62C116.605 113.241 118.308 112.89 120.564 110.813C120.658 110.709 120.603 110.583 120.488 110.665Z" fill="#003859"/>
<path d="M121.428 113.917C118.897 115.438 117.376 116.037 114.432 116.284C114.418 116.284 114.404 116.29 114.394 116.3C114.383 116.31 114.377 116.324 114.377 116.339C114.377 116.353 114.383 116.367 114.394 116.378C114.404 116.388 114.418 116.394 114.432 116.394C116.998 116.548 119.523 115.688 121.461 113.999C121.609 113.884 121.587 113.823 121.428 113.917Z" fill="#003859"/>
<path d="M115.085 107.402C113.987 109.127 111.478 109.121 109.649 109.374C109.622 109.375 109.595 109.384 109.571 109.398C109.548 109.413 109.528 109.433 109.514 109.457C109.501 109.481 109.493 109.509 109.493 109.536C109.492 109.564 109.499 109.591 109.512 109.616C109.512 111.39 108.963 113.884 107.398 114.933C107.349 114.966 107.398 115.037 107.436 115.01C109.254 114.109 109.99 111.714 109.885 109.753C111.763 109.528 114.278 109.424 115.102 107.408C115.107 107.397 115.091 107.391 115.085 107.402Z" fill="#003859"/>
<path d="M94.4459 105.991C94.0849 107.051 93.7861 108.131 93.5509 109.226C93.2818 110.324 93.0018 111.423 92.7767 112.521C92.2877 114.676 91.9211 116.856 91.6785 119.052C91.6785 119.065 91.6837 119.078 91.6929 119.087C91.7022 119.096 91.7148 119.102 91.7279 119.102C91.741 119.102 91.7536 119.096 91.7628 119.087C91.7721 119.078 91.7773 119.065 91.7773 119.052C92.3703 116.899 92.8096 114.696 93.2599 112.51C93.485 111.412 93.6882 110.346 93.9133 109.27C94.1384 108.193 94.4075 107.073 94.5283 106.007C94.5305 105.996 94.5282 105.985 94.522 105.975C94.5159 105.966 94.5063 105.96 94.4953 105.958C94.4844 105.955 94.4731 105.958 94.4638 105.964C94.4545 105.97 94.4481 105.98 94.4459 105.991Z" fill="#003859"/>
<path d="M17.9697 234H0V231.131H17.9697C32.2047 231.131 36.264 220.538 37.1606 211.653C37.8646 204.695 38.2937 196.221 38.7502 187.265C40.4608 153.704 42.2319 119 57.765 119H72V121.869H57.754C45.3782 121.869 43.453 159.739 42.0394 187.384C41.5774 196.389 41.1429 204.891 40.4388 211.916C39.0087 226.153 31.0277 234 17.9697 234Z" fill="#FFD600"/>
<path opacity="0.2" d="M71.8763 118.932V122.227H60.5429L59.8401 118.932H71.8763Z" fill="#04070D"/>
<path d="M121.174 141.869H127.225V99.5864H121.174V141.869Z" fill="#FFD600"/>
<path d="M121.176 101.591H98.1799V139.425H121.176V101.591Z" fill="#FFD600"/>
<path opacity="0.2" d="M121.174 101.591V139.425H115.463L112.899 101.591H121.174Z" fill="#04070D"/>
<path d="M63.3438 123.946H80.4043V117.207H63.3438V123.946Z" fill="#FFD600"/>
<path d="M80.4035 117.212H63.343V123.952H80.4035V117.212Z" fill="#FFD600"/>
<path opacity="0.2" d="M74.4141 123.946L74.9741 117.212H80.4047V123.946H74.4141Z" fill="#04070D"/>
<path d="M98.1799 137.183H83.7826C82.887 137.183 82.028 136.828 81.3947 136.194C80.7614 135.561 80.4056 134.701 80.4056 133.805V107.638C80.4056 106.743 80.7614 105.883 81.3947 105.25C82.028 104.616 82.887 104.26 83.7826 104.26H98.1799V137.183Z" fill="#FFD600"/>
<path opacity="0.2" d="M90.6118 137.183L93.1761 104.266H98.1784V137.183H90.6118Z" fill="#04070D"/>
<g opacity="0.2">
<path d="M91.9347 130.526H93.0713V110.918H91.9347V130.526Z" fill="#04070D"/>
<path d="M88.7218 130.526H89.8584V110.918H88.7218V130.526Z" fill="#04070D"/>
<path d="M85.5037 130.526H86.6404V110.918H85.5037V130.526Z" fill="#04070D"/>
</g>
<path d="M116.54 54.1824C116.54 54.5788 116.461 54.9712 116.308 55.3368C116.155 55.7024 115.93 56.0338 115.648 56.3116C115.365 56.5895 115.03 56.8082 114.662 56.9551C114.294 57.1019 113.9 57.174 113.504 57.167H112.965V61.2635C112.965 62.0551 112.651 62.8142 112.091 63.374C111.532 63.9337 110.773 64.2481 109.982 64.2481C109.19 64.2481 108.431 63.9337 107.872 63.374C107.312 62.8142 106.998 62.0551 106.998 61.2635V57.167H89.8973C89.2219 57.1915 88.5627 56.9571 88.0544 56.5115C87.7395 56.2762 87.4759 55.9791 87.2797 55.6383C87.0835 55.2976 86.9589 54.9204 86.9134 54.5298C86.868 54.1392 86.9026 53.7435 87.0153 53.3668C87.128 52.9901 87.3163 52.6403 87.5688 52.3389L107.63 27.391C107.682 27.391 107.682 27.3325 107.735 27.2798C107.804 27.2192 107.859 27.1456 107.899 27.0633C108.004 27.0381 108.098 26.9808 108.168 26.8994C108.227 26.8467 108.332 26.7941 108.385 26.7356C108.481 26.6684 108.595 26.6317 108.712 26.6302C108.765 26.519 108.817 26.4664 108.929 26.4664C109.04 26.4664 109.092 26.4137 109.256 26.361C109.333 26.3686 109.41 26.3478 109.473 26.3025H110.391C110.475 26.3497 110.571 26.3702 110.666 26.361C110.719 26.4137 110.883 26.4137 110.988 26.4664C111.093 26.519 111.152 26.519 111.204 26.519C111.292 26.5966 111.384 26.6689 111.479 26.7356C111.585 26.7941 111.637 26.8467 111.749 26.8994C111.756 26.8994 111.763 26.9009 111.77 26.9039C111.777 26.9069 111.783 26.9113 111.788 26.9168C111.793 26.9224 111.797 26.9289 111.799 26.936C111.801 26.9431 111.802 26.9505 111.801 26.9579C111.854 26.9579 111.965 27.0106 111.965 27.0633L112.181 27.2798C112.234 27.3325 112.293 27.4437 112.345 27.4963C112.427 27.5802 112.499 27.6724 112.562 27.7714C112.576 27.8533 112.614 27.9289 112.673 27.9879C112.717 28.0922 112.752 28.1998 112.778 28.3098C112.778 28.3625 112.831 28.4737 112.831 28.5263C112.882 28.6276 112.902 28.7414 112.889 28.854C112.889 28.9594 112.942 29.0179 112.942 29.1232V51.1977H113.48C113.877 51.1923 114.271 51.2653 114.64 51.4124C115.009 51.5595 115.345 51.778 115.629 52.0552C115.913 52.3324 116.14 52.663 116.296 53.028C116.453 53.393 116.535 53.7853 116.54 54.1824ZM106.998 37.7962L96.1864 51.1977H106.975L106.998 37.7962Z" fill="#003859"/>
<path d="M123.671 45.287C123.724 40.2951 124.97 35.7948 127.357 32.3244C129.633 28.854 133.161 26.3025 137.443 26.3025C141.615 26.3025 145.195 28.854 147.471 32.3244C149.747 35.7948 151.104 40.2951 151.104 45.287C151.104 50.2789 149.805 54.7793 147.471 58.2496C145.137 61.72 141.62 64.2715 137.443 64.2715C133.161 64.2715 129.633 61.6673 127.357 58.2496C124.97 54.7793 123.724 50.2204 123.671 45.287ZM145.084 45.287C145.145 41.8878 144.244 38.5405 142.486 35.6309C140.913 33.3544 139.122 32.2717 137.443 32.3244C135.758 32.2717 133.933 33.3544 132.289 35.6309C130.529 38.5399 129.626 41.8872 129.686 45.287C129.625 48.6686 130.528 51.9975 132.289 54.8846C133.915 57.2255 135.758 58.2496 137.443 58.2496C139.128 58.2496 140.913 57.2197 142.486 54.8846C144.06 52.5496 145.084 49.1378 145.084 45.287Z" fill="#003859"/>
<path d="M184.212 54.1824C184.211 54.579 184.132 54.9716 183.978 55.3373C183.824 55.7029 183.599 56.0342 183.316 56.312C183.033 56.5898 182.697 56.8084 182.329 56.9552C181.96 57.102 181.566 57.174 181.17 57.167H180.631V61.2635C180.631 62.0551 180.317 62.8142 179.758 63.374C179.198 63.9337 178.439 64.2481 177.648 64.2481C176.856 64.2481 176.097 63.9337 175.538 63.374C174.978 62.8142 174.664 62.0551 174.664 61.2635V57.167H157.587C156.909 57.193 156.248 56.9585 155.738 56.5115C155.423 56.2762 155.159 55.9791 154.963 55.6383C154.767 55.2976 154.642 54.9204 154.597 54.5298C154.552 54.1392 154.586 53.7435 154.699 53.3668C154.812 52.9901 155 52.6403 155.252 52.3389L175.313 27.391C175.366 27.391 175.366 27.3325 175.419 27.2798C175.487 27.2192 175.543 27.1456 175.583 27.0633C175.687 27.0381 175.781 26.9808 175.852 26.8994C175.91 26.8467 176.015 26.7941 176.068 26.7356C176.164 26.6684 176.278 26.6317 176.396 26.6302C176.448 26.519 176.501 26.4664 176.612 26.4664C176.723 26.4664 176.776 26.4137 176.94 26.361C177.017 26.3686 177.094 26.3478 177.156 26.3025H178.075C178.158 26.3497 178.254 26.3702 178.35 26.361C178.402 26.4137 178.566 26.4137 178.672 26.4664C178.777 26.519 178.835 26.519 178.888 26.519C178.999 26.6302 179.104 26.6829 179.157 26.7356C179.21 26.7882 179.321 26.8467 179.432 26.8994C179.44 26.8994 179.447 26.9009 179.454 26.9039C179.461 26.9069 179.467 26.9113 179.472 26.9168C179.477 26.9224 179.48 26.9289 179.483 26.936C179.485 26.9431 179.486 26.9505 179.485 26.9579C179.537 26.9579 179.649 27.0106 179.649 27.0633L179.865 27.2798C179.918 27.3325 179.976 27.4437 180.029 27.4963C180.11 27.5802 180.183 27.6724 180.245 27.7714C180.259 27.8533 180.298 27.9289 180.356 27.9879C180.4 28.0922 180.436 28.1998 180.462 28.3098C180.462 28.3625 180.514 28.4737 180.514 28.5263C180.563 28.6282 180.582 28.742 180.567 28.854C180.567 28.9594 180.626 29.0179 180.626 29.1232V51.1977H181.164C181.963 51.1915 182.732 51.5019 183.303 52.0611C183.874 52.6204 184.201 53.383 184.212 54.1824ZM174.664 37.7962L163.876 51.1977H174.664V37.7962Z" fill="#003859"/>
<g opacity="0.5">
<path d="M138.476 88.4825C138.392 88.4825 138.312 88.4493 138.253 88.3903C138.195 88.3313 138.161 88.2513 138.161 88.1679V79.3146C138.161 79.2312 138.195 79.1512 138.253 79.0922C138.312 79.0332 138.392 79 138.476 79C138.559 79 138.639 79.0332 138.698 79.0922C138.757 79.1512 138.79 79.2312 138.79 79.3146V88.1679C138.79 88.2513 138.757 88.3313 138.698 88.3903C138.639 88.4493 138.559 88.4825 138.476 88.4825Z" fill="#003859"/>
<path d="M122.46 92.7231C122.404 92.7233 122.349 92.7088 122.301 92.6813C122.252 92.6537 122.212 92.6139 122.183 92.5658L117.78 84.8955C117.754 84.8599 117.736 84.8193 117.727 84.7762C117.718 84.7332 117.718 84.6887 117.727 84.6456C117.736 84.6025 117.754 84.5618 117.78 84.5262C117.805 84.4905 117.838 84.4606 117.876 84.4385C117.914 84.4164 117.957 84.4025 118 84.3977C118.044 84.393 118.088 84.3974 118.13 84.4109C118.172 84.4243 118.211 84.4464 118.244 84.4756C118.277 84.5049 118.303 84.5408 118.321 84.5809L122.724 92.2512C122.746 92.2866 122.76 92.3259 122.765 92.3667C122.771 92.4076 122.769 92.4492 122.758 92.4891C122.748 92.529 122.729 92.5664 122.704 92.599C122.679 92.6317 122.647 92.6589 122.611 92.6791C122.566 92.7072 122.514 92.7224 122.46 92.7231Z" fill="#003859"/>
<path d="M117.857 155.848C117.801 155.848 117.747 155.833 117.7 155.804C117.665 155.781 117.634 155.751 117.611 155.716C117.588 155.681 117.572 155.642 117.564 155.601C117.556 155.56 117.557 155.517 117.566 155.476C117.576 155.436 117.593 155.397 117.618 155.363L122.021 147.699C122.042 147.663 122.069 147.632 122.102 147.606C122.135 147.581 122.173 147.562 122.213 147.552C122.253 147.541 122.294 147.538 122.335 147.543C122.376 147.549 122.416 147.562 122.452 147.583C122.488 147.603 122.52 147.631 122.545 147.664C122.57 147.697 122.589 147.734 122.6 147.774C122.61 147.814 122.613 147.856 122.608 147.897C122.602 147.938 122.589 147.978 122.568 148.014L118.165 155.678C118.137 155.733 118.092 155.779 118.037 155.81C117.982 155.84 117.919 155.853 117.857 155.848Z" fill="#003859"/>
<path d="M138.275 161.372C138.191 161.372 138.111 161.339 138.052 161.28C137.993 161.221 137.96 161.141 137.96 161.058V152.217C137.96 152.134 137.993 152.054 138.052 151.995C138.111 151.936 138.191 151.902 138.275 151.902C138.358 151.904 138.437 151.938 138.495 151.996C138.554 152.055 138.588 152.134 138.589 152.217V161.07C138.586 161.152 138.551 161.228 138.493 161.285C138.434 161.341 138.356 161.372 138.275 161.372Z" fill="#003859"/>
<path d="M158.718 155.949C158.664 155.948 158.61 155.934 158.562 155.906C158.515 155.878 158.475 155.839 158.448 155.791L154.045 148.127C154.024 148.091 154.011 148.052 154.005 148.011C154 147.969 154.003 147.928 154.014 147.888C154.024 147.848 154.043 147.81 154.068 147.777C154.094 147.744 154.125 147.717 154.161 147.696C154.197 147.676 154.237 147.662 154.278 147.657C154.319 147.652 154.361 147.654 154.401 147.665C154.441 147.676 154.478 147.695 154.511 147.72C154.544 147.745 154.571 147.777 154.592 147.813L158.995 155.477C159.016 155.512 159.03 155.551 159.036 155.592C159.042 155.633 159.04 155.675 159.029 155.715C159.018 155.755 159 155.792 158.975 155.825C158.949 155.857 158.918 155.884 158.882 155.905C158.833 155.935 158.776 155.95 158.718 155.949Z" fill="#003859"/>
<path d="M154.465 92.8242C154.41 92.8246 154.355 92.8093 154.308 92.7801C154.272 92.7599 154.24 92.7327 154.215 92.7001C154.19 92.6674 154.171 92.6301 154.161 92.5902C154.15 92.5503 154.148 92.5086 154.153 92.4678C154.159 92.4269 154.173 92.3876 154.195 92.3523L158.598 84.6819C158.644 84.6189 158.711 84.5752 158.787 84.5591C158.863 84.5431 158.943 84.5559 159.01 84.595C159.078 84.6341 159.128 84.6969 159.152 84.7711C159.175 84.8452 159.171 84.9256 159.139 84.9966L154.736 92.6669C154.707 92.7136 154.668 92.7525 154.62 92.78C154.573 92.8075 154.52 92.8226 154.465 92.8242Z" fill="#003859"/>
</g>
</g>
<defs>
<clipPath id="clip0_10729_113638">
<rect width="274" height="262" fill="white"/>
</clipPath>
</defs>
</svg>
