<svg width="362" height="141" viewBox="0 0 362 141" fill="none" xmlns="http://www.w3.org/2000/svg">
<mask id="mask0_8105_103261" style="mask-type:luminance" maskUnits="userSpaceOnUse" x="71" y="0" width="291" height="141">
<path d="M361.372 0.432617H71.7695V140.113H361.372V0.432617Z" fill="white"/>
</mask>
<g mask="url(#mask0_8105_103261)">
<path d="M349.47 94.7217V120.669C349.47 120.669 348.927 123.902 307.416 125.733C265.904 127.565 244.645 126.084 244.645 126.084L208.138 124.098C208.138 124.098 188.081 123.435 186.723 120.708C185.365 117.982 187.189 95.8488 187.189 95.8488L229.709 95.6927H311.412L349.47 94.7217Z" fill="#FFD600"/>
<path d="M291.704 95.6206C289.57 96.2828 287.708 97.257 289.105 99.1267C290.501 100.996 296.475 100.763 298.61 101.153C306.02 102.634 313.431 105.361 318.512 111.244C321.499 114.711 323.559 119.152 327.435 121.529C329.721 122.791 332.245 123.561 334.845 123.788C349.238 122.191 349.51 120.633 349.51 120.633V94.6858L311.451 95.582H291.704V95.6206Z" fill="white"/>
<path d="M343.26 91.4523C339.109 90.7902 333.212 90.2061 325.725 89.6993C310.322 88.6478 289.878 88.1023 268.113 88.1023C246.349 88.1023 225.904 88.6864 210.502 89.6993C202.975 90.2061 197.078 90.7902 192.966 91.4523C187.535 92.3099 185.596 93.1667 185.596 94.7251V120.672C185.596 122.231 187.536 123.086 192.966 123.945C197.118 124.607 203.015 125.191 210.502 125.698C225.904 126.751 246.349 127.295 268.113 127.295C289.878 127.295 310.322 126.711 325.725 125.698C333.251 125.191 339.148 124.607 343.26 123.945C348.692 123.088 350.63 122.231 350.63 120.672V94.7227C350.631 93.1667 348.692 92.3091 343.26 91.4523ZM224.39 100.53V124.14C220.785 123.984 217.446 123.789 214.343 123.633V100.061C217.524 100.218 220.899 100.374 224.39 100.53ZM226.718 100.611C229.977 100.728 233.313 100.844 236.766 100.961V124.57C233.236 124.453 229.9 124.336 226.718 124.22V100.611ZM239.136 101.039C242.395 101.119 245.77 101.195 249.184 101.234V124.844C245.692 124.804 242.356 124.726 239.136 124.648V101.039ZM251.512 101.273C254.81 101.312 258.185 101.354 261.56 101.354V124.963C258.107 124.963 254.732 124.924 251.512 124.882V101.273ZM286.35 101.234V124.844L276.303 124.96V101.349C279.713 101.309 283.05 101.309 286.347 101.231L286.35 101.234ZM288.678 101.195C292.092 101.115 295.467 101.078 298.726 100.961V124.57C295.506 124.651 292.17 124.726 288.678 124.804V101.195ZM301.096 100.922C304.549 100.806 307.924 100.688 311.144 100.572V123.908C311.137 123.988 311.151 124.069 311.183 124.142C308.002 124.259 304.626 124.415 301.096 124.493V100.922ZM313.472 123.908V100.452C317.002 100.296 320.377 100.102 323.519 99.907V123.479C320.416 123.674 317.08 123.869 313.432 124.025C313.446 124.009 313.457 123.99 313.462 123.969C313.468 123.948 313.469 123.927 313.465 123.906L313.472 123.908ZM325.847 99.7533C329.613 99.4806 332.985 99.2079 335.895 98.9351V122.507C333.025 122.78 329.646 123.092 325.847 123.326V99.7533ZM187.893 96.9094C188.476 97.104 189.213 97.2987 190.066 97.4934V121.066C189.308 120.933 188.575 120.683 187.893 120.326V96.9094ZM192.394 121.493V97.9206C192.572 97.9667 192.754 97.9937 192.937 98.0011C194.799 98.3124 197.049 98.5852 199.649 98.8579V122.43C196.691 122.114 194.246 121.802 192.386 121.491L192.394 121.493ZM201.976 122.662V99.0896C204.54 99.3229 207.369 99.557 210.468 99.7517C210.973 99.7911 211.478 99.8322 212.021 99.8684V123.441C208.248 123.203 204.876 122.932 201.967 122.66L201.976 122.662ZM263.933 124.96V101.349H273.981V124.958H263.927L263.933 124.96ZM338.265 122.273V98.7002C340.166 98.5055 341.834 98.2714 343.27 98.0373C343.735 97.9568 344.2 97.882 344.627 97.804V121.376C342.988 121.647 340.855 121.958 338.255 122.27L338.265 122.273Z" fill="#16274D"/>
<path d="M360.178 64.4531V90.4004C360.178 90.4004 359.635 93.6338 318.123 95.4689C276.612 97.304 255.353 95.8197 255.353 95.8197L218.846 93.8325C218.846 93.8325 198.788 93.1704 197.43 90.4431C196.073 87.7158 197.896 65.5835 197.896 65.5835L240.416 65.4274H322.158L360.178 64.4531Z" fill="#FFD600"/>
<path d="M360.182 90.4004V64.4531L322.123 65.3494H302.842C302.402 65.6708 302.104 66.151 302.01 66.6889C301.916 67.2267 302.034 67.7802 302.338 68.2328C304.006 70.8072 309.204 70.4138 311.726 71.0373C315.07 71.7584 318.115 73.4841 320.459 75.9851C323.562 79.492 324.649 84.4003 327.441 88.18C329.549 90.9237 332.329 93.0715 335.511 94.4134C359.794 92.6603 360.182 90.4004 360.182 90.4004Z" fill="white"/>
<path d="M353.969 61.1796C349.817 60.5175 343.92 59.9334 336.433 59.4266C321.031 58.3751 300.586 57.8296 278.822 57.8296C257.057 57.8296 236.613 58.4137 221.211 59.4266C213.68 59.9334 207.787 60.5175 203.675 61.1796C198.243 62.0372 196.305 62.894 196.305 64.4524V90.3997C196.305 91.958 198.244 92.8133 203.675 93.6725C207.826 94.3346 213.723 94.9187 221.211 95.4255C236.613 96.477 257.057 97.0225 278.822 97.0225C300.586 97.0225 321.031 96.4384 336.433 95.4255C343.96 94.9187 349.857 94.3346 353.969 93.6725C359.4 92.8149 361.339 91.958 361.339 90.3997V64.4524C361.34 62.894 359.4 62.0372 353.969 61.1796ZM235.138 70.2578V93.8302C231.533 93.6749 228.194 93.4802 225.09 93.3241V69.7517C228.233 69.9424 231.608 70.1033 235.138 70.2578ZM237.466 70.3744C240.725 70.4911 244.061 70.6077 247.514 70.7252V94.3346C243.984 94.2179 240.647 94.1005 237.466 93.9838V70.3744ZM249.842 70.7638C253.101 70.8443 256.476 70.9199 259.889 70.9585V94.5687C256.398 94.5293 253.061 94.4512 249.842 94.3732V70.7638ZM262.217 70.9979C265.515 71.0366 268.89 71.0784 272.265 71.0784V94.6878C268.812 94.6878 265.437 94.6484 262.217 94.6073V70.9979ZM297.056 70.9979V94.6073C293.797 94.6459 290.46 94.6878 287.007 94.724V71.1146C290.422 71.076 293.758 71.0366 297.056 70.9979ZM299.379 70.9585C302.794 70.8781 306.169 70.8419 309.428 70.7252V94.3346C306.207 94.415 302.871 94.4907 299.379 94.5687V70.9585ZM311.797 70.6472C315.249 70.5305 318.625 70.4131 321.844 70.2964V93.6331C321.838 93.7131 321.852 93.7934 321.883 93.8672C318.702 93.9838 315.327 94.1399 311.797 94.2179V70.6456V70.6472ZM324.173 93.6331V70.1838C327.703 70.0277 331.078 69.833 334.221 69.6383V93.2107C331.118 93.4054 327.781 93.6001 324.134 93.7561C324.173 93.7505 324.173 93.6757 324.173 93.6331ZM336.548 69.5176C340.314 69.2449 343.687 68.9722 346.597 68.6994V92.2718C343.726 92.5445 340.348 92.8567 336.548 93.09V69.5176ZM198.594 66.6342C199.176 66.8289 199.914 67.0236 200.767 67.2183V90.7907C200.009 90.6577 199.276 90.4081 198.594 90.0505V66.6342ZM203.094 91.2179V67.6455C203.272 67.6911 203.454 67.7181 203.637 67.726C205.5 68.0373 207.75 68.31 210.349 68.5828V92.1552C207.399 91.88 204.994 91.5687 203.093 91.2179H203.094ZM212.677 92.4247V68.8523C215.241 69.0864 218.07 69.3197 221.169 69.5144C221.674 69.5538 222.178 69.5949 222.721 69.6319V93.2042C218.961 92.9323 215.585 92.6982 212.676 92.4255L212.677 92.4247ZM274.633 94.7232V71.1146H284.677V94.7216H274.632L274.633 94.7232ZM348.966 91.9959V68.4235C350.867 68.228 352.535 67.9947 353.97 67.7606C354.436 67.6801 354.901 67.6053 355.328 67.5273V91.0996C353.697 91.4126 351.563 91.6853 348.964 91.9967L348.966 91.9959Z" fill="#16274D"/>
<path d="M342.446 38.897V64.8435C342.446 64.8435 341.903 68.0776 300.392 69.9119C258.881 71.7463 237.621 70.2627 237.621 70.2627L201.115 68.2756C201.115 68.2756 181.057 67.6134 179.7 64.8861C178.342 62.1588 180.165 40.0265 180.165 40.0265L222.685 39.8704H304.385L342.446 38.897Z" fill="#FFD600"/>
<path d="M218.759 132.359C192.61 141.749 138.258 141.437 110.869 137.58C106.097 136.918 100.898 135.787 98.0268 131.93C96.165 129.476 95.6234 126.281 95.3895 123.204C93.9146 102.633 105.437 83.541 117.968 67.1795C126.852 55.5301 136.555 44.3883 148.035 35.3102C153.039 31.3753 158.51 27.7525 164.717 26.3108C172.864 24.4403 181.321 26.5055 189.429 28.5313C192.3 29.2714 195.288 30.0116 197.654 31.8427C203.318 36.2064 205.685 39.4051 212.746 41.7383C217.013 43.1405 219.496 41.5822 221.552 45.7118C225.665 54.2051 229.932 61.6855 230.124 97.2162V125.736C230.126 125.856 226.908 129.437 218.759 132.359Z" fill="#16274D"/>
<path d="M241.377 39.7918C245.142 46.9608 257.089 53.7003 268.535 54.3632C288.825 55.5322 310.434 52.0647 328.513 61.3754C331.501 62.9345 334.372 64.8043 337.63 65.7391C338.173 65.8952 338.756 66.0118 339.299 66.1285C342.325 65.3497 342.441 64.8043 342.441 64.8043V38.8569L304.378 39.7532H241.377V39.7918Z" fill="white"/>
<path d="M261.053 44.3888C306.005 44.3888 342.446 41.9294 342.446 38.8956C342.446 35.8618 306.005 33.4023 261.053 33.4023C216.101 33.4023 179.66 35.8618 179.66 38.8956C179.66 41.9294 216.101 44.3888 261.053 44.3888Z" fill="white"/>
<path d="M187.418 36.5565C200.454 38.4262 228.503 39.7118 261.052 39.7118C293.601 39.7118 321.651 38.4246 334.686 36.5565C321.651 34.686 293.602 33.4004 261.052 33.4004C228.502 33.4004 200.453 34.6892 187.418 36.5565Z" fill="#FFD600"/>
<path d="M226.208 100.217C215.329 99.8171 204.478 98.8549 193.698 97.3345C193.394 97.288 193.122 97.1223 192.94 96.8739C192.758 96.6255 192.682 96.3147 192.728 96.0099C192.774 95.7051 192.939 95.4312 193.187 95.2486C193.434 95.066 193.744 94.9895 194.047 95.036C204.726 96.5308 215.473 97.4801 226.248 97.88C226.401 97.8826 226.552 97.9162 226.693 97.9788C226.833 98.0414 226.959 98.1317 227.064 98.2443C227.168 98.3569 227.249 98.4895 227.302 98.6343C227.354 98.779 227.377 98.9329 227.369 99.0868C227.361 99.39 227.235 99.6778 227.018 99.889C226.801 100.1 226.51 100.218 226.208 100.217Z" fill="#FFD600"/>
<path d="M224.657 126.71C223.648 126.71 200.526 126.398 186.094 122.502C185.798 122.418 185.546 122.219 185.395 121.95C185.243 121.68 185.204 121.361 185.286 121.062C185.368 120.764 185.565 120.51 185.832 120.356C186.1 120.203 186.417 120.162 186.715 120.242C200.875 124.061 224.463 124.373 224.696 124.373C225.004 124.374 225.3 124.497 225.518 124.716C225.736 124.935 225.859 125.231 225.86 125.541C225.844 125.852 225.711 126.146 225.488 126.363C225.264 126.58 224.967 126.704 224.657 126.71Z" fill="#FFD600"/>
<path d="M213.256 125.695C212.947 125.695 212.652 125.571 212.434 125.352C212.216 125.133 212.093 124.836 212.092 124.526L212.209 104.93C212.216 104.622 212.341 104.329 212.558 104.112C212.774 103.894 213.066 103.769 213.372 103.761C213.68 103.762 213.976 103.885 214.194 104.104C214.412 104.323 214.535 104.62 214.536 104.93L214.42 124.526C214.419 124.836 214.296 125.133 214.078 125.352C213.86 125.571 213.564 125.695 213.256 125.695Z" fill="#FFD600"/>
<path d="M200.836 124.918C200.527 124.917 200.232 124.794 200.014 124.575C199.796 124.356 199.673 124.059 199.672 123.749L199.788 104.152C199.788 103.842 199.911 103.545 200.129 103.326C200.347 103.106 200.643 102.983 200.952 102.983C201.261 102.983 201.557 103.106 201.775 103.326C201.993 103.545 202.116 103.842 202.116 104.152L202 123.749C201.999 124.059 201.876 124.356 201.658 124.575C201.44 124.794 201.144 124.917 200.836 124.918Z" fill="#FFD600"/>
<path d="M225.436 119.308C225.127 119.307 224.831 119.183 224.613 118.964C224.395 118.745 224.272 118.448 224.271 118.139L224.388 106.723C224.388 106.413 224.51 106.116 224.729 105.897C224.947 105.678 225.243 105.554 225.552 105.554C225.86 105.554 226.156 105.678 226.375 105.897C226.593 106.116 226.716 106.413 226.716 106.723L226.6 118.139C226.599 118.448 226.476 118.745 226.258 118.964C226.04 119.183 225.744 119.307 225.436 119.308Z" fill="#FFD600"/>
<path d="M336.236 35.5834C332.085 34.9213 326.189 34.3372 318.701 33.8304C303.299 32.7789 282.854 32.2334 261.09 32.2334C239.326 32.2334 218.88 32.8175 203.479 33.8304C195.948 34.3372 190.055 34.9213 185.943 35.5834C180.512 36.441 178.572 37.2978 178.572 38.8562V64.8035C178.572 66.3619 180.513 67.2171 185.943 68.0763C190.094 68.7384 195.991 69.3225 203.479 69.8293C218.88 70.8808 239.326 71.4263 261.09 71.4263C282.854 71.4263 303.299 70.8422 318.701 69.8293C326.227 69.3225 332.124 68.7384 336.236 68.0763C341.668 67.2187 343.607 66.3619 343.607 64.8035V38.8562C343.608 37.3373 341.668 36.441 336.236 35.5834ZM261.051 34.5705C306.519 34.5705 334.84 36.9471 340.504 38.8956C334.84 40.8433 306.519 43.2199 261.051 43.2199C215.582 43.2199 187.262 40.8433 181.597 38.8956C187.262 36.9471 215.583 34.5705 261.051 34.5705ZM279.324 45.405V69.0111C276.065 69.0498 272.728 69.0916 269.275 69.1278V45.5184L279.324 45.405ZM281.651 45.3655C285.065 45.2851 288.44 45.2489 291.699 45.1322V68.736C288.479 68.8164 285.143 68.8921 281.651 68.9701V45.3655ZM294.027 45.0542C297.48 44.9375 300.855 44.8201 304.075 44.7034V68.0369C304.069 68.1169 304.082 68.1972 304.114 68.271C300.932 68.3876 297.557 68.5437 294.027 68.6218V45.0542ZM306.444 68.0401V44.5836C309.975 44.4275 313.35 44.2328 316.492 44.0381V67.6097C313.388 67.8044 310.052 67.9991 306.405 68.1551C306.431 68.1217 306.445 68.0795 306.442 68.0369L306.444 68.0401ZM318.82 43.9247C322.585 43.6519 325.958 43.3792 328.868 43.1065V66.6788C325.997 66.9516 322.619 67.2637 318.82 67.497V43.9247ZM217.369 44.7034V68.3096C213.764 68.1543 210.425 67.9588 207.322 67.8036V44.2312C210.5 44.3494 213.876 44.5441 217.367 44.7002L217.369 44.7034ZM219.697 44.7839C222.956 44.9005 226.292 45.0172 229.745 45.1347V68.736C226.215 68.6193 222.879 68.5019 219.697 68.3852V44.7839ZM232.115 45.1733C235.374 45.2537 238.749 45.3293 242.163 45.368V68.9725C238.671 68.9331 235.335 68.8551 232.115 68.777V45.1733ZM244.491 45.446C247.788 45.4854 251.163 45.5265 254.539 45.5265V69.1278C251.086 69.1278 247.711 69.0892 244.491 69.0473V45.446ZM180.866 41.0437C181.448 41.2384 182.185 41.4331 183.039 41.6278V65.1961C182.281 65.063 181.548 64.8134 180.866 64.456V41.0437ZM185.367 65.6619V42.0904C185.544 42.136 185.726 42.163 185.91 42.1708C187.772 42.483 190.022 42.7557 192.621 43.0284V66.6008C189.667 66.2838 187.223 65.9725 185.361 65.6603L185.367 65.6619ZM194.949 66.8309V43.2585C197.513 43.4926 200.341 43.7259 203.441 43.9214C203.946 43.9601 204.449 44.0019 204.993 44.0381V67.6097C201.228 67.3747 197.853 67.102 194.943 66.8293L194.949 66.8309ZM256.866 69.1294V45.5184H266.914V69.1278H256.861L256.866 69.1294ZM331.193 66.4029V42.8305C333.094 42.6358 334.762 42.4017 336.198 42.1676C336.663 42.0871 337.129 42.0123 337.56 41.9343V65.5067C335.926 65.8164 333.831 66.1277 331.193 66.4029Z" fill="#16274D"/>
<path d="M211.469 93.5963C211.313 93.5947 211.16 93.5622 211.017 93.5005C210.874 93.4388 210.744 93.3493 210.636 93.237C210.528 93.1248 210.443 92.9921 210.386 92.8466C210.329 92.7011 210.302 92.5457 210.305 92.3895L210.421 87.9864C210.436 87.6793 210.57 87.3904 210.796 87.1822C211.021 86.974 211.319 86.8632 211.625 86.8737C211.931 86.8843 212.22 87.0154 212.431 87.2387C212.641 87.462 212.755 87.7595 212.749 88.0668L212.632 92.4699C212.623 92.7729 212.496 93.0601 212.278 93.2704C212.061 93.4808 211.771 93.5977 211.469 93.5963Z" fill="#FFD600"/>
<path d="M215.816 34.1424C213.761 31.2204 212.868 26.9734 210.268 24.5582C209.872 20.4729 208.444 16.5568 206.118 13.1815C192.888 -5.71259 153.317 -0.648152 117.78 24.481C82.2428 49.6101 64.1253 85.2969 77.3944 104.193C77.8647 104.868 78.3696 105.518 78.9069 106.14C80.5418 112.898 83.3099 119.328 87.0928 125.153C100.323 144.048 139.894 138.983 175.431 113.855C210.968 88.7266 229.046 53.0381 215.816 34.1424Z" fill="#FFD600"/>
<path d="M190.88 70.2582L165.896 3.052C152.437 5.54601 137.342 11.6603 122.715 21.1689L152.276 101.387C156.905 98.8035 161.397 95.9817 165.735 92.9327C174.979 86.3984 183.419 78.7872 190.88 70.2582Z" fill="white"/>
<path d="M107.856 115.53C114.488 115.115 121.05 113.925 127.409 111.984L101.648 37.6877C95.6637 43.3251 90.257 49.551 85.5098 56.2721L107.856 115.53Z" fill="white"/>
<path d="M105.748 103.491C109.056 103.471 112.354 103.145 115.602 102.516C129.103 100.063 144.427 93.1277 158.783 82.9594C173.138 72.8297 184.815 60.6742 191.681 48.7521C198.703 36.558 199.867 26.0003 194.94 18.9849C190.013 11.9695 179.732 9.51734 165.921 12.05C152.42 14.5046 137.096 21.4395 122.74 31.6078C108.386 41.7375 96.7084 53.8929 89.842 65.8143C82.8193 78.0084 81.656 88.5669 86.583 95.5815C90.2305 100.763 96.8646 103.491 105.748 103.491ZM189.626 47.5839C182.953 59.2325 171.509 71.1153 157.426 81.0519C143.343 90.9885 128.367 97.8019 115.176 100.217C104.04 102.243 95.429 100.919 90.5013 96.4769C84.7596 82.0229 100.549 56.4658 127.939 37.1035C152.341 19.8441 178.257 12.9486 191.835 18.9479C192.262 19.4156 192.65 19.8833 192.999 20.351C197.348 26.5442 196.142 36.2064 189.625 47.5831L189.626 47.5839Z" fill="#16274D"/>
<path d="M221.674 45.753C221.665 45.6699 221.638 45.5899 221.594 45.5188L210.579 18.8314C210.484 18.6382 210.352 18.4661 210.19 18.3253C209.456 16.2214 208.438 14.2288 207.164 12.4033C200.453 2.85767 187.338 -1.19388 170.154 1.02659C153.277 3.20844 134.383 11.1563 117.042 23.4284C99.6618 35.7013 85.8512 50.856 78.1307 66.0896C70.8405 80.4655 69.7894 93.3225 74.9495 102.751L87.9069 128.817C87.9877 128.975 88.0926 129.12 88.2177 129.246C94.4665 134.505 103.464 137.038 114.014 137.038C116.417 137.038 118.941 136.882 121.501 136.648C121.581 136.648 121.657 136.687 121.773 136.687C121.948 136.685 122.12 136.646 122.278 136.57H122.316C138.145 134.778 156.456 128.077 173.914 116.896C189.471 106.961 202.778 94.3764 211.429 81.4808C220.045 68.5441 223.692 55.8818 221.674 45.753ZM219.543 54.0137L215.816 45.0514L211.238 34.1422C211.553 32.2882 211.722 30.4121 211.743 28.5314L219.152 46.4513C219.618 48.9433 219.75 51.4867 219.543 54.0137ZM214.966 69.9874L210.66 59.5456L206.389 49.181C208.006 45.7727 209.317 42.2262 210.307 38.5839L213.449 46.0659L218.648 58.6888C218.676 58.7914 218.729 58.8852 218.803 58.9615C217.94 62.7698 216.652 66.468 214.962 69.9858L214.966 69.9874ZM80.4196 67.2971C87.9501 52.4136 101.489 37.6104 118.516 25.5716C139.35 10.8449 161.622 3.05236 178.883 3.05236C190.521 3.05236 199.91 6.59787 205.069 13.9616C211.122 22.57 210.307 34.8831 204.1 48.0901C203.967 48.2063 203.859 48.3499 203.786 48.5111C203.712 48.6724 203.674 48.8475 203.673 49.0249C196.612 63.5569 183.073 79.0632 164.994 91.8422C130.077 116.542 91.2828 121.724 78.4408 103.452C78.0135 102.829 77.6255 102.205 77.2767 101.582L77.0444 101.114C77.0065 101.028 76.9539 100.949 76.889 100.881C72.5052 92.3088 73.7077 80.5049 80.4196 67.2971ZM201.81 89.6627L193.47 69.1676C195.138 67.1805 196.69 65.1153 198.164 63.0895L206.66 83.6602C205.147 85.686 203.521 87.6732 201.81 89.6603V89.6627ZM184.935 105.753L176.788 85.9225C178.96 84.052 181.094 82.1823 183.111 80.2346L191.219 100.377C189.241 102.206 187.146 103.997 184.935 105.751V105.753ZM176.555 111.986L168.602 92.5847C168.602 92.5453 168.563 92.5043 168.522 92.4681C170.655 90.9089 172.712 89.312 174.729 87.6756L182.837 107.386V107.425C180.822 108.986 178.727 110.506 176.555 111.984V111.986ZM159.679 121.996L151.919 103.06C153.976 101.934 156.032 100.762 158.088 99.5157L166.042 118.645C163.907 119.776 161.774 120.906 159.679 121.996ZM150.486 126.205L142.688 107.66C145.016 106.607 147.305 105.478 149.594 104.309L157.353 123.165C155.062 124.218 152.773 125.269 150.486 126.205ZM141.292 129.594L133.61 111.322C135.821 110.542 138.071 109.646 140.321 108.673L148.08 127.177C145.828 128.074 143.54 128.893 141.29 129.594H141.292ZM132.213 132.169L124.683 114.13C126.817 113.584 128.989 112.923 131.161 112.182L138.804 130.416C136.595 131.035 134.383 131.659 132.212 132.165L132.213 132.169ZM104.822 133.646L97.2568 116.464C99.006 116.709 100.768 116.852 102.533 116.893L109.789 134.23C108.124 134.119 106.467 133.924 104.822 133.646ZM96.5198 131.232L88.9548 114.361C90.6728 115 92.4365 115.509 94.231 115.881L101.718 132.945C99.9375 132.532 98.1975 131.959 96.5198 131.231V131.232ZM81.6613 110.464C82.8442 111.334 84.0891 112.115 85.3857 112.802L92.8362 129.321C91.8853 128.739 90.9779 128.088 90.1212 127.373L81.6613 110.464ZM112.659 134.385L105.368 116.931C107.657 116.892 109.985 116.736 112.429 116.464L119.839 134.152C117.353 134.347 114.947 134.425 112.659 134.385ZM122.552 133.84L115.141 116.074C117.469 115.723 119.797 115.256 122.164 114.707L129.69 132.667C127.982 133.017 126.276 133.33 124.569 133.563C123.87 133.684 123.211 133.762 122.552 133.84ZM172.481 114.674C171.085 115.571 169.649 116.428 168.253 117.285L160.299 98.078C162.356 96.753 164.412 95.3893 166.429 93.987L174.421 113.428C173.761 113.854 173.102 114.283 172.481 114.674ZM193.31 98.5036L185.168 78.2836C187.417 76.0246 189.59 73.726 191.607 71.4267L199.91 91.8422C197.854 94.1013 195.642 96.3225 193.314 98.5036H193.31ZM208.44 81.2065L199.91 60.5963C201.707 57.918 203.365 55.1481 204.877 52.2977L208.291 60.5569L213.451 73.0631C211.975 75.7518 210.307 78.4791 208.444 81.2065H208.44Z" fill="#16274D"/>
</g>
<path d="M0.488281 73.8227C10.2288 72.8494 17.9522 65.084 18.9635 55.3474C19.7624 65.077 27.4074 72.8418 37.1234 73.7918L37.4388 73.8227C27.6206 74.4731 19.7649 82.2255 18.9845 92.0342L18.9635 92.2979L18.8972 91.6392C17.9277 82.0053 10.1487 74.4766 0.488281 73.8227Z" fill="#FFD600"/>
<path d="M32.4727 46.7727C38.3726 46.1832 43.0508 41.4796 43.6633 35.582C44.1473 41.4754 48.7779 46.1786 54.663 46.754L54.854 46.7727C48.9071 47.1667 44.1487 51.8624 43.6761 57.8037L43.6633 57.9634L43.6232 57.5644C43.0359 51.729 38.3241 47.1688 32.4727 46.7727Z" fill="#FFD600"/>
<path d="M6.27734 34.7379C9.22973 34.4429 11.5707 32.0892 11.8773 29.1379C12.1194 32.087 14.4366 34.4405 17.3816 34.7285L17.4772 34.7379C14.5013 34.935 12.1202 37.2848 11.8836 40.2578L11.8773 40.3378L11.8572 40.1381C11.5633 37.218 9.20547 34.9361 6.27734 34.7379Z" fill="#FFD600"/>
</svg>
