<svg width="285" height="77" viewBox="0 0 285 77" fill="none" xmlns="http://www.w3.org/2000/svg">
<g clip-path="url(#clip0_7551_69155)">
<mask id="mask0_7551_69155" style="mask-type:luminance" maskUnits="userSpaceOnUse" x="57" y="-1" width="226" height="110">
<path d="M282.549 -0.192383H57.8457V108.186H282.549V-0.192383Z" fill="white"/>
</mask>
<g mask="url(#mask0_7551_69155)">
<path d="M273.312 72.9668V93.0994C273.312 93.0994 272.89 95.6081 240.682 97.0289C208.473 98.4496 191.978 97.301 191.978 97.301L163.652 95.7598C163.652 95.7598 148.09 95.2455 147.037 93.1299C145.983 91.0144 147.398 73.8413 147.398 73.8413L180.389 73.7202H243.782L273.312 72.9668Z" fill="#FFD600"/>
<path d="M228.49 73.6638C226.834 74.1776 225.389 74.9335 226.473 76.3842C227.556 77.8349 232.192 77.6539 233.848 77.9566C239.597 79.1052 245.348 81.2213 249.29 85.7857C251.608 88.4761 253.206 91.9218 256.213 93.7658C257.987 94.7457 259.946 95.3429 261.963 95.5193C273.131 94.2802 273.341 93.071 273.341 93.071V72.9385L243.812 73.6339H228.49V73.6638Z" fill="white"/>
<path d="M268.494 70.4298C265.274 69.9161 260.698 69.4629 254.889 69.0697C242.938 68.2538 227.075 67.8306 210.188 67.8306C193.301 67.8306 177.437 68.2838 165.487 69.0697C159.647 69.4629 155.071 69.9161 151.881 70.4298C147.667 71.0953 146.162 71.7601 146.162 72.9692V93.1018C146.162 94.3109 147.668 94.9744 151.881 95.6411C155.102 96.1549 159.677 96.608 165.487 97.0013C177.437 97.8178 193.301 98.2404 210.188 98.2404C227.075 98.2404 242.938 97.7872 254.889 97.0013C260.728 96.608 265.303 96.1549 268.494 95.6411C272.708 94.9763 274.213 94.3109 274.213 93.1018V72.9673C274.213 71.7601 272.708 71.0946 268.494 70.4298ZM176.263 77.4736V95.7922C173.466 95.6711 170.875 95.52 168.467 95.3989V77.1091C170.935 77.2314 173.554 77.3525 176.263 77.4736ZM178.069 77.536C180.598 77.6266 183.186 77.7171 185.865 77.8076V96.1261C183.127 96.035 180.538 95.9445 178.069 95.854V77.536ZM187.704 77.8681C190.233 77.9306 192.851 77.9892 195.501 78.0192V96.3384C192.791 96.3078 190.203 96.2472 187.704 96.1867V77.8681ZM197.306 78.0498C199.865 78.0797 202.484 78.1122 205.103 78.1122V96.4308C202.424 96.4308 199.805 96.4008 197.306 96.3683V78.0498ZM224.338 78.0192V96.3384L216.542 96.4289V78.1085C219.188 78.0779 221.777 78.0779 224.335 78.0173L224.338 78.0192ZM226.144 77.9892C228.793 77.9268 231.411 77.8987 233.94 77.8076V96.1261C231.442 96.1886 228.853 96.2466 226.144 96.3072V77.9892ZM235.779 77.7776C238.458 77.6871 241.077 77.596 243.575 77.5055V95.6124C243.57 95.6745 243.581 95.7369 243.605 95.7941C241.137 95.8846 238.518 96.0057 235.779 96.0662V77.7776ZM245.381 95.6124V77.4131C248.121 77.292 250.739 77.1409 253.177 76.9898V95.2797C250.769 95.4308 248.181 95.5818 245.351 95.7029C245.362 95.6904 245.37 95.6756 245.374 95.6596C245.378 95.6436 245.379 95.6269 245.376 95.6105L245.381 95.6124ZM254.984 76.8706C257.905 76.659 260.522 76.4474 262.78 76.2358V94.5256C260.553 94.7372 257.931 94.9794 254.984 95.1605V76.8706ZM147.945 74.664C148.397 74.815 148.969 74.9661 149.631 75.1172V93.407C149.043 93.3037 148.474 93.11 147.945 92.8327V74.664ZM151.437 93.7385V75.4486C151.575 75.4844 151.716 75.5053 151.858 75.5111C153.303 75.7526 155.049 75.9642 157.066 76.1759V94.4657C154.771 94.2204 152.874 93.9782 151.431 93.7366L151.437 93.7385ZM158.872 94.6455V76.3556C160.861 76.5367 163.056 76.7183 165.461 76.8694C165.852 76.9 166.244 76.9318 166.665 76.9599V95.2497C163.738 95.065 161.122 94.8552 158.864 94.6436L158.872 94.6455ZM206.944 96.4289V78.1085H214.74V96.427H206.939L206.944 96.4289ZM264.618 94.3433V76.0535C266.093 75.9024 267.388 75.7208 268.501 75.5391C268.863 75.4767 269.224 75.4187 269.555 75.3581V93.648C268.283 93.8577 266.628 94.0993 264.611 94.3415L264.618 94.3433Z" fill="#16274D"/>
<path d="M281.621 49.4812V69.6138C281.621 69.6138 281.2 72.1225 248.991 73.5464C216.782 74.9702 200.287 73.8186 200.287 73.8186L171.962 72.2767C171.962 72.2767 156.399 71.763 155.345 69.6468C154.292 67.5307 155.706 50.3582 155.706 50.3582L188.697 50.2371H252.121L281.621 49.4812Z" fill="#FFD600"/>
<path d="M281.623 69.6135V49.481L252.093 50.1763H237.133C236.792 50.4258 236.56 50.7984 236.487 51.2157C236.414 51.633 236.506 52.0624 236.742 52.4136C238.036 54.4111 242.069 54.1059 244.026 54.5896C246.62 55.1491 248.983 56.4881 250.802 58.4286C253.21 61.1496 254.053 64.958 256.219 67.8907C257.855 70.0195 260.012 71.686 262.481 72.7272C281.322 71.367 281.623 69.6135 281.623 69.6135Z" fill="white"/>
<path d="M276.805 46.9411C273.583 46.4273 269.008 45.9742 263.198 45.5809C251.248 44.765 235.385 44.3418 218.498 44.3418C201.611 44.3418 185.748 44.795 173.797 45.5809C167.954 45.9742 163.382 46.4273 160.191 46.9411C155.977 47.6065 154.473 48.2713 154.473 49.4804V69.613C154.473 70.8221 155.978 71.4857 160.191 72.1523C163.412 72.6661 167.987 73.1193 173.797 73.5125C185.748 74.3284 201.611 74.7516 218.498 74.7516C235.385 74.7516 251.248 74.2984 263.198 73.5125C269.038 73.1193 273.614 72.6661 276.805 72.1523C281.018 71.4869 282.523 70.8221 282.523 69.613V49.4804C282.524 48.2713 281.018 47.6065 276.805 46.9411ZM184.603 53.9849V72.2747C181.806 72.1542 179.215 72.0032 176.807 71.8821V53.5922C179.246 53.7402 181.865 53.865 184.603 53.9849ZM186.41 54.0754C188.938 54.1659 191.527 54.2564 194.206 54.3475V72.6661C191.467 72.5756 188.878 72.4844 186.41 72.3939V54.0754ZM196.012 54.3775C198.541 54.4399 201.159 54.4986 203.808 54.5286V72.8477C201.099 72.8171 198.51 72.7566 196.012 72.696V54.3775ZM205.614 54.5591C208.173 54.5891 210.792 54.6216 213.41 54.6216V72.9401C210.731 72.9401 208.113 72.9095 205.614 72.8777V54.5591ZM232.646 54.5591V72.8777C230.117 72.9077 227.528 72.9401 224.849 72.9682V54.6497C227.498 54.6197 230.087 54.5891 232.646 54.5591ZM234.448 54.5286C237.098 54.4661 239.716 54.438 242.245 54.3475V72.6661C239.746 72.7285 237.158 72.7872 234.448 72.8477V54.5286ZM244.083 54.287C246.762 54.1965 249.381 54.1053 251.879 54.0148V72.1218C251.874 72.1838 251.885 72.2461 251.909 72.3034C249.441 72.3939 246.822 72.515 244.083 72.5756V54.2857V54.287ZM253.686 72.1218V53.9274C256.425 53.8063 259.044 53.6553 261.482 53.5042V71.794C259.074 71.9451 256.485 72.0962 253.656 72.2173C253.686 72.2129 253.686 72.1548 253.686 72.1218ZM263.288 53.4106C266.209 53.199 268.827 52.9873 271.085 52.7757V71.0656C268.857 71.2772 266.236 71.5194 263.288 71.7004V53.4106ZM156.249 51.1733C156.7 51.3244 157.273 51.4755 157.935 51.6265V69.9164C157.347 69.8132 156.778 69.6195 156.249 69.3421V51.1733ZM159.741 70.2478V51.958C159.879 51.9934 160.02 52.0143 160.162 52.0204C161.607 52.262 163.353 52.4736 165.37 52.6852V70.9751C163.081 70.7616 161.214 70.52 159.739 70.2478H159.741ZM167.176 71.1842V52.8943C169.165 53.076 171.36 53.257 173.765 53.4081C174.157 53.4386 174.548 53.4705 174.969 53.4992V71.789C172.051 71.5781 169.433 71.3964 167.175 71.1848L167.176 71.1842ZM215.248 72.9676V54.6497H223.041V72.9663H215.247L215.248 72.9676ZM272.923 70.8515V52.5616C274.398 52.4099 275.692 52.2289 276.806 52.0473C277.167 51.9848 277.528 51.9268 277.859 51.8662V70.1561C276.594 70.3989 274.938 70.6105 272.921 70.8521L272.923 70.8515Z" fill="#16274D"/>
<path d="M267.862 29.6519V49.7838C267.862 49.7838 267.441 52.2932 235.232 53.7164C203.024 55.1397 186.528 53.9886 186.528 53.9886L158.203 52.4467C158.203 52.4467 142.64 51.933 141.587 49.8169C140.534 47.7007 141.948 30.5283 141.948 30.5283L174.939 30.4072H238.33L267.862 29.6519Z" fill="#FFD600"/>
<path d="M171.894 102.17C151.605 109.455 109.433 109.213 88.1819 106.22C84.4791 105.706 80.4455 104.829 78.2177 101.837C76.7731 99.9324 76.3529 97.4536 76.1714 95.0659C75.0271 79.1051 83.9675 64.2915 93.6905 51.5966C100.583 42.5578 108.111 33.9129 117.019 26.8692C120.902 23.8161 125.146 21.0052 129.962 19.8866C136.284 18.4352 142.846 20.0376 149.137 21.6094C151.365 22.1837 153.683 22.758 155.519 24.1787C159.913 27.5645 161.75 30.0465 167.228 31.8567C170.54 32.9448 172.466 31.7356 174.061 34.9398C177.252 41.5297 180.563 47.3338 180.712 74.9022V97.0304C180.714 97.124 178.217 99.9024 171.894 102.17Z" fill="#16274D"/>
<path d="M189.443 30.3464C192.365 35.9089 201.635 41.1381 210.515 41.6524C226.259 42.5594 243.025 39.869 257.052 47.0932C259.37 48.303 261.598 49.7537 264.126 50.479C264.548 50.6001 265 50.6906 265.421 50.7811C267.769 50.1769 267.859 49.7537 267.859 49.7537V29.6211L238.326 30.3165H189.443V30.3464Z" fill="white"/>
<path d="M204.71 33.9136C239.588 33.9136 267.862 32.0053 267.862 29.6514C267.862 27.2974 239.588 25.3892 204.71 25.3892C169.831 25.3892 141.557 27.2974 141.557 29.6514C141.557 32.0053 169.831 33.9136 204.71 33.9136Z" fill="white"/>
<path d="M147.574 27.8363C157.689 29.287 179.452 30.2845 204.707 30.2845C229.962 30.2845 251.726 29.2857 261.84 27.8363C251.726 26.385 229.962 25.3875 204.707 25.3875C179.452 25.3875 157.688 26.3875 147.574 27.8363Z" fill="#FFD600"/>
<path d="M177.673 77.2305C169.232 76.9202 160.813 76.1736 152.448 74.9939C152.213 74.9578 152.001 74.8293 151.86 74.6365C151.719 74.4438 151.66 74.2026 151.696 73.9661C151.732 73.7297 151.86 73.5172 152.052 73.3755C152.244 73.2338 152.484 73.1744 152.719 73.2105C161.005 74.3704 169.344 75.1069 177.704 75.4172C177.823 75.4192 177.94 75.4452 178.049 75.4938C178.158 75.5424 178.256 75.6124 178.337 75.6998C178.418 75.7872 178.481 75.8901 178.522 76.0024C178.562 76.1147 178.58 76.2341 178.574 76.3535C178.567 76.5888 178.469 76.8121 178.301 76.9759C178.133 77.1398 177.908 77.2311 177.673 77.2305Z" fill="#FFD600"/>
<path d="M263.047 27.0812C259.826 26.5675 255.251 26.1143 249.441 25.721C237.49 24.9052 221.627 24.4819 204.74 24.4819C187.854 24.4819 171.99 24.9351 160.04 25.721C154.197 26.1143 149.624 26.5675 146.434 27.0812C142.22 27.7466 140.715 28.4114 140.715 29.6206V49.7531C140.715 50.9623 142.22 51.6258 146.434 52.2925C149.655 52.8062 154.23 53.2594 160.04 53.6527C171.99 54.4685 187.854 54.8918 204.74 54.8918C221.627 54.8918 237.49 54.4386 249.441 53.6527C255.281 53.2594 259.856 52.8062 263.047 52.2925C267.261 51.6271 268.765 50.9623 268.765 49.7531V29.6206C268.766 28.442 267.261 27.7466 263.047 27.0812ZM204.71 26.2953C239.989 26.2953 261.963 28.1393 266.358 29.6512C261.963 31.1624 239.989 33.0064 204.71 33.0064C169.431 33.0064 147.457 31.1624 143.062 29.6512C147.457 28.1393 169.431 26.2953 204.71 26.2953ZM218.888 34.7018V53.0178C216.359 53.0478 213.77 53.0803 211.091 53.1084V34.7898L218.888 34.7018ZM220.694 34.6712C223.343 34.6088 225.962 34.5807 228.49 34.4902V52.8044C225.992 52.8668 223.403 52.9255 220.694 52.986V34.6712ZM230.296 34.4296C232.975 34.3391 235.594 34.248 238.093 34.1574V52.2619C238.088 52.324 238.098 52.3863 238.123 52.4435C235.654 52.5341 233.035 52.6552 230.296 52.7157V34.4296ZM239.931 52.2644V34.0644C242.67 33.9433 245.289 33.7923 247.727 33.6412V51.9304C245.319 52.0815 242.73 52.2326 239.9 52.3537C239.921 52.3277 239.931 52.295 239.929 52.2619L239.931 52.2644ZM249.533 33.5532C252.455 33.3416 255.072 33.13 257.329 32.9184V51.2082C255.102 51.4198 252.481 51.662 249.533 51.843V33.5532ZM170.817 34.1574V52.4735C168.02 52.353 165.429 52.2013 163.021 52.0809V33.791C165.488 33.8828 168.107 34.0339 170.816 34.155L170.817 34.1574ZM172.624 34.2199C175.152 34.3104 177.741 34.4009 180.42 34.492V52.8044C177.681 52.7138 175.092 52.6227 172.624 52.5322V34.2199ZM182.259 34.522C184.787 34.5844 187.406 34.6431 190.055 34.6731V52.9879C187.346 52.9573 184.757 52.8967 182.259 52.8362V34.522ZM191.861 34.7336C194.419 34.7642 197.038 34.796 199.658 34.796V53.1084C196.979 53.1084 194.36 53.0784 191.861 53.0459V34.7336ZM142.494 31.3178C142.946 31.4689 143.518 31.62 144.18 31.771V50.0578C143.592 49.9545 143.024 49.7608 142.494 49.4835V31.3178ZM145.987 50.4192V32.13C146.125 32.1654 146.266 32.1863 146.408 32.1924C147.853 32.4346 149.599 32.6462 151.615 32.8578V51.1477C149.323 50.9017 147.427 50.6601 145.982 50.4179L145.987 50.4192ZM153.422 51.3262V33.0363C155.411 33.218 157.605 33.399 160.01 33.5507C160.402 33.5807 160.793 33.6131 161.214 33.6412V51.9304C158.294 51.7482 155.675 51.5365 153.417 51.3249L153.422 51.3262ZM201.463 53.1096V34.7898H209.259V53.1084H201.459L201.463 53.1096ZM259.134 50.9941V32.7042C260.609 32.5532 261.903 32.3715 263.017 32.1899C263.378 32.1275 263.739 32.0694 264.074 32.0089V50.2987C262.806 50.539 261.181 50.7806 259.134 50.9941Z" fill="#16274D"/>
<path d="M166.235 72.0935C166.115 72.0923 165.995 72.067 165.884 72.0192C165.774 71.9713 165.673 71.9019 165.589 71.8148C165.505 71.7277 165.439 71.6247 165.395 71.5118C165.351 71.3989 165.33 71.2784 165.332 71.1572L165.422 67.7408C165.434 67.5025 165.538 67.2784 165.713 67.1168C165.888 66.9553 166.119 66.8693 166.356 66.8775C166.594 66.8857 166.818 66.9874 166.982 67.1607C167.145 67.3339 167.234 67.5647 167.229 67.8032L167.138 71.2196C167.131 71.4546 167.032 71.6775 166.863 71.8407C166.695 72.0039 166.47 72.0946 166.235 72.0935Z" fill="#FFD600"/>
<path d="M169.611 25.9632C168.016 23.696 167.323 20.4007 165.306 18.5267C164.999 15.3569 163.89 12.3185 162.085 9.69955C151.82 -4.96042 121.117 -1.03091 93.544 18.4668C65.9706 37.9645 51.9132 65.654 62.2087 80.3152C62.5737 80.839 62.9654 81.3434 63.3823 81.8265C64.6508 87.0699 66.7986 92.0584 69.7338 96.5782C79.9988 111.239 110.702 107.309 138.275 87.8122C165.849 68.3151 179.876 40.6244 169.611 25.9632Z" fill="#FFD600"/>
<path d="M150.26 53.9852L130.875 1.83984C120.432 3.77495 108.72 8.51907 97.3711 15.8968L120.308 78.1378C123.899 76.1336 127.385 73.9442 130.751 71.5785C137.923 66.5085 144.472 60.6029 150.26 53.9852Z" fill="white"/>
<path d="M85.844 89.1115C90.9904 88.7896 96.0818 87.8664 101.015 86.3606L81.0279 28.7139C76.3843 33.0879 72.1893 37.9186 68.5059 43.1335L85.844 89.1115Z" fill="white"/>
<path d="M84.2097 79.7706C86.776 79.7551 89.3354 79.5021 91.8553 79.0147C102.33 77.1108 114.22 71.7299 125.359 63.8403C136.497 55.9807 145.557 46.5493 150.885 37.2989C156.333 27.8374 157.237 19.6457 153.414 14.2025C149.591 8.7592 141.614 6.85656 130.898 8.82163C120.423 10.7261 108.533 16.107 97.3938 23.9966C86.256 31.8562 77.1956 41.2877 71.8679 50.5374C66.419 59.9989 65.5165 68.1912 69.3393 73.6338C72.1694 77.6539 77.3168 79.7706 84.2097 79.7706ZM149.291 36.3925C144.113 45.4307 135.233 54.6505 124.306 62.3603C113.379 70.0701 101.759 75.3567 91.5247 77.2306C82.8845 78.8024 76.2029 77.775 72.3795 74.3286C67.9245 63.1137 80.1756 43.2839 101.427 28.2607C120.361 14.8691 140.469 9.51889 151.005 14.1737C151.336 14.5366 151.637 14.8995 151.908 15.2624C155.282 20.0677 154.346 27.5647 149.29 36.3919L149.291 36.3925Z" fill="#16274D"/>
<path d="M174.155 34.9717C174.148 34.9073 174.127 34.8453 174.093 34.7901L165.546 14.0832C165.473 13.9333 165.371 13.7998 165.245 13.6906C164.676 12.0582 163.886 10.5121 162.897 9.09567C157.69 1.68922 147.514 -1.45439 134.181 0.268478C121.086 1.96138 106.426 8.12812 92.9713 17.6501C79.4858 27.1727 68.7701 38.9312 62.7798 50.7509C57.1233 61.9053 56.3077 71.881 60.3114 79.1963L70.3651 99.4213C70.4278 99.5441 70.5092 99.6563 70.6063 99.754C75.4547 103.835 82.4359 105.8 90.6217 105.8C92.4865 105.8 94.4445 105.679 96.4311 105.498C96.4933 105.498 96.5517 105.527 96.6418 105.527C96.7774 105.526 96.9111 105.496 97.0334 105.437H97.0633C109.345 104.046 123.553 98.847 137.098 90.1715C149.169 82.4629 159.494 72.6988 166.206 62.693C172.891 52.6555 175.721 42.8308 174.155 34.9717ZM172.502 41.3813L169.61 34.4274L166.058 25.9629C166.302 24.5244 166.433 23.0687 166.45 21.6095L172.199 35.5136C172.56 37.4471 172.662 39.4206 172.502 41.3813ZM168.95 53.7753L165.609 45.6735L162.295 37.6316C163.55 34.987 164.568 32.2354 165.336 29.4093L167.774 35.2146L171.807 45.0087C171.829 45.0883 171.87 45.161 171.928 45.2203C171.258 48.1752 170.259 51.0446 168.948 53.7741L168.95 53.7753ZM64.5557 51.6879C70.3987 40.1397 80.9037 28.6539 94.115 19.313C110.28 7.88654 127.561 1.84028 140.954 1.84028C149.983 1.84028 157.269 4.59125 161.272 10.3048C165.968 16.984 165.336 26.5378 160.519 36.7851C160.416 36.8753 160.333 36.9867 160.276 37.1118C160.219 37.2369 160.189 37.3728 160.188 37.5105C154.709 48.7859 144.204 60.8172 130.177 70.7324C103.085 89.8975 72.9845 93.9181 63.0203 79.7407C62.6888 79.2571 62.3878 78.7733 62.1172 78.2893L61.9369 77.9267C61.9075 77.8597 61.8667 77.7985 61.8163 77.7456C58.4149 71.0945 59.348 61.9358 64.5557 51.6879ZM158.743 69.0414L152.272 53.1392C153.566 51.5974 154.77 49.995 155.913 48.4232L162.506 64.3841C161.332 65.9559 160.07 67.4977 158.743 69.0395V69.0414ZM145.649 81.5259L139.328 66.1394C141.013 64.6881 142.669 63.2374 144.234 61.7261L150.525 77.3542C148.99 78.7737 147.365 80.1637 145.649 81.5241V81.5259ZM139.147 86.3625L132.977 71.3086C132.977 71.278 132.946 71.2462 132.914 71.2181C134.57 70.0083 136.165 68.7692 137.731 67.4996L144.022 82.7931V82.8231C142.458 84.0345 140.833 85.2137 139.147 86.3606V86.3625ZM126.053 94.1285L120.032 79.4367C121.628 78.5627 123.224 77.6532 124.819 76.6863L130.99 91.5286C129.334 92.4062 127.679 93.2833 126.053 94.1285ZM118.92 97.3944L112.87 83.0054C114.676 82.1889 116.452 81.3125 118.228 80.4055L124.248 95.0361C122.471 95.8526 120.695 96.6684 118.92 97.3944ZM111.786 100.024L105.826 85.8468C107.542 85.242 109.288 84.5466 111.034 83.7913L117.054 98.1485C115.306 98.8451 113.531 99.48 111.785 100.024H111.786ZM104.742 102.022L98.8995 88.0254C100.555 87.6022 102.241 87.0891 103.926 86.5141L109.856 100.662C108.143 101.142 106.426 101.626 104.741 102.019L104.742 102.022ZM83.4895 103.168L77.6198 89.8369C78.9769 90.0264 80.3438 90.1375 81.7136 90.1696L87.3434 103.621C86.052 103.535 84.7657 103.384 83.4895 103.168ZM77.0479 101.295L71.1782 88.2045C72.5112 88.701 73.8797 89.0954 75.272 89.3843L81.0814 102.624C79.6997 102.304 78.3496 101.859 77.0479 101.294V101.295ZM65.5192 85.1814C66.437 85.8562 67.4029 86.4625 68.409 86.9954L74.1898 99.8127C73.452 99.3607 72.7479 98.8554 72.0832 98.3008L65.5192 85.1814ZM89.5699 103.742L83.9134 90.1989C85.6893 90.169 87.4957 90.0479 89.3922 89.8363L95.1413 103.561C93.2125 103.712 91.3458 103.773 89.5699 103.742ZM97.246 103.318L91.4963 89.5342C93.3026 89.262 95.109 88.8993 96.9452 88.473L102.784 102.408C101.46 102.68 100.136 102.923 98.8112 103.104C98.2692 103.198 97.7576 103.258 97.246 103.318ZM135.986 88.448C134.903 89.1434 133.789 89.8088 132.706 90.4736L126.534 75.5708C128.13 74.5427 129.726 73.4847 131.291 72.3966L137.492 87.4811C136.98 87.8113 136.468 88.144 135.986 88.448ZM152.148 75.901L145.83 60.2123C147.575 58.4595 149.261 56.6761 150.826 54.8921L157.269 70.7324C155.673 72.4853 153.957 74.2088 152.151 75.901H152.148ZM163.887 62.4802L157.269 46.4887C158.663 44.4106 159.949 42.2614 161.122 40.0498L163.772 46.4581L167.775 56.1617C166.63 58.2479 165.336 60.364 163.89 62.4802H163.887Z" fill="#16274D"/>
</g>
<path d="M2.54102 56.751C10.0987 55.9958 16.0913 49.9707 16.876 42.416V42.416V42.416C17.4959 49.9652 23.4276 55.9899 30.9663 56.7271L31.211 56.751V56.751C23.593 57.2556 17.4977 63.2708 16.8923 70.8813L16.876 71.086L16.8245 70.5748C16.0723 63.0999 10.0366 57.2584 2.54102 56.751V56.751V56.751Z" fill="#FFD600"/>
<path d="M27.3574 35.763C31.9352 35.3055 35.565 31.656 36.0403 27.0801V27.0801V27.0801C36.4158 31.6527 40.0087 35.302 44.575 35.7485L44.7232 35.763V35.763C40.1089 36.0686 36.4169 39.7121 36.0502 44.3219L36.0403 44.4458L36.0091 44.1362C35.5535 39.6086 31.8976 36.0703 27.3574 35.763V35.763V35.763Z" fill="#FFD600"/>
<path d="M7.0332 26.4251C9.32396 26.1962 11.1404 24.3699 11.3782 22.0801V22.0801V22.0801C11.5661 24.3683 13.364 26.1944 15.649 26.4178L15.7232 26.4251V26.4251C13.4142 26.578 11.5666 28.4012 11.3831 30.708L11.3782 30.77L11.3626 30.6151C11.1346 28.3494 9.30514 26.5789 7.0332 26.4251V26.4251V26.4251Z" fill="#FFD600"/>
</g>
<defs>
<clipPath id="clip0_7551_69155">
<rect width="285" height="77" fill="white"/>
</clipPath>
</defs>
</svg>
