<svg width="413" height="231" viewBox="0 0 413 231" fill="none" xmlns="http://www.w3.org/2000/svg">
<path d="M218.803 67.3596C234.617 67.3596 247.436 54.5454 247.436 38.7384C247.436 22.9313 234.617 10.1172 218.803 10.1172C202.989 10.1172 190.17 22.9313 190.17 38.7384C190.17 54.5454 202.989 67.3596 218.803 67.3596Z" fill="#FFD600"/>
<path d="M208.667 32.7786C208.666 32.7432 208.666 32.7078 208.666 32.6724C208.666 30.6745 209.257 28.7211 210.364 27.0579C211.472 25.3947 213.046 24.0958 214.89 23.3245C216.734 22.5533 218.765 22.3441 220.727 22.7232C222.69 23.1023 224.496 24.0528 225.92 25.4553C227.343 26.8577 228.32 28.6495 228.728 30.6055C229.136 32.5614 228.956 34.5941 228.211 36.4482C227.466 38.3022 226.19 39.8948 224.542 41.0258C222.895 42.1568 220.949 42.7757 218.951 42.8046V52.0061" stroke="#998000" stroke-width="4.23077" stroke-linecap="round" stroke-linejoin="round"/>
<path d="M266.968 19.4688H286.665M266.968 25.1439H286.665M266.968 30.8191H286.665" stroke="#FFD600" stroke-width="1.57398" stroke-miterlimit="10" stroke-linecap="round"/>
<path d="M83.7275 127.242H103.424M83.7275 132.917H103.424M83.7275 138.591H103.424" stroke="#FFD600" stroke-width="1.57398" stroke-miterlimit="10" stroke-linecap="round"/>
<path d="M304.757 167.707H324.454M304.757 173.382H324.454M304.757 179.057H324.454" stroke="#FFD600" stroke-width="1.57398" stroke-miterlimit="10" stroke-linecap="round"/>
<path d="M328.498 139.761C333.147 139.761 336.917 135.993 336.917 131.345C336.917 126.697 333.147 122.93 328.498 122.93C323.848 122.93 320.079 126.697 320.079 131.345C320.079 135.993 323.848 139.761 328.498 139.761Z" fill="#FFEF99"/>
<path d="M306.281 141.782C308.692 141.782 310.646 139.828 310.646 137.418C310.646 135.008 308.692 133.055 306.281 133.055C303.87 133.055 301.916 135.008 301.916 137.418C301.916 139.828 303.87 141.782 306.281 141.782Z" fill="#FFEF99"/>
<path d="M317.367 116.987C320.811 116.987 323.603 114.196 323.603 110.753C323.603 107.31 320.811 104.52 317.367 104.52C313.922 104.52 311.13 107.31 311.13 110.753C311.13 114.196 313.922 116.987 317.367 116.987Z" fill="#FFEF99"/>
<path d="M136.922 195.713C142.455 195.713 146.939 191.23 146.939 185.7C146.939 180.17 142.455 175.688 136.922 175.688C131.39 175.688 126.905 180.17 126.905 185.7C126.905 191.23 131.39 195.713 136.922 195.713Z" fill="#FFEF99"/>
<path d="M117.781 183.783C120.663 183.783 122.999 181.448 122.999 178.567C122.999 175.687 120.663 173.352 117.781 173.352C114.9 173.352 112.563 175.687 112.563 178.567C112.563 181.448 114.9 183.783 117.781 183.783Z" fill="#FFEF99"/>
<path d="M122.573 163.849C124.235 163.849 125.583 162.502 125.583 160.84C125.583 159.179 124.235 157.832 122.573 157.832C120.911 157.832 119.563 159.179 119.563 160.84C119.563 162.502 120.911 163.849 122.573 163.849Z" fill="#FFEF99"/>
<path d="M139.235 170.182C143.219 170.182 146.45 166.953 146.45 162.97C146.45 158.987 143.219 155.758 139.235 155.758C135.25 155.758 132.02 158.987 132.02 162.97C132.02 166.953 135.25 170.182 139.235 170.182Z" fill="#FFEF99"/>
<path d="M144.258 45.4007C149.791 45.4007 154.275 40.9178 154.275 35.3878C154.275 29.8579 149.791 25.375 144.258 25.375C138.726 25.375 134.241 29.8579 134.241 35.3878C134.241 40.9178 138.726 45.4007 144.258 45.4007Z" fill="#FFEF99"/>
<path d="M144.664 20.1888C147.546 20.1888 149.882 17.8538 149.882 14.9733C149.882 12.0929 147.546 9.75781 144.664 9.75781C141.782 9.75781 139.446 12.0929 139.446 14.9733C139.446 17.8538 141.782 20.1888 144.664 20.1888Z" fill="#FFEF99"/>
<path d="M179.417 22.5359C181.911 22.5359 183.933 20.5149 183.933 18.0218C183.933 15.5288 181.911 13.5078 179.417 13.5078C176.923 13.5078 174.901 15.5288 174.901 18.0218C174.901 20.5149 176.923 22.5359 179.417 22.5359Z" fill="#FFEF99"/>
<path d="M162.989 16.6458C164.651 16.6458 165.999 15.2989 165.999 13.6373C165.999 11.9758 164.651 10.6289 162.989 10.6289C161.327 10.6289 159.979 11.9758 159.979 13.6373C159.979 15.2989 161.327 16.6458 162.989 16.6458Z" fill="#FFEF99"/>
<path d="M166.486 37.2677C170.471 37.2677 173.701 34.0388 173.701 30.0557C173.701 26.0727 170.471 22.8438 166.486 22.8438C162.501 22.8438 159.271 26.0727 159.271 30.0557C159.271 34.0388 162.501 37.2677 166.486 37.2677Z" fill="#FFEF99"/>
<path d="M276.176 164.094H172.527C172.022 164.094 171.528 163.894 171.112 163.52C170.697 163.145 170.379 162.615 170.201 162L145.955 78.0859H293.074L278.6 161.575C278.476 162.29 278.168 162.929 277.728 163.387C277.287 163.845 276.74 164.094 276.176 164.094Z" fill="#F1F5FF"/>
<path d="M192.845 214.37C195.758 214.37 198.12 212.009 198.12 209.097C198.12 206.185 195.758 203.824 192.845 203.824C189.931 203.824 187.57 206.185 187.57 209.097C187.57 212.009 189.931 214.37 192.845 214.37Z" fill="white"/>
<path d="M258.771 214.37C261.684 214.37 264.046 212.009 264.046 209.097C264.046 206.185 261.684 203.824 258.771 203.824C255.858 203.824 253.496 206.185 253.496 209.097C253.496 212.009 255.858 214.37 258.771 214.37Z" fill="white"/>
<path d="M218.85 59.4002C219.785 59.4002 220.543 58.6426 220.543 57.7079C220.543 56.7733 219.785 56.0156 218.85 56.0156C217.915 56.0156 217.157 56.7733 217.157 57.7079C217.157 58.6426 217.915 59.4002 218.85 59.4002Z" fill="#998000"/>
<path d="M286.365 108.069V104.695H270.77L275.267 78.3565H269.596L265.849 104.695H240.574L242.323 78.3565H236.616L235.617 104.695H210.361L209.362 78.3565H203.655L205.403 104.695H180.129L176.382 78.3565H170.711L175.207 104.695H159.613V108.069H175.784L179.606 130.46H161.435V133.834H180.183L184.446 158.807H187.827L184.274 133.834H207.338L208.996 158.807H212.413L211.466 133.834H234.512L233.564 158.807H236.981L238.639 133.834H261.703L258.15 158.807H261.531L265.795 133.834H284.543V130.46H266.371L270.194 108.069H286.365ZM183.794 130.46L180.609 108.069H205.627L207.114 130.46H183.794ZM211.338 130.46L210.488 108.069H235.489L234.64 130.46H211.338ZM262.183 130.46H238.863L240.35 108.069H265.368L262.183 130.46Z" fill="#2F627C"/>
<path d="M149.621 81.8734L163.585 157.652C164.17 160.823 166.935 163.125 170.16 163.125H275.818C279.042 163.125 281.808 160.823 282.392 157.652L296.357 81.8734C297.114 77.7653 293.96 73.9768 289.782 73.9768H156.195C152.018 73.9768 148.864 77.7653 149.621 81.8734ZM164.089 80.5483H281.889C286.066 80.5483 289.22 84.3366 288.463 88.4447L276.921 151.081C276.337 154.252 273.572 156.554 270.347 156.554H175.63C172.406 156.554 169.64 154.252 169.056 151.081L157.515 88.4447C156.758 84.3366 159.912 80.5483 164.089 80.5483Z" fill="#11405C"/>
<path d="M280.864 162.728C280.864 162.728 202.666 162.737 176.277 162.74C171.274 162.741 166.958 159.239 165.923 154.345L146.103 60.6367L145.945 59.9661C145.122 56.4715 142.012 53.9964 138.421 53.9804L111.423 53.8599L111.094 60.4806L137.582 60.6117C138.591 60.6168 139.464 61.3126 139.695 62.2946L162.803 163.486C155.285 165.744 149.859 172.836 150.153 181.155C150.494 190.796 158.729 198.29 168.376 198.29H253.469C253.472 198.29 253.475 198.289 253.478 198.289H260.463C262.588 198.289 264.297 196.511 264.184 194.362C264.082 192.414 262.203 190.835 260.252 190.835H253.506C253.494 190.835 253.481 190.832 253.469 190.832H168.268C162.583 190.832 157.706 186.384 157.602 180.7C157.496 174.909 162.159 170.182 167.925 170.182H280.654C282.604 170.182 284.484 168.604 284.586 166.655C284.698 164.506 282.988 162.728 280.864 162.728Z" fill="#2F627C"/>
<path d="M99.5577 59.9716C99.5049 61.2401 100.508 62.264 101.749 62.2293L128.963 61.466L132.78 61.3445C133.625 61.3174 134.253 60.3073 134.093 59.2476L133.411 54.7408C133.287 53.9268 132.735 53.3227 132.087 53.3007L102.009 52.0604C100.834 52.0121 99.8497 52.9241 99.7999 54.1252L99.5577 59.9716Z" fill="#11405C"/>
<path d="M235.278 212.277C235.188 215.902 236.771 219.512 239.863 221.905C242.954 224.299 246.845 224.928 250.332 223.933C252.682 223.271 254.839 221.873 256.448 219.795C260.45 214.627 259.507 207.212 254.338 203.21C249.169 199.208 241.743 200.142 237.741 205.311C236.132 207.388 235.331 209.836 235.278 212.277Z" fill="#11405C"/>
<path d="M248.108 205.589C247.035 205.432 245.939 205.525 244.908 205.863C243.877 206.2 242.938 206.771 242.164 207.532C241.391 208.294 240.805 209.224 240.451 210.25C240.098 211.275 239.987 212.369 240.128 213.445C240.268 214.521 240.656 215.55 241.261 216.45C241.866 217.351 242.672 218.1 243.614 218.637C244.557 219.174 245.612 219.485 246.695 219.546C247.778 219.607 248.861 219.416 249.858 218.988L247.09 212.536L248.108 205.589Z" fill="white"/>
<path d="M245.004 210.938C245.901 209.78 247.567 209.564 248.725 210.461C249.879 211.355 250.084 213.019 249.188 214.177C248.297 215.328 246.634 215.546 245.48 214.653C244.321 213.756 244.113 212.089 245.004 210.938Z" fill="#11405C"/>
<path d="M177.803 200.739C174.178 200.65 170.568 202.232 168.175 205.324C165.781 208.415 165.153 212.307 166.147 215.793C166.81 218.143 168.207 220.301 170.285 221.909C175.453 225.911 182.868 224.968 186.87 219.799C190.872 214.63 189.938 207.204 184.77 203.202C182.692 201.593 180.244 200.792 177.803 200.739Z" fill="#11405C"/>
<path d="M184.455 213.618C184.613 212.544 184.519 211.449 184.182 210.417C183.845 209.386 183.273 208.447 182.512 207.673C181.751 206.9 180.821 206.314 179.795 205.961C178.769 205.607 177.675 205.496 176.6 205.637C175.524 205.777 174.495 206.165 173.594 206.77C172.693 207.375 171.945 208.181 171.408 209.123C170.871 210.066 170.56 211.121 170.499 212.204C170.438 213.287 170.629 214.37 171.056 215.367L177.509 212.599L184.455 213.618Z" fill="white"/>
<path d="M179.144 210.468C180.302 211.365 180.517 213.031 179.62 214.189C178.727 215.343 177.062 215.549 175.904 214.652C174.754 213.761 174.535 212.098 175.429 210.944C176.326 209.786 177.993 209.577 179.144 210.468Z" fill="#11405C"/>
</svg>
