<svg width="188" height="196" viewBox="0 0 188 196" fill="none" xmlns="http://www.w3.org/2000/svg">
<g clip-path="url(#clip0_10313_84027)">
<path d="M125.326 173.141C213.747 167.342 145.622 122.406 145.622 122.406C145.622 122.406 84.0117 83.2652 37.6241 104.285C26.1826 109.469 19.5067 117.332 24.5804 136.177C28.918 152.288 47.7729 168.069 61.5451 168.069C88.8159 168.069 95.9556 175.067 125.326 173.141Z" fill="#F3F3F5"/>
<path d="M134.986 153.636H83.2335C82.5644 153.636 82.0222 152.849 82.0222 151.878V31.386C82.0222 30.4156 82.5646 29.6289 83.2335 29.6289H135.009C135.665 29.6289 136.198 30.401 136.198 31.3536V151.878C136.198 152.849 135.655 153.636 134.986 153.636Z" fill="#FFD600"/>
<path d="M119.105 153.636H74.2301L40.5234 119.529V31.386C40.5234 30.92 40.7086 30.473 41.0381 30.1435C41.3676 29.814 41.8145 29.6289 42.2805 29.6289H119.105V153.636Z" fill="#FFEF99"/>
<path d="M74.2301 153.636L40.5234 119.929H67.0655C71.0224 119.929 74.2301 123.137 74.2301 127.094V153.636Z" fill="#FFD600"/>
<path fill-rule="evenodd" clip-rule="evenodd" d="M161.744 138.381L179.291 155.928C179.908 156.545 180.254 157.382 180.254 158.254C180.253 159.127 179.907 159.964 179.289 160.58C178.672 161.197 177.835 161.543 176.963 161.543C176.09 161.543 175.253 161.196 174.637 160.579L157.09 143.032C151.844 147.094 145.248 149.006 138.643 148.378C132.037 147.75 125.92 144.63 121.534 139.651C117.148 134.673 114.823 128.21 115.033 121.579C115.242 114.947 117.97 108.644 122.662 103.953C127.353 99.2613 133.656 96.5332 140.288 96.3236C146.919 96.114 153.382 98.4386 158.36 102.825C163.339 107.211 166.459 113.328 167.087 119.934C167.715 126.539 165.803 133.135 161.741 138.381H161.744ZM141.114 141.972C146.305 141.972 151.282 139.91 154.952 136.24C158.622 132.57 160.684 127.592 160.684 122.402C160.684 117.212 158.622 112.235 154.952 108.565C151.282 104.895 146.305 102.833 141.114 102.833C135.924 102.833 130.947 104.895 127.277 108.565C123.607 112.235 121.545 117.212 121.545 122.402C121.545 127.592 123.607 132.57 127.277 136.24C130.947 139.91 135.924 141.972 141.114 141.972Z" fill="#4D4000"/>
<path d="M78.1165 62.9876C81.6444 62.9876 84.5043 60.1277 84.5043 56.5998C84.5043 53.0718 81.6444 50.2119 78.1165 50.2119C74.5886 50.2119 71.7287 53.0718 71.7287 56.5998C71.7287 60.1277 74.5886 62.9876 78.1165 62.9876Z" fill="#4D4000"/>
<path d="M103.668 62.9876C107.196 62.9876 110.056 60.1277 110.056 56.5998C110.056 53.0718 107.196 50.2119 103.668 50.2119C100.14 50.2119 97.28 53.0718 97.28 56.5998C97.28 60.1277 100.14 62.9876 103.668 62.9876Z" fill="#4D4000"/>
<path d="M108.97 91.7329C107.628 91.7329 106.415 90.9024 105.967 89.6249C104.869 86.504 102.828 83.8011 100.128 81.8891C97.4279 79.977 94.2008 78.9502 90.8922 78.9502C87.5835 78.9502 84.3564 79.977 81.6562 81.8891C78.9559 83.8011 76.9157 86.504 75.8169 89.6249C75.242 91.2857 73.3895 92.18 71.7287 91.5412C71.3309 91.4036 70.9647 91.1876 70.6519 90.906C70.339 90.6244 70.0858 90.283 69.9071 89.9018C69.7285 89.5207 69.628 89.1076 69.6117 88.687C69.5954 88.2664 69.6637 87.8468 69.8123 87.453C72.9423 78.51 81.4382 72.5693 90.8922 72.5693C100.346 72.5693 108.842 78.5739 111.972 87.453C112.145 87.9352 112.199 88.4519 112.131 88.9596C112.063 89.4672 111.873 89.9511 111.579 90.3705C111.285 90.7898 110.895 91.1324 110.44 91.3695C109.986 91.6066 109.482 91.7312 108.97 91.7329Z" fill="#4D4000"/>
<path d="M20.0904 77.1925C18.5711 77.1925 17.3281 75.9494 17.3281 74.4302C17.3281 72.911 18.5711 71.668 20.0904 71.668C21.6096 71.668 22.8526 72.911 22.8526 74.4302C22.8526 75.9494 21.6096 77.1925 20.0904 77.1925ZM20.0904 72.6808C19.1236 72.6808 18.341 73.4634 18.341 74.4302C18.341 75.397 19.1236 76.1796 20.0904 76.1796C21.0572 76.1796 21.8398 75.397 21.8398 74.4302C21.8398 73.4634 21.0572 72.6808 20.0904 72.6808Z" fill="#000318"/>
<path d="M146.774 119.231C145.255 119.231 144.012 117.988 144.012 116.468C144.012 114.949 145.255 113.706 146.774 113.706C148.293 113.706 149.536 114.949 149.536 116.468C149.536 117.988 148.293 119.231 146.774 119.231ZM146.774 114.719C145.807 114.719 145.025 115.502 145.025 116.468C145.025 117.435 145.807 118.218 146.774 118.218C147.741 118.218 148.523 117.435 148.523 116.468C148.523 115.502 147.741 114.719 146.774 114.719Z" fill="#000318"/>
<path d="M25.3609 44.9613C25.2688 44.9613 25.1921 44.9459 25.1 44.8844L23.3813 43.8691C23.1357 43.7306 23.059 43.4076 23.1971 43.1768C23.3352 42.9307 23.6575 42.8537 23.8877 42.9922L25.6064 44.0075C25.8519 44.146 25.9287 44.469 25.7905 44.6998C25.6985 44.869 25.5297 44.9613 25.3609 44.9613Z" fill="#000318"/>
<path d="M31.3921 48.515C31.3 48.515 31.2233 48.4996 31.1312 48.4381L29.4125 47.4228C29.167 47.2843 29.0902 46.9613 29.2284 46.7305C29.3665 46.4844 29.6887 46.4075 29.9189 46.5459L31.6377 47.5612C31.8832 47.6997 31.9599 48.0227 31.8218 48.2535C31.7297 48.4227 31.5609 48.515 31.3921 48.515Z" fill="#000318"/>
<path d="M25.2203 50.1152C25.1282 50.1152 25.0515 50.0998 24.9594 50.0383C24.7139 49.8999 24.6371 49.5768 24.7752 49.346L25.7881 47.6231C25.9262 47.3769 26.2484 47.3 26.4786 47.4385C26.7241 47.5769 26.8009 47.9 26.6628 48.1308L25.6653 49.8537C25.5732 50.0229 25.4044 50.1152 25.2203 50.1152Z" fill="#000318"/>
<path d="M28.7828 44.0703C28.6907 44.0703 28.614 44.0549 28.5219 43.9934C28.2763 43.855 28.1996 43.5319 28.3377 43.3011L29.3506 41.5782C29.4887 41.332 29.8109 41.2551 30.0411 41.3936C30.2866 41.532 30.3634 41.8551 30.2253 42.0858L29.2124 43.8088C29.1204 43.9934 28.9516 44.0703 28.7828 44.0703Z" fill="#000318"/>
<path d="M172.337 119.075C172.245 119.075 172.169 119.059 172.077 118.998L170.358 117.982C170.112 117.844 170.036 117.521 170.174 117.29C170.312 117.044 170.634 116.967 170.864 117.105L172.583 118.121C172.828 118.259 172.905 118.582 172.767 118.813C172.675 118.982 172.506 119.075 172.337 119.075Z" fill="#000318"/>
<path d="M178.369 122.628C178.277 122.628 178.2 122.613 178.108 122.551L176.389 121.536C176.144 121.398 176.067 121.075 176.205 120.844C176.343 120.598 176.665 120.521 176.895 120.659L178.614 121.675C178.86 121.813 178.936 122.136 178.798 122.367C178.706 122.536 178.537 122.628 178.369 122.628Z" fill="#000318"/>
<path d="M172.197 124.229C172.105 124.229 172.028 124.213 171.936 124.152C171.69 124.013 171.614 123.69 171.752 123.459L172.765 121.736C172.903 121.49 173.225 121.413 173.455 121.552C173.701 121.69 173.777 122.013 173.639 122.244L172.642 123.967C172.55 124.136 172.381 124.229 172.197 124.229Z" fill="#000318"/>
<path d="M175.759 118.184C175.667 118.184 175.591 118.168 175.498 118.107C175.253 117.968 175.176 117.645 175.314 117.414L176.327 115.691C176.465 115.445 176.787 115.368 177.018 115.507C177.263 115.645 177.34 115.968 177.202 116.199L176.189 117.922C176.097 118.107 175.928 118.184 175.759 118.184Z" fill="#000318"/>
<path d="M104.276 20.8721C105.861 20.8721 107.146 19.5873 107.146 18.0025C107.146 16.4176 105.861 15.1328 104.276 15.1328C102.691 15.1328 101.406 16.4176 101.406 18.0025C101.406 19.5873 102.691 20.8721 104.276 20.8721Z" fill="#000318"/>
<path d="M152.682 91.9034C154.267 91.9034 155.552 90.6186 155.552 89.0337C155.552 87.4488 154.267 86.1641 152.682 86.1641C151.097 86.1641 149.812 87.4488 149.812 89.0337C149.812 90.6186 151.097 91.9034 152.682 91.9034Z" fill="#000318"/>
</g>
<defs>
<clipPath id="clip0_10313_84027">
<rect width="187" height="194.727" fill="white" transform="translate(0.5 0.636719)"/>
</clipPath>
</defs>
</svg>
