<svg width="186" height="190" viewBox="0 0 186 190" fill="none" xmlns="http://www.w3.org/2000/svg">
<g clip-path="url(#clip0_2410_10347)">
<path d="M54.7838 25.8196C54.6992 25.8196 54.6039 25.7878 54.5404 25.7137L53.5559 24.7292C53.4182 24.5916 53.4182 24.3693 53.5559 24.2316C53.6935 24.094 53.9158 24.094 54.0534 24.2316L55.0379 25.2161C55.1755 25.3538 55.1755 25.5761 55.0379 25.7137C54.9638 25.7878 54.8791 25.8196 54.7838 25.8196Z" fill="#000318"/>
<path d="M58.2135 29.2495C58.1288 29.2495 58.0336 29.2177 57.9701 29.1436L56.9855 28.1591C56.8479 28.0215 56.8479 27.7992 56.9855 27.6616C57.1232 27.5239 57.3455 27.5239 57.4831 27.6616L58.4676 28.6461C58.6052 28.7837 58.6052 29.006 58.4676 29.1436C58.3935 29.2177 58.3088 29.2495 58.2135 29.2495Z" fill="#000318"/>
<path d="M53.7993 29.2495C53.7146 29.2495 53.6194 29.2177 53.5559 29.1436C53.4182 29.006 53.4182 28.7837 53.5559 28.6461L54.5404 27.6616C54.678 27.5239 54.9003 27.5239 55.0379 27.6616C55.1755 27.7992 55.1755 28.0215 55.0379 28.1591L54.0534 29.1436C53.9793 29.2177 53.8946 29.2495 53.7993 29.2495Z" fill="#000318"/>
<path d="M57.2407 25.8196C57.156 25.8196 57.0608 25.7878 56.9973 25.7137C56.8596 25.5761 56.8596 25.3538 56.9973 25.2161L57.9818 24.2316C58.1194 24.094 58.3417 24.094 58.4793 24.2316C58.6169 24.3693 58.6169 24.5916 58.4793 24.7292L57.4948 25.7137C57.4207 25.7878 57.3254 25.8196 57.2407 25.8196Z" fill="#000318"/>
<path d="M9.08604 112.224C10.004 112.222 10.747 111.477 10.7458 110.559C10.7445 109.641 9.99937 108.898 9.08146 108.9C8.16355 108.901 7.42046 109.646 7.42173 110.564C7.42299 111.482 8.16813 112.225 9.08604 112.224Z" fill="#000318"/>
<path d="M5.43197 101.33C4.96618 101.33 4.50039 101.182 4.09812 100.886C3.63233 100.526 3.32533 100.018 3.24064 99.4249C3.15595 98.8427 3.31474 98.2604 3.66409 97.7946C3.92874 97.4453 4.28867 97.1807 4.71211 97.043C4.89208 96.9795 5.09322 97.0748 5.15673 97.2653C5.22025 97.4453 5.12497 97.6464 4.93442 97.71C4.6486 97.8052 4.40512 97.9852 4.22515 98.2287C3.98167 98.5463 3.87581 98.9485 3.92874 99.3402C3.98167 99.7425 4.19339 100.092 4.51098 100.335C5.1779 100.833 6.12007 100.706 6.61762 100.049C6.92462 99.6472 7.00931 99.1285 6.83993 98.6521C6.77641 98.4722 6.87169 98.271 7.06224 98.2075C7.2422 98.144 7.44334 98.2393 7.50685 98.4298C7.73975 99.1285 7.6233 99.8907 7.17868 100.473C6.75524 101.034 6.0989 101.33 5.43197 101.33Z" fill="white"/>
<path d="M89.2429 183.595C88.1949 183.595 87.3374 182.738 87.3374 181.69C87.3374 180.642 88.1949 179.784 89.2429 179.784C90.2909 179.784 91.1484 180.642 91.1484 181.69C91.1484 182.738 90.2909 183.595 89.2429 183.595ZM89.2429 180.483C88.576 180.483 88.0361 181.023 88.0361 181.69C88.0361 182.357 88.576 182.897 89.2429 182.897C89.9098 182.897 90.4497 182.357 90.4497 181.69C90.4497 181.023 89.9098 180.483 89.2429 180.483Z" fill="#000318"/>
<path d="M102.285 180.832C102.222 180.832 102.169 180.822 102.105 180.78L100.92 180.081C100.75 179.986 100.697 179.763 100.793 179.604C100.888 179.435 101.11 179.382 101.269 179.477L102.455 180.176C102.624 180.271 102.677 180.494 102.582 180.653C102.518 180.769 102.402 180.832 102.285 180.832Z" fill="#000318"/>
<path d="M106.445 183.278C106.382 183.278 106.329 183.267 106.265 183.225L105.08 182.526C104.91 182.431 104.858 182.209 104.953 182.05C105.048 181.88 105.27 181.828 105.429 181.923L106.615 182.621C106.784 182.717 106.837 182.939 106.742 183.098C106.678 183.214 106.562 183.278 106.445 183.278Z" fill="#000318"/>
<path d="M102.189 184.379C102.126 184.379 102.073 184.368 102.01 184.326C101.84 184.231 101.787 184.008 101.882 183.849L102.581 182.664C102.676 182.494 102.899 182.442 103.058 182.537C103.227 182.632 103.28 182.854 103.185 183.013L102.496 184.199C102.433 184.315 102.317 184.379 102.189 184.379Z" fill="#000318"/>
<path d="M104.647 180.218C104.583 180.218 104.53 180.208 104.467 180.165C104.297 180.07 104.244 179.848 104.34 179.689L105.038 178.503C105.133 178.334 105.356 178.281 105.515 178.376C105.684 178.472 105.737 178.694 105.642 178.853L104.943 180.038C104.879 180.165 104.763 180.218 104.647 180.218Z" fill="#000318"/>
<path d="M131.46 182.685C132.553 182.685 133.439 181.798 133.439 180.705C133.439 179.612 132.553 178.726 131.46 178.726C130.366 178.726 129.48 179.612 129.48 180.705C129.48 181.798 130.366 182.685 131.46 182.685Z" fill="#000318"/>
<path d="M76.549 9.27345C76.4219 9.27345 76.2949 9.19934 76.2314 9.07231L72.4309 1.0586C72.3463 0.889226 72.4204 0.677503 72.6003 0.592814C72.7697 0.508125 72.9814 0.582228 73.0661 0.762192L76.8771 8.7759C76.9618 8.94528 76.8877 9.157 76.7078 9.24169C76.6548 9.25228 76.6019 9.27345 76.549 9.27345Z" fill="#000318"/>
<path d="M74.1662 10.639C74.1027 10.639 74.0392 10.6179 73.9862 10.5861L57.4401 0.645729C57.2707 0.550453 57.2178 0.328145 57.3237 0.169352C57.4189 -2.57364e-05 57.6412 -0.0529564 57.8 0.052905L74.3462 9.99329C74.5155 10.0886 74.5685 10.3109 74.4626 10.4697C74.3991 10.5755 74.2826 10.639 74.1662 10.639Z" fill="#000318"/>
<path d="M73.1503 13.4762C73.1397 13.4762 73.1185 13.4762 73.1079 13.4762L67.7302 12.7669C67.5396 12.7457 67.402 12.5657 67.4338 12.3752C67.4549 12.1846 67.6349 12.047 67.8255 12.0788L73.2032 12.7881C73.3938 12.8092 73.5314 12.9892 73.4996 13.1797C73.4784 13.3491 73.3197 13.4762 73.1503 13.4762Z" fill="#000318"/>
<path d="M157.829 173.877L154.135 173.771L76.3372 173.877C72.8226 173.877 70.3348 171.051 70.7795 167.557L90.8508 9.45339C91.2954 5.95996 94.503 3.13346 98.007 3.13346L175.402 2.23364C184.284 2.23364 185.491 5.97055 185.046 9.45339L164.985 167.557C164.541 171.051 161.344 173.877 157.829 173.877Z" fill="#000318"/>
<path d="M152.927 174.184H71.4348C67.9202 174.184 65.4325 171.337 65.8771 167.833L85.9378 8.94519C86.3825 5.44118 89.5901 2.59351 93.0941 2.59351H174.586C178.101 2.59351 180.588 5.44118 180.144 8.94519L160.083 167.833C159.639 171.337 156.431 174.184 152.927 174.184Z" fill="white"/>
<path d="M70.5239 168.055L89.6848 16.345C89.7906 15.5299 90.5316 14.8735 91.3362 14.8735H173.262C174.077 14.8735 174.649 15.5299 174.543 16.345L155.382 168.055C155.276 168.87 154.535 169.526 153.731 169.526H71.8048C70.9896 169.516 70.418 168.859 70.5239 168.055Z" fill="#FFD600"/>
<path d="M134.661 9.92168C135.687 8.96457 135.836 7.45735 134.995 6.5552C134.153 5.65305 132.64 5.6976 131.613 6.6547C130.587 7.61181 130.438 9.11903 131.279 10.0212C132.12 10.9233 133.634 10.8788 134.661 9.92168Z" fill="white"/>
<path d="M145.072 174.534H71.435C69.6459 174.534 68.0368 173.835 66.9253 172.575C65.8032 171.294 65.3056 169.6 65.5279 167.79L85.5992 8.89232C86.065 5.21893 89.4314 2.23364 93.1048 2.23364H174.597C176.386 2.23364 177.995 2.93233 179.107 4.19208C180.229 5.473 180.726 7.16678 180.504 8.97701L166.668 119.38C166.647 119.57 166.467 119.708 166.276 119.687C166.086 119.666 165.948 119.486 165.969 119.295L179.805 8.89232C180.006 7.28323 179.572 5.78 178.577 4.65787C177.593 3.54632 176.185 2.93233 174.597 2.93233H93.1048C89.7702 2.93233 86.7108 5.64238 86.2873 8.97701L66.2266 167.875C66.0255 169.484 66.4595 170.987 67.4546 172.109C68.4391 173.221 69.8471 173.835 71.435 173.835H145.072C145.263 173.835 145.422 173.994 145.422 174.184C145.422 174.375 145.263 174.534 145.072 174.534Z" fill="#000318"/>
<path d="M108.613 29.4719H98.5353C97.5191 29.4719 96.7886 28.6144 96.8945 27.5664L96.9051 27.4817C97.0109 26.4231 97.9107 25.5762 98.927 25.5762H109.005C110.021 25.5762 110.752 26.4336 110.646 27.4817L110.635 27.5664C110.529 28.625 109.63 29.4719 108.613 29.4719Z" fill="white"/>
<path d="M161.237 40.5768H97.0217C96.0054 40.5768 95.2749 39.7194 95.3808 38.6713L95.3914 38.5867C95.4973 37.528 96.3971 36.6812 97.4133 36.6812H161.629C162.645 36.6812 163.376 37.5386 163.27 38.5867L163.259 38.6713C163.153 39.73 162.243 40.5768 161.237 40.5768Z" fill="white"/>
<path d="M148.522 135.323H84.3068C83.2905 135.323 82.5601 134.465 82.666 133.417L82.6765 133.333C82.7824 132.274 83.6822 131.427 84.6985 131.427H148.914C149.93 131.427 150.661 132.284 150.555 133.333L150.544 133.417C150.438 134.465 149.539 135.323 148.522 135.323Z" fill="white"/>
<path d="M146.616 146.078H82.4006C81.3843 146.078 80.6538 145.221 80.7597 144.173L80.7703 144.088C80.8762 143.03 81.776 142.183 82.7922 142.183H147.008C148.024 142.183 148.754 143.04 148.649 144.088L148.638 144.173C148.532 145.221 147.622 146.078 146.616 146.078Z" fill="white"/>
<path d="M115.832 157.786H81.0041C79.9878 157.786 79.2574 156.929 79.3632 155.881L79.3738 155.796C79.4797 154.738 80.3795 153.891 81.3958 153.891H116.235C117.251 153.891 117.981 154.748 117.876 155.796L117.865 155.881C117.749 156.929 116.849 157.786 115.832 157.786Z" fill="white"/>
<path d="M126.746 29.4719H116.668C115.652 29.4719 114.921 28.6144 115.027 27.5664L115.038 27.4817C115.144 26.4231 116.044 25.5762 117.06 25.5762H127.138C128.154 25.5762 128.885 26.4336 128.779 27.4817L128.768 27.5664C128.662 28.625 127.762 29.4719 126.746 29.4719Z" fill="white"/>
<path d="M144.881 29.4719H134.803C133.787 29.4719 133.056 28.6144 133.162 27.5664L133.173 27.4817C133.279 26.4231 134.178 25.5762 135.195 25.5762H145.273C146.289 25.5762 147.019 26.4336 146.913 27.4817L146.903 27.5664C146.797 28.625 145.887 29.4719 144.881 29.4719Z" fill="white"/>
<path d="M163.016 29.4719H152.938C151.921 29.4719 151.191 28.6144 151.297 27.5664L151.307 27.4817C151.413 26.4231 152.313 25.5762 153.329 25.5762H163.407C164.424 25.5762 165.154 26.4336 165.048 27.4817L165.038 27.5664C164.932 28.625 164.021 29.4719 163.016 29.4719Z" fill="white"/>
<path d="M165.175 178.535C165.175 178.535 170.68 176.82 179.689 159.343C187.3 144.596 180.515 130.347 179.149 120.809C179.011 119.835 177.678 119.697 177.349 120.618C175.073 127.023 171.4 138.668 171.993 145.845C172.85 156.188 165.175 178.535 165.175 178.535Z" fill="white"/>
<path d="M165.175 178.885C165.08 178.885 164.995 178.842 164.921 178.779C164.826 178.683 164.794 178.546 164.836 178.419C164.91 178.196 172.469 156.018 171.633 145.877C171.029 138.625 174.745 126.864 177.01 120.502C177.211 119.93 177.741 119.592 178.344 119.655C178.948 119.719 179.403 120.163 179.487 120.756C179.794 122.905 180.387 125.329 181.012 127.891C183.203 136.847 185.934 147.984 179.985 159.501C171.008 176.905 165.493 178.789 165.27 178.863C165.249 178.884 165.217 178.885 165.175 178.885ZM178.217 120.354C178.016 120.354 177.783 120.46 177.677 120.745C175.433 127.055 171.749 138.7 172.342 145.824C173.115 155.108 167.186 173.634 165.789 177.826C167.546 176.725 172.416 172.692 179.382 159.194C185.204 147.909 182.505 136.91 180.345 128.071C179.71 125.488 179.117 123.053 178.799 120.872C178.746 120.534 178.492 120.386 178.281 120.364C178.259 120.354 178.238 120.354 178.217 120.354Z" fill="#000318"/>
<path d="M172.733 153.452L170.825 168.543L165.709 167.559L157.636 142.27C153.135 128.158 156.493 112.694 166.427 101.773L170.852 96.9145L170.853 96.9139C171.283 96.4392 172.065 96.9091 171.815 97.5271L171.815 97.5283L168.671 105.383C164.969 114.627 165.3 125.026 169.601 134.013C172.482 140.056 173.571 146.801 172.733 153.452C172.733 153.452 172.733 153.452 172.733 153.452Z" fill="white" stroke="#000318" stroke-width="0.75"/>
<path d="M168.616 169.495L161.82 152.144C159.882 147.211 155.817 143.442 150.778 141.918L146.142 140.52C145.019 140.182 144.257 141.664 145.189 142.383L148.036 144.596C151.128 146.999 152.97 150.672 153.044 154.6C153.097 156.908 153.753 159.162 154.949 161.131L159.554 168.679L168.616 169.495Z" fill="white"/>
<path d="M168.616 169.844C168.605 169.844 168.595 169.844 168.584 169.844L159.533 169.029C159.427 169.018 159.321 168.955 159.268 168.859L154.663 161.312C153.435 159.29 152.758 156.971 152.705 154.61C152.631 150.768 150.852 147.221 147.835 144.871L144.988 142.659C144.342 142.161 144.331 141.41 144.596 140.88C144.86 140.362 145.475 139.949 146.247 140.182L150.884 141.579C156.061 143.146 160.168 146.946 162.148 152.017L168.944 169.368C168.986 169.484 168.976 169.611 168.902 169.706C168.828 169.791 168.722 169.844 168.616 169.844ZM159.766 168.341L168.076 169.082L161.481 152.26C159.575 147.391 155.627 143.739 150.662 142.235L146.025 140.838C145.612 140.711 145.316 140.954 145.199 141.187C145.072 141.431 145.051 141.822 145.4 142.087L148.248 144.3C151.434 146.777 153.308 150.524 153.393 154.579C153.435 156.823 154.081 159.025 155.246 160.93L159.766 168.341Z" fill="#000318"/>
<path d="M167.61 161.693C167.599 161.693 167.588 161.693 167.578 161.693C167.387 161.671 167.239 161.502 167.26 161.312C168.298 150.249 166.075 143.135 164.106 136.847C163.195 133.936 162.338 131.183 161.83 128.23C159.416 114.246 167.641 102.114 167.726 101.997C167.832 101.839 168.054 101.796 168.213 101.913C168.372 102.019 168.414 102.241 168.298 102.4C168.213 102.516 160.157 114.426 162.518 128.113C163.015 131.025 163.873 133.756 164.772 136.646C166.752 142.998 168.996 150.186 167.948 161.386C167.938 161.555 167.79 161.693 167.61 161.693Z" fill="#000318"/>
<path d="M165.905 150.81C165.757 150.81 165.619 150.715 165.577 150.567C164.698 147.92 162.729 145.168 161.215 143.326C161.088 143.178 161.12 142.955 161.268 142.828C161.417 142.701 161.639 142.733 161.766 142.881C163.311 144.765 165.333 147.592 166.244 150.344C166.307 150.524 166.201 150.725 166.022 150.789C165.979 150.8 165.947 150.81 165.905 150.81Z" fill="#000318"/>
<path d="M176.66 154.283C176.639 154.283 176.618 154.283 176.597 154.283C176.406 154.251 176.279 154.071 176.311 153.88C178.164 142.955 177.518 126.113 177.518 125.943C177.507 125.753 177.655 125.583 177.857 125.583H177.867C178.058 125.583 178.206 125.732 178.217 125.922C178.227 126.092 178.862 142.998 177.01 153.997C176.978 154.166 176.83 154.283 176.66 154.283Z" fill="#000318"/>
<path d="M160.433 163.344C160.242 163.344 160.083 163.185 160.083 162.995C159.956 149.423 149.105 143.474 149 143.41C148.83 143.315 148.767 143.103 148.851 142.934C148.947 142.765 149.158 142.701 149.328 142.786C149.444 142.849 152.197 144.342 155.012 147.581C157.606 150.577 160.708 155.669 160.782 162.974C160.782 163.185 160.634 163.344 160.433 163.344Z" fill="#000318"/>
<path d="M161.903 137.842C161.798 137.842 161.692 137.8 161.628 137.705C158.664 133.904 157.394 128.929 157.341 128.717C157.298 128.526 157.404 128.336 157.595 128.293C157.785 128.251 157.976 128.357 158.018 128.548C158.029 128.6 159.31 133.597 162.179 137.281C162.295 137.429 162.274 137.652 162.115 137.768C162.062 137.821 161.988 137.842 161.903 137.842Z" fill="#000318"/>
<path d="M167.081 189.651H166.933C159.861 189.651 154.134 183.924 154.134 176.852V165.302H179.88V176.852C179.88 183.913 174.153 189.651 167.081 189.651Z" fill="#FFD600"/>
<path d="M167.081 190H166.933C159.681 190 153.785 184.103 153.785 176.852V164.953H180.239V176.852C180.229 184.093 174.332 190 167.081 190ZM154.483 165.641V176.841C154.483 183.712 160.073 189.291 166.933 189.291H167.081C173.951 189.291 179.53 183.701 179.53 176.841V165.641H154.483Z" fill="#000318"/>
<path d="M177.36 169.95H156.654C156.463 169.95 156.304 169.791 156.304 169.601C156.304 169.41 156.463 169.251 156.654 169.251H177.36C177.551 169.251 177.709 169.41 177.709 169.601C177.709 169.791 177.551 169.95 177.36 169.95Z" fill="#FFD600"/>
<path d="M116.108 128.135C115.759 128.135 115.41 128.135 115.06 128.124C114.87 128.124 114.711 127.955 114.722 127.764C114.722 127.574 114.88 127.425 115.071 127.425H115.082C115.431 127.436 115.791 127.446 116.14 127.436C116.712 127.436 117.283 127.425 117.855 127.394C118.056 127.383 118.215 127.531 118.215 127.732C118.226 127.923 118.077 128.092 117.876 128.092C117.283 128.124 116.691 128.145 116.108 128.135ZM112.266 127.955C112.255 127.955 112.244 127.955 112.234 127.955C111.302 127.859 110.36 127.743 109.439 127.584C109.249 127.552 109.122 127.372 109.153 127.182C109.185 126.991 109.365 126.864 109.556 126.896C110.466 127.044 111.387 127.171 112.308 127.256C112.499 127.277 112.636 127.446 112.626 127.637C112.594 127.817 112.446 127.955 112.266 127.955ZM120.65 127.88C120.47 127.88 120.322 127.753 120.301 127.573C120.279 127.383 120.417 127.203 120.608 127.182C121.528 127.076 122.449 126.938 123.349 126.769C123.54 126.727 123.72 126.854 123.762 127.044C123.794 127.235 123.677 127.415 123.487 127.457C122.566 127.626 121.634 127.775 120.692 127.88C120.682 127.88 120.66 127.88 120.65 127.88ZM106.75 127.023C106.718 127.023 106.697 127.023 106.666 127.012C105.745 126.79 104.834 126.525 103.945 126.24C103.765 126.176 103.659 125.986 103.723 125.795C103.786 125.615 103.977 125.509 104.167 125.573C105.035 125.859 105.935 126.113 106.835 126.324C107.025 126.367 107.142 126.557 107.089 126.748C107.057 126.907 106.909 127.023 106.75 127.023ZM126.144 126.843C125.985 126.843 125.848 126.737 125.805 126.578C125.752 126.388 125.869 126.197 126.049 126.155C126.949 125.911 127.838 125.636 128.695 125.34C128.875 125.276 129.076 125.372 129.14 125.552C129.203 125.732 129.108 125.933 128.928 125.996C128.05 126.303 127.139 126.589 126.229 126.832C126.208 126.843 126.176 126.843 126.144 126.843ZM101.436 125.287C101.394 125.287 101.351 125.276 101.298 125.266C100.43 124.906 99.5623 124.504 98.726 124.08C98.5566 123.995 98.4825 123.784 98.5778 123.614C98.6624 123.445 98.8742 123.371 99.0436 123.466C99.8587 123.879 100.706 124.271 101.563 124.62C101.743 124.694 101.828 124.895 101.754 125.075C101.701 125.213 101.574 125.287 101.436 125.287ZM131.427 124.99C131.289 124.99 131.162 124.916 131.109 124.779C131.035 124.599 131.109 124.398 131.289 124.313C132.125 123.942 132.962 123.53 133.777 123.085C133.946 122.99 134.158 123.053 134.253 123.223C134.348 123.392 134.285 123.604 134.115 123.699C133.29 124.144 132.443 124.567 131.585 124.948C131.522 124.98 131.469 124.99 131.427 124.99ZM96.4605 122.746C96.397 122.746 96.3335 122.725 96.2806 122.693C95.476 122.196 94.6926 121.656 93.9516 121.095C93.7928 120.978 93.7717 120.756 93.8881 120.608C94.0045 120.449 94.2269 120.428 94.3751 120.544C95.1055 121.095 95.8677 121.624 96.6511 122.111C96.8099 122.217 96.8628 122.429 96.7675 122.598C96.6828 122.683 96.577 122.746 96.4605 122.746ZM136.339 122.312C136.222 122.312 136.116 122.259 136.042 122.153C135.936 121.995 135.979 121.772 136.148 121.666C136.91 121.169 137.672 120.618 138.403 120.057C138.551 119.941 138.773 119.962 138.89 120.121C139.006 120.269 138.985 120.491 138.826 120.608C138.085 121.19 137.312 121.741 136.529 122.249C136.466 122.291 136.402 122.312 136.339 122.312ZM91.9932 119.38C91.9085 119.38 91.8238 119.348 91.7603 119.285C91.0616 118.649 90.3947 117.972 89.7701 117.273C89.6431 117.125 89.6536 116.913 89.8018 116.776C89.9501 116.649 90.1724 116.659 90.2994 116.807C90.9134 117.485 91.5592 118.152 92.2472 118.766C92.3849 118.893 92.3955 119.115 92.2684 119.263C92.1837 119.337 92.0885 119.38 91.9932 119.38ZM140.753 118.882C140.658 118.882 140.562 118.84 140.499 118.766C140.372 118.618 140.382 118.406 140.52 118.268C141.198 117.654 141.864 116.998 142.5 116.331C142.637 116.193 142.849 116.183 142.997 116.32C143.135 116.458 143.145 116.67 143.008 116.818C142.362 117.506 141.685 118.173 140.986 118.798C140.922 118.851 140.838 118.882 140.753 118.882ZM88.2669 115.209C88.161 115.209 88.0551 115.156 87.981 115.061C87.4306 114.298 86.9118 113.505 86.4355 112.689C86.3402 112.52 86.3931 112.308 86.5625 112.213C86.7319 112.118 86.9436 112.171 87.0389 112.34C87.5047 113.134 88.0128 113.917 88.5527 114.658C88.6691 114.817 88.6268 115.029 88.4786 115.145C88.4045 115.188 88.341 115.209 88.2669 115.209ZM144.596 114.817C144.522 114.817 144.437 114.796 144.373 114.743C144.225 114.616 144.204 114.404 144.32 114.246C144.903 113.536 145.464 112.795 145.993 112.033C146.11 111.874 146.321 111.832 146.48 111.948C146.639 112.054 146.681 112.277 146.565 112.435C146.025 113.208 145.453 113.96 144.86 114.69C144.807 114.775 144.702 114.817 144.596 114.817ZM85.4509 110.382C85.3133 110.382 85.1863 110.308 85.1334 110.18C84.7417 109.334 84.3923 108.444 84.0748 107.555C84.0112 107.375 84.1065 107.174 84.2865 107.11C84.4664 107.047 84.6676 107.142 84.7311 107.322C85.0381 108.201 85.3874 109.058 85.7579 109.884C85.8426 110.064 85.7579 110.265 85.5886 110.35C85.5462 110.371 85.4933 110.382 85.4509 110.382ZM147.814 110.244C147.75 110.244 147.687 110.223 147.634 110.191C147.465 110.096 147.412 109.873 147.517 109.715C147.994 108.921 148.449 108.106 148.862 107.29C148.947 107.121 149.158 107.047 149.328 107.142C149.497 107.227 149.571 107.439 149.476 107.608C149.052 108.444 148.597 109.27 148.11 110.075C148.057 110.18 147.941 110.244 147.814 110.244ZM150.355 105.247C150.312 105.247 150.259 105.237 150.217 105.216C150.037 105.141 149.952 104.94 150.026 104.76C150.217 104.295 150.397 103.839 150.566 103.374C150.725 102.971 150.884 102.58 151.032 102.156C151.096 101.976 151.297 101.881 151.477 101.944C151.657 102.008 151.752 102.209 151.688 102.389C151.53 102.813 151.381 103.215 151.212 103.617C151.043 104.072 150.863 104.549 150.662 105.014C150.619 105.173 150.492 105.247 150.355 105.247ZM83.5984 105.11C83.4396 105.11 83.302 105.004 83.2596 104.845C83.0373 103.945 82.8362 103.014 82.688 102.071C82.6562 101.881 82.7832 101.701 82.9738 101.669C83.1643 101.637 83.3443 101.764 83.3761 101.955C83.5243 102.876 83.7148 103.786 83.9371 104.665C83.9795 104.856 83.8736 105.046 83.6831 105.089C83.6619 105.099 83.6301 105.11 83.5984 105.11ZM152.228 99.9754C152.197 99.9754 152.165 99.9754 152.133 99.9649C151.942 99.9119 151.837 99.7214 151.89 99.5308C152.144 98.6204 152.366 97.7206 152.546 96.8314C152.588 96.6408 152.768 96.5244 152.959 96.5561C153.149 96.5985 153.266 96.7784 153.234 96.969C153.054 97.8688 152.832 98.7898 152.567 99.7214C152.514 99.8696 152.377 99.9754 152.228 99.9754ZM153.319 94.4918C153.308 94.4918 153.297 94.4918 153.276 94.4918C153.086 94.4706 152.948 94.3013 152.969 94.1107C153.001 93.8355 153.022 93.5602 153.043 93.285C152.62 93.3273 152.186 93.3485 151.752 93.3591C151.561 93.3591 151.403 93.2003 151.403 93.0098C151.403 92.8192 151.561 92.6604 151.752 92.6604C152.207 92.6604 152.652 92.6287 153.086 92.5757C153.107 92.2052 153.107 91.8453 153.107 91.4959V91.3583H153.806V91.4959C153.806 91.8135 153.795 92.1417 153.784 92.4699C154.007 92.4275 154.218 92.3852 154.43 92.3322C154.621 92.2899 154.811 92.4063 154.854 92.5863C154.896 92.7769 154.79 92.9674 154.6 93.0098C154.314 93.0839 154.028 93.1368 153.742 93.1897C153.721 93.5179 153.689 93.8567 153.657 94.1848C153.647 94.3542 153.499 94.4918 153.319 94.4918ZM148.978 93.0627C148.957 93.0627 148.925 93.0627 148.904 93.0521C147.994 92.8616 147.073 92.5651 146.173 92.1735C145.993 92.0994 145.908 91.8876 145.993 91.7183C146.067 91.5383 146.279 91.4536 146.448 91.5383C147.306 91.9088 148.184 92.184 149.042 92.3746C149.232 92.4169 149.349 92.5969 149.307 92.7875C149.285 92.9462 149.137 93.0627 148.978 93.0627ZM157.13 91.9829C157.013 91.9829 156.886 91.9194 156.823 91.8029C156.727 91.6336 156.78 91.4218 156.95 91.3266C157.5 91.009 158.019 90.6385 158.495 90.215C158.686 90.0456 158.887 89.8551 159.067 89.6645C159.205 89.5269 159.427 89.5163 159.564 89.654C159.702 89.7916 159.713 90.0139 159.575 90.1515C159.374 90.3632 159.173 90.5538 158.961 90.7443C158.453 91.1995 157.892 91.6018 157.299 91.9406C157.246 91.9617 157.183 91.9829 157.13 91.9829ZM143.855 90.8714C143.791 90.8714 143.717 90.8502 143.664 90.8078C142.838 90.2574 142.097 89.654 141.441 88.9976C141.303 88.86 141.303 88.6377 141.441 88.5001C141.579 88.3624 141.801 88.3624 141.939 88.5001C142.553 89.1246 143.262 89.6963 144.045 90.2256C144.204 90.3315 144.246 90.5538 144.14 90.7126C144.077 90.8184 143.971 90.8714 143.855 90.8714ZM153.255 88.9023C153.086 88.9023 152.938 88.7753 152.906 88.6059C152.758 87.6743 152.535 86.7745 152.249 85.9594C152.186 85.7794 152.281 85.5783 152.461 85.5148C152.641 85.4513 152.842 85.5465 152.906 85.7265C153.213 86.5946 153.446 87.5261 153.594 88.5001C153.626 88.6906 153.488 88.8706 153.298 88.9023C153.287 88.9023 153.266 88.9023 153.255 88.9023ZM160.941 87.9919C160.888 87.9919 160.835 87.9813 160.782 87.9496C160.613 87.8543 160.549 87.6532 160.634 87.4732C161.047 86.6898 161.364 85.8324 161.565 84.9431C161.608 84.7526 161.798 84.6361 161.989 84.6785C162.179 84.7208 162.296 84.9114 162.253 85.1019C162.031 86.0547 161.692 86.9651 161.258 87.8014C161.195 87.9178 161.068 87.9919 160.941 87.9919ZM140.001 86.8804C139.874 86.8804 139.758 86.8169 139.694 86.7004C139.165 85.7371 138.9 84.7843 138.9 83.8633C138.9 83.6728 139.059 83.514 139.25 83.514C139.44 83.514 139.599 83.6728 139.599 83.8633C139.599 84.6573 139.832 85.5042 140.308 86.3617C140.404 86.531 140.34 86.7428 140.171 86.838C140.107 86.8698 140.054 86.8804 140.001 86.8804ZM151.36 83.6834C151.244 83.6834 151.127 83.6304 151.064 83.5246C150.873 83.2282 150.672 82.9423 150.45 82.6671C150.206 82.3601 149.836 81.8837 149.359 81.3862C149.222 81.2486 149.232 81.0262 149.37 80.8886C149.508 80.751 149.73 80.7616 149.868 80.8992C150.365 81.4179 150.746 81.9049 151 82.2331C151.233 82.5295 151.445 82.8365 151.646 83.1435C151.752 83.3023 151.699 83.5246 151.54 83.6304C151.487 83.6622 151.424 83.6834 151.36 83.6834ZM162.211 82.593C162.02 82.593 161.862 82.4342 161.862 82.2437C161.851 81.3438 161.745 80.4334 161.534 79.5442C161.491 79.3536 161.608 79.1631 161.798 79.1208C161.989 79.0784 162.179 79.1949 162.222 79.3854C162.444 80.3276 162.56 81.2909 162.56 82.2331C162.56 82.4342 162.412 82.593 162.211 82.593ZM140.107 81.5979C140.044 81.5979 139.97 81.5767 139.906 81.5344C139.747 81.4285 139.705 81.2062 139.811 81.0474C140.361 80.2429 141.102 79.5442 141.949 79.0466C142.119 78.9514 142.33 79.0043 142.426 79.1737C142.521 79.3431 142.468 79.5548 142.299 79.6501C141.536 80.0947 140.869 80.7193 140.382 81.4391C140.329 81.545 140.224 81.5979 140.107 81.5979ZM147.454 79.7242C147.39 79.7242 147.338 79.7136 147.274 79.6818C146.448 79.2054 145.612 78.962 144.786 78.9514C144.596 78.9514 144.437 78.7926 144.437 78.602C144.437 78.4115 144.596 78.2527 144.786 78.2527C145.728 78.2633 146.681 78.5385 147.613 79.0784C147.782 79.1737 147.835 79.3854 147.74 79.5548C147.697 79.6606 147.57 79.7242 147.454 79.7242Z" fill="white"/>
<path d="M118.734 121.328C129.258 121.328 137.789 112.806 137.789 102.294C137.789 91.7818 129.258 83.26 118.734 83.26C108.21 83.26 99.6792 91.7818 99.6792 102.294C99.6792 112.806 108.21 121.328 118.734 121.328Z" fill="#000318"/>
<path d="M119.899 121.878C130.107 121.878 138.382 113.608 138.382 103.405C138.382 93.2032 130.107 84.9326 119.899 84.9326C109.691 84.9326 101.416 93.2032 101.416 103.405C101.416 113.608 109.691 121.878 119.899 121.878Z" fill="#FFD600"/>
<path d="M119.909 122.227C111.736 122.227 104.199 116.871 101.806 108.645C100.409 103.818 100.97 98.7368 103.394 94.333C105.819 89.9292 109.82 86.7322 114.647 85.3348C124.619 82.4448 135.089 88.2036 137.979 98.1758C139.377 103.003 138.815 108.084 136.391 112.488C133.967 116.892 129.965 120.089 125.138 121.486C123.402 121.984 121.634 122.227 119.909 122.227ZM119.898 85.2819C118.236 85.2819 116.542 85.5148 114.859 86.0017C110.212 87.3462 106.358 90.4267 104.019 94.6612C101.679 98.8956 101.139 103.797 102.484 108.444C104.781 116.363 112.043 121.518 119.909 121.518C121.571 121.518 123.264 121.285 124.948 120.798C129.595 119.454 133.448 116.373 135.788 112.139C138.127 107.894 138.667 103.003 137.323 98.3557C135.026 90.4373 127.764 85.2819 119.898 85.2819Z" fill="#000318"/>
<path d="M120.036 119.369C128.601 119.369 135.544 112.431 135.544 103.871C135.544 95.3118 128.601 88.373 120.036 88.373C111.47 88.373 104.527 95.3118 104.527 103.871C104.527 112.431 111.47 119.369 120.036 119.369Z" fill="white"/>
<path d="M134.899 108.656C134.867 108.656 134.835 108.656 134.793 108.646C134.613 108.593 134.507 108.391 134.56 108.212C134.973 106.825 135.195 105.385 135.195 103.945C135.195 103.755 135.354 103.596 135.545 103.596C135.735 103.596 135.894 103.755 135.894 103.945C135.883 105.459 135.661 106.962 135.227 108.413C135.195 108.561 135.058 108.656 134.899 108.656Z" fill="#000318"/>
<path d="M131.564 93.8461C131.469 93.8461 131.373 93.8038 131.299 93.7297C127.372 89.3788 121.433 87.6956 115.812 89.3153C113.208 90.0669 110.847 91.5066 108.994 93.4756C108.857 93.6133 108.645 93.6238 108.497 93.4862C108.359 93.3486 108.349 93.1369 108.486 92.9887C110.424 90.935 112.89 89.4317 115.621 88.6378C121.507 86.9334 127.721 88.7013 131.829 93.2533C131.956 93.4015 131.945 93.6132 131.808 93.7509C131.733 93.8144 131.649 93.8461 131.564 93.8461Z" fill="#000318"/>
<path d="M120.046 119.719C113.165 119.719 106.814 115.209 104.802 108.275C104.209 106.221 104.029 104.115 104.283 102.019C104.305 101.828 104.485 101.69 104.675 101.712C104.866 101.733 105.003 101.913 104.982 102.103C104.749 104.115 104.908 106.126 105.48 108.084C107.809 116.109 116.235 120.745 124.26 118.417C124.439 118.364 124.641 118.469 124.694 118.66C124.746 118.851 124.641 119.041 124.45 119.094C122.979 119.518 121.497 119.719 120.046 119.719Z" fill="#000318"/>
<path d="M121.889 114.478L121.18 112.033C119.433 112.456 117.623 112.478 116.479 112.192L116.374 108.952C117.633 109.228 119.306 109.334 120.979 108.847C122.45 108.423 123.286 107.566 122.99 106.528C122.704 105.554 121.698 105.173 119.602 105.078C116.575 104.951 114.32 104.21 113.589 101.712C112.933 99.4461 114.013 97.2018 116.617 95.868L115.908 93.4226L118.438 92.6921L119.094 94.9576C120.841 94.5341 122.111 94.5553 123.075 94.7247L123.17 97.8476C122.418 97.7629 121.063 97.5088 119.2 98.0487C117.527 98.5357 117.189 99.4143 117.4 100.134C117.644 100.981 118.703 101.267 121.137 101.457C124.514 101.648 126.166 102.707 126.843 105.025C127.51 107.322 126.452 109.746 123.636 111.123L124.398 113.748L121.889 114.478Z" fill="#FFD600"/>
<path d="M143.295 80.9311C151.287 80.9311 157.766 74.4568 157.766 66.4704C157.766 58.484 151.287 52.0098 143.295 52.0098C135.303 52.0098 128.824 58.484 128.824 66.4704C128.824 74.4568 135.303 80.9311 143.295 80.9311Z" fill="#000318"/>
<path d="M144.046 80.4336C151.799 80.4336 158.084 74.1537 158.084 66.407C158.084 58.6603 151.799 52.3804 144.046 52.3804C136.294 52.3804 130.009 58.6603 130.009 66.407C130.009 74.1537 136.294 80.4336 144.046 80.4336Z" fill="#FFD600"/>
<path d="M144.026 80.7723C141.602 80.7723 139.156 80.1583 136.912 78.8773C133.578 76.9718 131.185 73.8807 130.169 70.1755C129.163 66.4704 129.65 62.5959 131.556 59.2612C135.494 52.3802 144.301 49.9772 151.182 53.9152C154.517 55.8207 156.909 58.9119 157.926 62.617C158.931 66.3222 158.444 70.1967 156.539 73.5313C153.892 78.1787 149.023 80.7723 144.026 80.7723ZM144.079 52.7296C139.326 52.7296 134.7 55.2067 132.17 59.6106C130.359 62.7864 129.883 66.4704 130.846 69.9956C131.81 73.5208 134.086 76.4637 137.261 78.2739C143.814 82.0214 152.188 79.7348 155.935 73.1926C157.746 70.0168 158.222 66.3328 157.259 62.8076C156.295 59.2824 154.019 56.3395 150.843 54.5292C148.705 53.3118 146.376 52.7296 144.079 52.7296Z" fill="#000318"/>
<path d="M144.048 78.1788C150.555 78.1788 155.83 72.9084 155.83 66.407C155.83 59.9057 150.555 54.6353 144.048 54.6353C137.54 54.6353 132.265 59.9057 132.265 66.407C132.265 72.9084 137.54 78.1788 144.048 78.1788Z" fill="white"/>
<path d="M149.477 77.2048C149.35 77.2048 149.223 77.1307 149.17 77.0143C149.085 76.8449 149.149 76.6332 149.318 76.5379C150.292 76.0404 151.181 75.3946 151.964 74.643C152.102 74.5054 152.324 74.516 152.462 74.6536C152.6 74.7912 152.589 75.0135 152.451 75.1511C151.615 75.9557 150.673 76.6332 149.646 77.1625C149.593 77.1837 149.54 77.2048 149.477 77.2048Z" fill="#000318"/>
<path d="M155.807 67.5504C155.797 67.5504 155.786 67.5504 155.786 67.5504C155.596 67.5398 155.447 67.3704 155.458 67.1798C155.754 62.776 153.563 58.6792 149.72 56.4878C146.566 54.6882 142.712 54.4977 139.388 55.9691C139.208 56.0538 139.007 55.9691 138.923 55.7892C138.848 55.6092 138.923 55.4081 139.103 55.3234C142.628 53.7566 146.725 53.9578 150.07 55.8738C154.082 58.1605 156.464 62.6172 156.157 67.2222C156.146 67.4127 155.987 67.5504 155.807 67.5504Z" fill="#000318"/>
<path d="M138.203 76.9718C138.14 76.9718 138.087 76.9612 138.034 76.9294C135.218 75.3203 133.206 72.7162 132.349 69.5932C131.502 66.4703 131.915 63.1992 133.524 60.3939C134.551 58.5942 136.033 57.0804 137.811 56.0218C137.981 55.9265 138.192 55.9795 138.288 56.1383C138.383 56.3076 138.33 56.5194 138.171 56.6146C136.499 57.6097 135.101 59.0389 134.138 60.7432C132.624 63.3898 132.232 66.4703 133.037 69.4133C133.842 72.3562 135.736 74.8122 138.394 76.326C138.563 76.4213 138.616 76.633 138.521 76.8024C138.447 76.9083 138.319 76.9718 138.203 76.9718Z" fill="#000318"/>
<path d="M138.986 73.0866L139.949 71.4034C138.795 70.673 137.821 69.699 137.376 68.9262L139.091 67.1584C139.6 67.9947 140.436 68.958 141.579 69.6143C142.585 70.186 143.506 70.1966 143.908 69.4873C144.289 68.8204 143.972 68.0688 142.913 66.8725C141.389 65.1576 140.595 63.5273 141.579 61.8124C142.468 60.2562 144.268 59.6634 146.375 60.3726L147.338 58.6895L149.074 59.6845L148.185 61.2407C149.339 61.9712 149.995 62.6698 150.419 63.2944L148.767 64.9988C148.418 64.5436 147.836 63.6649 146.565 62.9451C145.411 62.2887 144.755 62.5746 144.48 63.0615C144.141 63.6438 144.554 64.3742 145.729 65.7927C147.412 67.7406 147.698 69.2015 146.788 70.7894C145.888 72.3667 144.003 73.0654 141.77 72.2609L140.743 74.0605L138.986 73.0866Z" fill="#FFD600"/>
<path d="M30.6877 157.225C30.5078 157.501 23.6479 167.303 23.6479 167.303C23.6479 167.303 23.8173 169.802 25.5958 170.289L33.7471 161.47L30.6877 157.225Z" fill="white"/>
<path d="M25.6073 170.638C25.5756 170.638 25.5438 170.638 25.5121 170.627C23.5219 170.077 23.3102 167.441 23.3102 167.335C23.2996 167.25 23.3313 167.176 23.3737 167.113C25.745 163.725 30.2652 157.268 30.4029 157.045C30.4664 156.95 30.5722 156.887 30.6887 156.887C30.8051 156.876 30.911 156.94 30.9851 157.035L34.0551 161.28C34.1504 161.418 34.1398 161.597 34.0233 161.725L25.872 170.543C25.7979 170.596 25.7026 170.638 25.6073 170.638ZM24.0194 167.399C24.0724 167.843 24.3582 169.421 25.5015 169.886L33.3035 161.449L30.6887 157.839C29.4607 159.607 24.7075 166.404 24.0194 167.399Z" fill="#000318"/>
<path d="M19.9136 169.018C19.9136 169.018 20.4958 176.757 23.9151 180.822C27.3345 184.897 32.8181 183.595 32.8181 183.595C32.8181 183.595 33.2309 180.155 32.5217 179.255C31.8124 178.355 27.8743 173.57 27.8849 169.272L25.7995 166.425L24.5609 168.023L24.0316 165.419L19.9136 169.018Z" fill="white"/>
<path d="M30.8061 184.135C28.8159 184.135 25.82 183.638 23.6499 181.055C20.1988 176.947 19.5954 169.368 19.5636 169.05C19.553 168.944 19.5954 168.828 19.6801 168.764L23.8087 165.165C23.9039 165.08 24.031 165.059 24.1474 165.101C24.2639 165.144 24.3485 165.239 24.3803 165.366L24.7614 167.219L25.5236 166.224C25.5871 166.139 25.693 166.086 25.7988 166.086C25.9047 166.086 26.0106 166.139 26.0741 166.224L28.1596 169.071C28.2019 169.135 28.2231 169.209 28.2231 169.283C28.2231 171.125 28.9959 174.301 32.701 178.948L32.7751 179.043C33.5585 180.028 33.188 183.278 33.1456 183.638C33.1245 183.786 33.0186 183.902 32.881 183.934C32.881 183.945 32.0341 184.135 30.8061 184.135ZM20.2835 169.167C20.3999 170.32 21.1621 177 24.1898 180.6C27.0268 183.987 31.4413 183.479 32.5105 183.299C32.6481 181.997 32.6798 180.007 32.2564 179.477L32.1823 179.382C28.4136 174.671 27.5773 171.368 27.5456 169.389L25.7988 167.007L24.8461 168.235C24.7614 168.341 24.6238 168.394 24.4862 168.362C24.3485 168.33 24.2533 168.224 24.2215 168.087L23.8087 166.065L20.2835 169.167Z" fill="#000318"/>
<path d="M21.3003 169.326C21.3003 169.326 22.1895 182.177 31.7382 181.902L21.3003 169.326Z" fill="white"/>
<path d="M31.4315 182.251C27.5252 182.251 24.4764 180.049 22.6133 175.857C21.1947 172.66 20.9513 169.484 20.9513 169.347C20.9407 169.156 21.0783 168.987 21.2794 168.976C21.47 168.966 21.6394 169.103 21.6499 169.304C21.6605 169.431 22.6027 181.563 31.4421 181.563C31.5374 181.563 31.6327 181.563 31.7279 181.563H31.7385C31.9291 181.563 32.0773 181.711 32.0879 181.902C32.0985 182.092 31.9397 182.251 31.7491 182.262C31.6433 182.251 31.5374 182.251 31.4315 182.251Z" fill="#000318"/>
<path d="M34.1514 165.631C34.1091 166.054 34.5431 171.919 36.3639 175.614C36.3639 175.614 35.517 178.324 32.9446 177.837C32.9446 177.837 28.9854 170.31 28.1597 165.43L34.1514 165.631Z" fill="white"/>
<path d="M33.5377 178.239C33.326 178.239 33.1143 178.218 32.8814 178.175C32.7755 178.154 32.6908 178.091 32.6379 177.995C32.4791 177.688 28.6469 170.363 27.8106 165.482C27.7895 165.377 27.8212 165.271 27.8953 165.197C27.9694 165.123 28.0647 165.07 28.1706 165.08L34.1623 165.292C34.2576 165.292 34.3529 165.334 34.4164 165.408C34.4799 165.482 34.5117 165.578 34.5011 165.673C34.4799 165.98 34.8822 171.813 36.6818 175.465C36.7242 175.55 36.7242 175.635 36.703 175.719C36.4066 176.651 35.4009 178.239 33.5377 178.239ZM33.1778 177.508C35.0304 177.752 35.8032 176.111 35.9831 175.624C34.4058 172.321 33.8659 167.409 33.8024 165.959L28.5834 165.779C29.4621 170.162 32.6273 176.45 33.1778 177.508Z" fill="#000318"/>
<path d="M31.5167 175.01C31.5167 175.01 30.8603 182.717 31.8237 184.897C31.8237 184.897 39.1599 188.666 47.6711 188.656C48.2745 188.656 48.7721 188.169 48.7615 187.565C48.7509 186.104 48.3698 183.447 46.0408 181.34C42.6533 178.281 35.3806 173.253 35.3806 173.253L33.9091 175.031L34.5231 177.836L31.5167 175.01Z" fill="white"/>
<path d="M47.6394 189.005C39.1493 189.005 31.739 185.247 31.6649 185.204C31.5908 185.173 31.5379 185.109 31.5061 185.035C30.511 182.801 31.1356 175.296 31.1674 174.978C31.1779 174.841 31.2626 174.735 31.3897 174.682C31.5167 174.64 31.6543 174.661 31.7496 174.756L33.9515 176.81L33.581 175.095C33.5598 174.989 33.581 174.883 33.6551 174.798L35.1266 173.02C35.243 172.882 35.4442 172.85 35.5924 172.956C35.6665 173.009 42.918 178.038 46.2844 181.076C48.7298 183.288 49.1109 186.083 49.1214 187.555C49.1214 187.936 48.9732 188.296 48.7086 188.571C48.4333 188.846 48.0734 189.005 47.6817 189.005C47.6711 189.005 47.65 189.005 47.6394 189.005ZM32.0989 184.643C33.0517 185.109 39.9009 188.306 47.6394 188.306C47.8511 188.306 48.0522 188.232 48.211 188.084C48.3487 187.946 48.4228 187.756 48.4228 187.565C48.4122 186.21 48.0522 183.627 45.808 181.595C42.8439 178.906 36.7886 174.65 35.4547 173.719L34.3009 175.116L34.8831 177.752C34.9149 177.9 34.8513 178.059 34.7137 178.133C34.5761 178.207 34.4173 178.186 34.3009 178.08L31.8131 175.762C31.6755 177.678 31.4003 182.833 32.0989 184.643Z" fill="#000318"/>
<path d="M32.396 182.622C32.396 182.622 39.3723 187.025 47.7247 186.517L32.396 182.622Z" fill="white"/>
<path d="M46.3908 186.909C38.6206 186.909 32.2689 182.96 32.2054 182.918C32.0466 182.812 31.9936 182.6 32.0995 182.431C32.2054 182.272 32.4171 182.219 32.5865 182.325C32.6606 182.367 39.5627 186.655 47.7035 186.168C47.894 186.157 48.0634 186.305 48.074 186.496C48.0846 186.687 47.9364 186.856 47.7458 186.867C47.2906 186.898 46.8354 186.909 46.3908 186.909Z" fill="#000318"/>
<path d="M46.0406 88.8281C46.0406 88.8281 54.1072 112.552 54.1495 128.177C54.1919 143.802 32.0669 164.519 32.0669 164.519L27.4937 160.56C27.4937 160.56 35.6344 151.943 37.1906 140.277C38.7467 128.611 34.0147 106.592 34.0147 106.592L32.268 91.0406L46.0406 88.8281Z" fill="#000318"/>
<path d="M21.2788 88.8283C21.2788 88.8283 16.1657 123.074 28.1492 168.33L35.3796 167.293C35.3796 167.293 31.4839 127.722 40.8208 106.804L42.9063 87.8967L21.2788 88.8283Z" fill="#000318"/>
<path d="M36.3005 127.722C36.11 127.722 35.9512 127.563 35.9512 127.373C35.9194 122.196 37.3486 112.224 39.5717 108.974C39.6775 108.815 39.8998 108.773 40.0586 108.879C40.2174 108.984 40.2598 109.207 40.1539 109.366C38.079 112.393 36.6181 122.217 36.6499 127.362C36.6499 127.563 36.4911 127.722 36.3005 127.722Z" fill="white"/>
<path d="M34.8723 157.575C34.6923 157.575 34.5335 157.426 34.5229 157.246C34.2477 152.419 35.0311 144.48 35.0417 144.395C35.0628 144.204 35.2322 144.067 35.4228 144.077C35.6133 144.098 35.7509 144.268 35.7403 144.458C35.7298 144.532 34.957 152.419 35.2322 157.204C35.2428 157.395 35.0946 157.564 34.904 157.575C34.8935 157.575 34.8829 157.575 34.8723 157.575Z" fill="white"/>
<path d="M92.1416 18.9702C92.1416 18.9702 86.7215 19.2137 85.0171 19.563C83.2386 19.9336 81.2696 20.6428 79.47 24.2421C77.6703 27.8414 68.1322 47.1188 42.8843 45.3932L47.6692 59.4728C47.6692 59.4728 75.1297 57.9695 81.0685 29.9163C81.3861 28.4236 82.8364 27.852 84.1914 27.1427C85.4617 26.4758 86.7532 25.5654 87.1237 23.4376C87.4096 21.7861 88.627 20.8122 90.0561 20.6534C91.0194 20.537 92.1839 20.1029 92.1416 18.9702Z" fill="white"/>
<path d="M47.6596 59.8223C47.5114 59.8223 47.3738 59.727 47.3314 59.5894L42.5465 45.5098C42.5041 45.4039 42.5253 45.2769 42.5994 45.1816C42.6735 45.0863 42.79 45.0334 42.8958 45.044C64.608 46.5261 74.9189 32.563 79.1322 24.1152L79.1428 24.0835C81.0271 20.3148 83.1126 19.5949 84.9334 19.2244C86.6377 18.8645 91.8885 18.6316 92.1108 18.621C92.1955 18.6104 92.2907 18.6528 92.3648 18.7163C92.4284 18.7798 92.4707 18.8645 92.4813 18.9598C92.5236 20.0607 91.6132 20.8229 90.0676 21.0029C88.6915 21.1617 87.6858 22.125 87.4423 23.5012C87.0612 25.7455 85.7168 26.7194 84.33 27.4498C84.1712 27.5345 84.023 27.6086 83.8642 27.6933C82.7209 28.2756 81.6305 28.826 81.387 29.9905C78.2853 44.6206 69.2871 51.9568 62.279 55.5243C54.6888 59.3988 47.7337 59.8117 47.6702 59.8223C47.6808 59.8223 47.6702 59.8223 47.6596 59.8223ZM43.3828 45.7744L47.9137 59.1024C49.2369 58.9859 55.3769 58.2767 62.0038 54.8891C68.8636 51.3851 77.6819 44.1865 80.7201 29.8423C81.0377 28.3603 82.3186 27.7039 83.5678 27.0687C83.716 26.9946 83.8748 26.91 84.023 26.8358C85.1663 26.2324 86.4154 25.4173 86.7648 23.3848C87.0612 21.6804 88.2998 20.5053 89.9936 20.3042C90.4699 20.2513 91.4968 20.0501 91.7403 19.3303C90.4382 19.3938 86.4684 19.6161 85.0816 19.9019C83.4301 20.2407 81.5141 20.9076 79.7779 24.3905L79.7673 24.4222C75.5117 32.9652 65.1479 47.0236 43.3828 45.7744Z" fill="#000318"/>
<path d="M83.0701 26.5818C82.943 26.5818 82.816 26.5077 82.7525 26.3912C82.6678 26.2219 82.7313 26.0101 82.9113 25.9254C84.4251 25.1632 84.5204 24.2105 84.5945 23.4377C84.6368 23.0037 84.6792 22.5908 84.9756 22.3156C85.1767 22.125 85.3567 21.818 85.5155 21.511L81.7891 23.8188C81.6303 23.9247 81.408 23.8717 81.3022 23.7024C81.1963 23.533 81.2492 23.3213 81.4186 23.2154L86.0342 20.3571C86.1612 20.283 86.32 20.283 86.4259 20.3783C86.5423 20.463 86.5952 20.6112 86.5529 20.7594C86.5317 20.8229 86.1295 22.1991 85.4519 22.8237C85.3461 22.919 85.3249 23.2048 85.2931 23.5012C85.2085 24.3481 85.0814 25.6184 83.2183 26.55C83.1759 26.5712 83.123 26.5818 83.0701 26.5818Z" fill="#000318"/>
<path d="M53.5454 103.374C48.7393 102.961 44.8648 103.141 42.2606 103.374C34.1304 104.104 29.3984 106.126 26.2755 103.406C24.4441 101.818 23.9042 99.2452 22.9091 99.4569C21.914 99.6686 22.2316 102.305 20.252 103.818C19.3628 104.507 18.3465 104.697 17.6055 104.75C16.9491 101.426 16.4092 96.5669 17.3726 90.9351C18.41 84.8798 20.559 81.6934 21.7446 78.2741C23.6184 72.9175 24.0101 64.5862 17.1503 51.6817C19.0452 50.3796 31.4839 45.8805 41.456 44.6525C43.2663 44.4302 45.0341 45.3088 45.934 46.8968C48.6017 51.5864 50.8036 55.7997 51.1318 58.9649C51.9998 67.1798 53.069 82.9108 53.5454 103.374Z" fill="#FFD600"/>
<path d="M30.5631 105.142C28.7635 105.142 27.3026 104.771 26.0429 103.681C25.143 102.897 24.5396 101.902 24.0633 101.098C23.6716 100.431 23.2587 99.7533 22.9729 99.8062C22.7294 99.8591 22.5494 100.399 22.3695 100.971C22.0625 101.913 21.6496 103.194 20.464 104.104C19.7018 104.686 18.749 105.025 17.6269 105.099C17.4469 105.11 17.2881 104.993 17.2564 104.813C16.3248 100.081 16.2507 95.3918 17.0235 90.8821C17.7539 86.6371 19.0137 83.8 20.1252 81.3016C20.6016 80.2219 21.0568 79.195 21.4167 78.1681C23.8939 71.086 22.3589 62.236 16.8435 51.8616C16.7588 51.7028 16.8118 51.5122 16.96 51.4064C19.0666 49.9667 31.6641 45.5205 41.4139 44.3243C43.3724 44.0808 45.2673 45.0335 46.2412 46.7485C49.2371 52.0204 51.1638 55.9055 51.4814 58.9543C52.3282 67.0527 53.408 82.9742 53.8844 103.374C53.8844 103.469 53.8421 103.564 53.7785 103.638C53.7044 103.702 53.6092 103.744 53.5139 103.734C49.7241 103.405 45.9448 103.405 42.2926 103.734C39.9531 103.945 37.8993 104.263 36.0785 104.538C33.9295 104.856 32.1193 105.142 30.5631 105.142ZM23.0258 99.0969C23.6822 99.0969 24.1162 99.8274 24.6561 100.727C25.1113 101.489 25.6724 102.432 26.4875 103.141C28.5835 104.962 31.5159 104.517 35.9515 103.829C37.7829 103.543 39.8472 103.226 42.2079 103.014C45.7754 102.696 49.4594 102.686 53.1646 102.982C52.6882 82.7943 51.619 67.0421 50.7721 59.0072C50.4333 55.7573 48.0409 51.3323 45.6166 47.0767C44.7803 45.6158 43.1607 44.8006 41.488 45.0018C31.7488 46.198 20.0935 50.4007 17.6057 51.8087C23.0893 62.236 24.5926 71.1813 22.0625 78.3904C21.692 79.4491 21.2368 80.4865 20.7498 81.5769C19.6594 84.0434 18.4209 86.8276 17.701 90.9985C16.96 95.3283 17.0129 99.8274 17.8704 104.369C18.7173 104.263 19.4371 103.988 20.0194 103.543C21.0356 102.77 21.3956 101.648 21.692 100.748C21.9566 99.9438 22.1789 99.2557 22.8141 99.1181C22.8988 99.1075 22.9623 99.0969 23.0258 99.0969Z" fill="#000318"/>
<path d="M102.899 100.791H36.9476C34.8304 100.791 33.1366 99.0227 33.2213 96.9055L34.841 58.8165C34.9257 56.8264 36.5665 55.249 38.5673 55.249H104.53C106.647 55.249 108.341 57.0169 108.256 59.1341L106.626 97.2231C106.541 99.2133 104.9 100.791 102.899 100.791Z" fill="#FFD600"/>
<path d="M102.899 101.14H36.9473C35.8252 101.14 34.7772 100.695 34.0044 99.8801C33.2316 99.0755 32.8293 98.0063 32.8717 96.8948L34.4914 58.8059C34.5866 56.6145 36.3757 54.9102 38.567 54.9102H104.529C105.651 54.9102 106.699 55.3548 107.472 56.1699C108.245 56.9744 108.647 58.0437 108.605 59.1552L106.985 97.2441C106.879 99.4249 105.09 101.14 102.899 101.14ZM38.5564 55.6088C36.7462 55.6088 35.2642 57.0274 35.1795 58.8376L33.5598 96.9265C33.5174 97.8581 33.8562 98.7368 34.4914 99.4037C35.1371 100.071 36.0052 100.441 36.9262 100.441H102.888C104.699 100.441 106.181 99.0226 106.265 97.2124L107.885 59.1234C107.927 58.1919 107.589 57.3132 106.953 56.6463C106.308 55.9794 105.44 55.6088 104.519 55.6088H38.5564Z" fill="#000318"/>
<path d="M50.9953 77.1092H41.4995C40.6103 77.1092 39.9222 76.3894 39.9433 75.5001L40.208 67.677C40.2398 66.7877 40.9808 66.0679 41.87 66.0679H51.3658C52.255 66.0679 52.9431 66.7877 52.922 67.677L52.6573 75.5001C52.6255 76.3894 51.8845 77.1092 50.9953 77.1092Z" fill="white"/>
<path d="M60.2906 96.4183H38.8431C38.2926 96.4183 37.8374 95.9737 37.8374 95.4127C37.8374 94.8622 38.282 94.407 38.8431 94.407H60.2906C60.8411 94.407 61.2963 94.8516 61.2963 95.4127C61.2963 95.9631 60.8411 96.4183 60.2906 96.4183Z" fill="#000318"/>
<path d="M100.761 96.4183H94.5364C93.986 96.4183 93.5308 95.9737 93.5308 95.4127C93.5308 94.8622 93.9754 94.407 94.5364 94.407H100.761C101.312 94.407 101.767 94.8516 101.767 95.4127C101.767 95.9631 101.312 96.4183 100.761 96.4183Z" fill="#000318"/>
<path d="M51.2598 86.3403H40.5254C39.8797 86.3403 39.3716 85.811 39.3927 85.1547L39.4562 83.1856C39.4774 82.5293 40.0173 82 40.6737 82H51.4186C52.0643 82 52.5725 82.5293 52.5513 83.1856L52.4878 85.1547C52.456 85.8004 51.9161 86.3403 51.2598 86.3403Z" fill="#FFD600"/>
<path d="M67.8915 86.3403H57.1465C56.5008 86.3403 55.9926 85.811 56.0138 85.1547L56.0773 83.1856C56.0985 82.5293 56.6384 82 57.2947 82H68.0397C68.6854 82 69.1936 82.5293 69.1724 83.1856L69.1089 85.1547C69.0771 85.8004 68.5372 86.3403 67.8915 86.3403Z" fill="#FFD600"/>
<path d="M84.5117 86.3403H73.7774C73.1316 86.3403 72.6235 85.811 72.6447 85.1547L72.7082 83.1856C72.7294 82.5293 73.2693 82 73.9256 82H84.6705C85.3163 82 85.8244 82.5293 85.8032 83.1856L85.7397 85.1547C85.708 85.8004 85.1681 86.3403 84.5117 86.3403Z" fill="#FFD600"/>
<path d="M101.141 86.3403H90.3965C89.7508 86.3403 89.2426 85.811 89.2638 85.1547L89.3273 83.1856C89.3485 82.5293 89.8884 82 90.5447 82H101.29C101.935 82 102.444 82.5293 102.422 83.1856L102.359 85.1547C102.327 85.8004 101.787 86.3403 101.141 86.3403Z" fill="#FFD600"/>
<path d="M100.4 63.8978H88.7134C87.5807 63.8978 86.6597 62.9768 86.6597 61.8441V61.8335C86.6597 60.7008 87.5807 59.7798 88.7134 59.7798H100.4C101.533 59.7798 102.454 60.7008 102.454 61.8335V61.8441C102.454 62.9768 101.533 63.8978 100.4 63.8978Z" fill="#000318"/>
<path d="M1.28076 70.2602C1.29134 70.1226 1.33369 69.9744 1.36544 69.8368C4.23429 56.2654 17.16 51.6921 17.16 51.6921C17.16 51.6921 22.7283 54.0317 22.9823 63.1146C23.0035 64.0356 22.4107 64.8507 21.532 65.1259C18.8432 65.9728 13.3807 70.7048 12.6291 74.0183C12.375 75.1616 14.1217 76.0508 16.5883 75.945C19.5313 75.8179 27.9261 77.0142 31.8853 76.9083C31.8853 76.9083 32.3722 80.9416 31.0278 81.291C6.4362 87.7062 0.550312 77.6599 1.28076 70.2602Z" fill="white"/>
<path d="M17.2139 83.6834C10.7457 83.6834 6.94531 81.905 4.73281 80.0206C1.93807 77.6282 0.551284 74.0606 0.921799 70.2391C0.932385 70.112 0.964144 70.0062 0.985316 69.9003C0.995902 69.858 1.00649 69.8262 1.01707 69.7838C2.52031 62.67 6.79711 58.0438 10.1212 55.4185C13.7204 52.5708 16.9069 51.4275 17.0445 51.3851C17.1292 51.3534 17.2139 51.364 17.2986 51.3957C17.5314 51.491 23.0786 53.9258 23.3326 63.1358C23.3644 64.1944 22.6657 65.1683 21.6389 65.4859C19.0453 66.301 13.6887 70.9589 12.9688 74.1136C12.9265 74.3253 12.9794 74.5159 13.1382 74.717C13.6463 75.331 15.0014 75.6803 16.5681 75.6168C18.0078 75.5533 20.6755 75.7968 23.5126 76.0614C26.6144 76.3473 29.822 76.6331 31.8651 76.5802H31.8757C32.0556 76.5802 32.2038 76.7072 32.225 76.8871C32.3097 77.607 32.6696 81.238 31.1135 81.6509C25.4816 83.1012 20.9084 83.6834 17.2139 83.6834ZM17.1398 52.0838C15.7741 52.6131 4.34112 57.4298 1.70517 69.9215C1.69459 69.9638 1.684 70.0167 1.67341 70.0591C1.65224 70.1438 1.63107 70.2285 1.62048 70.3026C1.26056 73.9019 2.56265 77.2471 5.18801 79.4913C8.53323 82.3496 15.7212 84.9326 30.9441 80.9628C31.611 80.7934 31.7063 78.7715 31.5687 77.2788C29.4938 77.3 26.4238 77.0248 23.4597 76.7495C20.6438 76.4955 17.9972 76.252 16.6105 76.3155C14.8002 76.3896 13.2652 75.9556 12.6089 75.1616C12.3125 74.8017 12.196 74.3888 12.3019 73.9654C13.0747 70.5461 18.643 65.6976 21.4377 64.8189C22.1682 64.5861 22.6551 63.9085 22.634 63.1569C22.4117 55.1115 17.9337 52.4861 17.1398 52.0838Z" fill="#000318"/>
<path d="M34.0246 75.0662L33.58 76.3683C33.3894 76.9188 33.887 77.2046 34.6068 76.9611L40.7044 74.9074C41.509 74.6322 42.1018 74.918 41.943 75.5214C41.6254 76.76 40.2069 81.1638 32.352 81.185C29.9701 81.1956 29.9278 78.8561 31.9391 76.6012C32.8284 75.5955 34.0246 75.0662 34.0246 75.0662Z" fill="white"/>
<path d="M32.3406 81.5239C31.3455 81.5239 30.6256 81.1428 30.308 80.4335C29.8422 79.3855 30.361 77.8188 31.6736 76.3473C32.6052 75.2993 33.8226 74.7594 33.8756 74.7382C34.0026 74.6853 34.1508 74.7064 34.2567 74.8017C34.3625 74.897 34.3943 75.0452 34.3519 75.1722L33.9073 76.4743C33.8861 76.5378 33.8756 76.6014 33.8967 76.6331C33.9497 76.686 34.1614 76.7284 34.4896 76.6225L40.5872 74.5688C41.1906 74.3677 41.7411 74.4206 42.0481 74.717C42.281 74.9393 42.3656 75.2569 42.2704 75.6063C41.7199 77.8082 39.6768 81.5133 32.3406 81.5239ZM33.3886 75.818C33.0181 76.0615 32.5735 76.4002 32.1924 76.8237C31.0808 78.0622 30.5939 79.3749 30.9432 80.1583C31.1973 80.7194 31.8324 80.8358 32.3406 80.8358C32.3406 80.8358 32.3406 80.8358 32.3512 80.8358C39.2004 80.8252 41.0953 77.4482 41.6034 75.4369C41.6458 75.2887 41.5929 75.2463 41.5823 75.2357C41.487 75.1511 41.2012 75.1087 40.8201 75.2357L34.7224 77.2895C34.1826 77.4694 33.6956 77.4165 33.4098 77.1307C33.1875 76.9084 33.1345 76.5908 33.251 76.252L33.3886 75.818Z" fill="#000318"/>
<path d="M31.1974 24.6975C33.8546 25.682 33.3253 27.8204 37.6973 31.9278C40.1851 34.2674 41.3813 34.532 41.9106 35.4001C42.0376 35.6118 42.0906 35.7812 42.1435 36.0035C42.694 38.1419 40.365 40.9366 38.0996 42.3022C33.8969 44.8323 30.6575 42.0164 28.0322 44.5042C26.1373 46.3038 27.0053 48.5692 25.1633 49.4267C23.3108 50.2842 20.6748 48.7915 19.2669 47.4259C16.2075 44.4406 16.5886 39.7722 16.7791 37.6232C17.1073 34.098 18.42 31.7267 18.8434 31.0174C19.3092 30.234 20.1667 28.7943 21.7334 27.4711C22.0616 27.1852 26.9947 23.1413 31.1974 24.6975Z" fill="#000318"/>
<path d="M26.0423 47.6482C26.7833 46.8649 27.1433 46.4626 27.1115 45.3828L26.8468 37.2103C26.8468 37.2103 25.1425 37.2421 24.6026 35.1989C24.1791 33.611 25.9999 33.6216 25.9999 33.6216L25.64 30.6363C26.9527 31.1656 26.7304 33.0923 27.9372 32.3513L33.2515 29.0484C33.2515 29.0484 34.6488 28.6144 34.9664 33.0711C35.1252 34.5849 36.2367 35.0296 36.5755 35.4001C36.819 35.6542 36.766 36.067 36.4696 36.2681L36.0568 36.5434C35.2734 40.6085 34.4265 41.3495 33.008 41.1801L33.0503 42.8316C33.0927 44.4512 34.5324 45.6581 36.1309 45.4357L40.5876 44.8112C40.5876 44.8112 37.253 51.1205 21.4585 49.9878L26.0423 47.6482Z" fill="white"/>
<path d="M25.1428 50.4536C23.9889 50.4536 22.7609 50.4112 21.4376 50.316C21.2788 50.3054 21.1518 50.1889 21.12 50.0407C21.0883 49.8819 21.1624 49.7337 21.3106 49.6596L25.8415 47.373C26.5507 46.632 26.7942 46.3038 26.773 45.404L26.519 37.5491C25.7779 37.422 24.6876 36.861 24.2747 35.3048C24.1265 34.7543 24.19 34.2885 24.4759 33.9286C24.7829 33.5263 25.2804 33.3781 25.6192 33.3146L25.3016 30.6893C25.291 30.5622 25.3333 30.4458 25.4392 30.3717C25.5345 30.2976 25.6721 30.2764 25.7779 30.3293C26.4766 30.6046 26.8154 31.2186 27.0589 31.6632C27.1859 31.8961 27.3341 32.1501 27.44 32.1819C27.5035 32.2031 27.6199 32.1501 27.7576 32.0655L33.0718 28.7626C33.093 28.752 33.1247 28.7308 33.1565 28.7308C33.22 28.7096 33.5588 28.625 33.961 28.9002C34.7021 29.4083 35.1679 30.8057 35.3266 33.0606C35.4325 34.0874 36.0359 34.5426 36.4805 34.8708C36.6287 34.9766 36.7452 35.0719 36.8405 35.1778C37.0204 35.3789 37.1157 35.6436 37.0734 35.9082C37.0416 36.1729 36.8934 36.4164 36.6711 36.5646L36.3853 36.7551C35.6972 40.238 34.9032 41.54 33.3788 41.5506L33.4106 42.821C33.4317 43.4879 33.7281 44.1231 34.2469 44.5571C34.755 44.9911 35.4325 45.1817 36.0994 45.0864L40.5562 44.4618C40.6832 44.4406 40.8209 44.5042 40.895 44.61C40.9691 44.7159 40.9796 44.8535 40.9161 44.97C40.7785 45.1923 37.8356 50.4536 25.1428 50.4536ZM22.7821 49.6914C34.141 50.2313 38.4919 46.7273 39.8152 45.2452L36.1947 45.7533C35.3266 45.8698 34.4586 45.6263 33.7917 45.0652C33.1247 44.5042 32.733 43.689 32.7119 42.821L32.6695 41.1695C32.6695 41.0637 32.7119 40.9684 32.786 40.9049C32.8601 40.8414 32.9659 40.799 33.0612 40.8202C34.0669 40.9472 34.9032 40.7037 35.7289 36.4693C35.7501 36.374 35.803 36.2999 35.8771 36.247L36.29 35.9717C36.3641 35.9188 36.3853 35.8553 36.3853 35.8129C36.3853 35.7706 36.3853 35.7071 36.3323 35.633C36.2794 35.5801 36.1735 35.4954 36.0571 35.4107C35.5807 35.0507 34.7656 34.4368 34.628 33.1029C34.4374 30.5093 33.9081 29.7259 33.6011 29.493C33.4952 29.4083 33.4211 29.3978 33.3788 29.3872L28.1281 32.6477C27.8105 32.8488 27.5247 32.9123 27.26 32.8488C26.8577 32.743 26.6566 32.3725 26.4449 31.9914C26.339 31.8008 26.2332 31.5997 26.0955 31.4303L26.3602 33.5899C26.3708 33.6851 26.339 33.791 26.2755 33.8651C26.212 33.9392 26.1167 33.9815 26.0108 33.9815C25.8203 33.9815 25.2698 34.0557 25.0263 34.3626C24.8887 34.5426 24.8675 34.7967 24.9522 35.1248C25.4074 36.8504 26.7625 36.8821 26.8471 36.8821C27.0377 36.8821 27.1965 37.0304 27.1965 37.2209L27.4611 45.3934C27.4929 46.6002 27.0906 47.0872 26.2967 47.9129C26.2649 47.9447 26.2332 47.9658 26.2014 47.987L22.7821 49.6914Z" fill="#000318"/>
<path d="M33.0079 41.5189H32.9973C30.0755 41.4025 28.6252 40.0051 28.5617 39.9416C28.4241 39.804 28.4241 39.5817 28.5617 39.444C28.6993 39.3064 28.9216 39.3064 29.0593 39.444C29.0698 39.4546 30.3931 40.7144 33.0291 40.8202C33.2196 40.8308 33.3678 40.9896 33.3678 41.1802C33.3466 41.3707 33.1984 41.5189 33.0079 41.5189Z" fill="#000318"/>
<path d="M25.5871 26.2854C25.4177 26.1584 26.2964 20.7065 22.1678 20.6007C18.0498 20.4948 17.0759 28.2862 21.1092 29.2919C25.1425 30.2976 25.5871 26.2854 25.5871 26.2854Z" fill="#000318"/>
<path d="M32.4882 36.1728C31.7366 36.1728 31.0379 35.6858 30.805 34.9342C30.6674 34.4896 30.7097 34.0132 30.932 33.5898C31.1543 33.1769 31.5249 32.8699 31.9695 32.7323C32.9011 32.4465 33.8856 32.9652 34.1714 33.8968C34.309 34.3414 34.2667 34.8178 34.0444 35.2412C33.8221 35.6541 33.4515 35.9611 33.0069 36.0987C32.8375 36.1411 32.6576 36.1728 32.4882 36.1728ZM32.4882 33.3463C32.3823 33.3463 32.2765 33.3569 32.1706 33.3887C31.8954 33.4733 31.6731 33.6533 31.546 33.9074C31.419 34.1614 31.3872 34.4473 31.4719 34.7119C31.6413 35.273 32.2447 35.5906 32.8058 35.4106C33.081 35.3259 33.3033 35.146 33.4304 34.8919C33.5574 34.6378 33.5892 34.352 33.5045 34.0873C33.3563 33.6427 32.9434 33.3463 32.4882 33.3463Z" fill="#000318"/>
<path d="M35.803 34.8707C35.7395 34.8707 35.6759 34.8495 35.6124 34.8177C35.4536 34.7119 35.4007 34.5001 35.5066 34.3308C35.6759 34.0661 35.7289 33.7379 35.6336 33.4415C35.5383 33.1345 35.316 32.8911 35.0196 32.7746C34.8396 32.7005 34.7549 32.4994 34.8291 32.3194C34.9032 32.1394 35.1043 32.0548 35.2843 32.1289C35.7712 32.33 36.1417 32.7323 36.3005 33.2404C36.4593 33.7379 36.3852 34.2778 36.0994 34.7225C36.0359 34.8071 35.9194 34.8707 35.803 34.8707Z" fill="white"/>
<path d="M31.0288 34.8708C31.0076 34.8708 30.9864 34.8708 30.9547 34.8603L25.7146 33.8122C25.524 33.7699 25.397 33.5899 25.4393 33.3994C25.4817 33.2088 25.6616 33.0818 25.8522 33.1241L31.0923 34.1722C31.2829 34.2145 31.4099 34.3945 31.3675 34.585C31.3358 34.7544 31.1876 34.8708 31.0288 34.8708Z" fill="#000318"/>
<path d="M33.8754 34.3414C33.8437 34.3414 33.8119 34.3414 33.7802 34.3308C33.5896 34.2779 33.4838 34.0874 33.5473 33.8968C33.5684 33.8333 33.7378 33.2828 34.2248 33.0393C34.4153 32.944 34.7329 32.8594 35.1458 33.0076C35.3257 33.0711 35.421 33.2722 35.3575 33.4522C35.294 33.6321 35.0928 33.7274 34.9129 33.6639C34.7647 33.611 34.6482 33.611 34.553 33.6639C34.3624 33.7592 34.2565 34.0238 34.2354 34.0874C34.1613 34.2461 34.0236 34.3414 33.8754 34.3414Z" fill="#000318"/>
</g>
<defs>
<clipPath id="clip0_2410_10347">
<rect width="184.262" height="190" fill="white" transform="translate(0.868652)"/>
</clipPath>
</defs>
</svg>
