<svg width="186" height="190" viewBox="0 0 186 190" fill="none" xmlns="http://www.w3.org/2000/svg">
<g clip-path="url(#clip0_2410_10347)">
<path d="M54.7838 25.8196C54.6992 25.8196 54.6039 25.7878 54.5404 25.7137L53.5559 24.7292C53.4182 24.5916 53.4182 24.3693 53.5559 24.2316C53.6935 24.094 53.9158 24.094 54.0534 24.2316L55.0379 25.2161C55.1755 25.3538 55.1755 25.5761 55.0379 25.7137C54.9638 25.7878 54.8791 25.8196 54.7838 25.8196Z" fill="#000318"/>
<path d="M58.2135 29.2495C58.1288 29.2495 58.0336 29.2177 57.9701 29.1436L56.9855 28.1591C56.8479 28.0215 56.8479 27.7992 56.9855 27.6616C57.1232 27.5239 57.3455 27.5239 57.4831 27.6616L58.4676 28.6461C58.6052 28.7837 58.6052 29.006 58.4676 29.1436C58.3935 29.2177 58.3088 29.2495 58.2135 29.2495Z" fill="#000318"/>
<path d="M53.7993 29.2495C53.7146 29.2495 53.6194 29.2177 53.5559 29.1436C53.4182 29.006 53.4182 28.7837 53.5559 28.6461L54.5404 27.6616C54.678 27.5239 54.9003 27.5239 55.0379 27.6616C55.1755 27.7992 55.1755 28.0215 55.0379 28.1591L54.0534 29.1436C53.9793 29.2177 53.8946 29.2495 53.7993 29.2495Z" fill="#000318"/>
<path d="M57.2407 25.8196C57.156 25.8196 57.0608 25.7878 56.9973 25.7137C56.8596 25.5761 56.8596 25.3538 56.9973 25.2161L57.9818 24.2316C58.1194 24.094 58.3417 24.094 58.4793 24.2316C58.6169 24.3693 58.6169 24.5916 58.4793 24.7292L57.4948 25.7137C57.4207 25.7878 57.3254 25.8196 57.2407 25.8196Z" fill="#000318"/>
<path d="M9.08604 112.224C10.004 112.222 10.747 111.477 10.7458 110.559C10.7445 109.641 9.99937 108.898 9.08146 108.9C8.16355 108.901 7.42046 109.646 7.42173 110.564C7.42299 111.482 8.16813 112.225 9.08604 112.224Z" fill="#000318"/>
<path d="M89.2429 183.595C88.1949 183.595 87.3374 182.738 87.3374 181.69C87.3374 180.642 88.1949 179.784 89.2429 179.784C90.2909 179.784 91.1484 180.642 91.1484 181.69C91.1484 182.738 90.2909 183.595 89.2429 183.595ZM89.2429 180.483C88.576 180.483 88.0361 181.023 88.0361 181.69C88.0361 182.357 88.576 182.897 89.2429 182.897C89.9098 182.897 90.4497 182.357 90.4497 181.69C90.4497 181.023 89.9098 180.483 89.2429 180.483Z" fill="#000318"/>
<path d="M102.285 180.832C102.222 180.832 102.169 180.822 102.105 180.78L100.92 180.081C100.75 179.986 100.697 179.763 100.793 179.604C100.888 179.435 101.11 179.382 101.269 179.477L102.455 180.176C102.624 180.271 102.677 180.494 102.582 180.653C102.518 180.769 102.402 180.832 102.285 180.832Z" fill="#000318"/>
<path d="M106.445 183.278C106.382 183.278 106.329 183.267 106.265 183.225L105.08 182.526C104.91 182.431 104.858 182.209 104.953 182.05C105.048 181.88 105.27 181.828 105.429 181.923L106.615 182.621C106.784 182.717 106.837 182.939 106.742 183.098C106.678 183.214 106.562 183.278 106.445 183.278Z" fill="#000318"/>
<path d="M102.189 184.379C102.126 184.379 102.073 184.368 102.01 184.326C101.84 184.231 101.787 184.008 101.882 183.849L102.581 182.664C102.676 182.494 102.899 182.442 103.058 182.537C103.227 182.632 103.28 182.854 103.185 183.013L102.496 184.199C102.433 184.315 102.317 184.379 102.189 184.379Z" fill="#000318"/>
<path d="M104.647 180.218C104.583 180.218 104.53 180.208 104.467 180.165C104.297 180.07 104.244 179.848 104.34 179.689L105.038 178.503C105.133 178.334 105.356 178.281 105.515 178.376C105.684 178.472 105.737 178.694 105.642 178.853L104.943 180.038C104.879 180.165 104.763 180.218 104.647 180.218Z" fill="#000318"/>
<path d="M131.46 182.685C132.553 182.685 133.439 181.798 133.439 180.705C133.439 179.612 132.553 178.726 131.46 178.726C130.366 178.726 129.48 179.612 129.48 180.705C129.48 181.798 130.366 182.685 131.46 182.685Z" fill="#000318"/>
<path d="M76.549 9.27345C76.4219 9.27345 76.2949 9.19934 76.2314 9.07231L72.4309 1.0586C72.3463 0.889226 72.4204 0.677503 72.6003 0.592814C72.7697 0.508125 72.9814 0.582228 73.0661 0.762192L76.8771 8.7759C76.9618 8.94528 76.8877 9.157 76.7078 9.24169C76.6548 9.25228 76.6019 9.27345 76.549 9.27345Z" fill="#000318"/>
<path d="M74.1662 10.639C74.1027 10.639 74.0392 10.6179 73.9862 10.5861L57.4401 0.645729C57.2707 0.550453 57.2178 0.328145 57.3237 0.169352C57.4189 -2.57364e-05 57.6412 -0.0529564 57.8 0.052905L74.3462 9.99329C74.5155 10.0886 74.5685 10.3109 74.4626 10.4697C74.3991 10.5755 74.2826 10.639 74.1662 10.639Z" fill="#000318"/>
<path d="M73.1503 13.4762C73.1397 13.4762 73.1185 13.4762 73.1079 13.4762L67.7302 12.7669C67.5396 12.7457 67.402 12.5657 67.4338 12.3752C67.4549 12.1846 67.6349 12.047 67.8255 12.0788L73.2032 12.7881C73.3938 12.8092 73.5314 12.9892 73.4996 13.1797C73.4784 13.3491 73.3197 13.4762 73.1503 13.4762Z" fill="#000318"/>
<path d="M157.829 173.877L154.135 173.771L76.3372 173.877C72.8226 173.877 70.3348 171.051 70.7795 167.557L90.8508 9.45339C91.2954 5.95996 94.503 3.13346 98.007 3.13346L175.402 2.23364C184.284 2.23364 185.491 5.97055 185.046 9.45339L164.985 167.557C164.541 171.051 161.344 173.877 157.829 173.877Z" fill="#000318"/>
<path d="M152.927 174.184H71.4348C67.9202 174.184 65.4325 171.337 65.8771 167.833L85.9378 8.94519C86.3825 5.44118 89.5901 2.59351 93.0941 2.59351H174.586C178.101 2.59351 180.588 5.44118 180.144 8.94519L160.083 167.833C159.639 171.337 156.431 174.184 152.927 174.184Z" fill="white"/>
<path d="M70.5239 168.055L89.6848 16.345C89.7906 15.5299 90.5316 14.8735 91.3362 14.8735H173.262C174.077 14.8735 174.649 15.5299 174.543 16.345L155.382 168.055C155.276 168.87 154.535 169.526 153.731 169.526H71.8048C70.9896 169.516 70.418 168.859 70.5239 168.055Z" fill="#FFD600"/>
<path d="M134.661 9.92168C135.687 8.96457 135.836 7.45735 134.995 6.5552C134.153 5.65305 132.64 5.6976 131.613 6.6547C130.587 7.61181 130.438 9.11903 131.279 10.0212C132.12 10.9233 133.634 10.8788 134.661 9.92168Z" fill="white"/>
<path d="M145.072 174.534H71.435C69.6459 174.534 68.0368 173.835 66.9253 172.575C65.8032 171.294 65.3056 169.6 65.5279 167.79L85.5992 8.89232C86.065 5.21893 89.4314 2.23364 93.1048 2.23364H174.597C176.386 2.23364 177.995 2.93233 179.107 4.19208C180.229 5.473 180.726 7.16678 180.504 8.97701L166.668 119.38C166.647 119.57 166.467 119.708 166.276 119.687C166.086 119.666 165.948 119.486 165.969 119.295L179.805 8.89232C180.006 7.28323 179.572 5.78 178.577 4.65787C177.593 3.54632 176.185 2.93233 174.597 2.93233H93.1048C89.7702 2.93233 86.7108 5.64238 86.2873 8.97701L66.2266 167.875C66.0255 169.484 66.4595 170.987 67.4546 172.109C68.4391 173.221 69.8471 173.835 71.435 173.835H145.072C145.263 173.835 145.422 173.994 145.422 174.184C145.422 174.375 145.263 174.534 145.072 174.534Z" fill="#000318"/>
<path d="M108.613 29.4719H98.5353C97.5191 29.4719 96.7886 28.6144 96.8945 27.5664L96.9051 27.4817C97.0109 26.4231 97.9107 25.5762 98.927 25.5762H109.005C110.021 25.5762 110.752 26.4336 110.646 27.4817L110.635 27.5664C110.529 28.625 109.63 29.4719 108.613 29.4719Z" fill="white"/>
<path d="M161.237 40.5768H97.0217C96.0054 40.5768 95.2749 39.7194 95.3808 38.6713L95.3914 38.5867C95.4973 37.528 96.3971 36.6812 97.4133 36.6812H161.629C162.645 36.6812 163.376 37.5386 163.27 38.5867L163.259 38.6713C163.153 39.73 162.243 40.5768 161.237 40.5768Z" fill="white"/>
<path d="M148.522 135.323H84.3068C83.2905 135.323 82.5601 134.465 82.666 133.417L82.6765 133.333C82.7824 132.274 83.6822 131.427 84.6985 131.427H148.914C149.93 131.427 150.661 132.284 150.555 133.333L150.544 133.417C150.438 134.465 149.539 135.323 148.522 135.323Z" fill="white"/>
<path d="M146.616 146.078H82.4006C81.3843 146.078 80.6538 145.221 80.7597 144.173L80.7703 144.088C80.8762 143.03 81.776 142.183 82.7922 142.183H147.008C148.024 142.183 148.754 143.04 148.649 144.088L148.638 144.173C148.532 145.221 147.622 146.078 146.616 146.078Z" fill="white"/>
<path d="M115.832 157.786H81.0041C79.9878 157.786 79.2574 156.929 79.3632 155.881L79.3738 155.796C79.4797 154.738 80.3795 153.891 81.3958 153.891H116.235C117.251 153.891 117.981 154.748 117.876 155.796L117.865 155.881C117.749 156.929 116.849 157.786 115.832 157.786Z" fill="white"/>
<path d="M126.746 29.4719H116.668C115.652 29.4719 114.921 28.6144 115.027 27.5664L115.038 27.4817C115.144 26.4231 116.044 25.5762 117.06 25.5762H127.138C128.154 25.5762 128.885 26.4336 128.779 27.4817L128.768 27.5664C128.662 28.625 127.762 29.4719 126.746 29.4719Z" fill="white"/>
<path d="M144.881 29.4719H134.803C133.787 29.4719 133.056 28.6144 133.162 27.5664L133.173 27.4817C133.279 26.4231 134.178 25.5762 135.195 25.5762H145.273C146.289 25.5762 147.019 26.4336 146.913 27.4817L146.903 27.5664C146.797 28.625 145.887 29.4719 144.881 29.4719Z" fill="white"/>
<path d="M163.016 29.4719H152.938C151.921 29.4719 151.191 28.6144 151.297 27.5664L151.307 27.4817C151.413 26.4231 152.313 25.5762 153.329 25.5762H163.407C164.424 25.5762 165.154 26.4336 165.048 27.4817L165.038 27.5664C164.932 28.625 164.021 29.4719 163.016 29.4719Z" fill="white"/>
<path d="M165.175 178.535C165.175 178.535 170.68 176.82 179.689 159.343C187.3 144.596 180.515 130.347 179.149 120.809C179.011 119.835 177.678 119.697 177.349 120.618C175.073 127.023 171.4 138.668 171.993 145.845C172.85 156.188 165.175 178.535 165.175 178.535Z" fill="white"/>
<path d="M165.175 178.885C165.08 178.885 164.995 178.842 164.921 178.779C164.826 178.683 164.794 178.546 164.836 178.419C164.91 178.196 172.469 156.018 171.633 145.877C171.029 138.625 174.745 126.864 177.01 120.502C177.211 119.93 177.741 119.592 178.344 119.655C178.948 119.719 179.403 120.163 179.487 120.756C179.794 122.905 180.387 125.329 181.012 127.891C183.203 136.847 185.934 147.984 179.985 159.501C171.008 176.905 165.493 178.789 165.27 178.863C165.249 178.884 165.217 178.885 165.175 178.885ZM178.217 120.354C178.016 120.354 177.783 120.46 177.677 120.745C175.433 127.055 171.749 138.7 172.342 145.824C173.115 155.108 167.186 173.634 165.789 177.826C167.546 176.725 172.416 172.692 179.382 159.194C185.204 147.909 182.505 136.91 180.345 128.071C179.71 125.488 179.117 123.053 178.799 120.872C178.746 120.534 178.492 120.386 178.281 120.364C178.259 120.354 178.238 120.354 178.217 120.354Z" fill="#000318"/>
<path d="M172.733 153.452L170.825 168.543L165.709 167.559L157.636 142.27C153.135 128.158 156.493 112.694 166.427 101.773L170.852 96.9145L170.853 96.9139C171.283 96.4392 172.065 96.9091 171.815 97.5271L171.815 97.5283L168.671 105.383C164.969 114.627 165.3 125.026 169.601 134.013C172.482 140.056 173.571 146.801 172.733 153.452C172.733 153.452 172.733 153.452 172.733 153.452Z" fill="white" stroke="#000318" stroke-width="0.75"/>
<path d="M168.616 169.495L161.82 152.144C159.882 147.211 155.817 143.442 150.778 141.918L146.142 140.52C145.019 140.182 144.257 141.664 145.189 142.383L148.036 144.596C151.128 146.999 152.97 150.672 153.044 154.6C153.097 156.908 153.753 159.162 154.949 161.131L159.554 168.679L168.616 169.495Z" fill="white"/>
<path d="M168.616 169.844C168.605 169.844 168.595 169.844 168.584 169.844L159.533 169.029C159.427 169.018 159.321 168.955 159.268 168.859L154.663 161.312C153.435 159.29 152.758 156.971 152.705 154.61C152.631 150.768 150.852 147.221 147.835 144.871L144.988 142.659C144.342 142.161 144.331 141.41 144.596 140.88C144.86 140.362 145.475 139.949 146.247 140.182L150.884 141.579C156.061 143.146 160.168 146.946 162.148 152.017L168.944 169.368C168.986 169.484 168.976 169.611 168.902 169.706C168.828 169.791 168.722 169.844 168.616 169.844ZM159.766 168.341L168.076 169.082L161.481 152.26C159.575 147.391 155.627 143.739 150.662 142.235L146.025 140.838C145.612 140.711 145.316 140.954 145.199 141.187C145.072 141.431 145.051 141.822 145.4 142.087L148.248 144.3C151.434 146.777 153.308 150.524 153.393 154.579C153.435 156.823 154.081 159.025 155.246 160.93L159.766 168.341Z" fill="#000318"/>
<path d="M167.61 161.693C167.599 161.693 167.588 161.693 167.578 161.693C167.387 161.671 167.239 161.502 167.26 161.312C168.298 150.249 166.075 143.135 164.106 136.847C163.195 133.936 162.338 131.183 161.83 128.23C159.416 114.246 167.641 102.114 167.726 101.997C167.832 101.839 168.054 101.796 168.213 101.913C168.372 102.019 168.414 102.241 168.298 102.4C168.213 102.516 160.157 114.426 162.518 128.113C163.015 131.025 163.873 133.756 164.772 136.646C166.752 142.998 168.996 150.186 167.948 161.386C167.938 161.555 167.79 161.693 167.61 161.693Z" fill="#000318"/>
<path d="M165.905 150.81C165.757 150.81 165.619 150.715 165.577 150.567C164.698 147.92 162.729 145.168 161.215 143.326C161.088 143.178 161.12 142.955 161.268 142.828C161.417 142.701 161.639 142.733 161.766 142.881C163.311 144.765 165.333 147.592 166.244 150.344C166.307 150.524 166.201 150.725 166.022 150.789C165.979 150.8 165.947 150.81 165.905 150.81Z" fill="#000318"/>
<path d="M176.66 154.283C176.639 154.283 176.618 154.283 176.597 154.283C176.406 154.251 176.279 154.071 176.311 153.88C178.164 142.955 177.518 126.113 177.518 125.943C177.507 125.753 177.655 125.583 177.857 125.583H177.867C178.058 125.583 178.206 125.732 178.217 125.922C178.227 126.092 178.862 142.998 177.01 153.997C176.978 154.166 176.83 154.283 176.66 154.283Z" fill="#000318"/>
<path d="M160.433 163.344C160.242 163.344 160.083 163.185 160.083 162.995C159.956 149.423 149.105 143.474 149 143.41C148.83 143.315 148.767 143.103 148.851 142.934C148.947 142.765 149.158 142.701 149.328 142.786C149.444 142.849 152.197 144.342 155.012 147.581C157.606 150.577 160.708 155.669 160.782 162.974C160.782 163.185 160.634 163.344 160.433 163.344Z" fill="#000318"/>
<path d="M161.903 137.842C161.798 137.842 161.692 137.8 161.628 137.705C158.664 133.904 157.394 128.929 157.341 128.717C157.298 128.526 157.404 128.336 157.595 128.293C157.785 128.251 157.976 128.357 158.018 128.548C158.029 128.6 159.31 133.597 162.179 137.281C162.295 137.429 162.274 137.652 162.115 137.768C162.062 137.821 161.988 137.842 161.903 137.842Z" fill="#000318"/>
<path d="M167.081 189.651H166.933C159.861 189.651 154.134 183.924 154.134 176.852V165.302H179.88V176.852C179.88 183.913 174.153 189.651 167.081 189.651Z" fill="#FFD600"/>
<path d="M167.081 190H166.933C159.681 190 153.785 184.103 153.785 176.852V164.953H180.239V176.852C180.229 184.093 174.332 190 167.081 190ZM154.483 165.641V176.841C154.483 183.712 160.073 189.291 166.933 189.291H167.081C173.951 189.291 179.53 183.701 179.53 176.841V165.641H154.483Z" fill="#000318"/>
<path d="M177.36 169.95H156.654C156.463 169.95 156.304 169.791 156.304 169.601C156.304 169.41 156.463 169.251 156.654 169.251H177.36C177.551 169.251 177.709 169.41 177.709 169.601C177.709 169.791 177.551 169.95 177.36 169.95Z" fill="#FFD600"/>
<path d="M116.108 128.135C115.759 128.135 115.41 128.135 115.06 128.124C114.87 128.124 114.711 127.955 114.722 127.764C114.722 127.574 114.88 127.425 115.071 127.425H115.082C115.431 127.436 115.791 127.446 116.14 127.436C116.712 127.436 117.283 127.425 117.855 127.394C118.056 127.383 118.215 127.531 118.215 127.732C118.226 127.923 118.077 128.092 117.876 128.092C117.283 128.124 116.691 128.145 116.108 128.135ZM112.266 127.955C112.255 127.955 112.244 127.955 112.234 127.955C111.302 127.859 110.36 127.743 109.439 127.584C109.249 127.552 109.122 127.372 109.153 127.182C109.185 126.991 109.365 126.864 109.556 126.896C110.466 127.044 111.387 127.171 112.308 127.256C112.499 127.277 112.636 127.446 112.626 127.637C112.594 127.817 112.446 127.955 112.266 127.955ZM120.65 127.88C120.47 127.88 120.322 127.753 120.301 127.573C120.279 127.383 120.417 127.203 120.608 127.182C121.528 127.076 122.449 126.938 123.349 126.769C123.54 126.727 123.72 126.854 123.762 127.044C123.794 127.235 123.677 127.415 123.487 127.457C122.566 127.626 121.634 127.775 120.692 127.88C120.682 127.88 120.66 127.88 120.65 127.88ZM106.75 127.023C106.718 127.023 106.697 127.023 106.666 127.012C105.745 126.79 104.834 126.525 103.945 126.24C103.765 126.176 103.659 125.986 103.723 125.795C103.786 125.615 103.977 125.509 104.167 125.573C105.035 125.859 105.935 126.113 106.835 126.324C107.025 126.367 107.142 126.557 107.089 126.748C107.057 126.907 106.909 127.023 106.75 127.023ZM126.144 126.843C125.985 126.843 125.848 126.737 125.805 126.578C125.752 126.388 125.869 126.197 126.049 126.155C126.949 125.911 127.838 125.636 128.695 125.34C128.875 125.276 129.076 125.372 129.14 125.552C129.203 125.732 129.108 125.933 128.928 125.996C128.05 126.303 127.139 126.589 126.229 126.832C126.208 126.843 126.176 126.843 126.144 126.843ZM101.436 125.287C101.394 125.287 101.351 125.276 101.298 125.266C100.43 124.906 99.5623 124.504 98.726 124.08C98.5566 123.995 98.4825 123.784 98.5778 123.614C98.6624 123.445 98.8742 123.371 99.0436 123.466C99.8587 123.879 100.706 124.271 101.563 124.62C101.743 124.694 101.828 124.895 101.754 125.075C101.701 125.213 101.574 125.287 101.436 125.287ZM131.427 124.99C131.289 124.99 131.162 124.916 131.109 124.779C131.035 124.599 131.109 124.398 131.289 124.313C132.125 123.942 132.962 123.53 133.777 123.085C133.946 122.99 134.158 123.053 134.253 123.223C134.348 123.392 134.285 123.604 134.115 123.699C133.29 124.144 132.443 124.567 131.585 124.948C131.522 124.98 131.469 124.99 131.427 124.99ZM96.4605 122.746C96.397 122.746 96.3335 122.725 96.2806 122.693C95.476 122.196 94.6926 121.656 93.9516 121.095C93.7928 120.978 93.7717 120.756 93.8881 120.608C94.0045 120.449 94.2269 120.428 94.3751 120.544C95.1055 121.095 95.8677 121.624 96.6511 122.111C96.8099 122.217 96.8628 122.429 96.7675 122.598C96.6828 122.683 96.577 122.746 96.4605 122.746ZM136.339 122.312C136.222 122.312 136.116 122.259 136.042 122.153C135.936 121.995 135.979 121.772 136.148 121.666C136.91 121.169 137.672 120.618 138.403 120.057C138.551 119.941 138.773 119.962 138.89 120.121C139.006 120.269 138.985 120.491 138.826 120.608C138.085 121.19 137.312 121.741 136.529 122.249C136.466 122.291 136.402 122.312 136.339 122.312ZM91.9932 119.38C91.9085 119.38 91.8238 119.348 91.7603 119.285C91.0616 118.649 90.3947 117.972 89.7701 117.273C89.6431 117.125 89.6536 116.913 89.8018 116.776C89.9501 116.649 90.1724 116.659 90.2994 116.807C90.9134 117.485 91.5592 118.152 92.2472 118.766C92.3849 118.893 92.3955 119.115 92.2684 119.263C92.1837 119.337 92.0885 119.38 91.9932 119.38ZM140.753 118.882C140.658 118.882 140.562 118.84 140.499 118.766C140.372 118.618 140.382 118.406 140.52 118.268C141.198 117.654 141.864 116.998 142.5 116.331C142.637 116.193 142.849 116.183 142.997 116.32C143.135 116.458 143.145 116.67 143.008 116.818C142.362 117.506 141.685 118.173 140.986 118.798C140.922 118.851 140.838 118.882 140.753 118.882ZM88.2669 115.209C88.161 115.209 88.0551 115.156 87.981 115.061C87.4306 114.298 86.9118 113.505 86.4355 112.689C86.3402 112.52 86.3931 112.308 86.5625 112.213C86.7319 112.118 86.9436 112.171 87.0389 112.34C87.5047 113.134 88.0128 113.917 88.5527 114.658C88.6691 114.817 88.6268 115.029 88.4786 115.145C88.4045 115.188 88.341 115.209 88.2669 115.209ZM144.596 114.817C144.522 114.817 144.437 114.796 144.373 114.743C144.225 114.616 144.204 114.404 144.32 114.246C144.903 113.536 145.464 112.795 145.993 112.033C146.11 111.874 146.321 111.832 146.48 111.948C146.639 112.054 146.681 112.277 146.565 112.435C146.025 113.208 145.453 113.96 144.86 114.69C144.807 114.775 144.702 114.817 144.596 114.817ZM85.4509 110.382C85.3133 110.382 85.1863 110.308 85.1334 110.18C84.7417 109.334 84.3923 108.444 84.0748 107.555C84.0112 107.375 84.1065 107.174 84.2865 107.11C84.4664 107.047 84.6676 107.142 84.7311 107.322C85.0381 108.201 85.3874 109.058 85.7579 109.884C85.8426 110.064 85.7579 110.265 85.5886 110.35C85.5462 110.371 85.4933 110.382 85.4509 110.382ZM147.814 110.244C147.75 110.244 147.687 110.223 147.634 110.191C147.465 110.096 147.412 109.873 147.517 109.715C147.994 108.921 148.449 108.106 148.862 107.29C148.947 107.121 149.158 107.047 149.328 107.142C149.497 107.227 149.571 107.439 149.476 107.608C149.052 108.444 148.597 109.27 148.11 110.075C148.057 110.18 147.941 110.244 147.814 110.244ZM150.355 105.247C150.312 105.247 150.259 105.237 150.217 105.216C150.037 105.141 149.952 104.94 150.026 104.76C150.217 104.295 150.397 103.839 150.566 103.374C150.725 102.971 150.884 102.58 151.032 102.156C151.096 101.976 151.297 101.881 151.477 101.944C151.657 102.008 151.752 102.209 151.688 102.389C151.53 102.813 151.381 103.215 151.212 103.617C151.043 104.072 150.863 104.549 150.662 105.014C150.619 105.173 150.492 105.247 150.355 105.247ZM83.5984 105.11C83.4396 105.11 83.302 105.004 83.2596 104.845C83.0373 103.945 82.8362 103.014 82.688 102.071C82.6562 101.881 82.7832 101.701 82.9738 101.669C83.1643 101.637 83.3443 101.764 83.3761 101.955C83.5243 102.876 83.7148 103.786 83.9371 104.665C83.9795 104.856 83.8736 105.046 83.6831 105.089C83.6619 105.099 83.6301 105.11 83.5984 105.11ZM152.228 99.9754C152.197 99.9754 152.165 99.9754 152.133 99.9649C151.942 99.9119 151.837 99.7214 151.89 99.5308C152.144 98.6204 152.366 97.7206 152.546 96.8314C152.588 96.6408 152.768 96.5244 152.959 96.5561C153.149 96.5985 153.266 96.7784 153.234 96.969C153.054 97.8688 152.832 98.7898 152.567 99.7214C152.514 99.8696 152.377 99.9754 152.228 99.9754ZM153.319 94.4918C153.308 94.4918 153.297 94.4918 153.276 94.4918C153.086 94.4706 152.948 94.3013 152.969 94.1107C153.001 93.8355 153.022 93.5602 153.043 93.285C152.62 93.3273 152.186 93.3485 151.752 93.3591C151.561 93.3591 151.403 93.2003 151.403 93.0098C151.403 92.8192 151.561 92.6604 151.752 92.6604C152.207 92.6604 152.652 92.6287 153.086 92.5757C153.107 92.2052 153.107 91.8453 153.107 91.4959V91.3583H153.806V91.4959C153.806 91.8135 153.795 92.1417 153.784 92.4699C154.007 92.4275 154.218 92.3852 154.43 92.3322C154.621 92.2899 154.811 92.4063 154.854 92.5863C154.896 92.7769 154.79 92.9674 154.6 93.0098C154.314 93.0839 154.028 93.1368 153.742 93.1897C153.721 93.5179 153.689 93.8567 153.657 94.1848C153.647 94.3542 153.499 94.4918 153.319 94.4918ZM148.978 93.0627C148.957 93.0627 148.925 93.0627 148.904 93.0521C147.994 92.8616 147.073 92.5651 146.173 92.1735C145.993 92.0994 145.908 91.8876 145.993 91.7183C146.067 91.5383 146.279 91.4536 146.448 91.5383C147.306 91.9088 148.184 92.184 149.042 92.3746C149.232 92.4169 149.349 92.5969 149.307 92.7875C149.285 92.9462 149.137 93.0627 148.978 93.0627ZM157.13 91.9829C157.013 91.9829 156.886 91.9194 156.823 91.8029C156.727 91.6336 156.78 91.4218 156.95 91.3266C157.5 91.009 158.019 90.6385 158.495 90.215C158.686 90.0456 158.887 89.8551 159.067 89.6645C159.205 89.5269 159.427 89.5163 159.564 89.654C159.702 89.7916 159.713 90.0139 159.575 90.1515C159.374 90.3632 159.173 90.5538 158.961 90.7443C158.453 91.1995 157.892 91.6018 157.299 91.9406C157.246 91.9617 157.183 91.9829 157.13 91.9829ZM143.855 90.8714C143.791 90.8714 143.717 90.8502 143.664 90.8078C142.838 90.2574 142.097 89.654 141.441 88.9976C141.303 88.86 141.303 88.6377 141.441 88.5001C141.579 88.3624 141.801 88.3624 141.939 88.5001C142.553 89.1246 143.262 89.6963 144.045 90.2256C144.204 90.3315 144.246 90.5538 144.14 90.7126C144.077 90.8184 143.971 90.8714 143.855 90.8714ZM153.255 88.9023C153.086 88.9023 152.938 88.7753 152.906 88.6059C152.758 87.6743 152.535 86.7745 152.249 85.9594C152.186 85.7794 152.281 85.5783 152.461 85.5148C152.641 85.4513 152.842 85.5465 152.906 85.7265C153.213 86.5946 153.446 87.5261 153.594 88.5001C153.626 88.6906 153.488 88.8706 153.298 88.9023C153.287 88.9023 153.266 88.9023 153.255 88.9023ZM160.941 87.9919C160.888 87.9919 160.835 87.9813 160.782 87.9496C160.613 87.8543 160.549 87.6532 160.634 87.4732C161.047 86.6898 161.364 85.8324 161.565 84.9431C161.608 84.7526 161.798 84.6361 161.989 84.6785C162.179 84.7208 162.296 84.9114 162.253 85.1019C162.031 86.0547 161.692 86.9651 161.258 87.8014C161.195 87.9178 161.068 87.9919 160.941 87.9919ZM140.001 86.8804C139.874 86.8804 139.758 86.8169 139.694 86.7004C139.165 85.7371 138.9 84.7843 138.9 83.8633C138.9 83.6728 139.059 83.514 139.25 83.514C139.44 83.514 139.599 83.6728 139.599 83.8633C139.599 84.6573 139.832 85.5042 140.308 86.3617C140.404 86.531 140.34 86.7428 140.171 86.838C140.107 86.8698 140.054 86.8804 140.001 86.8804ZM151.36 83.6834C151.244 83.6834 151.127 83.6304 151.064 83.5246C150.873 83.2282 150.672 82.9423 150.45 82.6671C150.206 82.3601 149.836 81.8837 149.359 81.3862C149.222 81.2486 149.232 81.0262 149.37 80.8886C149.508 80.751 149.73 80.7616 149.868 80.8992C150.365 81.4179 150.746 81.9049 151 82.2331C151.233 82.5295 151.445 82.8365 151.646 83.1435C151.752 83.3023 151.699 83.5246 151.54 83.6304C151.487 83.6622 151.424 83.6834 151.36 83.6834ZM162.211 82.593C162.02 82.593 161.862 82.4342 161.862 82.2437C161.851 81.3438 161.745 80.4334 161.534 79.5442C161.491 79.3536 161.608 79.1631 161.798 79.1208C161.989 79.0784 162.179 79.1949 162.222 79.3854C162.444 80.3276 162.56 81.2909 162.56 82.2331C162.56 82.4342 162.412 82.593 162.211 82.593ZM140.107 81.5979C140.044 81.5979 139.97 81.5767 139.906 81.5344C139.747 81.4285 139.705 81.2062 139.811 81.0474C140.361 80.2429 141.102 79.5442 141.949 79.0466C142.119 78.9514 142.33 79.0043 142.426 79.1737C142.521 79.3431 142.468 79.5548 142.299 79.6501C141.536 80.0947 140.869 80.7193 140.382 81.4391C140.329 81.545 140.224 81.5979 140.107 81.5979ZM147.454 79.7242C147.39 79.7242 147.338 79.7136 147.274 79.6818C146.448 79.2054 145.612 78.962 144.786 78.9514C144.596 78.9514 144.437 78.7926 144.437 78.602C144.437 78.4115 144.596 78.2527 144.786 78.2527C145.728 78.2633 146.681 78.5385 147.613 79.0784C147.782 79.1737 147.835 79.3854 147.74 79.5548C147.697 79.6606 147.57 79.7242 147.454 79.7242Z" fill="white"/>
<path d="M118.734 121.328C129.258 121.328 137.789 112.806 137.789 102.294C137.789 91.7818 129.258 83.26 118.734 83.26C108.21 83.26 99.6792 91.7818 99.6792 102.294C99.6792 112.806 108.21 121.328 118.734 121.328Z" fill="#000318"/>
<path d="M119.899 121.878C130.107 121.878 138.382 113.608 138.382 103.405C138.382 93.2032 130.107 84.9326 119.899 84.9326C109.691 84.9326 101.416 93.2032 101.416 103.405C101.416 113.608 109.691 121.878 119.899 121.878Z" fill="#FFD600"/>
<path d="M119.909 122.227C111.736 122.227 104.199 116.871 101.806 108.645C100.409 103.818 100.97 98.7368 103.394 94.333C105.819 89.9292 109.82 86.7322 114.647 85.3348C124.619 82.4448 135.089 88.2036 137.979 98.1758C139.377 103.003 138.815 108.084 136.391 112.488C133.967 116.892 129.965 120.089 125.138 121.486C123.402 121.984 121.634 122.227 119.909 122.227ZM119.898 85.2819C118.236 85.2819 116.542 85.5148 114.859 86.0017C110.212 87.3462 106.358 90.4267 104.019 94.6612C101.679 98.8956 101.139 103.797 102.484 108.444C104.781 116.363 112.043 121.518 119.909 121.518C121.571 121.518 123.264 121.285 124.948 120.798C129.595 119.454 133.448 116.373 135.788 112.139C138.127 107.894 138.667 103.003 137.323 98.3557C135.026 90.4373 127.764 85.2819 119.898 85.2819Z" fill="#000318"/>
<path d="M120.036 119.369C128.601 119.369 135.544 112.431 135.544 103.871C135.544 95.3118 128.601 88.373 120.036 88.373C111.47 88.373 104.527 95.3118 104.527 103.871C104.527 112.431 111.47 119.369 120.036 119.369Z" fill="white"/>
<path d="M134.899 108.656C134.867 108.656 134.835 108.656 134.793 108.646C134.613 108.593 134.507 108.391 134.56 108.212C134.973 106.825 135.195 105.385 135.195 103.945C135.195 103.755 135.354 103.596 135.545 103.596C135.735 103.596 135.894 103.755 135.894 103.945C135.883 105.459 135.661 106.962 135.227 108.413C135.195 108.561 135.058 108.656 134.899 108.656Z" fill="#000318"/>
<path d="M131.564 93.8461C131.469 93.8461 131.373 93.8038 131.299 93.7297C127.372 89.3788 121.433 87.6956 115.812 89.3153C113.208 90.0669 110.847 91.5066 108.994 93.4756C108.857 93.6133 108.645 93.6238 108.497 93.4862C108.359 93.3486 108.349 93.1369 108.486 92.9887C110.424 90.935 112.89 89.4317 115.621 88.6378C121.507 86.9334 127.721 88.7013 131.829 93.2533C131.956 93.4015 131.945 93.6132 131.808 93.7509C131.733 93.8144 131.649 93.8461 131.564 93.8461Z" fill="#000318"/>
<path d="M120.046 119.719C113.165 119.719 106.814 115.209 104.802 108.275C104.209 106.221 104.029 104.115 104.283 102.019C104.305 101.828 104.485 101.69 104.675 101.712C104.866 101.733 105.003 101.913 104.982 102.103C104.749 104.115 104.908 106.126 105.48 108.084C107.809 116.109 116.235 120.745 124.26 118.417C124.439 118.364 124.641 118.469 124.694 118.66C124.746 118.851 124.641 119.041 124.45 119.094C122.979 119.518 121.497 119.719 120.046 119.719Z" fill="#000318"/>
<path d="M121.889 114.478L121.18 112.033C119.433 112.456 117.623 112.478 116.479 112.192L116.374 108.952C117.633 109.228 119.306 109.334 120.979 108.847C122.45 108.423 123.286 107.566 122.99 106.528C122.704 105.554 121.698 105.173 119.602 105.078C116.575 104.951 114.32 104.21 113.589 101.712C112.933 99.4461 114.013 97.2018 116.617 95.868L115.908 93.4226L118.438 92.6921L119.094 94.9576C120.841 94.5341 122.111 94.5553 123.075 94.7247L123.17 97.8476C122.418 97.7629 121.063 97.5088 119.2 98.0487C117.527 98.5357 117.189 99.4143 117.4 100.134C117.644 100.981 118.703 101.267 121.137 101.457C124.514 101.648 126.166 102.707 126.843 105.025C127.51 107.322 126.452 109.746 123.636 111.123L124.398 113.748L121.889 114.478Z" fill="#FFD600"/>
<path d="M143.295 80.9311C151.287 80.9311 157.766 74.4568 157.766 66.4704C157.766 58.484 151.287 52.0098 143.295 52.0098C135.303 52.0098 128.824 58.484 128.824 66.4704C128.824 74.4568 135.303 80.9311 143.295 80.9311Z" fill="#000318"/>
<path d="M144.046 80.4336C151.799 80.4336 158.084 74.1537 158.084 66.407C158.084 58.6603 151.799 52.3804 144.046 52.3804C136.294 52.3804 130.009 58.6603 130.009 66.407C130.009 74.1537 136.294 80.4336 144.046 80.4336Z" fill="#FFD600"/>
<path d="M144.026 80.7723C141.602 80.7723 139.156 80.1583 136.912 78.8773C133.578 76.9718 131.185 73.8807 130.169 70.1755C129.163 66.4704 129.65 62.5959 131.556 59.2612C135.494 52.3802 144.301 49.9772 151.182 53.9152C154.517 55.8207 156.909 58.9119 157.926 62.617C158.931 66.3222 158.444 70.1967 156.539 73.5313C153.892 78.1787 149.023 80.7723 144.026 80.7723ZM144.079 52.7296C139.326 52.7296 134.7 55.2067 132.17 59.6106C130.359 62.7864 129.883 66.4704 130.846 69.9956C131.81 73.5208 134.086 76.4637 137.261 78.2739C143.814 82.0214 152.188 79.7348 155.935 73.1926C157.746 70.0168 158.222 66.3328 157.259 62.8076C156.295 59.2824 154.019 56.3395 150.843 54.5292C148.705 53.3118 146.376 52.7296 144.079 52.7296Z" fill="#000318"/>
<path d="M144.048 78.1788C150.555 78.1788 155.83 72.9084 155.83 66.407C155.83 59.9057 150.555 54.6353 144.048 54.6353C137.54 54.6353 132.265 59.9057 132.265 66.407C132.265 72.9084 137.54 78.1788 144.048 78.1788Z" fill="white"/>
<path d="M149.477 77.2048C149.35 77.2048 149.223 77.1307 149.17 77.0143C149.085 76.8449 149.149 76.6332 149.318 76.5379C150.292 76.0404 151.181 75.3946 151.964 74.643C152.102 74.5054 152.324 74.516 152.462 74.6536C152.6 74.7912 152.589 75.0135 152.451 75.1511C151.615 75.9557 150.673 76.6332 149.646 77.1625C149.593 77.1837 149.54 77.2048 149.477 77.2048Z" fill="#000318"/>
<path d="M155.807 67.5504C155.797 67.5504 155.786 67.5504 155.786 67.5504C155.596 67.5398 155.447 67.3704 155.458 67.1798C155.754 62.776 153.563 58.6792 149.72 56.4878C146.566 54.6882 142.712 54.4977 139.388 55.9691C139.208 56.0538 139.007 55.9691 138.923 55.7892C138.848 55.6092 138.923 55.4081 139.103 55.3234C142.628 53.7566 146.725 53.9578 150.07 55.8738C154.082 58.1605 156.464 62.6172 156.157 67.2222C156.146 67.4127 155.987 67.5504 155.807 67.5504Z" fill="#000318"/>
<path d="M138.203 76.9718C138.14 76.9718 138.087 76.9612 138.034 76.9294C135.218 75.3203 133.206 72.7162 132.349 69.5932C131.502 66.4703 131.915 63.1992 133.524 60.3939C134.551 58.5942 136.033 57.0804 137.811 56.0218C137.981 55.9265 138.192 55.9795 138.288 56.1383C138.383 56.3076 138.33 56.5194 138.171 56.6146C136.499 57.6097 135.101 59.0389 134.138 60.7432C132.624 63.3898 132.232 66.4703 133.037 69.4133C133.842 72.3562 135.736 74.8122 138.394 76.326C138.563 76.4213 138.616 76.633 138.521 76.8024C138.447 76.9083 138.319 76.9718 138.203 76.9718Z" fill="#000318"/>
<path d="M138.986 73.0866L139.949 71.4034C138.795 70.673 137.821 69.699 137.376 68.9262L139.091 67.1584C139.6 67.9947 140.436 68.958 141.579 69.6143C142.585 70.186 143.506 70.1966 143.908 69.4873C144.289 68.8204 143.972 68.0688 142.913 66.8725C141.389 65.1576 140.595 63.5273 141.579 61.8124C142.468 60.2562 144.268 59.6634 146.375 60.3726L147.338 58.6895L149.074 59.6845L148.185 61.2407C149.339 61.9712 149.995 62.6698 150.419 63.2944L148.767 64.9988C148.418 64.5436 147.836 63.6649 146.565 62.9451C145.411 62.2887 144.755 62.5746 144.48 63.0615C144.141 63.6438 144.554 64.3742 145.729 65.7927C147.412 67.7406 147.698 69.2015 146.788 70.7894C145.888 72.3667 144.003 73.0654 141.77 72.2609L140.743 74.0605L138.986 73.0866Z" fill="#FFD600"/>
<path d="M23.1239 169.848C23.0928 169.854 23.0617 169.86 23.0284 169.856C20.9683 169.716 20.2331 167.175 20.2119 167.072C20.1846 166.991 20.2009 166.912 20.2296 166.841C21.8747 163.047 25.0105 155.816 25.1008 155.57C25.144 155.464 25.235 155.381 25.349 155.357C25.461 155.324 25.5774 155.365 25.6691 155.443L29.5269 158.988C29.6478 159.103 29.6734 159.282 29.5848 159.43L23.3641 169.701C23.3021 169.768 23.2173 169.829 23.1239 169.848Z" fill="#000318"/>
<path d="M15.5051 174.152L15.4553 174.078L15.3811 174.029L14.9076 173.716C14.5144 173.456 14.2008 173.093 14.0014 172.666L13.1172 170.772C12.8438 170.186 12.9718 169.543 13.426 169.192C14.2856 168.527 15.5527 167.768 16.8658 167.709C18.0342 167.66 18.8511 167.374 19.4907 166.844C19.8454 166.55 20.1315 166.191 20.3901 165.79C20.6215 166.513 20.9703 167.281 21.5215 167.995C22.1062 168.768 22.968 169.375 23.8342 169.833C23.6259 170.605 23.2583 172.001 22.9184 173.412C22.718 174.244 22.5264 175.084 22.3827 175.806C22.242 176.513 22.1401 177.14 22.1302 177.533C22.118 177.779 22.1653 178.045 22.2339 178.307C22.3045 178.575 22.4059 178.869 22.5195 179.173C22.6038 179.398 22.6938 179.628 22.786 179.863C22.9495 180.28 23.1197 180.714 23.2769 181.174C23.7715 182.623 24.0189 184.024 23.3969 185.088C23.3442 185.178 23.2686 185.213 23.1662 185.204C23.0499 185.193 22.9098 185.121 22.8166 184.983L15.5051 174.152Z" fill="black" stroke="black" stroke-width="0.892938"/>
<path d="M40.1721 184.125L40.0822 184.121L39.9978 184.152L39.5004 184.337C39.0515 184.504 38.5646 184.541 38.0955 184.444L36.2233 184.058C35.5773 183.924 35.1334 183.42 35.1374 182.834C35.1447 181.758 35.3237 180.317 36.0554 179.242C36.7142 178.28 36.9816 177.461 36.9561 176.639C36.9419 176.179 36.8356 175.736 36.6806 175.29C37.3752 175.53 38.1755 175.704 39.055 175.684C39.9975 175.673 40.9749 175.343 41.8415 174.924C42.3133 175.549 43.1603 176.657 44.0348 177.752C44.5547 178.403 45.0865 179.052 45.5562 179.593C46.0152 180.122 46.4374 180.575 46.7362 180.817C46.9212 180.974 47.1577 181.095 47.4013 181.195C47.6518 181.297 47.9398 181.39 48.2423 181.478C48.466 181.544 48.6958 181.607 48.9308 181.672C49.3509 181.787 49.7878 181.907 50.2372 182.054C51.6473 182.513 52.8623 183.141 53.3012 184.263C53.3384 184.358 53.32 184.439 53.2504 184.516C53.1719 184.602 53.0312 184.669 52.8676 184.662L40.1721 184.125Z" fill="black" stroke="black" stroke-width="0.892938"/>
<path d="M39.0151 178C38.825 178 38.635 177.979 38.4259 177.937C38.3309 177.916 38.2549 177.853 38.2074 177.759C38.0648 177.456 34.6251 170.219 33.8744 165.398C33.8554 165.294 33.8839 165.189 33.9504 165.116C34.017 165.043 34.1025 164.991 34.1975 165.001L39.5757 165.21C39.6612 165.21 39.7467 165.252 39.8037 165.325C39.8607 165.398 39.8892 165.493 39.8797 165.587C39.8607 165.89 40.2218 171.652 41.8372 175.26C41.8752 175.344 41.8752 175.427 41.8562 175.511C41.5901 176.431 40.6874 178 39.0151 178Z" fill="#000318"/>
<path d="M37.4203 88.3139C37.4203 88.3139 46.7361 111.575 47.6086 127.176C48.4811 142.777 26.8696 166.156 26.8696 166.156L21.0851 160.956C21.0851 160.956 30.3824 151.892 31.3165 140.16C32.2506 128.428 26.3553 106.691 26.3553 106.691L23.7847 91.2551L37.4203 88.3139Z" fill="#000318"/>
<path d="M26.2788 88.8281C26.2788 88.8281 21.1657 123.074 33.1492 168.33L40.3796 167.293C40.3796 167.293 36.4839 127.722 45.8208 106.803L47.9063 87.8965L26.2788 88.8281Z" fill="#000318"/>
<path d="M36.3005 127.722C36.11 127.722 35.9512 127.563 35.9512 127.372C35.9194 122.196 37.3486 112.224 39.5717 108.974C39.6775 108.815 39.8998 108.772 40.0586 108.878C40.2174 108.984 40.2598 109.206 40.1539 109.365C38.079 112.393 36.6181 122.217 36.6499 127.362C36.6499 127.563 36.4911 127.722 36.3005 127.722Z" fill="white"/>
<path d="M92.1416 18.9702C92.1416 18.9702 86.7215 19.2137 85.0171 19.563C83.2386 19.9336 81.2696 20.6428 79.47 24.2421C77.6703 27.8414 70.1166 41.7255 44.8687 40L41.8687 48.5C41.8687 48.5 75.8687 47 81.0685 29.9163C81.3861 28.4236 82.8364 27.852 84.1914 27.1427C85.4617 26.4758 86.7532 25.5654 87.1237 23.4376C87.4096 21.7861 88.627 20.8122 90.0561 20.6534C91.0194 20.537 92.1839 20.1029 92.1416 18.9702Z" fill="white"/>
<path d="M43.6592 52.8223C43.511 52.8223 43.3734 52.727 43.3311 52.5894L44.5461 40.5098C44.5038 40.4039 44.525 40.2769 44.5991 40.1816C44.6732 40.0863 44.7896 40.0334 44.8955 40.044C66.6076 41.5261 74.9185 32.563 79.1318 24.1152L79.1424 24.0835C81.0267 20.3148 83.1122 19.5949 84.933 19.2244C86.6374 18.8645 91.8881 18.6316 92.1104 18.621C92.1951 18.6104 92.2904 18.6528 92.3645 18.7163C92.428 18.7798 92.4703 18.8645 92.4809 18.9598C92.5233 20.0607 91.6129 20.8229 90.0673 21.0029C88.6911 21.1617 87.6854 22.125 87.4419 23.5012C87.0608 25.7455 85.7164 26.7194 84.3296 27.4498C84.1708 27.5345 84.0226 27.6086 83.8638 27.6933C82.7205 28.2756 81.6301 28.826 81.3867 29.9905C78.2849 44.6206 63.2867 44.9568 56.2787 48.5243C48.6884 52.3988 43.7333 52.8117 43.6698 52.8223C43.6804 52.8223 43.6698 52.8223 43.6592 52.8223ZM45.3824 40.7744L43.9133 52.1024C45.2366 51.9859 49.3765 51.2767 56.0034 47.8891C62.8633 44.3851 77.6815 44.1865 80.7197 29.8423C81.0373 28.3603 82.3182 27.7039 83.5674 27.0687C83.7156 26.9946 83.8744 26.91 84.0226 26.8358C85.1659 26.2324 86.4151 25.4173 86.7644 23.3848C87.0608 21.6804 88.2994 20.5053 89.9932 20.3042C90.4696 20.2513 91.4964 20.0501 91.7399 19.3303C90.4378 19.3938 86.468 19.6161 85.0812 19.9019C83.4298 20.2407 81.5137 20.9076 79.7776 24.3905L79.767 24.4222C75.5113 32.9652 67.1475 42.0236 45.3824 40.7744Z" fill="#000318"/>
<path d="M83.0699 26.5818C82.9428 26.5818 82.8158 26.5077 82.7523 26.3912C82.6676 26.2219 82.7311 26.0101 82.9111 25.9254C84.4249 25.1632 84.5202 24.2105 84.5943 23.4377C84.6366 23.0037 84.6789 22.5908 84.9754 22.3156C85.1765 22.125 85.3565 21.818 85.5152 21.511L81.7889 23.8188C81.6301 23.9247 81.4078 23.8717 81.302 23.7024C81.1961 23.533 81.249 23.3213 81.4184 23.2154L86.034 20.3571C86.161 20.283 86.3198 20.283 86.4257 20.3783C86.5421 20.463 86.595 20.6112 86.5527 20.7594C86.5315 20.8229 86.1292 22.1991 85.4517 22.8237C85.3459 22.919 85.3247 23.2048 85.2929 23.5012C85.2083 24.3481 85.0812 25.6184 83.2181 26.55C83.1757 26.5712 83.1228 26.5818 83.0699 26.5818Z" fill="#000318"/>
<path d="M4.52448 160.047C14.5032 146.379 20.3216 132.73 24.0178 121.619L24.0179 121.618C24.8071 119.242 24.7291 116.184 24.4223 112.644C24.3247 111.518 24.2038 110.343 24.0779 109.118C23.8048 106.463 23.5084 103.581 23.3761 100.491C22.9908 91.4882 24.0091 80.8311 31.1247 69.5582L31.2031 69.434L31.1732 69.2901C30.6258 66.6604 29.3269 63.7419 28.0944 61.1768L28.0932 61.1744C27.8184 60.6131 27.5467 60.0667 27.2849 59.5404C26.7591 58.4831 26.2735 57.5068 25.8848 56.6542C25.6197 56.0668 25.3991 55.545 25.2587 55.1117C25.516 54.7541 25.7718 54.4106 26.0195 54.078C26.1158 53.9486 26.2109 53.8209 26.3044 53.6947L26.3061 53.6922C26.8602 52.9308 27.3513 52.2116 27.6826 51.531L27.6826 51.531L27.6853 51.5253C28.0346 50.7752 28.211 50.0197 28.0246 49.2724L28.0239 49.2698C27.8915 48.7558 27.7105 48.2623 27.4997 47.7749L27.4985 47.7721C27.4048 47.553 27.3065 47.323 27.191 47.0917C26.6076 45.9224 25.9772 44.8487 25.4934 44.0683C25.2514 43.6778 25.0455 43.3599 24.8999 43.1393C24.886 43.1183 24.8727 43.0981 24.8599 43.0789C25.923 42.309 27.5223 41.7387 28.963 41.3458C29.7361 41.135 30.4482 40.9791 30.9817 40.8718C31.2483 40.8182 31.4699 40.7769 31.6327 40.7468C31.6527 40.7431 31.6725 40.7394 31.6918 40.7359C31.7967 40.7166 31.8893 40.6995 31.9402 40.6873C31.997 40.6758 32.053 40.6626 32.1061 40.6496C32.3207 41.2112 32.8838 42.5737 33.7115 43.8754C34.2626 44.7422 34.9513 45.6217 35.7744 46.2845C36.5996 46.949 37.5772 47.4088 38.6932 47.3956C40.7344 47.3718 43.3108 47.3084 45.3836 47.1691C46.418 47.0996 47.338 47.0106 48.006 46.8959C48.3371 46.8391 48.6248 46.7731 48.838 46.6929C48.9429 46.6534 49.0514 46.6027 49.1408 46.5336C49.2251 46.4684 49.3461 46.3438 49.3574 46.1521C49.3629 46.0702 49.3528 45.9792 49.3407 45.899C49.3273 45.8112 49.307 45.7097 49.2818 45.599C49.2314 45.3774 49.1579 45.1026 49.07 44.7972C48.8941 44.1857 48.6558 43.4349 48.4173 42.7079C48.1785 41.9802 47.9384 41.2731 47.758 40.7483C47.7195 40.6362 47.6837 40.5324 47.6512 40.4384C47.9795 40.4813 48.4163 40.5428 48.8827 40.6269L48.9147 40.6327H48.9183C48.927 40.6348 48.9387 40.6374 48.9512 40.6398C48.962 40.6418 48.9753 40.644 48.9905 40.6457C49.2073 40.6918 49.4404 40.7461 49.6649 40.8024L54.3456 63.2911C54.2377 63.2508 54.1229 63.2291 54.0035 63.2381C53.7572 63.2568 53.5754 63.3983 53.4556 63.5742C53.3422 63.7405 53.2716 63.9525 53.2246 64.1785C53.13 64.6335 53.1083 65.2649 53.1383 66.0285C53.1684 66.7984 53.2523 67.7267 53.3798 68.7869C53.8892 73.023 55.1062 79.4586 56.4575 86.555L56.5824 87.2105C57.9012 94.135 59.332 101.647 60.359 108.372C61.4205 115.321 62.043 121.385 61.6805 125.083L61.6805 125.083C60.5291 136.963 62.3635 147.431 64.4843 154.928C65.5449 158.677 66.6777 161.685 67.5463 163.757C67.9805 164.793 68.3488 165.596 68.6091 166.14C68.6991 166.328 68.7762 166.486 68.8386 166.611C65.1204 167.989 61.56 167.32 57.7172 165.725C55.7296 164.899 53.6798 163.832 51.5012 162.68C51.3283 162.588 51.1546 162.496 50.9801 162.404C48.9601 161.335 46.8308 160.208 44.5584 159.159C39.6165 156.879 33.9801 154.958 27.2201 154.762C20.7772 154.574 13.3368 155.954 4.52448 160.047Z" fill="#244180" stroke="black" stroke-width="0.726874"/>
<path d="M30.3687 79.5L28.8687 78.5C27.2687 77.3 28.8687 75.6667 29.8687 75C30.0354 75 31.1687 75.1 34.3687 75.5L32.8687 76C31.6687 76.4 30.7021 78.5 30.3687 79.5Z" fill="white" stroke="black"/>
<path d="M14.0097 67.1786L14.0508 67.2608L14.1236 67.3168C15.2491 68.1825 16.9128 69.0735 19.5895 70.1818C22.1525 71.2431 25.6658 72.5121 30.5611 74.1521C30.4877 74.2541 30.4303 74.3632 30.387 74.4789C30.278 74.7702 30.27 75.0814 30.2638 75.3248C30.2633 75.341 30.2629 75.357 30.2625 75.3726C30.255 75.6461 30.2428 75.8618 30.1663 76.0655C30.0995 76.2432 29.9735 76.4352 29.6988 76.6305C28.5913 76.9324 28.0627 77.6703 27.8735 78.4105C27.7796 78.7779 27.7698 79.1402 27.8031 79.4449C27.8032 79.4454 27.8032 79.4458 27.8032 79.4463C20.1309 77.5249 14.3908 75.9776 8.63836 70.7049C7.18798 69.3755 6.85289 67.4714 7.37202 65.1597C7.89285 62.8405 9.26322 60.1815 11.1189 57.4705C14.7461 52.1715 20.1494 46.7851 24.3342 43.5315C25.4721 44.6741 26.4009 45.6441 27.0913 46.534C27.8312 47.4876 28.2712 48.3168 28.4113 49.1302C28.6863 50.726 27.834 52.4678 25.0849 55.2169L25.0734 55.2284L25.0671 55.2347C20.5496 59.7521 17.7591 62.5427 16.1192 64.2452C15.3005 65.0951 14.7596 65.6831 14.4325 66.0829C14.2708 66.2807 14.1482 66.4481 14.0709 66.5876C14.0326 66.6568 13.9952 66.7371 13.9748 66.8231C13.955 66.9069 13.941 67.0412 14.0097 67.1786Z" fill="#244180" stroke="black" stroke-width="0.8"/>
<path d="M43.3687 51.4998L44.3687 40.4998L50.3687 39.9998L59.3687 38.4998L64.3687 36.4998L71.3687 32.4998L73.8687 29.9998L76.3687 26.9998L76.8687 27.4998L79.3687 30.4998L81.3687 30.9998V31.4998C78.9687 39.4998 70.702 43.4998 66.8687 44.4998C64.702 45.1664 59.7687 46.7998 57.3687 47.9998C52.9687 50.3998 46.202 51.3331 43.3687 51.4998Z" fill="#244180"/>
<path d="M76.3687 26.5C71.476 33.2945 62.6572 40.037 44.1581 39.8579C44.0518 39.8538 43.9379 39.9086 43.8685 40C43.7991 40.0914 43.7841 40.2091 43.8316 40.3041L43.1749 51.7594C43.2239 51.8836 43.3661 51.9637 43.5142 51.9559L43.5248 51.9553C43.5273 51.9548 43.5406 51.9531 43.5643 51.9502C44.138 51.878 50.8132 52.0379 57.9186 48.2352C59.5665 47.3555 61.6884 46.6238 63.9932 45.8291C71.1015 43.3779 79.9495 40.3268 82.0002 30.4833C81.8704 30.48 81.73 30.4875 81.5897 30.4949C81.515 30.4989 81.4174 30.4937 81.3054 30.4806C79.2598 40.0007 70.6241 42.931 63.6692 45.2909C61.3658 46.0725 59.2468 46.7915 57.6125 47.6666C51.1532 51.128 45.0502 51.1045 43.7332 51.2815L44.6804 40.5028C63.2596 40.4978 72.1218 33.6315 77.0365 26.7393C76.8347 26.6541 76.612 26.5734 76.3687 26.5Z" fill="#000318"/>
<path d="M76.0489 26.965L77.0365 26.7393C77.0365 26.7393 78.9222 29.7644 79.5662 30.1416C80.424 30.6442 82.0002 30.4833 82.0002 30.4833L81.8408 31.124C81.8408 31.124 80.0503 31.1067 79.0907 30.6272C78.0999 30.132 76.0489 26.965 76.0489 26.965Z" fill="#000318"/>
<path d="M47.8472 25.099L47.8476 25.0998C47.9833 25.4185 48.2917 26.0196 48.704 26.8232C48.9471 27.297 49.2264 27.8413 49.5277 28.4396C50.3479 30.0684 51.3491 32.131 52.2876 34.367C53.2265 36.604 54.0997 39.0078 54.6665 41.3191C55.2344 43.6351 55.4879 45.8323 55.2094 47.6662L55.2044 47.6993L55.2056 47.7328C55.2502 48.9281 54.738 51.3153 53.6033 54.058C52.4739 56.7882 50.747 59.8228 48.4057 62.3169C46.0656 64.8097 43.1244 66.7496 39.5603 67.3271C36 67.9039 31.7696 67.1291 26.8321 64.1037C22.7168 61.5654 19.0768 57.6149 17.7012 53.8773L17.701 53.8768C16.7266 51.2421 16.4043 49.1802 16.5256 47.4822C16.6465 45.7906 17.2092 44.4373 18.0438 43.2183C18.8843 41.9906 19.9983 40.9012 21.2305 39.7347C21.3393 39.6318 21.449 39.5282 21.5594 39.424C22.6923 38.3544 23.9027 37.2116 25.0316 35.8563L25.047 35.8379L25.0598 35.8175C27.0579 32.6258 27.5518 29.558 27.9909 26.8304C28.0797 26.2785 28.1663 25.7406 28.2627 25.2183C28.5507 23.6577 28.9227 22.2387 29.6752 20.9573C30.4237 19.6828 31.5617 18.5231 33.4148 17.5079C36.0139 16.0945 38.9885 15.9197 41.794 17.3303C45.2639 19.0853 46.5491 22.0281 47.8472 25.099Z" fill="black" stroke="black" stroke-width="0.709949"/>
<path d="M47.5403 30.9236L47.5387 30.9453L47.5394 30.9594C47.5114 31.3003 47.4692 31.6437 47.4255 31.978L47.4242 31.9874L47.4231 31.9914L47.4208 31.9997L47.4189 32.0082C47.1683 33.1141 46.8842 34.0097 46.5699 34.7034C46.2776 35.3486 45.9676 35.8005 45.6512 36.0876C45.6379 36.089 45.6232 36.0905 45.6074 36.0922C45.509 36.1024 45.3639 36.1161 45.1799 36.1297C44.8119 36.1569 44.2892 36.1837 43.6738 36.1818C42.4423 36.178 40.8584 36.0591 39.4023 35.6095C38.204 35.1358 37.1633 34.4622 36.264 33.5882C36.0806 27.7075 38.0725 23.6463 42.1982 21.3247C44.1202 22.4784 45.5134 23.8423 46.3982 25.4042C47.3081 27.0105 47.6928 28.8478 47.5403 30.9236Z" fill="white" stroke="black" stroke-width="0.709949"/>
<path d="M42.9743 24.223C41.5488 24.2935 40.3296 23.866 39.6605 23.2518C40.3917 22.5173 41.2396 21.8761 42.2155 21.3375C43.3941 22.0492 44.37 22.8323 45.1492 23.6939C44.5507 23.9856 43.8056 24.1819 42.9743 24.223Z" fill="#244180" stroke="black" stroke-width="0.709949"/>
<path d="M16.2402 75.8141C16.1021 76.005 16.0059 76.2146 15.9691 76.4422C14.2092 75.6605 12.3995 74.6075 10.8544 73.4818C9.14293 72.2348 7.79421 70.9262 7.17725 69.8263L7.17313 69.8189L7.16867 69.8118C6.56765 68.8502 6.26275 67.9703 6.221 67.0661C6.17912 66.1591 6.40047 65.1955 6.90431 64.0646C7.9208 61.783 10.0369 58.9212 13.2409 54.6122L13.2533 54.5956L13.2637 54.5775C17.5986 47.0469 21.7643 41.4676 25.3162 37.6867C27.0924 35.796 28.7109 34.3596 30.1161 33.3542C31.3784 32.451 32.4493 31.9096 33.295 31.6871C34.0971 33.7721 35.2398 35.0719 36.797 35.8552C38.4008 36.6618 40.4053 36.8991 42.8236 36.9584C46.7682 37.3606 49.7297 37.1969 51.9471 35.969C55.5881 48.2143 58.5287 57.5617 60.8011 64.0203C58.5595 68.705 55.1662 71.8259 50.6188 73.4166C46.028 75.0224 40.2282 75.0796 33.1977 73.553C31.926 72.818 30.3697 71.675 28.7231 70.4227C28.3051 70.1047 27.8814 69.7799 27.4558 69.4536C26.1928 68.4852 24.9131 67.5041 23.7148 66.6528C22.1217 65.521 20.6271 64.5847 19.4724 64.2167C18.8995 64.0342 18.3394 63.9676 17.8791 64.1614C17.3858 64.3691 17.1101 64.8272 17.0167 65.4468C16.9311 66.0143 17.2337 66.5741 17.6109 67.0437C17.9998 67.528 18.5328 67.9963 19.0578 68.4003C19.5856 68.8065 20.1193 69.1584 20.5198 69.4082C20.7088 69.5261 20.8689 69.6217 20.9858 69.69C20.9784 69.741 20.9695 69.7998 20.9588 69.8653C20.9172 70.1192 20.8492 70.4727 20.7434 70.8692C20.5293 71.6721 20.1715 72.6094 19.5998 73.2668C19.3195 73.5892 18.9455 73.8727 18.5289 74.145C18.3217 74.2805 18.1087 74.4102 17.8949 74.5399L17.8665 74.5572C17.6638 74.6802 17.4598 74.804 17.268 74.9287C16.8735 75.1851 16.4886 75.4708 16.2402 75.8141Z" fill="black" stroke="black" stroke-width="0.709949"/>
<path d="M102.899 100.791H36.9471C34.8299 100.791 33.1361 99.0227 33.2208 96.9055L34.8405 58.8165C34.9252 56.8264 36.566 55.249 38.5668 55.249H104.529C106.646 55.249 108.34 57.0169 108.255 59.1341L106.625 97.2231C106.54 99.2133 104.9 100.791 102.899 100.791Z" fill="#FFD600"/>
<path d="M102.898 101.14H36.9469C35.8247 101.14 34.7767 100.695 34.0039 99.8801C33.2311 99.0755 32.8289 98.0063 32.8712 96.8948L34.4909 58.8059C34.5862 56.6145 36.3752 54.9102 38.5665 54.9102H104.529C105.651 54.9102 106.699 55.3548 107.472 56.1699C108.244 56.9744 108.647 58.0437 108.604 59.1552L106.985 97.2441C106.879 99.4249 105.09 101.14 102.898 101.14ZM38.556 55.6088C36.7457 55.6088 35.2637 57.0274 35.179 58.8376L33.5593 96.9265C33.517 97.8581 33.8557 98.7368 34.4909 99.4037C35.1366 100.071 36.0047 100.441 36.9257 100.441H102.888C104.698 100.441 106.18 99.0226 106.265 97.2124L107.885 59.1234C107.927 58.1919 107.588 57.3132 106.953 56.6463C106.307 55.9794 105.439 55.6088 104.518 55.6088H38.556Z" fill="#000318"/>
<path d="M50.9948 77.1092H41.499C40.6098 77.1092 39.9217 76.3894 39.9429 75.5001L40.2075 67.677C40.2393 66.7877 40.9803 66.0679 41.8695 66.0679H51.3653C52.2545 66.0679 52.9426 66.7877 52.9215 67.677L52.6568 75.5001C52.6251 76.3894 51.884 77.1092 50.9948 77.1092Z" fill="white"/>
<path d="M60.2901 96.4183H38.8426C38.2921 96.4183 37.8369 95.9737 37.8369 95.4127C37.8369 94.8622 38.2815 94.407 38.8426 94.407H60.2901C60.8406 94.407 61.2958 94.8516 61.2958 95.4127C61.2958 95.9631 60.8406 96.4183 60.2901 96.4183Z" fill="#000318"/>
<path d="M100.761 96.4183H94.536C93.9855 96.4183 93.5303 95.9737 93.5303 95.4127C93.5303 94.8622 93.9749 94.407 94.536 94.407H100.761C101.311 94.407 101.766 94.8516 101.766 95.4127C101.766 95.9631 101.311 96.4183 100.761 96.4183Z" fill="#000318"/>
<path d="M51.2593 86.3403H40.525C39.8792 86.3403 39.3711 85.811 39.3922 85.1547L39.4558 83.1856C39.4769 82.5293 40.0168 82 40.6732 82H51.4181C52.0638 82 52.572 82.5293 52.5508 83.1856L52.4873 85.1547C52.4555 85.8004 51.9156 86.3403 51.2593 86.3403Z" fill="#FFD600"/>
<path d="M67.891 86.3403H57.146C56.5003 86.3403 55.9922 85.811 56.0133 85.1547L56.0768 83.1856C56.098 82.5293 56.6379 82 57.2943 82H68.0392C68.6849 82 69.1931 82.5293 69.1719 83.1856L69.1084 85.1547C69.0766 85.8004 68.5367 86.3403 67.891 86.3403Z" fill="#FFD600"/>
<path d="M84.5113 86.3403H73.7769C73.1312 86.3403 72.623 85.811 72.6442 85.1547L72.7077 83.1856C72.7289 82.5293 73.2688 82 73.9251 82H84.67C85.3158 82 85.8239 82.5293 85.8028 83.1856L85.7392 85.1547C85.7075 85.8004 85.1676 86.3403 84.5113 86.3403Z" fill="#FFD600"/>
<path d="M101.141 86.3403H90.3961C89.7503 86.3403 89.2422 85.811 89.2633 85.1547L89.3268 83.1856C89.348 82.5293 89.8879 82 90.5443 82H101.289C101.935 82 102.443 82.5293 102.422 83.1856L102.358 85.1547C102.327 85.8004 101.787 86.3403 101.141 86.3403Z" fill="#FFD600"/>
<path d="M100.4 63.8978H88.7129C87.5802 63.8978 86.6592 62.9768 86.6592 61.8441V61.8335C86.6592 60.7008 87.5802 59.7798 88.7129 59.7798H100.4C101.533 59.7798 102.454 60.7008 102.454 61.8335V61.8441C102.454 62.9768 101.533 63.8978 100.4 63.8978Z" fill="#000318"/>
<path d="M34.0246 75.0662L33.58 76.3683C33.3894 76.9188 33.887 77.2046 34.6068 76.9611L40.7044 74.9074C41.509 74.6322 42.1018 74.918 41.943 75.5214C41.6254 76.76 40.2069 81.1638 32.352 81.185C29.9701 81.1956 29.9278 78.8561 31.9391 76.6012C32.8284 75.5955 34.0246 75.0662 34.0246 75.0662Z" fill="white"/>
<path d="M32.3404 81.5239C31.3453 81.5239 30.6254 81.1428 30.3078 80.4335C29.842 79.3855 30.0557 77.9458 31.3683 76.4743C32.2999 75.4263 33.8162 75.0212 33.8691 75C33.9962 74.9471 34.1444 74.9682 34.2502 75.0635C34.3561 75.1588 34.3879 75.307 34.3455 75.434L33.9071 76.4743C33.886 76.5378 33.8754 76.6014 33.8965 76.6331C33.9495 76.686 34.1612 76.7284 34.4894 76.6225L40.587 74.5688C41.1904 74.3677 41.7409 74.4206 42.0479 74.717C42.2808 74.9393 42.3654 75.2569 42.2702 75.6063C41.7197 77.8082 39.6766 81.5133 32.3404 81.5239ZM33.3884 75.818C33.0179 76.0615 32.2682 76.5273 31.8871 76.9507C30.7755 78.1893 30.5937 79.3749 30.943 80.1583C31.1971 80.7194 31.8322 80.8358 32.3404 80.8358C32.3404 80.8358 32.3404 80.8358 32.351 80.8358C39.2002 80.8252 41.0951 77.4482 41.6032 75.4369C41.6456 75.2887 41.5927 75.2463 41.5821 75.2357C41.4868 75.1511 41.201 75.1087 40.8199 75.2357L34.7223 77.2895C34.1824 77.4694 33.6954 77.4165 33.4096 77.1307C33.1873 76.9084 33.1343 76.5908 33.2508 76.252L33.3884 75.818Z" fill="#000318"/>
</g>
<defs>
<clipPath id="clip0_2410_10347">
<rect width="184.262" height="190" fill="white" transform="translate(0.868652)"/>
</clipPath>
</defs>
</svg>
