<svg width="88" height="68" viewBox="0 0 88 68" fill="none" xmlns="http://www.w3.org/2000/svg">
<g clip-path="url(#clip0_7901_48164)">
<path d="M23.3867 57.9404C34.8854 56.7914 44.0029 47.6245 45.1967 36.1304V36.1304V36.1304C46.1398 47.6161 55.1647 56.7824 66.6344 57.904L67.0067 57.9404V57.9404C55.4164 58.7082 46.1427 67.86 45.2215 79.4391L45.1967 79.7504L45.1185 78.9727C43.974 67.5999 34.7909 58.7124 23.3867 57.9404V57.9404V57.9404Z" fill="#FFD600"/>
<path d="M61.1445 26.008C68.1094 25.312 73.632 19.7595 74.3551 12.7974V12.7974V12.7974C74.9264 19.7544 80.3929 25.3066 87.3402 25.9859L87.5657 26.008V26.008C80.5453 26.473 74.9281 32.0164 74.3701 39.03L74.3551 39.2186L74.3077 38.7475C73.6145 31.8589 68.0522 26.4756 61.1445 26.008V26.008V26.008Z" fill="#FFD600"/>
<path d="M0.488281 41.3341C4.98903 40.8844 8.55778 37.2963 9.02506 32.7974V32.7974V32.7974C9.3942 37.2931 12.9267 40.8809 17.4161 41.3199L17.5618 41.3341V41.3341C13.0252 41.6347 9.39533 45.2168 9.03475 49.7491L9.02506 49.8709L8.99443 49.5665C8.54645 45.115 4.95205 41.6363 0.488281 41.3341V41.3341V41.3341Z" fill="#FFD600"/>
<path d="M30.2207 11.8009C33.706 11.4526 36.4695 8.67409 36.8314 5.19019V5.19019V5.19019C37.1173 8.67156 39.8527 11.4499 43.3293 11.7898L43.4421 11.8009V11.8009C39.929 12.0336 37.1181 14.8075 36.8389 18.3172L36.8314 18.4116L36.8077 18.1759C36.4608 14.7287 33.6773 12.0349 30.2207 11.8009V11.8009V11.8009Z" fill="#FFD600"/>
</g>
<defs>
<clipPath id="clip0_7901_48164">
<rect width="88" height="68" fill="white"/>
</clipPath>
</defs>
</svg>
