<svg width="294" height="262" viewBox="0 0 294 262" fill="none" xmlns="http://www.w3.org/2000/svg">
<g clip-path="url(#clip0_2672_23978)">
<path fill-rule="evenodd" clip-rule="evenodd" d="M132.86 85.0329C132.86 85.0329 132.169 82.1704 131.949 79.5721C131.728 76.9738 131.89 74.5077 131.89 74.5077L138.581 64.7752L141.552 63.9531L149.758 70.1038L156.891 84.5338C156.891 84.5338 159.965 100.916 156.553 104.278C154.553 106.245 150.523 107.081 146.243 107.815C140.537 108.799 134.066 109.225 128.346 108.315C123.463 107.522 119.639 105.716 117.683 104.131C116.007 102.766 114.404 100.358 114.345 97.2169C114.286 94.4865 115.463 91.0661 117.698 89.055C119.463 87.4697 121.86 86.2072 124.581 85.6054C128.581 84.7099 132.86 85.0329 132.86 85.0329Z" fill="#F31E53"/>
<path fill-rule="evenodd" clip-rule="evenodd" d="M168.538 98.7009L170.097 97.4531L199.878 100.257L207.996 104L215.761 122.878L215.099 130.996L213.319 132.141L167.127 127.796L165.876 126.328L168.538 98.7009Z" fill="#FFD600"/>
<path fill-rule="evenodd" clip-rule="evenodd" d="M58.284 99.9043C58.284 99.9043 73.2993 101.783 88.844 106.804C104.403 111.824 120.492 119.956 120.492 119.956L113.124 146.247C113.124 146.247 97.9032 139.876 82.4173 134.783C66.9314 129.689 51.1807 125.887 51.1807 125.887L58.284 99.9043Z" fill="#99F2CD"/>
<path fill-rule="evenodd" clip-rule="evenodd" d="M78.0495 119.177C78.8436 116.109 84.8586 111.206 86.8881 111.735C88.9176 112.263 94.3001 120.719 93.506 123.772C93.1383 125.196 91.1971 127.295 89.2411 128.132C86.991 129.086 84.638 128.646 83.5497 128.367C82.535 128.102 80.5496 126.957 79.329 125.093C78.1083 123.258 77.6524 120.704 78.0495 119.177Z" fill="#99F2CD"/>
<path fill-rule="evenodd" clip-rule="evenodd" d="M180.034 24.255C180.034 24.255 178.608 22.9045 179.461 21.6861C182.152 17.7813 196.123 0.650391 196.123 0.650391C196.123 0.650391 203.55 1.51648 208.903 5.87628C214.256 10.2361 217.521 18.0896 217.521 18.0896C217.521 18.0896 210.447 24.8862 204.506 30.7286C200.168 35.015 196.932 38.7876 195.02 39.1106C187.77 40.3437 180.034 24.255 180.034 24.255Z" fill="#FAA5BA"/>
<path fill-rule="evenodd" clip-rule="evenodd" d="M40.563 67.2129C40.563 67.2129 42.2395 68.3432 44.622 69.9139C46.8574 71.3965 49.6663 73.3196 53.9753 73.1434C58.9167 72.9379 65.2257 71.5287 71.0642 70.824C73.932 70.4864 77.4615 69.1653 79.1381 70.4571C84.2118 74.4058 88.5502 79.984 92.2415 84.5053C94.5946 87.3825 97.1682 89.6725 97.8006 91.4928C99.4036 96.0581 99.0948 110.15 98.7418 113.747C98.2712 118.4 94.5799 114.628 94.5799 114.628C94.5799 114.628 94.624 120.573 93.3739 123.289C92.7563 124.624 91.0944 124.067 90.4179 123.788C88.359 122.951 86.3589 111.295 86.3589 111.295C86.3589 111.295 85.903 114.275 85.4766 116.962C84.9912 120.044 84.4765 122.98 83.3735 124.668C82.6676 125.755 80.7264 124.786 80.1969 123.905C78.4763 121.043 78.5351 111.794 78.9175 105.556C79.1087 102.414 76.5497 98.4949 76.5497 98.4949C76.5497 98.4949 76.8144 100.55 76.7556 103.383C76.6233 109.93 75.7262 120.411 72.3731 118.444C70.8877 117.578 70.2407 113.483 70.1083 109.593C70.0201 106.877 70.6377 104.778 69.5347 101.768C68.7553 99.6399 65.1669 94.0176 63.858 92.9901C62.8727 92.2121 61.3727 92.4469 59.7844 92.4322C55.343 92.3882 49.431 93.9442 46.1515 93.0047C41.4748 91.6689 38.0776 89.5697 35.3422 88.0284C31.7097 85.9733 29.5184 84.6374 29.5184 84.6374C29.5184 84.6374 33.048 80.8061 35.8128 76.4463C38.5776 72.0865 40.563 67.2129 40.563 67.2129Z" fill="white"/>
<path fill-rule="evenodd" clip-rule="evenodd" d="M143.901 43.4697C143.901 43.4697 149.18 42.2953 155.651 40.5338C159.593 39.4622 164.152 38.464 167.696 36.541C172.255 34.0601 175.755 29.8324 177.99 27.1608C180.329 24.357 181.285 23.168 181.285 23.168C181.285 23.168 185.55 24.8267 188.77 28.4379C191.991 32.049 194.182 37.5979 194.182 37.5979C194.182 37.5979 193.153 38.4346 191.123 40.387C188.153 43.2641 183.285 47.9763 178.593 51.4406C175.27 53.8921 172.314 54.4205 169.372 56.3435C168.24 57.0775 166.931 57.9289 165.858 59.3235C165.063 60.3364 164.21 64.9164 164.563 68.1165C164.931 71.434 166.064 73.9736 166.519 76.2049C166.814 77.6875 166.725 79.3463 166.225 79.816C166.108 79.9188 165.196 81.0344 163.622 79.6105C162.166 78.304 160.093 74.5901 159.063 71.801C157.975 68.8945 157.857 64.153 157.71 61.2024C157.578 58.384 157.387 57.283 157.313 57.5766C157.151 58.2372 156.21 65.9146 157.387 70.8468C158.431 75.28 160.931 79.3169 162.299 82.4289C163.578 85.3208 163.784 87.42 163.534 87.8163C162.828 88.9466 161.666 89.343 160.343 88.3888C158.71 87.2291 155.431 83.1776 153.313 79.405C150.739 74.8103 149.43 70.4945 149.43 70.4945C149.43 70.4945 149.401 72.579 149.813 74.8837C150.504 78.6563 151.769 83.8088 151.548 87.3025C151.313 90.9871 148.592 90.6054 147.548 88.9319C146.269 86.8915 142.695 77.7315 141.827 72.9313C141.062 68.6743 141.46 65.7531 141.68 63.4484C141.901 61.1584 141.945 59.4703 141.945 59.4703C141.945 59.4703 137.092 64.7255 137.548 68.0871C137.842 70.2303 139.327 75.5883 139.577 79.3169C139.739 81.8418 138.857 83.3831 138.474 83.6327C137.018 84.5721 134.768 80.8436 133.121 76.8801C131.077 71.9625 129.753 66.3696 129.9 65.1953C130.194 62.8759 135.033 54.2297 138.901 48.813C141.68 44.9082 143.901 43.4697 143.901 43.4697Z" fill="white"/>
<path fill-rule="evenodd" clip-rule="evenodd" d="M214.996 85.708C208.849 85.2383 203.29 86.5594 198.966 87.2934C193.407 88.2475 189.951 88.0861 187.892 90.7871C186.215 92.989 184.936 97.6277 185.024 100.945C185.127 105.1 187.407 108.3 188.877 112.087C189.583 113.878 192.525 114.274 193.025 111.441C193.407 109.298 192.348 106.509 192.48 103.279C192.554 101.532 193.289 99.0223 194.069 97.8626C194.966 96.5268 196.76 96.3213 198.789 96.0864C201.569 95.7634 204.599 95.69 204.599 95.69C204.599 95.69 201.966 97.7598 199.451 100.167C197.701 101.841 195.833 103.088 195.716 106.465C195.628 108.96 198.334 119.559 199.716 121.188C201.113 122.818 204.319 125.827 207.04 126.399C207.716 126.546 209.408 125.254 209.04 123.566C208.54 121.32 205.804 118.502 205.804 118.502L212.231 120.645C212.231 120.645 213.599 122.656 216.349 122.891C218.981 123.111 222.952 121.585 224.717 120.924C228.32 119.574 226.643 115.243 226.643 115.243L229.879 115.331L240.115 117.357C240.115 117.357 245.379 117.342 249.321 117.959C253.262 118.575 255.909 119.823 255.909 119.823C255.909 119.823 255.689 114.26 256.88 109.474C258.056 104.703 260.63 100.725 260.63 100.725C260.63 100.725 258.571 99.6388 256.203 98.8021C252.571 97.5103 247.35 96.0423 241.07 93.7964C234.467 91.433 227.849 88.8201 221.261 86.8677C219.143 86.2218 217.055 85.8548 214.996 85.708ZM206.716 105.995C206.878 106.083 206.025 107.463 205.937 107.624C205.922 107.654 205.893 107.683 205.878 107.713C205.79 107.874 204.966 108.916 204.804 108.828C204.643 108.74 205.216 107.536 205.304 107.375C205.319 107.346 205.334 107.316 205.349 107.287C205.451 107.14 206.554 105.907 206.716 105.995Z" fill="white"/>
<path fill-rule="evenodd" clip-rule="evenodd" d="M58.2251 99.9629L69.4314 101.724L70.152 104.117L61.5782 102.62L55.4309 124.713C55.4309 124.713 69.2108 128.03 82.9172 132.493C96.6236 136.955 110.256 142.548 110.256 142.548L116.433 120C116.433 120 111.845 117.593 107.506 115.538C103.168 113.483 99.0649 111.78 99.0649 111.78L99.109 110.239C99.109 110.239 102.506 111.354 107.903 113.791C113.301 116.228 120.698 119.986 120.698 119.986L113.139 146.101C113.139 146.101 98.4472 139.788 82.9466 134.783C67.4608 129.777 51.166 126.078 51.166 126.078L58.2251 99.9629Z" fill="#01DE81"/>
<path fill-rule="evenodd" clip-rule="evenodd" d="M64.7842 115.228C65.7549 112.175 67.7697 111.279 69.255 111.661C70.0344 111.866 70.3139 113.643 70.6815 115.023C71.0051 116.27 71.4463 117.078 71.2257 117.958C70.7551 119.779 68.2403 121.305 66.7549 120.909C64.7695 120.395 64.2107 117.034 64.7842 115.228Z" fill="#99F2CD"/>
<path fill-rule="evenodd" clip-rule="evenodd" d="M255.924 118.018C255.924 113.32 257.894 105.995 259.88 102.134C261.1 99.771 262.747 99.5508 262.747 99.5508L292.425 105.672C292.425 105.672 295.572 111.852 292.969 121.702C290.469 131.17 284.925 134.679 284.925 134.679C284.925 134.679 273.895 130.759 265.6 127.368C260.512 125.284 256.659 123.625 256.424 122.539C256.203 121.497 255.924 119.104 255.924 118.018Z" fill="#FFEF99"/>
<path fill-rule="evenodd" clip-rule="evenodd" d="M0.439209 69.9523C0.439209 69.9523 3.57168 60.5575 8.13067 54.9793C12.6897 49.4011 18.6752 47.6836 18.6752 47.6836L40.8231 64.8145C40.8231 64.8145 40.7642 66.0916 39.7054 68.7486C38.5583 71.6111 36.3376 75.9562 34.3816 78.8628C30.6168 84.4703 25.7343 87.2594 25.7343 87.2594C25.7343 87.2594 18.234 83.0464 11.9102 78.7307C5.58646 74.4002 0.439209 69.9523 0.439209 69.9523Z" fill="#99F2CD"/>
<path d="M161.578 89.387C159.592 89.387 157.592 86.5392 155.283 83.2509C153.004 80.0068 151.754 78.0397 151.224 76.8507C149.695 73.4157 149.004 69.0412 148.768 67.309C148.386 64.4025 147.768 58.927 148.018 54.9783C148.033 54.6993 148.283 54.4938 148.548 54.5085C148.827 54.5232 149.033 54.7727 149.018 55.037C148.768 58.883 149.371 64.285 149.754 67.1622C150.224 70.6706 151.107 74.135 152.136 76.425C152.768 77.8489 154.592 80.5059 156.092 82.6491C157.975 85.3208 160.092 88.3594 161.563 88.3594C161.592 88.3594 161.622 88.3594 161.636 88.3594C162.269 88.3154 162.666 88.1245 162.872 87.7722C163.489 86.7447 162.563 84.2785 161.578 81.9885C160.96 80.5499 160.254 79.1701 159.578 77.8195C158.416 75.5149 157.327 73.3423 156.798 71.2725C155.886 67.6173 155.813 57.2389 156.96 56.6958C157.254 56.5783 157.519 56.6077 157.724 56.7545C158.342 57.1802 158.342 58.4573 158.283 61.0556C158.254 62.0244 158.239 63.0373 158.269 63.9034C158.401 66.8099 158.489 68.9238 159.504 71.7129C160.769 75.1772 163.401 80.1683 165.49 79.7132C165.74 79.6545 165.901 79.537 166.019 79.3315C166.695 78.1718 165.666 74.8249 164.828 72.1386C164.651 71.5808 164.489 71.0376 164.328 70.4945C163.063 66.1934 164.489 60.1601 165.725 58.6481C167.431 56.549 171.887 54.3911 174.843 52.9525C175.99 52.3947 176.975 51.9102 177.387 51.646C180.975 49.2092 184.49 45.8623 190.314 40.3134C191.329 39.3446 192.402 38.317 193.564 37.2161C193.77 37.0252 194.079 37.0399 194.27 37.2308C194.461 37.4363 194.461 37.7445 194.255 37.9354C193.094 39.0363 192.005 40.0639 191.005 41.0327C185.152 46.6256 181.608 50.0019 177.946 52.4827C177.475 52.791 176.505 53.2754 175.284 53.8626C172.416 55.2572 168.078 57.371 166.504 59.294C165.534 60.4831 164.107 66.2227 165.298 70.2302C165.46 70.7587 165.622 71.3018 165.798 71.8597C166.784 75.0304 167.798 78.304 166.901 79.8453C166.637 80.3004 166.24 80.5793 165.725 80.6967C162.195 81.4747 159.151 73.6359 158.577 72.0652C157.504 69.1146 157.401 66.8393 157.283 63.9474C157.239 63.0373 157.269 62.0097 157.283 61.0262C157.298 60.5711 157.313 60.0427 157.313 59.5436C157.048 62.4354 156.93 67.5439 157.798 71.0229C158.283 72.9753 159.357 75.1038 160.489 77.3645C161.166 78.7297 161.886 80.1242 162.504 81.5922C163.857 84.7336 164.534 86.9649 163.739 88.286C163.357 88.9172 162.681 89.2695 161.71 89.3576C161.695 89.387 161.636 89.387 161.578 89.387Z" fill="#000318"/>
<path d="M149.387 90.7374C146.651 90.7374 144.842 84.7336 143.489 80.271C143.313 79.7132 143.166 79.1847 143.019 78.715C141.783 74.7956 140.901 71.7129 140.93 67.6613C140.945 65.1071 141.357 61.5547 141.813 57.7967C142.136 55.0517 142.475 52.2185 142.695 49.4735C142.71 49.1946 142.96 48.9891 143.239 49.0184C143.519 49.0331 143.725 49.2827 143.695 49.5616C143.475 52.336 143.136 55.1691 142.813 57.9289C142.372 61.6574 141.96 65.1658 141.945 67.676C141.916 71.5954 142.739 74.4726 143.989 78.4214C144.136 78.8911 144.298 79.4196 144.475 79.9921C145.563 83.6032 147.607 90.3264 149.695 89.6952C152.004 89.0053 150.754 82.7812 149.931 78.6709C149.74 77.7168 149.563 76.8066 149.416 76.014C148.842 72.667 148.931 71.3459 148.99 70.289C149.019 69.8339 149.034 69.4376 149.004 68.9384C148.99 68.6595 149.195 68.4247 149.475 68.41C149.754 68.3953 149.99 68.6008 150.004 68.8797C150.034 69.4376 150.004 69.8779 149.99 70.3477C149.931 71.4046 149.857 72.6083 150.401 75.8378C150.534 76.6305 150.71 77.5259 150.901 78.4654C151.901 83.4711 153.151 89.6805 149.975 90.6494C149.754 90.7081 149.563 90.7374 149.387 90.7374Z" fill="#000318"/>
<path d="M137.798 84.2042C136.298 84.2042 134.798 82.1784 132.959 77.7305C131.386 73.8992 130.077 69.6421 129.459 66.3539C128.9 63.374 132.062 58.5738 135.739 53.0249L136.754 51.4689C140.313 46.0375 142.872 43.1163 144.342 42.808L145.048 42.6612C158.519 39.7987 166.887 37.0977 169.917 34.6462C174.741 30.7561 180.447 23.1228 180.506 23.0494C180.667 22.8292 180.991 22.7851 181.211 22.9466C181.432 23.1081 181.476 23.431 181.314 23.6512C181.079 23.9742 175.461 31.4607 170.549 35.4242C165.784 39.2702 150.328 42.5584 145.254 43.6447L144.563 43.7915C144.019 43.909 142.254 44.9512 137.607 52.0267L136.577 53.5827C133.18 58.7352 129.974 63.5942 130.445 66.1778C131.048 69.4219 132.342 73.5909 133.886 77.3635C135.945 82.3839 137.195 83.3087 137.886 83.206C138.857 83.0592 139.224 81.3123 138.916 78.4205C138.71 76.4974 138.298 74.6772 137.916 72.9303C137.518 71.1688 137.151 69.51 137.033 67.954C136.798 64.7538 141.445 59.0876 141.651 58.8527C141.827 58.6325 142.151 58.6031 142.357 58.7793C142.578 58.9554 142.607 59.2784 142.43 59.4839C141.151 61.0252 137.871 65.5465 138.048 67.8659C138.166 69.3485 138.519 70.978 138.901 72.6954C139.298 74.4864 139.71 76.3213 139.93 78.303C140.327 81.9582 139.695 83.9399 138.063 84.1895C137.974 84.1895 137.886 84.2042 137.798 84.2042Z" fill="#000318"/>
<path d="M138.491 65.4135C138.3 65.4135 138.109 65.2961 138.021 65.1052C137.918 64.8557 138.035 64.5474 138.285 64.4446C139.271 64.0189 140.3 63.7841 141.359 63.7253C141.639 63.7107 141.874 63.9162 141.889 64.1951C141.903 64.474 141.697 64.7089 141.418 64.7236C140.477 64.7676 139.55 64.9878 138.683 65.3548C138.624 65.3988 138.565 65.4135 138.491 65.4135Z" fill="#000318"/>
<path d="M135.052 109.356C134.61 109.356 134.155 109.356 133.713 109.341C127.875 109.195 120.11 108.05 116.227 103.382C114.168 100.901 113.345 98.0677 113.845 95.1611C114.389 91.9463 116.595 88.8196 119.625 86.9993C124.286 84.1956 130.198 84.3571 132.272 84.5185C131.831 82.7864 130.846 78.2504 131.596 73.8025C131.64 73.5236 131.89 73.3475 132.169 73.3915C132.449 73.4355 132.625 73.6998 132.581 73.964C131.699 79.2633 133.419 84.8855 133.434 84.9296C133.478 85.091 133.449 85.2672 133.331 85.3993C133.213 85.5314 133.052 85.5901 132.875 85.5754C132.802 85.5608 125.448 84.636 120.139 87.8361C117.36 89.5095 115.33 92.372 114.845 95.3079C114.404 97.9209 115.154 100.475 117.022 102.721C120.654 107.096 128.125 108.182 133.757 108.314C144.317 108.563 154.685 105.774 156.523 103.778C157.935 102.222 158.141 93.429 156.258 84.3864C156.2 84.1075 156.376 83.8433 156.655 83.7992C156.935 83.7405 157.2 83.9167 157.244 84.1956C159.067 93.0033 159.082 102.471 157.258 104.468C155.126 106.773 144.978 109.356 135.052 109.356Z" fill="#000318"/>
<path d="M194.3 38.9197C194.064 38.9197 193.844 38.7435 193.8 38.5087C192.608 31.5213 184.196 23.8733 179.99 23.4035C179.711 23.3742 179.52 23.1246 179.549 22.8457C179.578 22.5668 179.828 22.376 180.108 22.4053C184.696 22.9191 193.505 30.8166 194.8 38.3325C194.844 38.6114 194.667 38.861 194.388 38.905C194.358 38.9197 194.329 38.9197 194.3 38.9197Z" fill="#000318"/>
<path d="M180.005 24.6801C179.844 24.6801 179.682 24.6067 179.594 24.4599L179.461 24.2691C178.314 22.6103 178.314 22.1112 180.888 18.8817C181.314 18.3532 181.961 17.5165 182.697 16.5917C183.755 15.2412 184.991 13.6852 185.932 12.5108C186.888 11.3218 187.726 10.2942 188.55 9.29599C190.726 6.65368 192.609 4.36368 195.638 0.209377C195.8 -0.0108152 196.109 -0.0695332 196.344 0.0919413C196.565 0.253416 196.624 0.576365 196.462 0.796558C193.418 4.98022 191.432 7.37298 189.344 9.92721C188.535 10.9254 187.682 11.953 186.741 13.1273C185.8 14.3017 184.564 15.8577 183.505 17.2082C182.77 18.1477 182.108 18.9698 181.682 19.5129C179.388 22.3901 179.461 22.5075 180.299 23.6966L180.432 23.8874C180.594 24.1223 180.535 24.4306 180.299 24.592C180.211 24.6508 180.108 24.6801 180.005 24.6801Z" fill="#000318"/>
<path d="M194.873 39.6545C194.417 39.6545 193.961 39.4636 193.329 39.1554L193.138 39.0673C192.888 38.9499 192.785 38.6416 192.917 38.392C193.035 38.1425 193.344 38.0397 193.594 38.1719L193.785 38.2599C195.064 38.9058 195.138 38.9352 197.52 36.6599C198.962 35.2947 203.682 30.7147 206.08 28.3073C209.594 24.7842 213.653 20.9822 217.183 17.6793C217.389 17.4885 217.698 17.5032 217.889 17.7087C218.08 17.9142 218.065 18.2225 217.859 18.4133C214.345 21.7015 210.286 25.5035 206.771 29.0119C204.359 31.4193 199.623 35.9993 198.197 37.3792C196.506 39.0233 195.711 39.6545 194.873 39.6545Z" fill="#000318"/>
<path d="M190.936 113.952C190.701 113.952 190.466 113.908 190.23 113.835C188.745 113.321 187.774 111.266 186.848 109.035C185.495 105.805 184.098 102.473 184.48 99.8452C185.01 96.1312 186.421 89.731 189.848 88.6447C193.113 87.6172 209.069 84.8574 213.466 84.8574C213.525 84.8574 213.584 84.8574 213.643 84.8574C217.731 84.9308 221.761 86.252 225.526 87.6759C226.952 88.219 228.423 88.7034 229.849 89.1732C231.658 89.775 233.541 90.4063 235.35 91.1402C238.762 92.5201 242.673 93.7679 246.821 95.0743C251.733 96.6304 256.806 98.2451 260.939 100.095C261.189 100.212 261.306 100.506 261.189 100.755C261.071 101.005 260.777 101.122 260.527 101.005C256.439 99.1699 251.394 97.5698 246.512 96.0138C242.526 94.7514 238.423 93.4449 234.967 92.0504C233.188 91.3311 231.335 90.7145 229.526 90.1127C228.099 89.6282 226.614 89.1438 225.173 88.6007C221.511 87.2208 217.57 85.929 213.628 85.8556C209.672 85.7822 193.333 88.586 190.157 89.5842C187.054 90.5677 185.789 97.7753 185.48 99.9626C185.142 102.326 186.48 105.526 187.774 108.623C188.421 110.15 189.377 112.455 190.569 112.866C190.922 112.983 191.289 112.939 191.701 112.704C193.201 111.868 192.672 108.8 192.245 106.319C192.01 104.954 191.804 103.765 191.907 102.928C192.039 101.753 192.657 97.79 194.922 96.4982C196.392 95.6468 203.966 95.0597 204.819 94.9863C205.099 94.9716 205.334 95.1771 205.363 95.456C205.378 95.7349 205.172 95.9698 204.893 95.9991C201.613 96.2487 196.378 96.8212 195.422 97.379C193.951 98.2157 193.157 100.858 192.907 103.045C192.833 103.735 193.025 104.91 193.245 106.143C193.73 108.932 194.333 112.396 192.201 113.57C191.745 113.835 191.333 113.952 190.936 113.952Z" fill="#000318"/>
<path d="M207.099 126.694C206.26 126.694 205.304 126.341 204.29 125.637C202.804 124.624 200.187 122.715 199.245 121.291C197.686 118.943 196.333 112.895 195.451 108.564C194.613 104.483 196.613 102.047 198.907 100.021C199.642 99.3749 200.495 98.6556 201.422 97.8629C203.628 95.9986 206.393 93.6793 209.143 90.9048C209.334 90.714 209.657 90.714 209.849 90.9048C210.04 91.0957 210.04 91.4186 209.849 91.6095C207.054 94.3986 204.29 96.7473 202.054 98.6116C201.128 99.3896 200.289 100.109 199.554 100.755C197.172 102.869 195.73 104.968 196.422 108.344C196.922 110.796 198.451 118.267 200.084 120.719C200.701 121.658 202.437 123.141 204.848 124.785C205.878 125.49 206.834 125.783 207.496 125.622C207.819 125.534 208.054 125.343 208.202 125.049C209.113 123.185 206.952 120.675 205.216 118.664L205.113 118.546C204.937 118.341 204.951 118.018 205.172 117.842C205.378 117.666 205.701 117.68 205.878 117.9L205.981 118.018C207.907 120.249 210.305 123.038 209.099 125.504C208.819 126.077 208.349 126.459 207.746 126.62C207.554 126.664 207.334 126.694 207.099 126.694Z" fill="#000318"/>
<path d="M212.069 121.085C212.011 121.085 211.966 121.07 211.908 121.056C211.555 120.938 211.099 120.791 210.599 120.645C207.452 119.69 202.201 118.09 202.157 114.831C202.113 111.176 211.158 99.8437 212.363 98.9923C212.599 98.8309 212.908 98.8896 213.069 99.1098C213.231 99.33 213.172 99.6529 212.952 99.8144C212.055 100.446 203.128 111.646 203.172 114.817C203.201 117.342 208.216 118.868 210.908 119.69C211.437 119.852 211.893 119.999 212.261 120.116C212.525 120.204 212.658 120.498 212.569 120.762C212.481 120.953 212.29 121.085 212.069 121.085Z" fill="#000318"/>
<path d="M216.408 123.375C216.202 123.375 216.025 123.361 215.878 123.331C214.54 123.097 211.746 121.379 210.555 119.324C209.996 118.37 209.878 117.474 210.172 116.667C211.172 113.922 218.937 106.568 220.908 105.188C221.129 105.026 221.452 105.085 221.614 105.305C221.776 105.525 221.717 105.848 221.496 106.01C219.423 107.463 211.981 114.656 211.128 117.005C210.937 117.518 211.04 118.135 211.437 118.825C212.437 120.542 214.937 122.142 216.07 122.348C217.143 122.539 221.231 121.702 223.937 120.572C226.202 119.632 226.849 118.796 226.643 117.107C226.614 116.828 226.805 116.579 227.085 116.55C227.364 116.52 227.614 116.711 227.643 116.99C227.952 119.471 226.54 120.586 224.32 121.497C221.879 122.509 218.158 123.375 216.408 123.375Z" fill="#000318"/>
<path d="M255.939 120.382C255.865 120.382 255.791 120.367 255.718 120.338C251.615 118.386 247.438 118.151 243.394 117.916C241.467 117.813 239.658 117.71 237.923 117.417C235.894 117.079 234.188 116.727 232.688 116.404C230.32 115.905 228.614 115.552 227.364 115.641C226.084 115.743 223.584 117.431 221.746 118.664C220.716 119.354 219.819 119.956 219.246 120.235C218.996 120.353 218.687 120.25 218.569 119.986C218.452 119.736 218.555 119.428 218.819 119.31C219.319 119.076 220.231 118.474 221.172 117.828C223.305 116.389 225.717 114.76 227.276 114.642C228.673 114.54 230.437 114.907 232.893 115.42C234.394 115.729 236.085 116.096 238.1 116.419C239.776 116.697 241.57 116.8 243.467 116.903C247.423 117.123 251.894 117.387 256.174 119.428C256.424 119.545 256.527 119.854 256.409 120.103C256.306 120.279 256.115 120.382 255.939 120.382Z" fill="#000318"/>
<path d="M204.319 110.885C204.025 110.885 203.804 110.65 203.819 110.371C203.834 109.226 203.848 108.462 204.437 107.42C205.099 106.246 206.937 104.22 209.055 102.796C209.29 102.635 209.599 102.708 209.76 102.928C209.922 103.163 209.849 103.471 209.628 103.633C207.716 104.925 205.937 106.833 205.319 107.919C204.878 108.712 204.848 109.226 204.834 110.4C204.819 110.664 204.598 110.885 204.319 110.885Z" fill="#000318"/>
<path d="M212.893 132.564C212.805 132.564 212.731 132.564 212.643 132.55L167.715 128.351C166.994 128.278 166.347 127.94 165.891 127.397C165.435 126.854 165.229 126.149 165.288 125.43L167.715 99.5061C167.788 98.7868 168.127 98.1409 168.685 97.6859C169.244 97.2308 169.936 97.0253 170.656 97.084L185.054 98.4345C185.333 98.4639 185.539 98.6988 185.51 98.9777C185.48 99.2566 185.245 99.4621 184.966 99.4327L170.568 98.0822C170.127 98.0382 169.671 98.1703 169.318 98.4639C168.965 98.7428 168.759 99.1538 168.715 99.5942L166.288 125.518C166.244 125.973 166.377 126.399 166.656 126.751C166.935 127.089 167.347 127.309 167.788 127.353L212.731 131.551C213.173 131.595 213.614 131.463 213.952 131.17C214.29 130.876 214.511 130.48 214.555 130.025L215.187 123.316C215.217 123.037 215.467 122.832 215.731 122.861C216.011 122.89 216.217 123.125 216.187 123.404L215.555 130.113C215.481 130.832 215.143 131.478 214.599 131.933C214.128 132.344 213.526 132.564 212.893 132.564Z" fill="#000318"/>
<path d="M199.334 100.783C199.319 100.783 199.304 100.783 199.29 100.783L193.289 100.226C193.01 100.196 192.804 99.9614 192.833 99.6825C192.863 99.4036 193.113 99.198 193.378 99.2274L199.334 99.7852C199.613 99.8146 199.834 100.064 199.804 100.328C199.79 100.578 199.584 100.783 199.334 100.783Z" fill="#000318"/>
<path fill-rule="evenodd" clip-rule="evenodd" d="M170.597 121.423L197.407 123.875C197.966 123.934 198.392 124.433 198.334 124.991C198.275 125.563 197.775 125.974 197.216 125.915L170.406 123.464C169.847 123.405 169.421 122.906 169.48 122.348C169.524 121.79 170.024 121.365 170.597 121.423Z" fill="#D0DEFF"/>
<path d="M197.304 126.429C197.26 126.429 197.216 126.429 197.157 126.429L170.347 123.978C169.935 123.934 169.568 123.743 169.303 123.435C169.038 123.126 168.921 122.715 168.95 122.319C168.994 121.908 169.185 121.541 169.494 121.277C169.803 121.012 170.215 120.895 170.612 120.924L197.422 123.376C197.834 123.42 198.201 123.611 198.466 123.919C198.731 124.227 198.848 124.624 198.819 125.035C198.76 125.827 198.098 126.429 197.304 126.429ZM170.494 121.923C170.377 121.923 170.259 121.967 170.156 122.04C170.053 122.128 169.98 122.26 169.965 122.392C169.95 122.539 169.994 122.671 170.083 122.774C170.171 122.877 170.303 122.95 170.435 122.965L197.245 125.416C197.392 125.431 197.525 125.387 197.628 125.299C197.731 125.211 197.804 125.079 197.819 124.946C197.834 124.8 197.79 124.668 197.701 124.565C197.613 124.462 197.481 124.389 197.348 124.374L170.538 121.923C170.524 121.923 170.509 121.923 170.494 121.923Z" fill="#000318"/>
<path fill-rule="evenodd" clip-rule="evenodd" d="M172.48 108.197L179.745 108.843C180.142 108.873 180.451 109.24 180.406 109.636L180.083 113.32C180.053 113.717 179.686 114.025 179.289 113.981L172.024 113.335C171.627 113.306 171.318 112.939 171.362 112.542L171.7 108.858C171.715 108.462 172.068 108.168 172.48 108.197Z" fill="#FDEF99"/>
<path d="M179.348 114.494C179.303 114.494 179.274 114.494 179.23 114.494L171.965 113.848C171.288 113.789 170.788 113.187 170.847 112.512L171.185 108.828C171.215 108.505 171.377 108.196 171.627 107.991C171.877 107.785 172.2 107.683 172.524 107.712L179.789 108.358C180.112 108.387 180.421 108.549 180.627 108.798C180.833 109.048 180.936 109.371 180.906 109.694L180.583 113.378C180.554 113.701 180.392 114.009 180.142 114.215C179.906 114.391 179.642 114.494 179.348 114.494ZM172.406 108.695C172.333 108.695 172.288 108.725 172.259 108.754C172.23 108.784 172.186 108.828 172.186 108.901L171.847 112.586C171.833 112.703 171.936 112.82 172.053 112.835L179.318 113.481C179.392 113.481 179.451 113.452 179.48 113.422C179.509 113.393 179.553 113.349 179.553 113.275L179.877 109.591C179.877 109.503 179.848 109.459 179.818 109.429C179.789 109.4 179.745 109.356 179.671 109.356L172.406 108.71C172.421 108.695 172.421 108.695 172.406 108.695Z" fill="#000318"/>
<path d="M224.599 103.134C224.408 103.134 224.217 103.017 224.143 102.84C224.026 102.591 224.143 102.283 224.393 102.18C224.452 102.15 225.835 101.549 227.864 101.827C228.144 101.872 228.335 102.121 228.291 102.4C228.247 102.679 227.997 102.87 227.717 102.826C225.967 102.576 224.805 103.09 224.79 103.09C224.746 103.119 224.673 103.134 224.599 103.134Z" fill="#000318"/>
<path d="M217.746 95.9559C217.57 95.9559 217.408 95.8679 217.305 95.7064C217.158 95.4715 217.246 95.1633 217.481 95.0165C219.717 93.6953 222.173 93.7247 222.276 93.7247C222.555 93.7247 222.776 93.9595 222.776 94.2384C222.776 94.5174 222.526 94.7375 222.261 94.7375C222.246 94.7375 219.982 94.7229 217.996 95.8972C217.923 95.9413 217.834 95.9559 217.746 95.9559Z" fill="#000318"/>
<path d="M148.724 50.9995C148.71 50.9995 148.68 50.9995 148.665 50.9995C148.386 50.9701 148.195 50.7206 148.224 50.4417C148.254 50.2215 148.504 48.2104 149.386 47.3443C149.592 47.1535 149.901 47.1535 150.092 47.3443C150.283 47.5498 150.283 47.8581 150.092 48.0489C149.548 48.5774 149.268 50.06 149.224 50.5444C149.195 50.8087 148.974 50.9995 148.724 50.9995Z" fill="#000318"/>
<path d="M157.283 53.4096C157.019 53.4096 156.798 53.2041 156.783 52.9399C156.783 52.8958 156.739 51.8536 157.43 50.6645C157.563 50.4297 157.872 50.3416 158.122 50.4737C158.357 50.6058 158.445 50.9141 158.313 51.1636C157.769 52.0884 157.798 52.8958 157.798 52.8958C157.813 53.1747 157.592 53.4096 157.313 53.4243C157.298 53.4096 157.298 53.4096 157.283 53.4096Z" fill="#000318"/>
<path d="M284.984 135.192C284.925 135.192 284.851 135.177 284.792 135.148C282.234 134.076 278.528 132.696 274.586 131.228C264.012 127.294 257.027 124.608 256.144 123.155C255.497 122.068 255.027 117.4 255.791 112.571C256.586 107.521 258.865 101.194 261.527 99.4179C262.159 98.9922 262.777 98.8601 263.365 99.0069C269.012 100.372 292.131 105.055 292.352 105.114C292.631 105.172 292.793 105.437 292.749 105.701C292.69 105.98 292.425 106.156 292.16 106.097C291.925 106.053 268.807 101.356 263.13 99.9904C262.821 99.917 262.468 100.005 262.086 100.269C260.027 101.635 257.644 107.227 256.777 112.732C255.997 117.709 256.571 121.936 256.997 122.641C257.747 123.903 267.674 127.603 274.924 130.289C278.866 131.757 282.587 133.151 285.175 134.223C285.425 134.326 285.557 134.619 285.44 134.884C285.366 135.074 285.175 135.192 284.984 135.192Z" fill="#000318"/>
<path d="M232.217 190.344C232.173 190.344 232.144 190.344 232.144 190.344H52.6955C52.5926 190.344 51.666 190.329 51.1513 189.816C50.6219 189.287 50.6219 188.392 50.6366 188.289V178.997C50.6366 178.968 50.6219 178.219 50.7984 177.588C50.9748 176.942 51.3278 176.501 51.3719 176.443L76.3288 142.181C76.3582 142.137 76.9023 141.447 77.6524 141.124C78.3877 140.801 79.2848 140.86 79.3142 140.86H101.036C101.315 140.86 101.55 141.08 101.55 141.359C101.55 141.638 101.33 141.858 101.05 141.858H79.2554C79.2113 141.858 78.5348 141.814 78.0347 142.034C77.5347 142.254 77.1229 142.768 77.1082 142.768L52.1514 177.03C52.1366 177.045 51.8719 177.382 51.7543 177.837C51.6219 178.322 51.6219 178.953 51.6219 178.968V188.274C51.6219 188.465 51.666 188.906 51.8425 189.082C52.0043 189.243 52.4308 189.317 52.6808 189.317H232.159C232.379 189.331 232.717 189.273 232.85 189.155C232.997 189.023 233.07 188.656 233.07 188.495V179.026C233.07 179.012 233.085 178.454 232.938 177.999C232.806 177.558 232.526 177.191 232.511 177.191L207.613 142.973C207.584 142.929 207.246 142.386 206.76 142.137C206.26 141.873 205.54 141.873 205.54 141.873H114.61C114.33 141.873 114.11 141.652 114.11 141.373C114.11 141.095 114.33 140.874 114.61 140.874H205.555C205.672 140.874 206.54 140.889 207.246 141.256C207.966 141.638 208.408 142.357 208.452 142.43L233.32 176.59C233.32 176.604 233.717 177.089 233.894 177.705C234.085 178.307 234.07 178.997 234.07 179.026V188.509C234.07 188.627 234.012 189.434 233.526 189.889C233.114 190.3 232.453 190.344 232.217 190.344Z" fill="#000318"/>
<path d="M233.305 178.41H51.2984C51.0189 178.41 50.7983 178.19 50.7983 177.911C50.7983 177.632 51.0189 177.412 51.2984 177.412H233.305C233.585 177.412 233.805 177.632 233.805 177.911C233.805 178.19 233.585 178.41 233.305 178.41Z" fill="#000318"/>
<path fill-rule="evenodd" clip-rule="evenodd" d="M98.1679 156.936H187.362L188.671 159.226H96.9767L98.1679 156.936Z" fill="#FFFBE6"/>
<path d="M188.686 159.724H96.9767C96.8003 159.724 96.6385 159.636 96.5503 159.489C96.462 159.342 96.4473 159.151 96.5355 158.99L97.7268 156.7C97.815 156.538 97.9915 156.436 98.168 156.436H187.363C187.539 156.436 187.716 156.538 187.804 156.685L189.113 158.975C189.201 159.137 189.201 159.327 189.113 159.474C189.025 159.636 188.863 159.724 188.686 159.724ZM97.815 158.726H187.819L187.083 157.434H98.4768L97.815 158.726Z" fill="#000318"/>
<path d="M228.966 261.999C228.687 261.999 228.467 261.779 228.467 261.5L228.467 190.403C228.467 190.124 228.687 189.904 228.967 189.904C229.246 189.904 229.466 190.124 229.466 190.403L229.466 261.5C229.48 261.779 229.245 261.999 228.966 261.999Z" fill="#000318"/>
<path d="M229.148 261.254C229.148 261.533 228.927 261.754 228.648 261.754L55.4894 261.753C55.2102 261.753 54.9898 261.533 54.9898 261.254C54.9898 260.975 55.2102 260.754 55.4894 260.754L228.648 260.755C228.927 260.74 229.148 260.975 229.148 261.254Z" fill="#000318"/>
<path d="M54.9683 261.999C54.6891 261.999 54.4687 261.779 54.4687 261.5L54.4691 190.403C54.4691 190.124 54.6895 189.904 54.9687 189.904C55.2479 189.904 55.4683 190.124 55.4683 190.403L55.4678 261.5C55.4825 261.779 55.2474 261.999 54.9683 261.999Z" fill="#000318"/>
<path d="M73.1083 119.119C72.8436 119.119 72.5348 119.061 72.1965 118.899C69.7405 117.754 69.5494 112.528 69.5641 106.788C69.5641 105.643 69.5641 104.66 69.52 104.073C69.2699 101.254 66.1669 93.7531 62.4314 92.931C61.5638 92.7402 59.1372 92.931 56.5636 93.1365C53.1811 93.4008 49.3427 93.709 46.8279 93.3861C43.166 92.9017 38.254 90.1126 33.5039 87.3969C32.1068 86.6042 30.7832 85.8555 29.489 85.1509C29.239 85.0188 29.1508 84.7105 29.2831 84.4756C29.4155 84.2261 29.7243 84.138 29.9596 84.2701C31.2685 84.9747 32.6509 85.7674 33.9892 86.5308C38.6511 89.1878 43.4748 91.9328 46.9456 92.3879C49.3574 92.7108 53.137 92.4026 56.4753 92.1383C59.3578 91.9035 61.6373 91.7273 62.652 91.9475C67.1228 92.9457 70.2847 101.372 70.52 103.985C70.5788 104.616 70.5788 105.57 70.5641 106.788C70.5494 110.356 70.5347 117.005 72.623 117.974C73.0642 118.18 73.3142 118.092 73.4613 118.004C74.7554 117.284 75.2408 113.071 75.5496 110.282L75.6378 109.504C75.7261 108.785 75.8143 108.11 75.8878 107.478C76.2408 104.645 76.5055 102.59 76.1526 100.579C75.6231 97.4963 74.2554 94.3109 72.9466 91.2282C72.2701 89.6281 71.623 88.1308 71.0788 86.6188C70.9906 86.3546 71.123 86.0757 71.3877 85.9729C71.6524 85.8849 71.9318 86.017 72.0348 86.2812C72.5642 87.7492 73.2113 89.2465 73.8731 90.8319C75.2113 93.9733 76.5938 97.2028 77.1526 100.403C77.5203 102.561 77.2408 104.777 76.8879 107.596C76.8144 108.227 76.7261 108.902 76.6379 109.622L76.5496 110.4C76.0643 114.657 75.579 117.974 73.9466 118.884C73.7407 119.016 73.4613 119.119 73.1083 119.119Z" fill="#000318"/>
<path d="M82.182 125.651C81.6966 125.651 81.079 125.475 80.3731 124.961C78.8583 123.845 78.123 120.425 78.123 114.495C78.123 112.939 78.1818 111.324 78.2553 109.768C78.3583 107.125 78.4612 104.63 78.1965 103.323C77.6671 100.784 75.9905 97.7452 74.9758 95.9396L74.6817 95.3965C74.5493 95.1469 74.6376 94.8534 74.8876 94.7212C75.1376 94.5891 75.4317 94.6772 75.5641 94.9268L75.8582 95.4699C76.8876 97.3342 78.623 100.461 79.1818 103.147C79.476 104.571 79.373 107.008 79.2701 109.841C79.2113 111.397 79.1377 112.997 79.1377 114.524C79.1377 121.379 80.1378 123.552 80.976 124.168C81.6084 124.638 82.1525 124.77 82.5937 124.579C83.0496 124.374 83.8732 123.581 84.2409 120.469C84.4173 118.972 84.785 116.814 85.1968 114.318C86.0203 109.415 87.0498 103.323 86.9027 100.417C86.7557 97.3342 81.5496 88.7026 78.7554 84.0786C77.6083 82.1849 76.7847 80.8051 76.5788 80.2913C76.4759 80.0417 76.5935 79.7481 76.8582 79.6307C77.1229 79.5279 77.4171 79.6454 77.52 79.9096C77.7112 80.35 78.5495 81.7739 79.6377 83.5501C82.682 88.5852 87.7557 97.0259 87.9322 100.358C88.0792 103.367 87.0498 109.533 86.2115 114.48C85.7997 116.961 85.4321 119.104 85.2556 120.572C84.9321 123.361 84.1967 124.976 83.0055 125.489C82.7702 125.578 82.5055 125.651 82.182 125.651Z" fill="#000318"/>
<path d="M74.3141 77.7951C74.1817 77.7951 74.0347 77.7364 73.9317 77.6337C72.4611 75.9896 70.6228 75.9162 70.6081 75.9162C70.3287 75.9015 70.1081 75.6813 70.1228 75.4024C70.1228 75.1235 70.3728 74.918 70.6375 74.918C70.7257 74.918 72.917 74.9767 74.6965 76.9731C74.8877 77.1786 74.8582 77.5016 74.6524 77.6777C74.5494 77.7511 74.4318 77.7951 74.3141 77.7951Z" fill="#000318"/>
<path d="M91.697 124.493C87.388 124.493 86.5203 114.966 86.1527 110.841C86.1086 110.283 86.0644 109.872 86.035 109.638C85.9909 109.359 86.1821 109.109 86.4615 109.065C86.7262 109.021 86.9909 109.212 87.0351 109.491C87.0645 109.726 87.1086 110.166 87.1674 110.753C87.4616 113.968 88.3586 123.774 91.8588 123.48C94.0795 123.304 93.9324 118.328 93.7706 113.058C93.7559 112.353 93.7265 111.634 93.7118 110.915C93.6824 109.359 93.653 107.964 93.6383 106.702C93.5794 102.665 93.55 99.9932 93.0353 97.9234C92.3588 95.237 90.2999 89.9084 86.6821 83.7283C86.2409 82.9796 84.8879 80.8511 83.5938 78.796C82.6378 77.284 81.726 75.8454 81.2554 75.0821C81.1084 74.8472 81.1819 74.5389 81.4172 74.3921C81.6525 74.2453 81.9613 74.3187 82.1084 74.5536C82.579 75.3169 83.4908 76.7555 84.4467 78.2528C85.7556 80.3227 87.1086 82.4659 87.5645 83.2145C91.2411 89.4826 93.3441 94.9287 94.0353 97.6738C94.5795 99.861 94.6236 102.577 94.6677 106.687C94.6824 107.949 94.6971 109.329 94.7412 110.885C94.7559 111.605 94.7854 112.324 94.8001 113.029C94.9765 119.047 95.1383 124.244 91.9617 124.479C91.8588 124.493 91.7705 124.493 91.697 124.493Z" fill="#000318"/>
<path d="M97.0209 116.461C96.2561 116.461 95.2267 116.05 93.9619 114.567C93.7854 114.362 93.8001 114.039 94.0207 113.863C94.2266 113.686 94.5502 113.701 94.7266 113.921C95.7267 115.096 96.6826 115.624 97.3444 115.404C97.9032 115.213 98.3003 114.42 98.3591 113.393C98.5797 108.622 98.6386 93.8838 96.9179 91.2268C95.0649 88.3497 85.8145 77.6924 82.2556 73.7436C79.1525 70.2793 77.623 70.3967 76.0053 70.5435L75.7406 70.5728C74.7552 70.6462 72.9316 70.9839 70.5933 71.4096C63.9166 72.6426 53.8426 74.4923 48.9601 73.0243C45.9011 72.0995 40.4891 67.637 40.2538 67.4608C40.0332 67.2846 40.0038 66.9617 40.1803 66.7562C40.3568 66.536 40.6803 66.5066 40.8862 66.6828C40.945 66.7268 46.3717 71.2041 49.2395 72.0701C53.8868 73.4647 63.8283 71.6444 70.4021 70.4407C72.7552 70.015 74.6082 69.6627 75.6376 69.5893L75.9023 69.56C77.6965 69.3985 79.5496 69.2517 82.9909 73.0977C86.5498 77.0758 95.859 87.7918 97.7415 90.7131C100.021 94.2361 99.3592 113.29 99.3445 113.481C99.2857 114.949 98.6386 116.064 97.6532 116.402C97.4768 116.417 97.2562 116.461 97.0209 116.461Z" fill="#000318"/>
<path d="M68.7109 84.4165C68.6226 84.4165 68.5197 84.3871 68.4314 84.3284C67.4755 83.6972 67.152 83.6532 66.5343 83.5798L66.4166 83.5651C66.1372 83.521 65.946 83.2715 65.9902 82.9926C66.0343 82.7137 66.2843 82.5228 66.5637 82.5669L66.6814 82.5816C67.4314 82.6843 67.8873 82.7724 68.9903 83.4917C69.2256 83.6385 69.2844 83.9614 69.1373 84.1816C69.0344 84.3284 68.8726 84.4165 68.7109 84.4165Z" fill="#000318"/>
<path d="M25.8961 87.6699C25.6902 87.6699 25.5137 87.6258 25.3519 87.5378C16.6898 82.8403 8.2189 77.0273 0.17446 70.2894C-0.0314303 70.1132 -0.0608432 69.7903 0.115634 69.5848C0.292112 69.3793 0.615654 69.3499 0.821545 69.5261C8.82186 76.2346 17.234 81.9889 25.8372 86.657C26.5137 87.024 30.0433 84.2642 34.3964 77.6878C38.4701 71.5225 40.779 65.7681 40.2937 65.0341C38.8966 63.39 31.7492 58.032 25.4402 53.3053C22.8077 51.3382 20.3223 49.4739 18.3517 47.9619C18.1311 47.7858 18.0869 47.4775 18.2634 47.2573C18.4399 47.0371 18.7487 46.9931 18.9693 47.1692C20.94 48.6812 23.4254 50.5455 26.0578 52.5126C32.7199 57.5036 39.6172 62.6561 41.0878 64.4029C42.485 66.0617 37.6612 74.6052 35.2494 78.2457C32.0728 82.9725 28.0138 87.6699 25.8961 87.6699Z" fill="#000318"/>
<path d="M78.5789 104.336L76.8876 103.925C76.6229 103.866 76.4464 103.587 76.5199 103.323C76.5788 103.059 76.8582 102.883 77.1229 102.956L78.7994 103.353L78.5789 104.336Z" fill="#000318"/>
<path d="M113.242 146.658C113.183 146.658 113.11 146.644 113.051 146.614C112.83 146.526 90.8735 137.469 75.8288 133.007C60.784 128.544 51.1072 126.445 51.0042 126.43C50.8719 126.401 50.7542 126.313 50.6807 126.195C50.6072 126.078 50.5925 125.931 50.6219 125.799L57.828 99.6988C57.9016 99.4493 58.1222 99.3025 58.3869 99.3318C58.431 99.3318 62.9459 99.9631 69.4609 101.27C69.7403 101.328 69.9168 101.592 69.8579 101.857C69.7991 102.136 69.5344 102.297 69.2697 102.253C63.9459 101.181 59.9752 100.58 58.6957 100.389L51.7543 125.549C53.9602 126.048 63.0194 128.148 76.1229 132.038C89.9176 136.119 109.477 144.046 112.918 145.455L119.933 120.147C118.066 119.178 109.139 114.643 99.1091 110.708C98.8444 110.606 98.7267 110.312 98.8297 110.063C98.9326 109.798 99.2268 109.681 99.4768 109.784C110.771 114.217 120.669 119.413 120.772 119.457C120.978 119.56 121.081 119.81 121.022 120.03L113.757 146.277C113.713 146.409 113.624 146.526 113.492 146.6C113.389 146.644 113.316 146.658 113.242 146.658Z" fill="#000318"/>
<path d="M110.198 143.149C110.139 143.149 110.065 143.134 110.006 143.105C109.815 143.032 90.4469 135.046 77.1817 131.112C63.9165 127.178 55.3721 125.328 55.2985 125.314C55.1662 125.284 55.0485 125.196 54.975 125.079C54.9015 124.961 54.8868 124.814 54.9162 124.682L61.137 102.267C61.2105 102.017 61.4458 101.856 61.6958 101.9C61.74 101.9 65.593 102.516 69.9314 103.412C70.2109 103.471 70.3726 103.735 70.3285 103.999C70.2697 104.278 70.005 104.439 69.7403 104.395C66.2695 103.676 63.1224 103.148 61.99 102.957L56.0192 124.433C58.0634 124.888 66.0048 126.752 77.4611 130.143C89.5498 133.725 106.653 140.654 109.859 141.96L115.918 120.22C114.36 119.368 107.653 115.757 98.9619 112.352C98.6972 112.249 98.5796 111.955 98.6825 111.706C98.7855 111.441 99.0796 111.324 99.3296 111.427C109.301 115.332 116.683 119.501 116.757 119.545C116.963 119.662 117.051 119.897 116.992 120.117L110.668 142.782C110.624 142.914 110.536 143.032 110.404 143.105C110.359 143.134 110.271 143.149 110.198 143.149Z" fill="#000318"/>
<path d="M78.5348 106.611C78.476 106.611 78.4318 106.597 78.373 106.582C77.8436 106.406 77.2994 106.244 76.7112 106.068C76.4465 105.995 76.2847 105.716 76.3729 105.452C76.4465 105.187 76.7259 105.026 76.9906 105.114C77.5936 105.29 78.1524 105.466 78.6965 105.642C78.9613 105.731 79.1083 106.009 79.0201 106.274C78.9319 106.479 78.7407 106.611 78.5348 106.611Z" fill="#000318"/>
<path d="M86.0791 129.307C85.3585 129.307 84.6232 129.219 83.8879 129.028C81.6525 128.441 79.7554 127.032 78.5935 125.05C77.417 123.068 77.0935 120.734 77.667 118.503C77.7994 117.989 77.9906 117.475 78.2112 116.991C78.3288 116.741 78.623 116.624 78.8877 116.756C79.1377 116.873 79.2406 117.167 79.123 117.431C78.9171 117.857 78.7553 118.312 78.6377 118.767C78.1229 120.734 78.4171 122.789 79.4612 124.551C80.5054 126.312 82.1672 127.56 84.1526 128.074C88.241 129.131 92.4323 126.694 93.4912 122.628C93.6676 121.982 93.7412 121.307 93.7412 120.631C93.7412 120.353 93.9618 120.132 94.2412 120.118C94.5206 120.103 94.7412 120.338 94.7559 120.617C94.7559 121.38 94.6677 122.129 94.4765 122.863C93.447 126.738 89.9322 129.307 86.0791 129.307Z" fill="#000318"/>
<path d="M67.3432 121.468C67.1079 121.468 66.8579 121.438 66.6373 121.38C64.549 120.836 63.4607 118.091 64.196 115.244C64.549 113.893 65.2549 112.719 66.1814 111.941C67.1667 111.119 68.2697 110.81 69.3138 111.075C69.7109 111.177 70.0933 111.368 70.4315 111.632C70.6521 111.809 70.6815 112.117 70.5198 112.337C70.3433 112.557 70.0345 112.587 69.8139 112.425C69.5933 112.249 69.3433 112.117 69.0785 112.058C68.3579 111.867 67.5638 112.102 66.8432 112.719C66.0637 113.379 65.4755 114.363 65.1813 115.508C64.5784 117.812 65.3578 120.014 66.902 120.425C68.1962 120.763 70.005 119.662 70.6521 117.313C70.7257 117.049 71.0051 116.888 71.2698 116.961C71.5345 117.034 71.6963 117.313 71.6228 117.578C70.9168 120.117 68.9903 121.468 67.3432 121.468Z" fill="#000318"/>
<path fill-rule="evenodd" clip-rule="evenodd" d="M101.271 126.708C101.918 124.197 103.859 122.524 105.609 122.979C107.345 123.434 108.227 125.827 107.58 128.352C106.933 130.862 104.992 132.535 103.242 132.08C101.506 131.625 100.624 129.218 101.271 126.708Z" fill="#99F2CD"/>
<path d="M103.8 132.653C103.565 132.653 103.33 132.623 103.109 132.565C101.109 132.051 100.065 129.364 100.786 126.59C101.124 125.283 101.815 124.124 102.697 123.36C103.639 122.538 104.727 122.245 105.727 122.494C106.727 122.759 107.521 123.551 107.962 124.711C108.374 125.827 108.404 127.148 108.065 128.469C107.418 130.935 105.609 132.653 103.8 132.653ZM105.021 123.405C104.477 123.405 103.889 123.639 103.359 124.109C102.624 124.755 102.05 125.709 101.756 126.84C101.168 129.085 101.889 131.214 103.359 131.596C104.83 131.977 106.492 130.465 107.08 128.219C107.374 127.104 107.345 125.973 107.006 125.063C106.698 124.212 106.154 123.639 105.477 123.463C105.33 123.434 105.183 123.405 105.021 123.405Z" fill="#000318"/>
<path d="M87.722 56.5933C87.5749 56.5933 87.4279 56.5345 87.3249 56.4024L78.854 45.6571C78.6775 45.4369 78.7217 45.1286 78.9423 44.9524C79.1629 44.7763 79.4717 44.8203 79.6482 45.0405L88.1191 55.7859C88.2956 56.0061 88.2514 56.3144 88.0308 56.4905C87.9426 56.5639 87.8249 56.5933 87.722 56.5933Z" fill="#000318"/>
<path d="M111.076 48.5481C110.855 48.5481 110.649 48.4013 110.591 48.1664L107.252 34.8227C107.179 34.5585 107.355 34.2796 107.62 34.2062C107.885 34.1328 108.164 34.309 108.238 34.5732L111.576 47.9169C111.649 48.1811 111.473 48.46 111.208 48.5334C111.164 48.5481 111.12 48.5481 111.076 48.5481Z" fill="#000318"/>
<path d="M30.0037 119.061C29.7831 119.061 29.5772 118.914 29.5184 118.679C29.4449 118.415 29.6066 118.136 29.886 118.063L41.0188 115.244C41.2835 115.171 41.563 115.332 41.6365 115.611C41.71 115.875 41.5482 116.154 41.2688 116.228L30.1361 119.046C30.0919 119.046 30.0478 119.061 30.0037 119.061Z" fill="#000318"/>
<path d="M44.0922 147.421C43.9598 147.421 43.8422 147.377 43.7392 147.274C43.548 147.083 43.5333 146.76 43.7392 146.569L51.6807 138.569C51.8719 138.378 52.1954 138.378 52.3866 138.569C52.5778 138.76 52.5925 139.083 52.3866 139.274L44.4451 147.274C44.3569 147.362 44.2245 147.421 44.0922 147.421Z" fill="#000318"/>
<path d="M214.403 53.056C214.256 53.056 214.109 52.9973 214.006 52.8652C213.83 52.645 213.874 52.3367 214.095 52.1606L225.345 43.3235C225.566 43.1474 225.874 43.1914 226.051 43.4116C226.227 43.6318 226.183 43.9401 225.963 44.1162L214.712 52.9533C214.624 53.012 214.521 53.056 214.403 53.056Z" fill="#000318"/>
<path d="M227.791 73.1443C227.585 73.1443 227.393 73.0122 227.32 72.8214C227.217 72.5572 227.364 72.2782 227.614 72.1755L238.644 68.1386C238.909 68.0506 239.188 68.1827 239.291 68.4322C239.394 68.6965 239.247 68.9754 238.997 69.0781L227.967 73.115C227.908 73.1297 227.849 73.1443 227.791 73.1443Z" fill="#000318"/>
<path d="M242.35 146.556C242.291 146.556 242.218 146.541 242.159 146.512L231.408 142.123C231.158 142.02 231.026 141.727 231.129 141.462C231.232 141.213 231.526 141.081 231.791 141.183L242.541 145.573C242.791 145.675 242.923 145.969 242.821 146.233C242.732 146.439 242.541 146.556 242.35 146.556Z" fill="#000318"/>
</g>
<defs>
<clipPath id="clip0_2672_23978">
<rect width="294" height="262" fill="white"/>
</clipPath>
</defs>
</svg>
