<svg width="54" height="55" viewBox="0 0 54 55" fill="none" xmlns="http://www.w3.org/2000/svg">
<g id="Money tree 1" clip-path="url(#clip0_4116_90612)">
<g id="Group">
<g id="Group_2">
<g id="Clip path group">
<mask id="mask0_4116_90612" style="mask-type:luminance" maskUnits="userSpaceOnUse" x="-34" y="16" width="89" height="43">
<g id="clip-path-id-viewbox-item-0">
<path id="Vector" d="M54.3365 16.4333H-33.7109V58.9002H54.3365V16.4333Z" fill="white"/>
</g>
</mask>
<g mask="url(#mask0_4116_90612)">
<g id="Group_3">
<g id="Layer 2">
<g id="coins-i0">
<path id="Vector_2" d="M50.7164 45.0994V52.9881C50.7164 52.9881 50.5513 53.9711 37.9307 54.5278C25.3101 55.0845 18.8466 54.6345 18.8466 54.6345L7.74756 54.0306C7.74756 54.0306 1.64966 53.829 1.23681 53.0001C0.82397 52.1711 1.37832 45.442 1.37832 45.442L14.3056 45.3946H39.1456L50.7164 45.0994Z" fill="#D3D4D8"/>
<path id="Vector_3" d="M33.1532 45.3726C32.5044 45.5739 31.9383 45.8701 32.3629 46.4386C32.7874 47.007 34.6037 46.9361 35.2528 47.0547C37.5055 47.5047 39.7587 48.3339 41.3034 50.1224C42.2117 51.1766 42.8379 52.5268 44.0163 53.2493C44.7115 53.6333 45.4788 53.8673 46.2692 53.9364C50.6451 53.4509 50.7277 52.9771 50.7277 52.9771V45.0884L39.1569 45.3609H33.1532V45.3726Z" fill="white"/>
<path id="Vector_4" d="M48.8299 44.1054C47.568 43.9041 45.7752 43.7265 43.4988 43.5724C38.816 43.2528 32.6002 43.0869 25.9833 43.0869C19.3663 43.0869 13.1503 43.2645 8.46772 43.5724C6.17942 43.7265 4.38654 43.9041 3.13631 44.1054C1.48518 44.3662 0.895508 44.6266 0.895508 45.1004V52.9892C0.895508 53.4629 1.48543 53.7229 3.13631 53.9842C4.39847 54.1855 6.19136 54.3631 8.46772 54.5172C13.1503 54.8371 19.3663 55.0027 25.9833 55.0027C32.6002 55.0027 38.816 54.8251 43.4988 54.5172C45.7868 54.3631 47.5797 54.1855 48.8299 53.9842C50.4813 53.7237 51.0708 53.4629 51.0708 52.9892V45.0997C51.071 44.6266 50.4813 44.3659 48.8299 44.1054ZM12.6902 46.8654V54.0434C11.5941 53.9959 10.5789 53.9367 9.63537 53.8893V46.7226C10.6026 46.7705 11.6287 46.818 12.6902 46.8654ZM13.398 46.8899C14.3888 46.9254 15.403 46.9608 16.4528 46.9963V54.1742C15.3796 54.1385 14.3652 54.1031 13.398 54.0676V46.8899ZM17.1732 47.02C18.1641 47.0445 19.1902 47.0675 20.2283 47.0792V54.2574C19.1666 54.2454 18.1524 54.2217 17.1732 54.198V47.02ZM20.9358 47.0912C21.9386 47.1029 22.9647 47.1157 23.9909 47.1157V54.2936C22.9411 54.2936 21.915 54.2819 20.9358 54.2691V47.0912ZM31.5278 47.0792V54.2574L28.473 54.2929V47.1142C29.5098 47.1022 30.5243 47.1022 31.5268 47.0785L31.5278 47.0792ZM32.2356 47.0675C33.2734 47.043 34.2996 47.032 35.2904 46.9963V54.1742C34.3115 54.1987 33.297 54.2214 32.2356 54.2452V47.0675ZM36.0108 46.9846C37.0606 46.9491 38.0868 46.9134 39.0657 46.8779V53.9729C39.0638 53.9973 39.0679 54.0217 39.0776 54.0441C38.1104 54.0796 37.0842 54.127 36.0108 54.1507V46.9846ZM39.7734 53.9729V46.8417C40.8468 46.7943 41.873 46.7351 42.8283 46.6759V53.8426C41.8847 53.9017 40.8705 53.9609 39.7615 54.0084C39.7658 54.0035 39.7689 53.9977 39.7706 53.9914C39.7723 53.9852 39.7726 53.9786 39.7715 53.9722L39.7734 53.9729ZM43.536 46.6292C44.6808 46.5462 45.7062 46.4633 46.5909 46.3804V53.5471C45.7182 53.63 44.691 53.7249 43.536 53.7958V46.6292ZM1.59406 45.7645C1.77113 45.8237 1.99521 45.8829 2.2546 45.9421V53.1088C2.02421 53.0683 1.80141 52.9924 1.59406 52.8837V45.7645ZM2.96241 53.2386V46.072C3.01643 46.086 3.07179 46.0942 3.12754 46.0964C3.69359 46.1911 4.37777 46.274 5.16814 46.3569V53.5236C4.26865 53.4275 3.52553 53.3326 2.95997 53.2379L2.96241 53.2386ZM5.87569 53.594V46.4274C6.6551 46.4983 7.51514 46.5695 8.45749 46.6287C8.61094 46.6407 8.76438 46.6531 8.92952 46.6641V53.8308C7.78257 53.7584 6.7574 53.6762 5.87277 53.5933L5.87569 53.594ZM24.7123 54.2929V47.1142H27.7671V54.2921H24.7104L24.7123 54.2929ZM47.3113 53.4757V46.309C47.8893 46.2498 48.3964 46.1786 48.8329 46.1074C48.9744 46.083 49.1159 46.0602 49.2457 46.0365V53.2032C48.7474 53.2854 48.0988 53.38 47.3084 53.4749L47.3113 53.4757Z" fill="#16274D"/>
<path id="Vector_5" d="M53.9735 35.8967V43.7855C53.9735 43.7855 53.8084 44.7685 41.1878 45.3264C28.5672 45.8843 22.1037 45.4331 22.1037 45.4331L11.0046 44.8289C11.0046 44.8289 4.90649 44.6276 4.49365 43.7984C4.08081 42.9692 4.63516 36.2404 4.63516 36.2404L17.5624 36.1929H42.4144L53.9735 35.8967Z" fill="#D3D4D8"/>
<path id="Vector_6" d="M53.9737 43.7855V35.8967L42.4029 36.1692H36.5408C36.4072 36.2669 36.3165 36.4129 36.2879 36.5765C36.2594 36.74 36.2951 36.9083 36.3876 37.0458C36.8947 37.8286 38.4752 37.7089 39.2419 37.8985C40.2584 38.1177 41.1844 38.6424 41.8968 39.4028C42.8404 40.469 43.1706 41.9613 44.0197 43.1104C44.6605 43.9446 45.5059 44.5975 46.4732 45.0055C53.8559 44.4725 53.9737 43.7855 53.9737 43.7855Z" fill="white"/>
<path id="Vector_7" d="M52.0858 34.9016C50.8236 34.7003 49.0308 34.5227 46.7544 34.3686C42.0718 34.0489 35.8558 33.8831 29.2389 33.8831C22.6219 33.8831 16.4061 34.0606 11.7236 34.3686C9.43406 34.5227 7.64239 34.7003 6.39217 34.9016C4.7408 35.1623 4.15137 35.4228 4.15137 35.8966V43.7853C4.15137 44.2591 4.74104 44.5191 6.39217 44.7803C7.65433 44.9816 9.44697 45.1592 11.7236 45.3133C16.4061 45.633 22.6219 45.7988 29.2389 45.7988C35.8558 45.7988 42.0718 45.6212 46.7544 45.3133C49.0427 45.1592 50.8356 44.9816 52.0858 44.7803C53.7369 44.5196 54.3266 44.2591 54.3266 43.7853V35.8966C54.3269 35.4228 53.7369 35.1623 52.0858 34.9016ZM15.9577 37.6616V44.8283C14.8617 44.7811 13.8465 44.7219 12.9029 44.6744V37.5077C13.8584 37.5657 14.8846 37.6146 15.9577 37.6616ZM16.6655 37.697C17.6563 37.7325 18.6708 37.768 19.7203 37.8037V44.9816C18.6472 44.9462 17.6327 44.9104 16.6655 44.875V37.697ZM20.4281 37.8154C21.4189 37.8399 22.4451 37.8629 23.4829 37.8746V45.0528C22.4215 45.0408 21.407 45.0171 20.4281 44.9934V37.8154ZM24.1907 37.8866C25.1932 37.8984 26.2194 37.9111 27.2455 37.9111V45.089C26.1958 45.089 25.1696 45.077 24.1907 45.0645V37.8866ZM34.7827 37.8866V45.0645C33.7918 45.0763 32.7774 45.089 31.7276 45.1V37.9221C32.7657 37.9103 33.7799 37.8984 34.7827 37.8866ZM35.489 37.8746C36.5271 37.8502 37.5532 37.8392 38.544 37.8037V44.9816C37.5649 45.0061 36.5507 45.0291 35.489 45.0528V37.8746ZM39.2643 37.78C40.3138 37.7445 41.3402 37.7088 42.3191 37.6733V44.7683C42.3172 44.7927 42.3212 44.8171 42.3308 44.8395C41.3636 44.875 40.3374 44.9224 39.2643 44.9462V37.7795V37.78ZM43.0269 44.7683V37.6391C44.1003 37.5916 45.1264 37.5324 46.0819 37.4732V44.6399C45.1383 44.6991 44.1239 44.7583 43.0152 44.8058C43.0269 44.804 43.0269 44.7813 43.0269 44.7683ZM46.7895 37.4366C47.9342 37.3536 48.9599 37.2707 49.8445 37.1878V44.3545C48.9716 44.4374 47.9447 44.5323 46.7895 44.6032V37.4366ZM4.84748 36.5599C5.02431 36.6191 5.24863 36.6783 5.50803 36.7375V43.9042C5.27762 43.8638 5.05482 43.7878 4.84748 43.6791V36.5599ZM6.21558 44.0341V36.8674C6.26964 36.8812 6.32498 36.8894 6.38072 36.8918C6.94701 36.9865 7.63119 37.0694 8.42131 37.1523V44.319C7.5245 44.2354 6.79308 44.1407 6.2151 44.0341H6.21558ZM9.12912 44.401V37.2343C9.90853 37.3055 10.7686 37.3764 11.7109 37.4356C11.8644 37.4476 12.0176 37.46 12.1827 37.4713V44.638C11.0394 44.5553 10.0133 44.4841 9.12863 44.4012L9.12912 44.401ZM27.9655 45.0998V37.9221H31.0191V45.0993H27.965L27.9655 45.0998ZM50.5647 44.2706V37.1039C51.1427 37.0445 51.6498 36.9735 52.0863 36.9024C52.2278 36.8779 52.3693 36.8551 52.4991 36.8314V43.9981C52.0032 44.0932 51.3544 44.1762 50.5642 44.2708L50.5647 44.2706Z" fill="#16274D"/>
<path id="Vector_8" d="M48.5825 28.127V36.0154C48.5825 36.0154 48.4174 36.9987 35.7968 37.5564C23.1762 38.1141 16.7127 37.663 16.7127 37.663L5.61367 37.0589C5.61367 37.0589 -0.484481 36.8576 -0.897081 36.0284C-1.30968 35.1992 -0.755571 28.4704 -0.755571 28.4704L12.1717 28.4229H37.0107L48.5825 28.127Z" fill="#D3D4D8"/>
<path id="Vector_9" d="M10.9774 56.5424C3.02742 59.3971 -13.4973 59.3022 -21.8243 58.1296C-23.2752 57.9283 -24.8557 57.5847 -25.7287 56.4121C-26.2947 55.6658 -26.4594 54.6945 -26.5305 53.7589C-26.9789 47.5049 -23.4757 41.7003 -19.6658 36.726C-16.9649 33.1842 -14.0151 29.7968 -10.5248 27.0368C-9.00326 25.8404 -7.34019 24.739 -5.45305 24.3007C-2.97598 23.732 -0.404905 24.3599 2.06022 24.9758C2.93316 25.2008 3.84142 25.4259 4.56091 25.9826C6.28292 27.3093 7.00241 28.2818 9.1492 28.9911C10.4467 29.4174 11.2015 28.9436 11.8265 30.1992C13.0769 32.7814 14.3742 35.0556 14.4326 45.858V54.5287C14.4334 54.5654 13.4549 55.6541 10.9774 56.5424Z" fill="#16274D"/>
<path id="Vector_10" d="M17.8535 28.3992C18.9983 30.5788 22.6306 32.6278 26.1104 32.8293C32.2792 33.1847 38.8489 32.1305 44.3454 34.9612C45.2537 35.4353 46.1266 36.0037 47.1172 36.2879C47.2823 36.3354 47.4594 36.3709 47.6245 36.4063C48.5445 36.1696 48.5798 36.0037 48.5798 36.0037V28.115L37.0075 28.3875H17.8535V28.3992Z" fill="white"/>
<path id="Vector_11" d="M23.8346 29.7968C37.5014 29.7968 48.5804 29.049 48.5804 28.1266C48.5804 27.2043 37.5014 26.4565 23.8346 26.4565C10.1679 26.4565 -0.911133 27.2043 -0.911133 28.1266C-0.911133 29.049 10.1679 29.7968 23.8346 29.7968Z" fill="white"/>
<path id="Vector_12" d="M1.44824 27.4156C5.41154 27.984 13.9393 28.3749 23.8351 28.3749C33.7309 28.3749 42.2589 27.9836 46.2219 27.4156C42.2589 26.8469 33.7312 26.4561 23.8351 26.4561C13.939 26.4561 5.4113 26.8479 1.44824 27.4156Z" fill="#D3D4D8"/>
<path id="Vector_13" d="M13.2426 46.7702C9.93507 46.6485 6.63599 46.356 3.35844 45.8938C3.26616 45.8796 3.18326 45.8293 3.12796 45.7537C3.07267 45.6782 3.04952 45.5837 3.0636 45.491C3.07768 45.3984 3.12785 45.3151 3.20305 45.2596C3.27826 45.2041 3.37235 45.1808 3.46463 45.195C6.71124 45.6494 9.97874 45.938 13.2545 46.0596C13.3011 46.0604 13.3471 46.0706 13.3898 46.0896C13.4324 46.1087 13.4707 46.1361 13.5026 46.1704C13.5344 46.2046 13.559 46.2449 13.575 46.2889C13.5909 46.3329 13.5979 46.3797 13.5955 46.4265C13.5929 46.5187 13.5545 46.6062 13.4886 46.6704C13.4227 46.7346 13.3344 46.7704 13.2426 46.7702Z" fill="#D3D4D8"/>
<path id="Vector_14" d="M12.7716 54.8245C12.4649 54.8245 5.43515 54.7299 1.04756 53.5453C0.957323 53.5197 0.880831 53.4593 0.834792 53.3773C0.788753 53.2953 0.776908 53.1983 0.801845 53.1075C0.826781 53.0168 0.886473 52.9396 0.96788 52.8929C1.04929 52.8462 1.14579 52.8337 1.23632 52.8582C5.54134 54.0191 12.7126 54.114 12.7835 54.114C12.8773 54.1143 12.9671 54.1517 13.0334 54.2183C13.0997 54.2848 13.1371 54.375 13.1374 54.4691C13.1326 54.5639 13.0921 54.6533 13.0242 54.7192C12.9563 54.7852 12.866 54.8228 12.7716 54.8245Z" fill="#D3D4D8"/>
<path id="Vector_15" d="M9.3041 54.5163C9.21032 54.5161 9.12045 54.4785 9.05414 54.412C8.98782 54.3454 8.95045 54.2551 8.9502 54.1609L8.98575 48.2031C8.98798 48.1095 9.02595 48.0205 9.09179 47.9543C9.15763 47.8881 9.2463 47.85 9.33941 47.8477C9.4332 47.8479 9.52306 47.8854 9.58938 47.952C9.65569 48.0186 9.69306 48.1089 9.69331 48.2031L9.658 54.1609C9.65774 54.2551 9.62037 54.3454 9.55406 54.412C9.48774 54.4785 9.39788 54.5161 9.3041 54.5163Z" fill="#D3D4D8"/>
<path id="Vector_16" d="M5.52773 54.2798C5.43395 54.2795 5.34408 54.242 5.27777 54.1754C5.21145 54.1088 5.17409 54.0185 5.17383 53.9244L5.20915 47.9662C5.20915 47.872 5.24643 47.7816 5.3128 47.7149C5.37917 47.6483 5.46919 47.6108 5.56305 47.6108C5.65691 47.6108 5.74692 47.6483 5.81329 47.7149C5.87966 47.7816 5.91695 47.872 5.91695 47.9662L5.88163 53.9244C5.88137 54.0185 5.844 54.1088 5.77769 54.1754C5.71138 54.242 5.62151 54.2795 5.52773 54.2798Z" fill="#D3D4D8"/>
<path id="Vector_17" d="M13.0062 52.5744C12.9125 52.5742 12.8226 52.5367 12.7563 52.4701C12.69 52.4035 12.6526 52.3132 12.6523 52.219L12.6877 48.7485C12.6877 48.6542 12.7249 48.5638 12.7913 48.4972C12.8577 48.4305 12.9477 48.3931 13.0416 48.3931C13.1354 48.3931 13.2254 48.4305 13.2918 48.4972C13.3582 48.5638 13.3955 48.6542 13.3955 48.7485L13.3601 52.219C13.3599 52.3132 13.3225 52.4035 13.2562 52.4701C13.1899 52.5367 13.1 52.5742 13.0062 52.5744Z" fill="#D3D4D8"/>
<path id="Vector_18" d="M46.6942 27.1196C45.432 26.9183 43.6394 26.7407 41.3628 26.5866C36.6803 26.2669 30.4645 26.1011 23.8475 26.1011C17.2306 26.1011 11.0145 26.2787 6.33198 26.5866C4.04246 26.7407 2.25079 26.9183 1.00057 27.1196C-0.650559 27.3803 -1.24023 27.6408 -1.24023 28.1146V36.0033C-1.24023 36.4771 -0.650316 36.7371 1.00057 36.9983C2.26273 37.1996 4.05561 37.3772 6.33198 37.5313C11.0145 37.851 17.2306 38.0168 23.8475 38.0168C30.4645 38.0168 36.6803 37.8393 41.3628 37.5313C43.6511 37.3772 45.444 37.1996 46.6942 36.9983C48.3456 36.7376 48.935 36.4771 48.935 36.0033V28.1146C48.9352 27.6528 48.3456 27.3803 46.6942 27.1196ZM23.8356 26.8116C37.6594 26.8116 46.2697 27.5342 47.9917 28.1266C46.2697 28.7187 37.6594 29.4413 23.8356 29.4413C10.0118 29.4413 1.40172 28.7187 -0.320531 28.1266C1.40172 27.5342 10.012 26.8116 23.8356 26.8116ZM29.3911 30.1056V37.2826C28.4002 37.2943 27.3858 37.307 26.336 37.318V30.1401L29.3911 30.1056ZM30.0986 30.0936C31.1367 30.0692 32.1628 30.0582 33.1537 30.0227V37.1989C32.1745 37.2234 31.1603 37.2464 30.0986 37.2701V30.0936ZM33.8612 29.999C34.911 29.9635 35.9371 29.9278 36.9163 29.8923V36.9864C36.9144 37.0107 36.9184 37.0351 36.928 37.0575C35.9608 37.093 34.9346 37.1404 33.8612 37.1642V29.999ZM37.6365 36.9873V29.8559C38.7099 29.8084 39.736 29.7492 40.6913 29.69V36.8565C39.7477 36.9157 38.7333 36.9749 37.6245 37.0223C37.6326 37.0121 37.6366 36.9993 37.6358 36.9864L37.6365 36.9873ZM41.3991 29.6556C42.5438 29.5726 43.5693 29.4897 44.4539 29.4068V36.5735C43.5812 36.6564 42.5541 36.7513 41.3991 36.8222V29.6556ZM10.5552 29.8923V37.0693C9.45912 37.0221 8.44393 36.9626 7.50036 36.9154V29.7487C8.46683 29.7847 9.49297 29.8439 10.5544 29.8913L10.5552 29.8923ZM11.263 29.9168C12.2538 29.9522 13.268 29.9877 14.3178 30.0234V37.1989C13.2446 37.1634 12.2302 37.1277 11.263 37.0923V29.9168ZM15.0382 30.0352C16.0291 30.0596 17.0552 30.0826 18.0933 30.0944V37.2708C17.0316 37.2588 16.0174 37.2351 15.0382 37.2114V30.0352ZM18.8008 30.1181C19.8033 30.1301 20.8295 30.1425 21.8559 30.1425V37.318C20.8061 37.318 19.78 37.3063 18.8008 37.2936V30.1181ZM-0.542905 28.7797C-0.365832 28.8388 -0.141751 28.898 0.117647 28.9572V36.1227C-0.112746 36.0822 -0.335548 36.0063 -0.542905 35.8977V28.7797ZM0.825446 36.2643V29.0979C0.879497 29.1118 0.934844 29.12 0.990586 29.1223C1.55663 29.2172 2.24081 29.3002 3.03093 29.3831V36.5497C2.13291 36.4534 1.38979 36.3587 0.82374 36.2638L0.825446 36.2643ZM3.73873 36.6197V29.453C4.51814 29.5242 5.37817 29.5951 6.32053 29.6546C6.47398 29.6663 6.62718 29.679 6.79232 29.69V36.8565C5.6478 36.785 4.62166 36.7021 3.73703 36.6192L3.73873 36.6197ZM22.5634 37.3185V30.1401H25.6182V37.318H22.5617L22.5634 37.3185ZM45.161 36.4896V29.3229C45.7389 29.2637 46.246 29.1925 46.6825 29.1214C46.824 29.0969 46.9655 29.0741 47.0966 29.0504V36.2171C46.5999 36.3113 45.963 36.4059 45.161 36.4896Z" fill="#16274D"/>
<path id="Vector_19" d="M8.76121 44.7572C8.7139 44.7567 8.66716 44.7468 8.62369 44.7281C8.58022 44.7093 8.54088 44.6821 8.50796 44.648C8.47504 44.6138 8.4492 44.5735 8.43192 44.5293C8.41465 44.485 8.40628 44.4378 8.40731 44.3903L8.44263 43.0516C8.44712 42.9583 8.48803 42.8704 8.55651 42.8071C8.62498 42.7438 8.71552 42.7101 8.80854 42.7133C8.90156 42.7166 8.98958 42.7564 9.05356 42.8243C9.11754 42.8922 9.15234 42.9826 9.15043 43.0761L9.11487 44.4148C9.11196 44.5068 9.07336 44.5942 9.00731 44.6581C8.94126 44.7221 8.85296 44.7576 8.76121 44.7572Z" fill="#D3D4D8"/>
<path id="Vector_20" d="M10.0834 26.6813C9.45836 25.7929 9.18703 24.5017 8.39666 23.7674C8.27625 22.5254 7.84188 21.3348 7.13475 20.3086C3.11251 14.5642 -8.91817 16.104 -19.7225 23.744C-30.5268 31.3839 -36.0351 42.2337 -32.0009 47.9786C-31.8579 48.1838 -31.7044 48.3815 -31.541 48.5707C-31.044 50.6253 -30.2024 52.58 -29.0523 54.3511C-25.03 60.0959 -12.9994 58.5559 -2.19503 50.9162C8.60929 43.2765 14.1056 32.4261 10.0834 26.6813Z" fill="#D3D4D8"/>
<path id="Vector_21" d="M2.50039 37.6619L-5.09545 17.2292C-9.18735 17.9875 -13.7766 19.8464 -18.2236 22.7373L-9.23606 47.1258C-7.8289 46.3404 -6.46311 45.4826 -5.14416 44.5556C-2.33379 42.569 0.232286 40.2549 2.50039 37.6619Z" fill="white"/>
<path id="Vector_22" d="M-23.3817 47.7656C-22.3761 47.7595 -21.3733 47.6604 -20.3858 47.4694C-16.2813 46.7233 -11.6223 44.6149 -7.25765 41.5235C-2.89344 38.4438 0.656776 34.7481 2.74438 31.1235C4.87923 27.4161 5.23313 24.2063 3.7352 22.0734C2.23727 19.9405 -0.888407 19.195 -5.08748 19.965C-9.19205 20.7112 -13.851 22.8197 -18.2157 25.9111C-22.5799 28.9908 -26.1301 32.6864 -28.2177 36.3109C-30.3528 40.0182 -30.7064 43.2283 -29.2085 45.3609C-28.0996 46.9361 -26.0826 47.7656 -23.3817 47.7656ZM2.11963 30.7683C0.0907288 34.3098 -3.38861 37.9225 -7.67025 40.9435C-11.9519 43.9645 -16.5051 46.036 -20.5154 46.7703C-23.901 47.3862 -26.5191 46.9836 -28.0172 45.6332C-29.7629 41.2388 -24.9624 33.4687 -16.6352 27.582C-9.21616 22.3346 -1.33705 20.2382 2.79114 22.0621C2.92104 22.2043 3.03901 22.3465 3.14504 22.4887C4.46711 24.3716 4.10055 27.3092 2.11914 30.7681L2.11963 30.7683Z" fill="#16274D"/>
<path id="Vector_23" d="M11.8638 30.2115C11.861 30.1863 11.8527 30.162 11.8394 30.1404L8.49037 22.0266C8.46169 21.9679 8.42152 21.9155 8.37224 21.8728C8.14917 21.2331 7.83962 20.6273 7.45229 20.0723C5.41195 17.1701 1.42453 15.9384 -3.79995 16.6134C-8.9309 17.2768 -14.6752 19.6932 -19.9474 23.4242C-25.2315 27.1556 -29.4304 31.763 -31.7776 36.3945C-33.994 40.7652 -34.3136 44.674 -32.7448 47.5405L-28.8054 55.4654C-28.7808 55.5135 -28.7489 55.5575 -28.7109 55.5958C-26.8111 57.1947 -24.0756 57.9647 -20.8681 57.9647C-20.1374 57.9647 -19.3701 57.9172 -18.5917 57.8463C-18.5673 57.8463 -18.5444 57.858 -18.5091 57.858C-18.456 57.8576 -18.4036 57.8455 -18.3557 57.8226H-18.344C-13.5316 57.2776 -7.96443 55.2404 -2.65665 51.841C2.07315 48.8204 6.11877 44.9945 8.74903 41.0738C11.3683 37.1407 12.4771 33.291 11.8638 30.2115ZM11.2159 32.7231L10.0826 29.9983L8.69082 26.6815C8.78655 26.1179 8.83786 25.5475 8.84427 24.9757L11.097 30.4239C11.2387 31.1815 11.2787 31.9548 11.2159 32.7231ZM9.82413 37.5795L8.51497 34.4049L7.21652 31.2538C7.70821 30.2175 8.10688 29.1393 8.4078 28.0319L9.36306 30.3067L10.9436 34.1444C10.9521 34.1756 10.9684 34.2041 10.9908 34.2273C10.7285 35.3852 10.3368 36.5095 9.82316 37.579L9.82413 37.5795ZM-31.0817 36.7616C-28.7922 32.2366 -24.676 27.736 -19.4992 24.0758C-13.165 19.5985 -6.39392 17.2293 -1.14606 17.2293C2.39222 17.2293 5.24681 18.3073 6.81537 20.5461C8.65551 23.1633 8.4078 26.9068 6.52066 30.9221C6.4801 30.9574 6.44753 31.0011 6.42514 31.0501C6.40275 31.0991 6.39106 31.1524 6.39083 31.2063C4.24405 35.6245 0.127789 40.3388 -5.36876 44.224C-15.9843 51.7336 -27.779 53.309 -31.6833 47.7538C-31.8132 47.5643 -31.9312 47.3747 -32.0372 47.1851L-32.1079 47.043C-32.1194 47.0167 -32.1354 46.9927 -32.1551 46.972C-33.4879 44.3659 -33.1223 40.7771 -31.0817 36.7616ZM5.82455 43.5614L3.28878 37.3303C3.79588 36.7261 4.26767 36.0982 4.71584 35.4824L7.29909 41.7364C6.839 42.3523 6.34456 42.9565 5.82455 43.5606V43.5614ZM0.693836 48.4533L-1.78298 42.4242C-1.12268 41.8556 -0.47382 41.2871 0.139481 40.695L2.60461 46.8187C2.003 47.3749 1.36608 47.9195 0.693836 48.4526V48.4533ZM-1.85386 50.3484L-4.27174 44.4498C-4.27174 44.4378 -4.28367 44.4253 -4.29609 44.4143C-3.64748 43.9403 -3.02224 43.4547 -2.40895 42.9572L0.0561829 48.9498V48.9616C-0.556629 49.4363 -1.19331 49.8983 -1.85386 50.3477V50.3484ZM-6.98457 53.3915L-9.34375 47.6346C-8.71851 47.2922 -8.09328 46.9358 -7.46829 46.5569L-5.05017 52.3727C-5.69903 52.7166 -6.34764 53.0603 -6.98457 53.3915ZM-9.77948 54.6712L-12.1504 49.033C-11.4426 48.7131 -10.7467 48.3697 -10.0508 48.0143L-7.69188 53.7471C-8.38824 54.067 -9.0841 54.3867 -9.77948 54.6712ZM-12.5749 55.7017L-14.9104 50.1464C-14.238 49.9094 -13.554 49.6369 -12.8698 49.3409L-10.5109 54.9667C-11.1956 55.2396 -11.8914 55.4884 -12.5754 55.7017H-12.5749ZM-15.335 56.4844L-17.6245 51C-16.9756 50.8342 -16.3151 50.6332 -15.6548 50.4079L-13.3312 55.9514C-14.0027 56.1398 -14.6752 56.3293 -15.3355 56.4834L-15.335 56.4844ZM-23.6627 56.9335L-25.9627 51.7099C-25.4309 51.7841 -24.8953 51.8276 -24.3586 51.8402L-22.1526 57.111C-22.6586 57.0774 -23.1626 57.0181 -23.6627 56.9335ZM-26.1868 56.1997L-28.4868 51.0702C-27.9645 51.2648 -27.4282 51.4193 -26.8827 51.5325L-24.6063 56.7204C-25.1477 56.595 -25.6767 56.4205 -26.1868 56.1992V56.1997ZM-30.7042 49.8857C-30.3446 50.1501 -29.9661 50.3876 -29.5719 50.5965L-27.3067 55.6188C-27.5958 55.4417 -27.8717 55.2437 -28.1322 55.0263L-30.7042 49.8857ZM-21.2802 57.1583L-23.4966 51.8517C-22.8007 51.84 -22.0929 51.7925 -21.3498 51.7096L-19.0971 57.0873C-19.8529 57.1468 -20.5843 57.1705 -21.2802 57.1583ZM-18.2724 56.9924L-20.5254 51.5912C-19.8176 51.4846 -19.1098 51.3425 -18.3903 51.1754L-16.1022 56.6358C-16.6212 56.7424 -17.14 56.8373 -17.6591 56.9083C-17.8715 56.9452 -18.0719 56.9687 -18.2724 56.9924ZM-3.09239 51.1656C-3.51693 51.4381 -3.9534 51.6989 -4.37793 51.9594L-6.79605 46.1199C-6.17082 45.717 -5.54559 45.3024 -4.93229 44.8761L-2.50248 50.7868C-2.70317 50.9162 -2.90363 51.0465 -3.09239 51.1656ZM3.24031 46.2492L0.764713 40.1018C1.44865 39.415 2.1092 38.7162 2.72249 38.0171L5.24681 44.224C4.62157 44.9108 3.94933 45.5861 3.24153 46.2492H3.24031ZM7.84029 40.9904L5.24681 34.7243C5.79316 33.9101 6.2972 33.0679 6.75691 32.2013L7.79499 34.7124L9.36355 38.5146C8.91491 39.3321 8.4078 40.1612 7.84151 40.9904H7.84029Z" fill="#16274D"/>
</g>
</g>
</g>
</g>
</g>
</g>
</g>
<path id="Rectangle 205739" d="M28.5543 13.6168C32.2334 13.2748 35.1663 10.3957 35.5763 6.72363C35.8985 10.3743 38.7875 13.271 42.4373 13.603L43.0295 13.6569L42.6525 13.6801C38.907 13.9109 35.8961 16.8511 35.5763 20.5901C35.1694 16.8295 32.114 13.9082 28.3389 13.6705L28.123 13.6569L28.5543 13.6168Z" fill="#16274D"/>
<path id="Rectangle 205740" d="M41.2847 3.48167C43.5131 3.27454 45.2896 1.53063 45.538 -0.693604C45.7331 1.51766 47.483 3.27223 49.6938 3.47332L50.0525 3.50595L49.8241 3.52002C47.5554 3.65983 45.7316 5.44076 45.538 7.7055C45.2915 5.42768 43.4408 3.65817 41.1542 3.51418L41.0234 3.50595L41.2847 3.48167Z" fill="#16274D"/>
</g>
<defs>
<clipPath id="clip0_4116_90612">
<rect width="54" height="55" fill="white"/>
</clipPath>
</defs>
</svg>
