<svg width="150" height="150" viewBox="0 0 150 150" fill="none" xmlns="http://www.w3.org/2000/svg">
<path d="M0.684804 0.684804H149.315V149.315H0.684804V0.684804Z" fill="white" stroke="#B7B9C0" stroke-width="1.36961"/>
<path d="M74.3752 138.934L137.721 75.0006L74.3752 11.0664L11.0293 75.0006L74.3752 138.934Z" stroke="#B7B9C0" stroke-width="2.95561" stroke-miterlimit="2.613"/>
<path d="M62.2304 86.1465V86.8313H62.9152H82.2337V98.7126H49.4301V51.7102H80.5676V63.59H62.9152H62.2304V64.2748V68.6918V69.3766H62.9152H77.2331V81.2564H62.9152H62.2304V81.9412V86.1465ZM43.2684 51.7102V98.7126H30.468V51.7102H43.2684Z" fill="#B7B9C0" stroke="#B7B9C0" stroke-width="1.36961"/>
<path d="M106.047 50.6594L106.048 50.6594C112.528 50.649 118.766 53.0833 123.523 57.4645L117.047 68.8552C114.578 65.4147 110.682 63.1696 106.047 63.1696C99.2276 63.1696 93.6942 68.5053 93.6942 75.2112C93.6942 81.9171 99.2276 87.2529 106.047 87.2529C106.405 87.2529 106.751 87.1966 107.03 87.1462V98.7257C106.688 98.7455 106.341 98.7965 105.925 98.9277C91.3671 99.4914 80.8938 88.6805 80.8938 75.212C80.8938 61.7219 92.0344 50.6594 106.047 50.6594Z" fill="#B7B9C0" stroke="#B7B9C0" stroke-width="1.36961"/>
<path d="M121.616 76.5257V98.7118H109.441V76.5257H121.616Z" fill="#B7B9C0" stroke="#B7B9C0" stroke-width="1.36961"/>
</svg>
