<svg width="151" height="150" viewBox="0 0 151 150" fill="none" xmlns="http://www.w3.org/2000/svg">
<path fill-rule="evenodd" clip-rule="evenodd" d="M0.5 0H150.5V150H0.5V0Z" fill="white"/>
<path fill-rule="evenodd" clip-rule="evenodd" d="M7.11719 77.5309C7.11719 80.4063 11.6034 82.0172 15.629 82.0172C20.0001 82.0172 23.796 79.3721 23.796 74.8859C23.796 67.7538 13.7894 68.3297 13.7894 65.9142C13.7894 64.8792 14.5948 64.5344 15.5146 64.5344C17.4702 64.5344 19.425 66.1445 20.6903 66.1445C22.186 66.1445 23.3354 64.9936 23.3354 63.3835C23.3354 60.0474 18.5044 58.8973 15.9737 58.8973C10.798 58.8973 7.69149 62.4629 7.69149 66.1437C7.69149 69.5942 9.41751 70.8595 12.7528 72.1249C16.3185 73.6205 17.699 73.7357 17.699 75.1162C17.699 75.6905 17.2391 76.3815 15.8585 76.3815C13.0975 76.3815 11.7178 74.5411 9.76224 74.5411C8.26735 74.5404 7.11719 75.8057 7.11719 77.5309ZM57.3833 58.8973C50.9415 58.8973 46.5704 63.9586 46.5704 70.3996C46.5704 76.8407 50.9415 82.0172 57.3833 82.0172C63.9395 82.0172 68.1954 76.8415 68.1954 70.3996C68.1954 63.9578 63.9395 58.8973 57.3833 58.8973ZM57.3833 64.9936C60.2587 64.9936 61.7544 67.5242 61.7544 70.3996C61.7544 73.3902 60.2595 75.8057 57.3833 75.8057C54.6231 75.8057 53.0123 73.3902 53.0123 70.3996C53.0123 67.5242 54.6223 64.9936 57.3833 64.9936ZM69.0001 78.3363C69.0001 80.1768 70.2654 81.5573 72.221 81.5573C74.0614 81.5573 75.3267 81.6716 75.3267 81.6716V68.0993C75.3267 65.9134 76.7065 64.3033 78.8924 64.3033C81.1935 64.3033 82.458 65.9134 82.458 68.0993V78.3363C82.458 80.1768 83.7241 81.5573 85.6789 81.5573C87.5194 81.5573 88.8999 81.6716 88.8999 81.6716V66.3733C88.8999 61.1968 85.3342 58.8965 80.8487 58.8965C78.087 58.8965 76.3617 59.7019 75.3267 61.312C75.0811 60.6919 74.6522 60.1616 74.0973 59.7916C73.5424 59.4216 72.8878 59.2296 72.221 59.2412H69.0001V78.3363ZM89.7053 77.5309C89.7053 80.4063 94.1907 82.0172 98.2171 82.0172C102.588 82.0172 106.383 79.3721 106.383 74.8859C106.383 67.7538 96.3767 68.3297 96.3767 65.9142C96.3767 64.8792 97.1821 64.5344 98.1035 64.5344C100.058 64.5344 101.899 66.1445 103.163 66.1445C104.774 66.1445 105.925 64.9936 105.925 63.3835C105.925 60.0474 101.093 58.8973 98.449 58.8973C93.3877 58.8973 90.2811 62.4629 90.2811 66.1437C90.2811 69.5942 92.0079 70.8595 95.3425 72.1249C98.9081 73.6205 100.289 73.7357 100.289 75.1162C100.289 75.6905 99.7135 76.3815 98.449 76.3815C95.6872 76.3815 94.3075 74.5411 92.2375 74.5411C90.8554 74.5404 89.7053 75.8057 89.7053 77.5309ZM117.427 58.8973C110.986 58.8973 106.614 63.9586 106.614 70.3996C106.614 76.8407 110.985 82.0172 117.427 82.0172C123.984 82.0172 128.239 76.8415 128.239 70.3996C128.239 63.9578 123.984 58.8973 117.427 58.8973ZM117.427 64.9936C120.302 64.9936 121.798 67.5242 121.798 70.3996C121.798 73.3902 120.302 75.8057 117.427 75.8057C114.551 75.8057 113.056 73.3902 113.056 70.3996C113.056 67.5242 114.551 64.9936 117.427 64.9936ZM128.929 78.3363C128.929 80.1768 130.309 81.5573 132.15 81.5573C134.105 81.5573 135.371 81.6716 135.371 81.6716V62.5781C135.371 60.7377 134.105 59.242 132.15 59.242H128.929V78.3363ZM23.6809 87.308C23.6809 89.494 25.4061 91.104 27.4769 91.104C29.5476 91.104 31.2729 89.494 31.2729 87.308C31.2729 85.2373 29.5476 83.5121 27.4769 83.5121C25.4061 83.5121 23.6809 85.2373 23.6809 87.308ZM136.29 63.038C136.29 65.2239 138.015 66.834 140.087 66.834C142.157 66.834 143.882 65.2239 143.882 63.038C143.882 60.9672 142.157 59.242 140.087 59.242C138.015 59.242 136.29 60.9672 136.29 63.038ZM24.4855 59.242H27.7064C29.3165 59.242 30.2371 60.277 30.697 61.3128C32.1927 59.5875 33.8027 58.8973 36.2182 58.8973C41.8546 58.8973 46.1098 63.9586 46.1098 70.3996C46.1098 76.8407 41.8539 82.0172 36.2182 82.0172C33.8027 82.0172 32.1927 81.3269 30.697 79.6017C30.2371 80.5223 29.3173 81.5573 27.7064 81.5573C25.866 81.5573 24.4855 80.1775 24.4855 78.3363V59.242ZM30.9273 70.3996C30.9273 73.3902 32.5374 75.8057 35.2984 75.8057C38.1738 75.8057 39.7847 73.3902 39.7847 70.3996C39.7847 67.4091 38.1746 64.9936 35.2984 64.9936C32.5374 64.9936 30.9273 67.4091 30.9273 70.3996ZM40.4749 88.343C40.3597 89.0333 40.2446 89.8387 40.2446 90.0683C40.2446 90.413 40.4749 90.7593 40.9348 90.7593H41.6251L42.3153 86.8481L43.3511 90.069C43.4655 90.5297 43.6958 90.7601 44.1557 90.7601H44.7308L45.9961 86.8489L46.456 89.7243C46.5704 90.2994 46.6856 90.7601 47.3759 90.7601H48.1813C48.1813 90.7601 47.9517 89.0341 47.8365 88.3446L47.1463 85.0085C47.0311 84.2039 46.5712 83.9735 46.2265 83.9735H45.4211L44.1557 87.8847L43.3511 85.5844C43.0056 84.4334 42.8904 83.9735 42.0857 83.9735H41.2803L40.4749 88.343ZM71.7611 86.733V87.4232C71.7611 87.8839 72.1058 88.1135 72.5665 88.1135H73.3712C73.3712 88.9189 72.7961 89.494 71.9914 89.494C70.8413 89.494 70.2662 88.343 70.2662 87.4232C70.2662 86.2731 70.9565 85.3532 71.9914 85.3532C73.0264 85.3532 73.2568 86.0435 73.8318 86.0435C74.2918 86.0435 74.5221 85.6988 74.5221 85.3532C74.5221 84.4327 73.1416 83.8576 71.9914 83.8576C70.0359 83.8576 68.6554 85.3532 68.6554 87.4232C68.6554 89.2636 69.8055 90.8745 71.9914 90.8745C73.8318 90.8745 74.982 89.4948 74.982 87.6536C74.982 87.0785 74.6365 86.733 74.1766 86.733H71.7611ZM97.4124 89.2636L99.8279 86.0427C100.173 85.4676 100.518 85.1221 100.518 84.7774C100.518 84.547 100.403 84.0871 99.5968 84.0871H95.572V84.7774C95.572 85.1221 95.8016 85.3525 96.3759 85.3525H98.5618L95.6864 89.1477C95.5728 89.4932 95.4569 89.6084 95.4569 89.8387C95.4569 90.2986 95.6864 90.6434 96.4918 90.6434H100.633V89.9531C100.633 89.6084 100.402 89.2629 99.8279 89.2629L97.4124 89.2636ZM109.605 84.7774C109.605 84.3167 109.26 83.972 108.913 83.972H108.109V89.9539C108.109 90.529 108.454 90.7593 108.913 90.7593H109.605V84.7774ZM117.54 89.9539C117.54 90.529 117.885 90.7593 118.346 90.7593H119.036V86.8481L121.567 89.9539C122.142 90.529 122.257 90.7593 122.602 90.7593H123.407V84.7774C123.41 84.6709 123.391 84.565 123.351 84.466C123.312 84.3671 123.252 84.2773 123.177 84.2019C123.102 84.1266 123.012 84.0674 122.913 84.0278C122.814 83.9883 122.708 83.9693 122.602 83.972H121.911V87.9983L119.381 84.7774C118.806 84.2023 118.69 83.972 118.346 83.972H117.54V89.9539ZM131.344 89.9539C131.344 90.4138 131.689 90.6441 132.035 90.6441H135.256V89.9539C135.256 89.6091 134.911 89.2636 134.45 89.2636H132.841V87.9983H135.027V87.308C135.027 86.9633 134.796 86.6178 134.221 86.6178H132.842V85.4669H135.141V84.7766C135.141 84.3159 134.912 84.0864 134.451 84.0864H131.345L131.344 89.9539ZM55.6573 89.1485C55.4277 89.7235 55.4277 89.9539 55.4277 90.1842C55.4277 90.529 55.6573 90.7593 56.118 90.7593H56.6931L57.153 89.3788H59.5685L59.798 89.9539C59.9132 90.4138 60.0276 90.7593 60.6035 90.7593H61.5233L59.5685 85.2373C59.3381 84.547 59.1086 83.8576 58.3031 83.8576C57.6129 83.8576 57.6129 83.972 57.6129 83.972L55.6573 89.1485ZM59.1086 87.9983H57.4985L58.4183 85.5828L59.1086 87.9983ZM82.6876 89.1485C82.458 89.7235 82.458 89.9539 82.458 90.1842C82.458 90.529 82.6876 90.7593 83.1483 90.7593H83.7241L84.1833 89.3788H86.5995L86.8291 89.9539C86.9443 90.4138 87.0587 90.7593 87.6345 90.7593H88.5543L86.5995 85.2373C86.3684 84.547 86.1389 83.8576 85.3334 83.8576C84.6432 83.8576 84.6432 83.972 84.6432 83.972L82.6876 89.1485ZM86.1396 87.9983H84.5288L85.4502 85.5828L86.1396 87.9983Z" fill="#B7B9C0"/>
</svg>
