<svg width="150" height="73" viewBox="0 0 150 73" fill="none" xmlns="http://www.w3.org/2000/svg">
<path fill-rule="evenodd" clip-rule="evenodd" d="M4.13477 4.13452H14.0722V14.0719H4.13477V4.13452Z" fill="#B7B9C0"/>
<path fill-rule="evenodd" clip-rule="evenodd" d="M22.5957 4.13452H32.5331V14.0719H22.5957V4.13452Z" fill="#B7B9C0"/>
<path fill-rule="evenodd" clip-rule="evenodd" d="M4.13477 22.5952H14.0722V32.5326H4.13477V22.5952Z" fill="#B7B9C0"/>
<path fill-rule="evenodd" clip-rule="evenodd" d="M22.8927 68.6339H23.7115V64.1304H22.8927V68.6339ZM23.7859 62.1951H22.8555V63.1255H23.7859V62.1951Z" fill="#B7B9C0"/>
<path fill-rule="evenodd" clip-rule="evenodd" d="M25.2383 68.6344H26.0571V66.5502C26.0571 65.4708 26.5037 64.6892 27.4342 64.6892C28.1413 64.7637 28.3647 65.2475 28.3647 66.2896V68.6344H29.1835V65.9547C29.1835 64.7637 28.6996 64.0193 27.5086 64.0193C26.9131 64.0193 26.3176 64.3543 26.0571 64.8381H26.0199V64.1309H25.2383V68.6344Z" fill="#B7B9C0"/>
<path fill-rule="evenodd" clip-rule="evenodd" d="M36.2172 68.6344H36.9988V62.0466H36.18V64.7636C35.9195 64.3542 35.4728 64.0192 34.6912 64.0192C33.3886 64.0192 32.7559 65.0986 32.7559 66.2896C32.7559 67.5178 33.3141 68.746 34.654 68.746C35.4728 68.746 35.9939 68.3366 36.18 68.0016H36.2172V68.6344ZM33.6119 66.364C33.6119 65.5452 33.9469 64.6892 34.8401 64.6892C35.7334 64.6892 36.18 65.5452 36.18 66.4012C36.18 67.1456 35.8078 68.0761 34.8773 68.0761C33.9841 68.0761 33.6119 67.0712 33.6119 66.364Z" fill="#B7B9C0"/>
<path fill-rule="evenodd" clip-rule="evenodd" d="M41.8371 67.6295C41.651 67.7784 41.0183 68.0761 40.46 68.0761C39.6784 68.0761 38.9713 67.4434 38.9713 66.5502H42.1721C42.1721 65.1359 41.6882 64.0193 40.1995 64.0193C38.934 64.0193 38.1152 64.987 38.1152 66.2896C38.1152 67.7784 38.8224 68.7461 40.4228 68.7461C41.1672 68.7461 41.5394 68.56 41.8371 68.4483V67.6295ZM38.9713 65.9547C39.0457 65.3592 39.3807 64.6892 40.1995 64.6892C40.9066 64.6892 41.316 65.2475 41.316 65.9547H38.9713Z" fill="#B7B9C0"/>
<path fill-rule="evenodd" clip-rule="evenodd" d="M43.2891 68.6344H44.1079V66.5874C44.1079 65.4708 44.5917 64.7637 45.3361 64.7637C45.485 64.7637 45.6338 64.7637 45.7827 64.8381V64.0937C45.6338 64.0565 45.485 64.0193 45.2617 64.0193C44.7778 64.0193 44.294 64.3543 44.0707 64.8381V64.1309H43.2891V68.6344Z" fill="#B7B9C0"/>
<path fill-rule="evenodd" clip-rule="evenodd" d="M52.1463 62.6059C51.6997 62.457 51.2159 62.3826 50.8437 62.3826C49.7271 62.3826 48.8711 62.9781 48.8711 64.0574C48.8711 65.9556 51.5136 65.5834 51.5136 66.9605C51.5136 67.6676 50.8065 67.9654 50.2854 67.9654C49.8388 67.9654 49.3177 67.7793 49.02 67.6676L48.9455 68.4864C49.3177 68.5981 49.7643 68.747 50.1738 68.747C51.402 68.747 52.4441 68.2259 52.4441 66.886C52.4441 64.8762 49.8016 65.1368 49.8016 63.983C49.8016 63.3503 50.3598 63.1642 50.8809 63.1642C51.3275 63.1642 51.5508 63.2386 51.9975 63.4247L52.1463 62.6059Z" fill="#B7B9C0"/>
<path fill-rule="evenodd" clip-rule="evenodd" d="M56.4647 64.2054C56.2414 64.1309 55.7948 64.0193 55.4598 64.0193C54.0827 64.0193 53.1895 65.0242 53.1895 66.3641C53.1895 67.6667 54.1199 68.7461 55.4598 68.7461C55.7575 68.7461 56.167 68.7089 56.5019 68.56L56.4275 67.8156C56.167 67.9645 55.832 68.0761 55.5342 68.0761C54.4921 68.0761 54.0455 67.1829 54.0455 66.3641C54.0455 65.5453 54.5665 64.6892 55.497 64.6892C55.7575 64.6892 56.0925 64.7637 56.3903 64.9125L56.4647 64.2054Z" fill="#B7B9C0"/>
<path fill-rule="evenodd" clip-rule="evenodd" d="M57.4316 68.6344H58.2877V66.5501C58.2877 65.4708 58.6971 64.6892 59.6275 64.6892C60.3347 64.7636 60.5952 65.2474 60.5952 66.2896V68.6344H61.414V65.9546C61.414 64.7636 60.893 64.0192 59.7392 64.0192C59.1065 64.0192 58.5854 64.317 58.2877 64.8008V62.0466H57.4316V68.6344Z" fill="#B7B9C0"/>
<path fill-rule="evenodd" clip-rule="evenodd" d="M69.3051 64.1306H68.5235L67.4069 67.8525L66.2904 64.1306H65.3227L64.1689 67.8525H64.1317L63.1268 64.1306H62.1963L63.6478 68.6341H64.6155L65.7321 64.875H65.7693L66.9231 68.6341H67.8908L69.3051 64.1306Z" fill="#B7B9C0"/>
<path fill-rule="evenodd" clip-rule="evenodd" d="M73.548 67.6295C73.362 67.7784 72.7292 68.0761 72.171 68.0761C71.3894 68.0761 70.7194 67.4434 70.7194 66.5502H73.9202C73.9202 65.1359 73.4364 64.0193 71.9104 64.0193C70.645 64.0193 69.8262 64.987 69.8262 66.2896C69.8262 67.7784 70.5705 68.7461 72.1337 68.7461C72.8781 68.7461 73.2503 68.56 73.548 68.4483V67.6295ZM70.7194 65.9547C70.7566 65.3592 71.0916 64.6892 71.9104 64.6892C72.6176 64.6892 73.027 65.2475 73.027 65.9547H70.7194Z" fill="#B7B9C0"/>
<path fill-rule="evenodd" clip-rule="evenodd" d="M75.1114 68.6339H75.9303V64.1304H75.1114V68.6339ZM76.0047 62.1951H75.0742V63.1255H76.0047V62.1951Z" fill="#B7B9C0"/>
<path fill-rule="evenodd" clip-rule="evenodd" d="M77.1211 68.6341H80.7685V67.9642H78.0888L80.6569 64.875V64.1306H77.2328V64.8006H79.7264L77.1211 67.8897V68.6341Z" fill="#B7B9C0"/>
<path fill-rule="evenodd" clip-rule="evenodd" d="M22.8184 57.2463H23.7116V54.4549H25.982V53.6733H23.7116V51.8868H26.0936V51.1052H22.8184V57.2463Z" fill="#B7B9C0"/>
<path fill-rule="evenodd" clip-rule="evenodd" d="M27.1729 57.2455H28.0289V55.1985C28.0289 54.0819 28.5127 53.3748 29.2199 53.3748C29.3688 53.3748 29.5549 53.412 29.7037 53.4492V52.742C29.5176 52.7048 29.406 52.6676 29.1454 52.6676C28.6616 52.6676 28.215 53.0026 27.9917 53.4492H27.9544V52.7793H27.1729V57.2455Z" fill="#B7B9C0"/>
<path fill-rule="evenodd" clip-rule="evenodd" d="M34.0589 56.2406C33.8356 56.3895 33.2029 56.6872 32.6446 56.6872C31.863 56.6872 31.1931 56.0917 31.1931 55.1985H34.3939C34.3939 53.7469 33.91 52.6676 32.4213 52.6676C31.1558 52.6676 30.2998 53.5981 30.2998 54.9379C30.2998 56.3895 31.0442 57.3572 32.6446 57.3572C33.3517 57.3572 33.7239 57.1711 34.0589 57.0594V56.2406ZM31.1931 54.5658C31.2303 54.0075 31.5652 53.3375 32.3841 53.3375C33.0912 53.3375 33.5006 53.8958 33.5006 54.5658H31.1931Z" fill="#B7B9C0"/>
<path fill-rule="evenodd" clip-rule="evenodd" d="M35.5841 57.2451H36.4401V52.7789H35.5841V57.2451ZM36.4773 50.8435H35.5469V51.774H36.4773V50.8435Z" fill="#B7B9C0"/>
<path fill-rule="evenodd" clip-rule="evenodd" d="M41.3537 56.2406C41.1676 56.3895 40.5349 56.6872 39.9766 56.6872C39.195 56.6872 38.5251 56.0917 38.5251 55.1985H41.7259C41.7259 53.7469 41.2421 52.6676 39.7161 52.6676C38.4506 52.6676 37.6318 53.5981 37.6318 54.9379C37.6318 56.3895 38.3762 57.3572 39.9394 57.3572C40.6838 57.3572 41.056 57.1711 41.3537 57.0594V56.2406ZM38.5251 54.5658C38.5623 54.0075 38.8973 53.3375 39.7161 53.3375C40.4232 53.3375 40.8326 53.8958 40.8326 54.5658H38.5251Z" fill="#B7B9C0"/>
<path fill-rule="evenodd" clip-rule="evenodd" d="M45.373 57.2463H48.8344V56.4647H46.2663V54.4549H48.5739V53.6733H46.2663V51.8868H48.8344V51.1052H45.373V57.2463Z" fill="#B7B9C0"/>
<path fill-rule="evenodd" clip-rule="evenodd" d="M53.7467 52.7791H52.9279L51.6625 56.4265L50.4343 52.7791H49.541L51.1414 57.2453H52.1463L53.7467 52.7791Z" fill="#B7B9C0"/>
<path fill-rule="evenodd" clip-rule="evenodd" d="M54.7897 53.7842C55.1247 53.5236 55.6085 53.3375 56.0924 53.3375C56.9112 53.3375 57.2089 53.7097 57.2089 54.4913C56.874 54.4913 56.6507 54.4913 56.3157 54.4913C55.4597 54.4913 54.2314 54.8263 54.2314 55.9429C54.2314 56.9478 54.9014 57.3572 55.8691 57.3572C56.6507 57.3572 57.0601 56.9478 57.2834 56.6872V57.2455H58.065C58.0278 57.1339 58.0278 56.8733 58.0278 56.3895V54.5285C58.0278 53.3003 57.5067 52.6676 56.2413 52.6676C55.6458 52.6676 55.1619 52.8537 54.7525 53.077L54.7897 53.7842ZM57.2089 55.4962C57.2089 56.1662 56.7623 56.6872 55.9435 56.6872C55.5713 56.6872 55.1247 56.4267 55.1247 55.9429C55.1247 55.1613 56.2413 55.0868 56.6879 55.0868C56.8368 55.0868 57.0229 55.124 57.2089 55.124V55.4962Z" fill="#B7B9C0"/>
<path fill-rule="evenodd" clip-rule="evenodd" d="M59.4043 57.2455H60.2603V55.1613C60.2603 54.0819 60.6697 53.3375 61.6002 53.3375C62.3446 53.3748 62.5679 53.8958 62.5679 54.9379V57.2455H63.3867V54.603C63.3867 53.3748 62.8656 52.6676 61.7119 52.6676C61.0791 52.6676 60.4836 52.9654 60.2231 53.4864V52.7793H59.4043V57.2455Z" fill="#B7B9C0"/>
<path fill-rule="evenodd" clip-rule="evenodd" d="M68.7468 52.7793H68.0025V53.4492H67.9653C67.7047 52.9654 67.2953 52.6676 66.4765 52.6676C65.1366 52.6676 64.5039 53.8958 64.5039 55.0496C64.5039 56.2034 65.1366 57.2455 66.4021 57.2455C66.9603 57.2455 67.5558 57.0222 67.8908 56.5384H67.928V56.985C67.928 57.9527 67.407 58.5482 66.5509 58.5482C65.9182 58.5482 65.546 58.4365 64.9133 58.1388L64.8389 58.8831C65.546 59.1437 65.9554 59.2181 66.4393 59.2181C68.0397 59.2181 68.7468 58.4365 68.7468 57.0594V52.7793ZM66.6254 56.5756C65.8438 56.5756 65.3599 55.8312 65.3599 55.0124C65.3599 54.2308 65.7693 53.3375 66.6254 53.3375C67.4814 53.3375 67.928 54.1191 67.928 55.0496C67.928 55.9056 67.407 56.5756 66.6254 56.5756Z" fill="#B7B9C0"/>
<path fill-rule="evenodd" clip-rule="evenodd" d="M73.5852 56.2406C73.3991 56.3895 72.7663 56.6872 72.2081 56.6872C71.4265 56.6872 70.7193 56.0917 70.7193 55.1985H73.9201C73.9201 53.7469 73.4363 52.6676 71.9475 52.6676C70.6821 52.6676 69.8633 53.5981 69.8633 54.9379C69.8633 56.3895 70.5704 57.3572 72.1708 57.3572C72.9152 57.3572 73.2874 57.1711 73.5852 57.0594V56.2406ZM70.7193 54.5658C70.7938 54.0075 71.1287 53.3375 71.9475 53.3375C72.6547 53.3375 73.0641 53.8958 73.0641 54.5658H70.7193Z" fill="#B7B9C0"/>
<path fill-rule="evenodd" clip-rule="evenodd" d="M75.1484 57.2457H75.9673V50.658H75.1484V57.2457Z" fill="#B7B9C0"/>
<path fill-rule="evenodd" clip-rule="evenodd" d="M77.5675 57.2451H78.4235V52.7789H77.5675V57.2451ZM78.4607 50.8435H77.5303V51.774H78.4607V50.8435Z" fill="#B7B9C0"/>
<path fill-rule="evenodd" clip-rule="evenodd" d="M79.5401 57.0966C79.9123 57.32 80.359 57.3572 80.7684 57.3572C81.5872 57.3572 82.3316 56.9105 82.3316 55.9429C82.3316 54.5285 80.3962 54.7891 80.3962 53.8586C80.3962 53.5236 80.7684 53.3375 81.1778 53.3375C81.3639 53.3375 81.8849 53.4492 82.071 53.5609L82.1082 52.8537C81.8105 52.742 81.4755 52.6676 81.1033 52.6676C80.2101 52.6676 79.5029 53.1142 79.5029 54.0447C79.5029 55.3101 81.4755 55.2357 81.4755 56.0545C81.4755 56.5384 80.9917 56.6872 80.6195 56.6872C80.359 56.6872 79.9123 56.5756 79.5774 56.3895L79.5401 57.0966Z" fill="#B7B9C0"/>
<path fill-rule="evenodd" clip-rule="evenodd" d="M86.2391 52.8537C86.0158 52.742 85.5692 52.6676 85.2342 52.6676C83.8943 52.6676 82.9639 53.6353 82.9639 55.0124C82.9639 56.2778 83.8943 57.3572 85.2342 57.3572C85.532 57.3572 85.9414 57.32 86.2763 57.1711L86.2391 56.4267C85.9786 56.6128 85.6064 56.6872 85.3459 56.6872C84.2665 56.6872 83.8571 55.794 83.8571 55.0124C83.8571 54.1564 84.3782 53.3375 85.2714 53.3375C85.532 53.3375 85.8669 53.3748 86.1647 53.5236L86.2391 52.8537Z" fill="#B7B9C0"/>
<path fill-rule="evenodd" clip-rule="evenodd" d="M87.2441 57.2457H88.063V55.1614C88.063 54.0821 88.4724 53.3377 89.44 53.3377C90.1472 53.3749 90.3705 53.896 90.3705 54.9381V57.2457H91.1893V54.6032C91.1893 53.3749 90.6683 52.6678 89.5145 52.6678C88.8818 52.6678 88.3607 52.9283 88.063 53.4121V50.658H87.2441V57.2457Z" fill="#B7B9C0"/>
<path fill-rule="evenodd" clip-rule="evenodd" d="M96.0275 56.2406C95.8414 56.3895 95.2087 56.6872 94.6504 56.6872C93.8689 56.6872 93.1617 56.0917 93.1617 55.1985H96.3625C96.3625 53.7469 95.8787 52.6676 94.3899 52.6676C93.1245 52.6676 92.3057 53.5981 92.3057 54.9379C92.3057 56.3895 93.0128 57.3572 94.6132 57.3572C95.3576 57.3572 95.7298 57.1711 96.0275 57.0594V56.2406ZM93.1617 54.5658C93.2361 54.0075 93.5711 53.3375 94.3899 53.3375C95.0971 53.3375 95.5065 53.8958 95.5065 54.5658H93.1617Z" fill="#B7B9C0"/>
<path fill-rule="evenodd" clip-rule="evenodd" d="M104.738 51.3289C104.216 51.1428 103.844 50.9939 102.914 50.9939C101.053 50.9939 99.6758 52.2593 99.6758 54.1575C99.6758 56.0929 100.978 57.3583 102.914 57.3583C103.882 57.3583 104.477 57.2094 104.812 57.0978V53.897H102.616V54.6041H103.919V56.4651C103.695 56.5395 103.547 56.5767 102.914 56.5767C101.648 56.5767 100.606 55.609 100.606 54.1947C100.606 52.8176 101.574 51.7755 102.988 51.7755C103.77 51.7755 104.216 51.9244 104.663 52.2221L104.738 51.3289Z" fill="#B7B9C0"/>
<path fill-rule="evenodd" clip-rule="evenodd" d="M109.724 56.2406C109.501 56.3895 108.868 56.6872 108.31 56.6872C107.528 56.6872 106.858 56.0917 106.858 55.1985H110.059C110.059 53.7469 109.575 52.6676 108.086 52.6676C106.821 52.6676 105.965 53.5981 105.965 54.9379C105.965 56.3895 106.709 57.3572 108.31 57.3572C109.017 57.3572 109.389 57.1711 109.724 57.0594V56.2406ZM106.858 54.5658C106.895 54.0075 107.23 53.3375 108.049 53.3375C108.756 53.3375 109.166 53.8958 109.166 54.5658H106.858Z" fill="#B7B9C0"/>
<path fill-rule="evenodd" clip-rule="evenodd" d="M111.139 57.2455H111.957V54.9752C111.957 54.1564 112.292 53.3375 113.148 53.3375C113.818 53.3375 113.967 54.0075 113.967 54.5658V57.2455H114.786V54.9752C114.786 54.1564 115.121 53.3375 115.94 53.3375C116.61 53.3375 116.759 54.0075 116.759 54.5658V57.2455H117.578V54.3797C117.578 53.412 117.168 52.6676 116.014 52.6676C115.605 52.6676 114.935 52.8909 114.637 53.5236C114.414 52.9281 113.893 52.6676 113.372 52.6676C112.702 52.6676 112.255 52.8909 111.92 53.412V52.7793H111.139V57.2455Z" fill="#B7B9C0"/>
<path fill-rule="evenodd" clip-rule="evenodd" d="M122.416 56.2406C122.193 56.3895 121.56 56.6872 121.039 56.6872C120.258 56.6872 119.55 56.0917 119.55 55.1985H122.751C122.751 53.7469 122.267 52.6676 120.779 52.6676C119.513 52.6676 118.657 53.5981 118.657 54.9379C118.657 56.3895 119.402 57.3572 121.002 57.3572C121.709 57.3572 122.081 57.1711 122.416 57.0594V56.2406ZM119.55 54.5658C119.625 54.0075 119.923 53.3375 120.741 53.3375C121.449 53.3375 121.858 53.8958 121.858 54.5658H119.55Z" fill="#B7B9C0"/>
<path fill-rule="evenodd" clip-rule="evenodd" d="M123.942 57.2451H124.798V52.7789H123.942V57.2451ZM124.835 50.8435H123.904V51.774H124.835V50.8435Z" fill="#B7B9C0"/>
<path fill-rule="evenodd" clip-rule="evenodd" d="M126.287 57.2455H127.106V55.1613C127.106 54.0819 127.553 53.3375 128.483 53.3375C129.19 53.3748 129.413 53.8958 129.413 54.9379V57.2455H130.27V54.603C130.27 53.3748 129.748 52.6676 128.595 52.6676C127.962 52.6676 127.366 52.9654 127.106 53.4864V52.7793H126.287V57.2455Z" fill="#B7B9C0"/>
<path fill-rule="evenodd" clip-rule="evenodd" d="M134.847 57.2457H135.629V50.658H134.81V53.3749H134.773C134.512 52.9655 134.066 52.6678 133.284 52.6678C131.981 52.6678 131.349 53.7099 131.349 54.9381C131.349 56.1663 131.944 57.3573 133.284 57.3573C134.066 57.3573 134.587 56.9479 134.81 56.613H134.847V57.2457ZM132.242 54.9753C132.205 54.1565 132.577 53.3377 133.47 53.3377C134.363 53.3377 134.81 54.1937 134.81 55.0126C134.81 55.7569 134.401 56.6874 133.47 56.6874C132.577 56.6874 132.205 55.6825 132.242 54.9753Z" fill="#B7B9C0"/>
<path fill-rule="evenodd" clip-rule="evenodd" d="M140.467 56.2406C140.244 56.3895 139.611 56.6872 139.09 56.6872C138.308 56.6872 137.601 56.0917 137.601 55.1985H140.802C140.802 53.7469 140.318 52.6676 138.829 52.6676C137.564 52.6676 136.708 53.5981 136.708 54.9379C136.708 56.3895 137.452 57.3572 139.053 57.3572C139.797 57.3572 140.132 57.1711 140.467 57.0594V56.2406ZM137.601 54.5658C137.676 54.0075 138.011 53.3375 138.792 53.3375C139.537 53.3375 139.909 53.8958 139.909 54.5658H137.601Z" fill="#B7B9C0"/>
<path fill-rule="evenodd" clip-rule="evenodd" d="M141.919 57.2455H142.738V55.1613C142.738 54.0819 143.147 53.3375 144.078 53.3375C144.822 53.3748 145.045 53.8958 145.045 54.9379V57.2455H145.864V54.603C145.864 53.3748 145.343 52.6676 144.189 52.6676C143.557 52.6676 142.961 52.9654 142.738 53.4864H142.701V52.7793H141.919V57.2455Z" fill="#B7B9C0"/>
<path fill-rule="evenodd" clip-rule="evenodd" d="M22.7441 42.47H28.0292V34.4308H35.6591V30.6717H28.0292V26.3543H35.994V22.5952H22.7441V42.47Z" fill="#B7B9C0"/>
<path fill-rule="evenodd" clip-rule="evenodd" d="M39.1201 42.47H53.4121V38.711H44.4052V34.2075H52.5933V30.4484H44.4052V26.3543H53.0772V22.5952H39.1201V42.47Z" fill="#B7B9C0"/>
<path fill-rule="evenodd" clip-rule="evenodd" d="M74.3666 30.8571H66.1412V34.6162H69.2676V38.5241C68.7837 38.7474 68.0766 38.8591 67.3694 38.8591C63.4987 38.8591 60.7445 36.5143 60.7445 32.6063C60.7445 27.9912 64.2803 26.2047 68.5604 26.2047C69.8259 26.2047 71.7612 26.5025 73.3989 27.4702L73.8455 23.1528C71.9101 22.4084 69.1559 22.2595 67.8161 22.2595C60.5584 22.2595 55.3105 25.1254 55.3105 32.6063C55.3105 40.1245 61.4144 42.8043 66.6995 42.8043C68.5232 42.8043 71.0169 42.7299 74.3666 41.8738V30.8571Z" fill="#B7B9C0"/>
</svg>
