<svg width="150" height="64" viewBox="0 0 150 64" fill="none" xmlns="http://www.w3.org/2000/svg">
<path d="M58.3308 25.4533C58.4829 25.6729 58.7184 25.7628 59.0451 25.7271C59.7701 25.6451 60.3813 25.2932 60.8814 24.6714C61.3788 24.051 61.7915 23.3803 62.1156 22.6606C62.3008 22.2875 62.4517 21.929 62.5628 21.5864C62.6766 21.2451 62.7811 20.9382 62.8776 20.6683C63.0959 19.9156 63.2507 19.262 63.3407 18.7117C63.428 18.1601 63.4518 17.697 63.4121 17.3253C63.3803 17.0475 63.3102 16.8318 63.2057 16.6784C63.0999 16.5263 62.8723 16.468 62.5231 16.5077C62.3974 16.5223 62.2731 16.5487 62.1514 16.5858C62.0296 16.6228 61.9079 16.6718 61.7889 16.7326C61.3351 16.9721 60.8972 17.3504 60.4752 17.8677C60.0532 18.3849 59.6828 18.9326 59.3693 19.5094C59.1364 19.9129 58.9327 20.3071 58.762 20.6921C58.5914 21.0758 58.4684 21.4012 58.3969 21.6671C58.3797 21.7399 58.3493 21.8602 58.3056 22.0309C58.2607 22.1989 58.2249 22.3921 58.2011 22.6064C58.1694 22.7757 58.1376 22.949 58.1072 23.1302C58.0781 23.3102 58.0583 23.494 58.0569 23.6819C58.0212 23.8274 58.0053 23.9822 58.0133 24.1462C58.0186 24.3103 58.0292 24.4624 58.045 24.6026C58.0847 24.9519 58.18 25.235 58.3308 25.4533ZM98.6334 25.3223C98.7815 25.5234 99.017 25.6054 99.3385 25.5697C100.054 25.4903 100.661 25.1596 101.158 24.5815C101.654 24.0034 102.066 23.3803 102.392 22.7122C102.58 22.3656 102.728 22.0335 102.844 21.716C102.958 21.3985 103.061 21.1141 103.158 20.8641C103.379 20.1656 103.536 19.561 103.629 19.0504C103.721 18.5397 103.749 18.1111 103.711 17.7671C103.683 17.5092 103.617 17.3094 103.512 17.1705C103.408 17.0303 103.184 16.9787 102.839 17.0184C102.713 17.0316 102.59 17.0567 102.471 17.0911C102.351 17.1269 102.229 17.1745 102.113 17.23C101.662 17.4536 101.228 17.8082 100.808 18.291C100.386 18.7726 100.017 19.2832 99.7036 19.819C99.4695 20.1947 99.2657 20.5598 99.0964 20.917C98.9218 21.2729 98.7987 21.5758 98.7286 21.8219C98.7088 21.8894 98.6797 22.0018 98.636 22.1592C98.5897 22.3167 98.554 22.4952 98.5275 22.6924C98.4958 22.8485 98.4627 23.0112 98.4323 23.1765C98.4032 23.3432 98.3807 23.5139 98.3767 23.6885C98.3423 23.8235 98.3265 23.965 98.3304 24.1171C98.3357 24.2693 98.3476 24.4095 98.3609 24.5378C98.3939 24.8606 98.4839 25.1212 98.6334 25.3223ZM109.647 30.1496C109.582 30.0623 109.443 30.0306 109.23 30.0544C109.151 30.0636 109.075 30.0795 109.001 30.1007C108.926 30.1232 108.853 30.1523 108.777 30.1867C108.497 30.3269 108.226 30.5465 107.964 30.8481C107.703 31.1471 107.473 31.4646 107.279 31.7993C107.132 32.0321 107.007 32.2584 106.9 32.4806C106.794 32.7042 106.716 32.892 106.671 33.0455C106.661 33.0878 106.641 33.1579 106.613 33.2545C106.585 33.3524 106.563 33.4635 106.544 33.5866C106.523 33.6831 106.506 33.7837 106.486 33.8895C106.465 33.9927 106.454 34.0985 106.452 34.2057C106.429 34.289 106.42 34.3803 106.424 34.4742C106.425 34.5668 106.432 34.6568 106.44 34.7349C106.465 34.9346 106.523 35.0973 106.615 35.223C106.704 35.3487 106.851 35.4003 107.051 35.3751C107.498 35.3262 107.875 35.1211 108.184 34.7613C108.492 34.4015 108.75 34.0139 108.951 33.5985C109.067 33.3842 109.158 33.1765 109.231 32.978C109.304 32.7796 109.369 32.6036 109.428 32.4475C109.565 32.0123 109.661 31.6366 109.719 31.3178C109.778 30.9989 109.795 30.7344 109.771 30.52C109.752 30.36 109.713 30.2356 109.647 30.1496ZM85.2111 30.1536C85.1396 30.065 84.9888 30.0319 84.7507 30.0597C84.6674 30.0689 84.5827 30.0848 84.5007 30.1086C84.4173 30.1338 84.3366 30.1642 84.2546 30.1999C83.9437 30.3481 83.6461 30.5783 83.3577 30.8918C83.0666 31.204 82.8126 31.536 82.5944 31.884C82.4356 32.1274 82.2941 32.3629 82.175 32.5957C82.0573 32.8259 81.9726 33.0217 81.9223 33.1817C81.9091 33.2254 81.8892 33.2982 81.8562 33.4014C81.8257 33.5019 81.8006 33.617 81.7794 33.7466C81.757 33.8472 81.7345 33.9504 81.712 34.0588C81.6895 34.1673 81.6763 34.2784 81.6736 34.3896C81.6498 34.4769 81.6379 34.5708 81.6405 34.6687C81.6432 34.7653 81.6511 34.8579 81.6577 34.9399C81.6842 35.1476 81.7437 35.3169 81.8456 35.4466C81.9448 35.5762 82.1036 35.6278 82.3245 35.6014C82.814 35.5471 83.2307 35.3328 83.572 34.9571C83.9133 34.5814 84.2004 34.1766 84.4226 33.7427C84.5523 33.5178 84.6568 33.3021 84.7362 33.0971C84.8169 32.8907 84.8883 32.7068 84.9558 32.5441C85.1092 32.0917 85.2203 31.7001 85.2852 31.3694C85.35 31.0386 85.3712 30.7621 85.346 30.5412C85.3262 30.3732 85.2825 30.2462 85.2111 30.1536ZM126.712 39.1653C126.633 39.0621 126.461 39.0264 126.191 39.0568C126.096 39.0674 125.999 39.0846 125.905 39.1111C125.813 39.1388 125.717 39.1732 125.627 39.2142C125.274 39.3822 124.937 39.6442 124.609 40.0001C124.279 40.3546 123.992 40.7303 123.744 41.1259C123.561 41.4023 123.404 41.6696 123.27 41.9328C123.132 42.1948 123.039 42.417 122.98 42.5996C122.966 42.6485 122.941 42.7319 122.905 42.8483C122.87 42.9621 122.839 43.0957 122.82 43.2385C122.792 43.355 122.767 43.474 122.742 43.5957C122.716 43.7174 122.701 43.8444 122.697 43.9701C122.669 44.0693 122.658 44.1752 122.66 44.285C122.663 44.3987 122.669 44.4993 122.681 44.5945C122.709 44.83 122.778 45.0205 122.892 45.17C123.005 45.3155 123.187 45.3737 123.437 45.3473C123.99 45.2838 124.463 45.0404 124.854 44.6117C125.24 44.1871 125.561 43.7267 125.818 43.2359C125.963 42.9806 126.083 42.7345 126.174 42.5017C126.265 42.2688 126.347 42.0598 126.423 41.8759C126.597 41.3613 126.723 40.9182 126.796 40.5424C126.868 40.1667 126.892 39.8532 126.863 39.6019C126.843 39.4127 126.793 39.2698 126.712 39.1653ZM67.7989 33.6606C67.6229 33.5945 67.4298 33.5376 67.2221 33.4926C67.0977 33.4688 66.9721 33.4582 66.8477 33.4556C66.722 33.4543 66.6188 33.4529 66.5355 33.4516C66.4932 33.4503 66.4522 33.4503 66.4098 33.449C66.3675 33.449 66.3265 33.4477 66.2855 33.4477C65.8039 33.5045 65.3383 33.6606 64.8871 33.9186C64.4347 34.1766 64.0392 34.4491 63.7018 34.7401C63.9717 34.8288 64.2945 34.9068 64.6675 34.9769C65.0419 35.0457 65.4282 35.0815 65.8251 35.0881C66.2418 35.0947 66.644 35.0365 67.0316 34.9148C67.4192 34.7944 67.7182 34.5867 67.9312 34.2943C67.9748 34.2321 68.0053 34.1739 68.0277 34.1223C68.0502 34.0681 68.0595 34.0218 68.0608 33.9795C68.0621 33.8326 67.9761 33.7255 67.7989 33.6606ZM91.1285 39.5436C90.9353 39.5436 90.7263 39.5939 90.4948 39.7011C90.2646 39.8043 90.0358 39.9537 89.8056 40.1456C89.709 40.2236 89.6164 40.3083 89.533 40.4062C89.4457 40.5014 89.3531 40.598 89.2592 40.6933C88.8147 41.2132 88.4602 41.8045 88.185 42.4713C87.9151 43.138 87.718 43.8193 87.6016 44.5152C87.5804 44.748 87.5593 44.9742 87.5394 45.1965C87.5169 45.42 87.509 45.637 87.5063 45.8513C87.5063 45.9651 87.5103 46.1106 87.5182 46.2852C87.5275 46.4585 87.55 46.6345 87.5884 46.8078C87.6439 47.1385 87.7405 47.4335 87.8847 47.6954C88.0262 47.9574 88.2498 48.091 88.5554 48.0923C89.033 48.095 89.4603 47.9283 89.836 47.5909C90.209 47.2549 90.512 46.8739 90.7448 46.4506C90.8017 46.354 90.8599 46.2627 90.9181 46.1754C90.9763 46.0894 91.0253 45.9981 91.0637 45.9016C91.0637 45.9016 92.1167 43.6645 92.2093 41.237C92.2331 40.6377 92.0863 40.2051 91.8878 39.9432C91.6854 39.6773 91.4328 39.5463 91.1285 39.5436ZM136.561 39.3439L133.204 44.2995C133.332 44.4728 133.492 44.6236 133.687 44.7493C133.88 44.879 134.093 44.9411 134.32 44.9332C135.033 44.916 135.6 44.7083 136.016 44.3088C136.433 43.9093 136.633 43.3311 136.614 42.5731C136.62 42.0254 136.614 41.483 136.6 40.9446C136.586 40.4075 136.572 39.8744 136.561 39.3439ZM141.869 35.4677C141.012 33.8406 138.659 35.4162 137.378 35.6609C135.757 35.9638 134.674 35.981 133.516 36.6174C132.649 35.6278 131.001 35.8408 129.334 35.8977C128.444 35.9255 127.142 36.2615 126.481 36.2337C125.776 36.202 125.135 35.8249 124.514 35.8249C121.803 35.8223 119.844 37.7061 117.837 37.9469C117.391 37.0923 116.273 36.8079 115.515 36.2112C116.118 35.1979 117.887 33.7056 117.289 32.1208C117.021 31.3892 116.063 31.3746 115.405 30.7754C115.465 28.9008 118.66 25.321 117.329 23.6369C116.614 22.7294 114.994 23.2586 113.49 23.0628C115.088 20.8125 113.267 19.0543 110.917 18.8281C111.575 17.5952 111.982 16.0527 112.619 14.268C113.156 12.7427 114.445 10.9899 114.217 9.45263C114.003 7.98949 111.726 8.1866 110.328 8.16676C109.192 8.15088 107.814 7.94054 106.91 8.10061C106.302 8.20512 105.555 8.99755 104.782 9.56375C101.581 11.8987 98.3781 14.5009 95.1528 15.7894C95.1872 14.2112 96.5299 13.9849 96.4281 12.0111C96.2852 8.9777 91.6973 7.62172 88.7962 8.98035C87.5712 9.55582 86.1715 10.9951 85.0087 11.8352C83.5614 12.8724 82.2835 13.8738 81.1153 14.5525C80.2237 13.51 78.6772 13.9598 76.8066 13.9373C74.5391 13.9095 72.9477 13.5338 72.2584 14.7152C72.1407 14.2231 71.6896 14.1397 71.257 14.0431C69.0504 13.4994 65.3211 14.0749 63.4544 14.2945C59.958 12.6647 55.804 14.3725 53.6768 15.5566C53.8514 4.88328 37.1483 4.68352 28.0823 6.34643C24.8968 6.92983 21.1582 8.11384 18.9278 9.90242C17.4527 11.0851 15.9367 13.1317 14.242 14.9123C11.7523 17.5317 8.7228 22.2558 11.6253 25.8819C9.76393 26.8331 8.30079 27.9271 7.94757 30.1602C6.86807 37.0658 17.4911 37.5302 22.4983 36.2694C24.1162 35.8633 25.7236 34.797 26.9909 34.7851C27.5042 34.7719 28.0651 35.0867 28.4911 35.1476C34.8543 36.1358 40.3537 34.8169 44.1769 32.4078C44.8635 31.966 45.4919 31.0691 46.2949 31.1736C46.234 31.5876 46.6547 31.5929 46.701 31.917C44.2206 32.7412 42.6119 34.9611 40.8418 36.8237C39.9145 37.8027 38.7027 38.6838 38.1272 39.5317C36.8612 41.4156 36.6614 44.9676 37.8282 46.9321C36.4551 48.0301 35.4033 49.0329 35.0118 50.8109C33.3634 58.3198 43.0286 58.8992 48.6709 57.6729C53.9903 56.5166 57.3836 52.9448 60.0029 49.4814C59.999 49.5197 59.995 49.5555 59.9924 49.5938C59.6669 51.6615 57.6071 53.9277 58.9777 55.7573C59.9355 57.026 62.1315 56.5907 64.2217 56.4492C66.9033 56.2732 68.4074 56.051 69.2342 54.4159C71.5268 56.9453 76.9402 55.7626 78.9286 54.0957C82.3708 56.6926 88.5461 55.4623 91.2317 53.6406C93.0123 54.392 94.3617 53.8576 96.0577 53.7134C97.0948 53.6234 98.2127 53.2848 98.9324 53.2583C99.3557 53.2411 99.9166 53.4991 100.325 53.5044C102.802 53.507 105.986 53.1842 107.068 51.8547C109.495 53.5943 113.49 52.6564 115.364 51.4102C117.398 52.8019 120.616 52.0743 122.335 51.1946C124.58 52.3058 127.248 51.2924 128.879 50.4736C133.291 52.0955 136.367 49.7433 138.703 47.4481C139.525 46.6424 140.57 45.9135 141.009 45.2983C142.218 43.5878 142.001 41.3296 142.033 39.0184C142.044 38.1731 142.329 36.3263 141.869 35.4677ZM116.057 24.7072C114.94 28.0224 113.117 31.1868 112.471 34.6475C113.689 34.4213 114.301 33.4622 114.795 32.3761C115.256 32.4211 115.453 32.6936 115.815 32.8193C115.179 35.223 111.009 38.7631 108.844 35.7416C107.485 37.173 103.417 37.5659 102.765 35.0881C101.699 36.3753 98.3172 38.0858 96.645 36.3184C95.0774 34.6528 97.5658 32.4502 97.2774 30.479C94.8829 31.3244 94.4424 34.5033 93.2994 36.8489C91.9699 36.7655 90.7739 36.8462 89.5278 36.8687C89.0422 36.8621 89.4867 36.62 89.4471 36.3938C88.316 37.1822 84.9624 37.6043 84.4266 35.8302C83.2757 36.3541 82.4647 37.1426 81.1286 37.1915C76.3343 37.3529 76.7259 31.7279 79.6667 29.635C81.155 28.578 84.1448 27.9946 85.9387 29.3612C86.6345 28.16 89.0475 29.0119 90.5848 28.828C89.9299 30.7582 88.6308 32.605 88.5289 34.7785C91.0068 34.2454 91.3613 31.1709 92.3495 28.8651C93.6169 28.8201 94.9782 28.8955 96.2415 28.8545C96.7218 28.8624 96.2072 29.0132 96.3156 29.3321C97.8185 28.6733 100.405 28.0859 101.359 29.6588C102.353 31.2887 100.672 32.8642 100.448 34.6489C101.216 34.9717 101.777 34.0152 102.304 33.6329C102.655 29.7872 106.731 27.4972 110.214 29.4948C111.02 28.0422 111.607 26.3264 112.181 24.5987C113.49 24.6569 114.739 24.6344 116.057 24.7072ZM88.2882 12.1223C88.4112 10.925 89.4523 10.2411 91.1708 10.1366C92.9938 10.0268 94.9848 10.6882 94.8565 12.4649C94.6554 15.3608 87.9627 15.3396 88.2882 12.1223ZM64.2032 16.4839C64.4188 16.2233 64.4969 15.7934 64.6477 15.4626C66.4376 15.6055 68.9948 15.5645 71.0056 15.5513C70.2463 18.4802 68.5 20.9157 68.2593 24.0325C71.8761 23.7771 72.1923 18.4749 73.8433 15.4481C75.8819 15.5076 77.7737 15.3912 79.8506 15.505C79.3466 16.8266 78.8346 18.2884 78.2989 19.729C77.8094 21.0665 76.7709 22.5415 77.3437 23.8896C79.2262 23.9333 79.7885 22.4106 80.7489 21.3602C80.4274 19.1073 81.6815 14.8065 83.65 15.2496C86.0921 15.8 83.4569 21.1565 82.6856 22.1209C84.1633 23.1302 85.3301 21.4343 85.9228 20.1669C86.6107 18.713 86.9018 16.73 87.6214 15.6002C89.6164 15.6968 91.565 15.7312 93.3999 15.6373C92.8218 18.1799 91.3375 20.7609 90.6893 23.6515C92.122 24.2296 92.8417 22.867 93.5282 22.1328C93.855 16.8861 100.213 13.6251 104.639 16.5104C105.756 14.481 106.276 11.7466 107.357 9.6762C108.695 9.78865 110.894 9.84421 112.419 9.76881C112.524 9.75293 112.528 9.82172 112.531 9.89713C111.331 14.2799 108.766 18.8493 107.9 23.6356C109.741 23.502 110.409 21.9793 111.126 20.5003C111.72 20.6114 112.029 20.9673 112.605 21.1022C111.492 23.9213 107.767 28.6389 103.774 26.337C103.298 26.0592 103.019 25.8581 102.812 25.1913C100.877 27.4813 95.2904 27.6229 94.0402 24.4188C92.7305 27.1863 85.1555 28.7394 84.8777 23.9663C83.908 24.3262 82.13 24.4995 81.4963 23.5496C79.8017 25.6742 73.3406 29.6403 71.335 25.1305C69.8772 27.1969 63.8936 28.8717 62.2188 25.6239C60.3535 27.5766 55.1756 28.5198 52.8605 26.0962C47.4842 20.45 58.2117 11.6341 64.2032 16.4839ZM33.4243 27.3305C32.5379 27.1929 31.424 26.5698 30.3075 26.5844C29.355 26.5936 27.8164 27.4853 26.1866 27.8716C23.1108 28.5979 13.898 29.1429 14.2063 24.6953C14.4431 21.3271 21.182 21.1737 24.4165 22.5283C26.5001 18.6786 27.5558 13.6 29.8775 10.0426C27.8508 10.6366 22.583 12.49 22.9931 15.9204C23.1121 16.8702 24.0395 17.1626 24.9655 17.6269C23.0725 20.659 17.126 20.3561 17.0519 16.4588C17.0056 13.8606 19.3987 11.4039 21.3725 10.2371C25.4405 7.83867 32.526 7.01979 37.3282 7.16266C45.353 7.39285 52.0072 9.02004 52.1567 15.4243C52.2599 19.8097 49.9924 22.9252 47.6959 24.5788C44.3066 27.0262 38.9951 28.1705 33.4243 27.3305ZM140.445 42.298C139.959 45.9241 134.405 48.0725 131.832 45.0761C130.928 46.6477 126.612 48.1294 125.537 45.5841C124.188 47.5235 119.276 48.009 118.382 45.1898C117.503 46.8461 113.311 48.9906 111.39 46.9308C109.604 45.006 112.648 41.9712 112.115 40.0397C110.443 40.1628 109.996 41.954 109.465 43.3417C108.914 44.8022 108.26 46.3368 107.792 47.673C106.204 47.8052 104.449 47.7325 102.93 47.9534C103.228 45.4147 105.195 43.0745 105.257 40.2607C103.605 40.3546 102.908 42.0664 102.274 43.4171C101.602 44.8353 101.167 46.567 100.57 47.9825C99.0263 48.1651 97.2695 48.0897 95.7111 48.2617C95.6608 47.8939 95.9465 47.9322 95.8897 47.5698C95.3777 47.7021 94.3511 47.6452 94.0336 47.2893C91.6087 49.7896 83.7704 50.7567 81.9382 46.694C81.1074 47.3092 80.7727 48.05 80.0081 48.5302C77.685 49.9814 73.0839 49.9642 73.2294 46.518C73.3247 44.3736 74.9492 43.5058 74.5233 41.2079C71.3086 42.0691 71.1922 46.6226 69.6655 49.5039C67.7327 49.4814 66.0275 49.7248 64.1053 49.7221C65.8621 45.0086 67.6772 40.3612 69.471 35.694C68.0912 36.0935 65.6042 36.7695 63.3023 36.0935C61.2928 40.0331 60.6472 43.9318 58.1218 46.7178C55.4667 49.6586 50.22 51.3771 44.8106 50.6151C42.5365 50.2923 39.7253 49.1361 40.6196 46.0021C40.8101 45.3446 41.8155 43.9754 42.9466 43.732C43.8025 43.5415 45.7459 43.8656 45.8107 44.6911C45.8557 45.3393 44.4547 45.4121 44.5367 47.0538C44.6426 49.103 47.6324 48.9337 48.9315 48.0315C52.4676 45.5722 53.2521 36.8938 56.8253 34.6991C52.3658 32.3986 44.5315 38.6401 49.2437 41.8111C44.583 44.8168 40.7506 38.5184 44.5354 35.0299C47.5874 32.2187 54.5142 31.4818 58.9486 33.3511C61.2862 32.1221 68.2923 30.7992 69.9949 33.7347C71.552 33.1804 73.8168 33.4635 75.7999 33.4212C75.0696 35.5233 74.2494 37.5196 73.4901 39.582C75.5631 38.5052 80.4737 38.0805 80.3851 41.6047C80.3401 43.5216 79.0423 44.3405 78.9047 46.4268C80.3348 46.2045 81.1683 45.5457 81.6683 44.4305C81.8522 44.0336 81.7728 43.4039 82.0467 42.8112C84.3644 37.8053 94.7559 36.3819 96.1635 41.8164C96.3699 42.5996 96.2587 43.4052 96.055 44.3987C98.0434 44.0098 98.3661 40.516 99.2962 38.4364C100.921 38.3927 102.521 38.3226 104.142 38.2736C104.154 38.5448 104.084 38.7195 103.969 38.8491C105.314 37.7061 109.426 37.1889 110.042 39.5013C111.362 38.3067 113.713 36.9071 115.821 38.1242C118.06 39.4127 116.468 42.5625 115.823 44.8432C116.939 45.129 117.526 43.7029 118.218 43.052C118.767 38.8346 123.236 36.0366 127.125 38.2935C127.42 38.1678 127.294 37.5434 127.665 37.5169C129.115 37.5169 130.525 37.4865 131.917 37.419C131.403 39.8267 129.976 41.8164 129.789 44.1884C131.82 43.7677 132.558 41.7979 134.094 40.7964C134.664 39.5727 135.545 38.7274 136.153 37.5593C137.759 37.3608 138.89 36.6055 140.494 36.4083C140.198 38.5819 140.685 40.52 140.445 42.298ZM20.5629 23.6965C20.4676 23.67 20.3644 23.6581 20.256 23.6554C20.1462 23.6541 20.0311 23.6515 19.9107 23.6488C19.572 23.6435 19.2334 23.6621 18.8934 23.7044C18.5547 23.7454 18.2266 23.8248 17.9104 23.9399C17.6432 24.0325 17.4051 24.1555 17.1961 24.309C16.9884 24.4637 16.8455 24.6476 16.7701 24.8633C16.745 24.8884 16.733 24.9188 16.733 24.9532C16.733 24.9889 16.7317 25.0313 16.7304 25.0802C16.7264 25.3223 16.8428 25.5062 17.0836 25.6306C17.3231 25.7562 17.5996 25.8568 17.9131 25.9348C18.0811 25.9626 18.2438 25.9838 18.4012 25.997C18.5587 26.0116 18.6976 26.0208 18.8193 26.0221C18.9635 26.0248 19.109 26.0274 19.2545 26.0301C19.3987 26.0327 19.5442 26.0235 19.6911 26.0023C20.3208 25.9163 20.9346 25.7099 21.5339 25.3818C22.1319 25.0524 22.6531 24.6648 23.0963 24.2124C22.71 24.0841 22.3012 23.9743 21.8673 23.8817C21.4334 23.7904 20.9981 23.7295 20.5629 23.6965ZM43.6967 10.0863C43.534 9.67356 43.3038 9.37855 43.0048 9.20392C42.7058 9.0293 42.3857 8.93802 42.0483 8.93272C41.9994 8.9314 41.9465 8.9314 41.8843 8.93008C41.8221 8.92875 41.756 8.94066 41.6845 8.96315C41.3935 9.00681 41.1064 9.1047 40.826 9.25684C40.5468 9.40897 40.2942 9.59286 40.0732 9.80452C39.9264 9.92359 39.7848 10.0665 39.6486 10.2331C39.5123 10.3985 39.3708 10.5903 39.2226 10.806C38.9488 11.2121 38.6683 11.7148 38.3799 12.3141C38.0902 12.9147 37.7938 13.6225 37.4896 14.44C37.2356 15.161 36.9803 15.8754 36.7263 16.5845C36.4709 17.2935 36.2169 17.996 35.9629 18.6932C35.8624 18.934 35.7738 19.1668 35.697 19.3957C35.6203 19.6245 35.5317 19.8574 35.4311 20.0994C35.2539 20.5783 35.0819 21.0546 34.9165 21.5229C34.7511 21.9912 34.5792 22.4648 34.4019 22.9464C34.2233 23.4504 33.9852 23.9134 33.6862 24.3315C33.3885 24.7482 33.0433 25.1345 32.6504 25.4903C32.9864 25.5935 33.3171 25.6782 33.6439 25.743C33.9693 25.8105 34.2881 25.8449 34.603 25.8515C36.3188 25.8806 37.823 25.2363 39.1168 23.9174C40.4106 22.5984 41.4464 21.1472 42.2243 19.5637C42.424 19.1575 42.6013 18.7554 42.7521 18.3585C42.9043 17.9629 43.0445 17.5727 43.1702 17.1864C43.198 17.115 43.2218 17.0369 43.2482 16.9522C43.2747 16.8689 43.2998 16.7776 43.3263 16.681C43.4559 16.2484 43.5842 15.7788 43.7139 15.2735C43.8435 14.7681 43.9375 14.2508 43.9957 13.719C44.0235 13.5259 44.0459 13.3208 44.0605 13.1039C44.075 12.8869 44.087 12.6805 44.0896 12.4874C44.0975 12.0522 44.0737 11.6288 44.0221 11.2161C43.9679 10.8046 43.8594 10.4289 43.6967 10.0863Z" fill="#B7B9C0"/>
</svg>
