<svg width="150" height="150" viewBox="0 0 150 150" fill="none" xmlns="http://www.w3.org/2000/svg">
<g clip-path="url(#clip0_30_2631)">
<path fill-rule="evenodd" clip-rule="evenodd" d="M5.69824 49.6348C3.76758 49.6348 1.875 49.6348 -0.0146484 49.6348C-0.0146484 59.2119 -0.0146484 68.792 -0.0146484 78.3691C5.5752 78.3691 11.165 78.3691 16.7578 78.3691C16.7578 76.5205 16.7578 74.751 16.7578 72.9023C13.0576 72.9023 9.39844 72.9023 5.70117 72.9023C5.69824 65.1328 5.69824 57.4043 5.69824 49.6348Z" fill="#B7B9C0"/>
<path fill-rule="evenodd" clip-rule="evenodd" d="M120.554 78.3281C122.361 78.3281 124.131 78.3281 125.897 78.3281C125.897 78.041 125.897 77.7949 125.897 77.5459C125.897 68.0508 125.897 58.5557 125.897 49.0576C125.897 48.8115 125.897 48.6064 125.938 48.3574C124.131 48.3574 122.361 48.3574 120.554 48.3574C120.554 58.3506 120.554 68.3379 120.554 78.3281Z" fill="#B7B9C0"/>
<path d="M65.0569 58.5134C65.0569 58.3084 65.0569 58.1033 65.0569 57.8543C63.2903 57.8543 61.6028 57.8543 59.8362 57.8543C59.8362 58.6365 59.8362 59.4158 59.8362 60.239C59.7131 60.157 59.6721 60.157 59.6311 60.116C57.2053 57.3211 54.1233 56.7439 50.7102 57.5672C46.0637 58.6775 42.9817 62.7058 42.8997 67.5984C42.7766 73.8884 47.8333 78.6961 54.1233 78.2449C56.221 78.0808 58.0286 77.2166 59.426 75.655C59.5491 75.532 59.5491 75.3269 59.6311 75.1629C59.7131 75.2449 59.7542 75.2859 59.8362 75.3679C59.8362 76.1912 59.8772 76.9705 59.8362 77.7937C59.7542 79.4373 59.095 80.8347 57.6155 81.699C54.8206 83.3015 50.9153 82.3992 49.1487 79.7683C49.1077 79.7273 49.0667 79.6453 48.9846 79.5632C47.5051 80.4275 46.0256 81.2478 44.4641 82.1121C45.3284 83.6736 46.4387 84.825 47.9592 85.6072C51.0413 87.2507 54.2903 87.4968 57.6594 86.6765C60.1672 86.1023 62.221 84.8279 63.6624 82.6482C64.7727 80.9226 65.1419 79.03 65.1419 77.0174C65.0569 70.9265 65.0569 64.7215 65.0569 58.5134ZM53.9592 73.3933C50.6282 73.3933 48.2053 71.0086 48.2053 67.7625C48.2053 64.5164 50.6721 62.1726 54.0003 62.1726C57.3284 62.1726 59.7952 64.5574 59.8362 67.7625C59.8362 71.0496 57.3723 73.3933 53.9592 73.3933Z" fill="#B7B9C0"/>
<path d="M102.138 58.3916C101.355 58.8428 100.699 59.4609 99.958 60.0762C99.958 56.6221 99.958 53.1709 99.958 49.6758C98.1504 49.6758 96.4219 49.6758 94.6553 49.6758C94.6553 59.2529 94.6553 68.833 94.6553 78.3691C96.4629 78.3691 98.1914 78.3691 99.958 78.3691C99.958 77.6279 99.958 76.8896 99.958 76.1895C100.74 76.7637 101.396 77.4229 102.179 77.874C105.633 79.8457 110.317 79.1895 113.276 76.3945C117.715 72.2432 118.005 64.9658 113.892 60.4863C110.851 57.1582 105.835 56.2529 102.138 58.3916ZM105.671 73.8897C102.299 73.8897 99.958 71.5049 99.958 68.1357C99.958 64.7666 102.302 62.3408 105.671 62.3408C109.002 62.3408 111.425 64.7256 111.466 68.0947C111.469 71.4639 109.084 73.8897 105.671 73.8897Z" fill="#B7B9C0"/>
<path d="M29.1709 57.2812C23.0449 57.2812 18.2373 62.0098 18.1963 68.0918C18.1963 74.1768 23.0068 78.9434 29.0889 78.9844C35.2559 78.9844 40.1045 74.2148 40.1045 68.1328C40.1484 62.0508 35.2969 57.2812 29.1709 57.2812ZM29.335 73.7666C26.0039 73.8486 23.6221 71.5459 23.54 68.1768C23.458 64.9717 25.8018 62.5049 29.0479 62.4229C32.2529 62.3408 34.7197 64.7256 34.8018 68.0127C34.8867 71.2178 32.502 73.6816 29.335 73.7666Z" fill="#B7B9C0"/>
<path d="M79.8164 57.2815C73.6904 57.2405 68.8418 62.01 68.8418 68.0921C68.8418 74.1741 73.6113 78.9846 79.7344 78.9846C85.9014 78.9846 90.75 74.2151 90.75 68.1331C90.791 62.051 85.9805 57.2815 79.8164 57.2815ZM79.7754 73.7669C76.5703 73.7669 74.1855 71.3821 74.1855 68.136C74.1855 64.8899 76.5293 62.4641 79.7754 62.4641C82.9805 62.4231 85.4473 64.8489 85.4473 68.136C85.4473 71.3411 83.0625 73.7669 79.7754 73.7669Z" fill="#B7B9C0"/>
<path fill-rule="evenodd" clip-rule="evenodd" d="M144.888 57.8145C144.437 57.8145 144.313 57.9785 144.188 58.3477C143.323 61.0605 142.421 63.7324 141.516 66.4043C140.941 68.0889 140.405 69.7354 139.79 71.543C139.667 71.2559 139.585 71.0918 139.503 70.9277C137.859 66.7354 136.213 62.502 134.569 58.3066C134.487 58.1016 134.282 57.8145 134.118 57.8145C132.311 57.7734 130.459 57.7734 128.528 57.7734C128.651 58.0605 128.733 58.2656 128.815 58.4736C131.487 64.6816 134.118 70.8867 136.79 77.0947C136.872 77.2998 136.995 77.5869 136.954 77.7949C136.298 79.6436 135.229 81.126 133.09 81.4541C132.598 81.5361 132.144 81.5772 131.61 81.6182C131.61 83.2617 131.61 84.8232 131.61 86.5107C134.159 86.6338 136.503 86.1416 138.475 84.5391C140.323 83.0596 141.475 81.085 142.257 78.9492C144.847 72.044 147.355 65.1387 149.903 58.1895C149.944 58.0664 149.944 57.9434 149.985 57.7793C148.301 57.8145 146.572 57.8555 144.888 57.8145Z" fill="#B7B9C0"/>
<path d="M77.2266 85.5645L82.3242 87.4541C77.9678 98.9238 66.8262 106.693 54.249 106.693C41.5459 106.693 30.3662 98.8008 26.0918 87.208L31.1895 85.3594C34.6846 94.8545 43.8516 101.309 54.252 101.309C64.5645 101.35 73.6494 94.9775 77.2266 85.5645Z" fill="#B7B9C0"/>
<path d="M20.9502 52.4294L16.9219 48.6472C23.499 41.5369 34.1865 41.5369 40.7637 48.6472L36.7354 52.4294C32.3379 47.6628 25.3066 47.6628 20.9502 52.4294Z" fill="#B7B9C0"/>
<path d="M71.6748 52.4294L67.6465 48.6472C74.2236 41.5369 84.9111 41.5369 91.4883 48.6472L87.46 52.4294C83.0625 47.6628 76.0752 47.6628 71.6748 52.4294Z" fill="#B7B9C0"/>
</g>
<defs>
<clipPath id="clip0_30_2631">
<rect width="150" height="150" fill="white"/>
</clipPath>
</defs>
</svg>
