<svg width="954" height="1129" viewBox="0 0 954 1129" fill="none" xmlns="http://www.w3.org/2000/svg">
<g opacity="0.05">
<path d="M388.042 732.063C388.034 733.188 388.034 733.188 388.042 732.063Z" fill="#998000"/>
<path d="M631.509 451.718C618.104 450.499 604.691 450.403 590.169 449.176C602.375 461.625 614.582 474.074 625.655 488.763C626.797 485.399 627.971 477.541 630.287 466.319C633.752 450.611 633.736 452.858 631.509 451.718ZM652.274 674.382C650.151 658.633 646.894 645.124 632.42 637.154C623.518 631.472 612.357 629.144 604.589 621.222C605.731 617.859 607.99 614.504 610.25 611.148C611.376 610.032 611.392 607.785 611.408 605.537C611.44 601.042 611.464 597.671 610.378 593.168C610.41 588.673 609.317 585.294 608.231 580.791L606.028 576.28C601.501 584.114 596.973 591.949 596.909 600.939C595.743 607.673 596.805 615.547 597.874 622.298C598.936 630.172 600.006 636.923 602.185 644.805C606.568 657.198 619.948 661.789 631.086 667.488C636.65 670.899 643.333 674.318 646.646 679.961L647.755 681.093C645.448 691.19 643.14 701.288 638.597 711.37C615.889 760.656 569.781 799.66 516.057 809.391C486.956 814.802 454.581 808.952 430.103 793.043C426.766 790.772 422.311 788.492 418.982 785.097C413.386 786.181 406.663 788.381 398.839 788.325C399.941 790.58 401.042 792.836 403.262 795.099C420.945 823.321 451.011 839.269 482.276 843.988C540.342 852.269 597.604 816.716 629.237 769.742C638.276 756.32 645.086 741.759 650.779 727.191C655.379 709.242 655.499 692.386 652.274 674.382ZM387.073 714.069C387.106 709.574 387.146 703.955 388.296 699.468C389.518 684.867 394.093 670.29 398.668 655.714C410.078 623.204 431.516 595.262 458.486 575.226C461.855 573.003 466.35 569.663 469.72 567.44C471.931 570.827 474.143 574.214 475.228 578.717C477.416 585.476 476.386 573.106 476.394 571.983C476.418 568.611 476.434 566.364 475.341 562.985C498.917 548.543 524.706 537.489 549.376 526.427C562.837 519.781 577.408 514.266 590.869 507.619C573.122 488.387 553.131 470.264 530.88 455.495C527.543 453.224 524.206 450.952 520.869 448.681C510.809 448.609 500.749 448.537 489.572 448.457C464.982 448.282 441.509 448.114 416.895 451.31C410.181 452.385 402.348 453.453 395.618 456.777C391.131 458.992 385.518 462.324 383.25 466.803C380.991 470.158 379.857 472.398 379.833 475.769C379.769 484.759 380.83 492.633 381.884 501.631C384.055 510.637 386.243 517.396 394.027 523.07C404.038 529.885 416.293 535.591 426.313 541.282C431.877 544.693 437.45 546.981 441.897 550.384C422.775 567.104 408.108 586.104 396.762 609.624C384.274 636.506 378.477 665.684 378.276 693.778C378.172 708.386 379.185 723.003 381.316 737.628C382.394 743.255 382.354 748.874 383.431 754.5C385.667 754.516 387.902 754.532 390.138 754.548C390.146 753.424 389.036 752.293 389.036 752.293C386.825 748.906 385.739 744.403 384.653 739.9C384.661 738.776 383.552 737.644 383.568 735.396C383.576 734.273 383.576 734.273 383.584 733.149L383.608 729.778C383.616 728.654 383.632 726.406 383.64 725.283C383.648 724.159 383.664 721.911 383.672 720.788L383.68 719.664C387.065 715.193 387.073 714.069 387.073 714.069ZM442.154 514.423C433.252 508.741 423.224 504.174 414.314 499.615C408.742 497.328 403.177 493.916 398.722 491.637C399.848 490.521 402.091 489.413 403.209 489.421C409.932 487.222 417.764 486.154 424.478 485.078C446.857 481.867 470.33 482.034 492.685 482.194C516.157 482.361 539.63 482.529 563.094 483.821L553.002 488.244C522.727 501.513 492.452 514.783 464.38 532.563L463.262 532.555C459.965 524.665 451.063 518.982 442.154 514.423ZM388.063 732.057C388.039 735.428 388.055 733.181 388.063 732.057Z" fill="#998000"/>
<path d="M606.009 576.305C589.203 581.804 587.949 600.9 574.464 610.918C567.725 615.365 559.901 615.309 553.235 609.643C546.569 603.976 546.633 594.986 546.689 587.12C546.689 587.12 546.729 581.501 545.611 581.493C544.494 581.485 543.344 585.972 543.344 585.972C541.052 593.822 539.878 601.68 539.822 609.547C539.758 618.537 539.678 629.774 544.092 637.673C548.515 644.447 556.307 648.998 564.148 646.806C582.079 640.192 582.256 615.469 600.18 609.978C603.541 608.878 604.747 596.525 605.889 593.161C605.889 593.161 607.127 576.313 606.009 576.305Z" fill="#998000"/>
<path d="M544.484 583.708C538.839 591.534 533.194 599.36 527.549 607.187C521.912 613.889 516.267 621.716 508.427 623.907C500.587 626.099 492.779 623.796 488.348 618.145C481.69 611.354 481.762 601.241 480.708 592.243C480.756 585.5 477.323 596.714 476.205 596.706C473.922 603.432 472.748 611.291 473.817 618.041C474.871 627.039 474.791 638.277 480.323 646.183C484.746 652.957 492.538 657.508 501.496 655.325C510.454 653.141 517.208 646.446 522.853 638.62C529.616 630.802 535.269 621.851 542.039 612.909C545.433 607.314 546.599 600.58 546.647 593.837C546.671 590.466 547.813 587.103 546.711 584.847C545.585 585.963 545.609 582.592 544.484 583.708Z" fill="#998000"/>
<path d="M366.402 633.005C370.857 635.285 375.32 636.44 379.783 637.596C378.617 644.331 376.285 657.8 373.969 669.021C366.161 666.718 358.361 663.291 351.679 659.872C317.165 640.52 302.924 599.961 300.961 561.738C299.047 516.771 312.781 471.917 336.526 433.877C359.146 396.953 392.886 367.974 427.713 343.499C435.577 337.936 443.433 333.497 452.407 329.066L472.414 344.942C455.568 356.06 436.494 366.038 419.64 378.28C385.947 400.515 355.56 429.518 334.082 463.079C326.177 474.26 320.5 486.582 315.933 500.035C313.649 506.761 311.374 512.364 310.208 519.099L310.176 523.594C310.16 525.841 310.152 526.965 310.136 529.213C310.128 530.336 310.12 531.46 310.112 532.584L310.088 535.955C310.063 539.326 310.039 542.698 311.141 544.953C313.104 583.177 330.739 618.141 366.402 633.005Z" fill="#998000"/>
<path d="M479.545 598.995C479.496 605.738 478.322 613.596 474.921 620.315C473.787 622.554 472.646 625.918 470.394 628.149C459.072 648.297 439.958 663.894 417.555 670.477C411.959 671.561 406.362 672.644 399.655 672.597C403.073 663.63 408.766 649.061 414.419 640.111C423.369 639.051 431.217 635.736 440.191 631.305C455.904 622.427 469.421 607.914 476.24 592.229C479.633 586.634 479.561 596.748 479.545 598.995Z" fill="#998000"/>
<path d="M539.087 243.176C539.039 249.919 537.865 257.777 535.582 264.504C527.613 284.675 517.417 303.707 502.774 319.336L486.096 306.855C488.34 305.747 490.591 303.516 492.835 302.408C511.949 286.811 527.758 264.448 535.742 242.028C535.742 242.028 536.892 237.541 538.01 237.549C539.12 238.681 539.096 242.052 539.087 243.176Z" fill="#998000"/>
<path d="M558.207 693.924C544.81 691.581 531.389 692.609 519.046 699.264C511.189 703.703 505.552 710.405 498.814 714.852C478.582 730.441 456.123 744.89 431.477 752.581C402.351 761.364 367.701 761.116 342.13 741.829C322.115 727.076 308.879 702.258 304.576 678.627C298.086 648.238 301.664 616.796 314.16 588.79L315.302 585.427C314.184 585.419 313.042 588.782 313.042 588.782C309.649 594.377 306.256 599.972 303.98 605.575C283.524 652.629 281.948 716.675 318.553 756.27C340.739 780.028 371.996 785.871 402.207 781.591C430.182 777.296 457.112 762.879 479.588 746.182C486.334 740.611 493.081 735.04 499.827 729.469C513.32 718.327 528.993 715.068 545.735 718.559C547.97 718.575 552.514 708.493 553.639 707.377C552.538 705.122 558.207 693.924 558.207 693.924Z" fill="#998000"/>
<path d="M420.517 256.942C420.341 281.665 426.863 307.559 438.997 330.122L424.394 340.132C413.442 308.587 412.573 273.742 416.159 241.177C416.191 236.682 417.333 233.319 418.483 228.832C418.491 227.708 419.648 222.097 420.766 222.105C424.127 221.006 421.82 231.103 421.804 233.351C420.63 241.209 420.574 249.076 420.517 256.942Z" fill="#998000"/>
<path d="M686.883 676.899C685.041 621.819 668.66 567.759 639.928 521.477C621.143 491 596.753 462.731 568.97 440.056C547.862 421.924 524.494 407.148 501.125 392.371C486.659 383.277 472.201 373.06 459.994 360.611L439.786 372.828C448.632 386.377 459.729 397.695 473.07 407.904C493.084 422.657 515.351 435.178 536.484 449.938C564.291 469.242 589.83 493.024 611.992 520.154C647.447 564.236 670.55 616.097 679.091 672.348C681.222 686.973 682.219 703.837 680.997 718.438L680.957 724.057C680.949 725.181 679.815 727.42 679.807 728.544C678.649 734.155 675.248 740.873 672.972 746.476C660.477 774.482 641.291 800.193 617.666 821.377C606.416 831.411 592.931 841.429 579.47 848.076C568.244 854.738 554.807 858.014 542.472 863.545C529.019 869.068 516.676 875.722 507.654 886.896C495.254 901.417 489.537 919.357 486.055 937.313C483.756 946.288 483.683 956.401 482.502 965.383C482.502 965.383 482.469 969.879 483.587 969.887C484.705 969.894 485.855 965.407 485.855 965.407C488.138 958.681 489.312 950.823 489.36 944.08C489.36 944.08 489.368 942.956 489.376 941.833L489.385 940.709C489.401 938.461 490.534 936.222 491.66 935.106C495.07 927.264 499.589 920.553 505.225 913.85C515.357 903.808 527.701 897.154 541.154 891.631C553.481 887.223 565.808 882.816 578.151 876.161C591.62 868.391 602.854 860.604 614.104 850.57C636.603 830.503 655.789 804.792 669.403 776.794C681.93 744.293 687.76 710.62 686.883 676.899Z" fill="#998000"/>
<path d="M694.089 610.618C694.041 617.361 692.867 625.219 689.466 631.938C686.072 637.533 687.262 627.427 687.27 626.303C687.286 624.055 687.302 621.808 687.31 620.684C687.318 619.56 687.327 618.437 687.335 617.313C687.367 612.818 687.399 608.323 687.423 604.952C687.487 595.962 686.442 585.84 685.388 576.842C682.179 556.59 675.617 536.315 665.694 517.139C656.873 500.219 646.917 485.538 634.726 470.841C634.735 469.718 634.735 469.718 634.743 468.594C635.892 464.107 635.916 460.736 637.042 459.62C637.05 458.496 637.058 457.372 637.058 457.372L637.074 455.125C637.074 455.125 637.082 454.001 637.09 452.877C637.098 451.753 637.098 451.753 635.989 450.622L634.879 449.49C633.769 448.358 632.652 448.35 632.652 448.35C631.534 448.342 631.534 448.342 631.534 448.342C631.534 448.342 631.534 448.342 630.416 448.334C623.71 448.286 618.129 447.123 611.423 447.075C588.111 424.432 561.429 404.013 534.732 385.841C506.933 365.414 476.874 348.342 451.327 325.683C430.226 306.428 414.755 281.593 413.846 252.368C413.894 245.625 415.068 237.767 416.233 231.032C416.241 229.909 419.667 219.819 420.737 226.569C421.605 261.414 444.893 287.428 471.575 307.847C499.366 329.398 528.298 347.586 556.097 368.013C580.559 386.168 605.013 405.448 626.09 428.075C648.276 451.833 668.202 478.947 680.281 509.376C694.603 538.698 697.699 574.682 694.089 610.618Z" fill="#998000"/>
<path d="M513.167 273.32C507.53 280.023 498.516 290.073 494.021 293.412C489.574 290.009 486.245 286.614 481.798 283.211C465.136 268.482 447.373 251.498 436.332 232.314C423.087 208.62 422.154 182.765 426.81 156.951C426.818 155.827 429.158 141.234 431.385 142.374C433.621 142.39 431.281 156.983 431.273 158.106L431.265 159.23C431.265 159.23 431.265 159.23 431.257 160.354L431.249 161.478C431.225 164.849 431.201 168.22 431.185 170.468C432.254 177.218 433.324 183.969 435.519 189.604C439.902 201.997 446.536 212.159 455.406 222.336C472.035 241.56 492.034 258.56 513.167 273.32Z" fill="#998000"/>
<path d="M692.872 622.987C692.864 624.111 690.549 635.333 688.329 633.069C687.22 631.938 688.377 626.327 688.385 625.203C688.418 620.708 689.559 617.345 689.591 612.85C697.705 572.45 695.798 526.36 680.431 486.917C657.416 422.695 606.377 369.511 550.763 330.905C545.198 327.493 538.524 322.951 532.959 319.539C528.504 317.26 524.058 313.857 519.603 311.577C524.114 305.99 530.908 293.677 534.31 286.958C546.549 294.912 557.678 301.735 568.799 309.681C596.598 330.108 621.02 353.883 642.064 381.005C665.336 409.266 682.987 441.983 692.79 478.015C704.748 525.3 702.16 574.73 692.872 622.987Z" fill="#998000"/>
<path d="M567.006 559.134C564.779 557.994 562.559 555.731 561.45 554.599C560.34 553.467 556.995 552.32 554.767 551.18C554.767 551.18 553.682 546.677 553.658 550.048C553.65 551.172 553.65 551.172 554.759 552.304C555.877 552.312 555.869 553.435 556.987 553.443C559.214 554.583 560.316 556.839 561.418 559.094C568.06 568.132 572.451 579.402 575.732 589.539C575.74 588.416 580.243 583.952 580.251 582.829C580.331 571.591 580.411 560.354 581.609 549.124C581.617 548 582.759 544.637 582.767 543.513C581.641 544.629 581.633 545.753 580.508 546.868L581.625 546.876C582.743 546.884 583.869 545.769 584.987 545.777C589.457 545.809 592.787 549.204 592.754 553.699C592.763 552.575 597.258 549.236 597.274 546.988C597.314 541.369 591.757 536.834 586.152 539.042C582.791 540.142 581.641 544.629 580.499 547.992C578.232 552.471 578.192 558.09 578.152 563.709C578.087 572.699 576.906 581.681 576.849 589.547C577.983 587.308 579.117 585.068 581.368 582.837C578.071 574.946 574.782 565.932 570.36 559.158C568.148 555.771 562.64 544.493 557.043 545.577C553.682 546.677 551.398 553.403 550.264 555.643C549.123 559.006 550.24 559.014 553.585 560.162C556.931 561.31 560.26 564.705 562.479 566.968C563.597 566.976 568.116 560.266 567.006 559.134Z" fill="#998000"/>
<path d="M351.26 564.34C349.033 563.2 346.813 560.937 345.704 559.805C344.594 558.673 341.249 557.525 339.021 556.386C339.021 556.386 337.936 551.883 337.912 555.254C337.903 556.378 337.903 556.378 339.013 557.509C340.131 557.517 340.123 558.641 341.241 558.649C343.468 559.789 344.57 562.044 345.671 564.3C352.314 573.338 356.704 584.607 359.985 594.745C359.993 593.621 364.496 589.158 364.505 588.034C364.585 576.797 364.665 565.559 365.863 554.33C365.871 553.206 367.013 549.843 367.021 548.719C365.895 549.835 365.887 550.958 364.761 552.074L365.879 552.082C366.997 552.09 368.123 550.974 369.24 550.982C373.711 551.014 377.04 554.41 377.008 558.905C377.016 557.781 381.511 554.442 381.527 552.194C381.568 546.575 376.011 542.04 370.406 544.248C367.045 545.348 365.895 549.835 364.753 553.198C362.486 557.677 362.446 563.296 362.405 568.915C362.341 577.905 361.159 586.887 361.103 594.753C362.237 592.514 363.371 590.274 365.622 588.042C362.325 580.152 359.036 571.138 354.613 564.364C351.284 560.968 345.776 549.691 340.179 550.775C336.826 550.751 334.542 557.478 334.518 560.849C333.376 564.212 334.494 564.22 337.839 565.368C341.184 566.515 344.514 569.911 346.733 572.174C346.733 572.174 351.252 565.464 351.26 564.34Z" fill="#998000"/>
<path d="M581.658 699.744C578.233 709.834 574.791 722.172 573.593 733.401C573.545 740.144 574.599 749.142 582.415 750.321C589.113 751.493 595.868 744.799 599.253 740.327C601.513 736.972 603.78 732.493 604.922 729.13C606.056 726.89 606.064 725.766 603.812 727.998C600.419 733.593 592.571 736.908 587.014 732.373C581.458 727.838 581.514 719.972 582.672 714.361C583.854 705.379 587.271 696.413 589.571 687.439C590.713 684.076 587.319 689.67 587.319 689.67C585.068 691.902 582.8 696.381 581.658 699.744Z" fill="#998000"/>
<path d="M456.373 868.51C452.948 878.6 449.506 890.937 448.308 902.167C448.26 908.909 449.314 917.907 457.13 919.087C463.828 920.258 470.583 913.564 473.968 909.093C476.228 905.737 478.495 901.258 479.637 897.895C480.771 895.655 480.779 894.532 478.527 896.763C475.134 902.358 467.286 905.673 461.729 901.138C456.172 896.604 456.229 888.737 457.387 883.126C458.568 874.144 461.986 865.178 464.286 856.204C465.427 852.841 462.034 858.436 462.034 858.436C459.783 860.667 457.515 865.146 456.373 868.51Z" fill="#998000"/>
<path d="M394.056 828.774C390.631 838.863 387.189 851.201 385.991 862.43C385.943 869.173 386.997 878.171 394.813 879.351C401.511 880.522 408.266 873.828 411.651 869.357C413.911 866.001 416.178 861.522 417.32 858.159C418.454 855.919 418.462 854.796 416.211 857.027C412.817 862.622 404.969 865.937 399.412 861.402C393.856 856.867 393.912 849.001 395.07 843.39C396.252 834.408 399.669 825.442 401.969 816.468C403.111 813.105 399.717 818.7 399.717 818.7C397.466 820.931 395.206 824.287 394.056 828.774Z" fill="#998000"/>
<path d="M492.675 168.632C489.249 178.722 485.808 191.06 484.61 202.289C484.562 209.032 485.615 218.03 493.431 219.209C500.13 220.381 506.884 213.686 510.27 209.215C512.529 205.86 514.797 201.381 515.939 198.018C517.072 195.778 517.08 194.654 514.829 196.886C511.436 202.481 503.587 205.796 498.031 201.261C492.474 196.726 492.53 188.86 493.688 183.249C494.87 174.267 498.288 165.301 500.587 156.327C501.729 152.964 498.336 158.559 498.336 158.559C496.084 160.79 493.825 164.145 492.675 168.632Z" fill="#998000"/>
<path d="M503.072 748.619C499.647 758.708 496.205 771.046 495.007 782.275C494.959 789.018 496.013 798.016 503.829 799.196C510.527 800.367 517.282 793.673 520.667 789.201C522.927 785.846 525.194 781.367 526.336 778.004C527.47 775.764 527.478 774.641 525.226 776.872C521.833 782.467 513.985 785.782 508.428 781.247C502.871 776.712 502.928 768.846 504.086 763.235C505.267 754.253 508.685 745.287 510.985 736.313C512.126 732.95 508.733 738.545 508.733 738.545C506.482 740.776 505.34 744.139 503.072 748.619Z" fill="#998000"/>
<path d="M348.138 683.428C344.712 693.518 341.271 705.855 340.073 717.085C340.025 723.828 341.078 732.826 348.894 734.005C355.593 735.177 362.347 728.482 365.733 724.011C367.992 720.656 370.26 716.177 371.402 712.814C372.536 710.574 372.544 709.45 370.292 711.682C366.899 717.277 359.05 720.592 353.494 716.057C347.937 711.522 347.993 703.656 349.151 698.045C350.333 689.063 353.751 680.097 356.05 671.123C357.192 667.759 353.799 673.354 353.799 673.354C351.547 675.586 349.28 680.065 348.138 683.428Z" fill="#998000"/>
<path d="M351.684 501.414C348.274 509.256 344.849 519.346 345.902 528.344C345.87 532.839 348.058 539.598 353.646 539.638C358.117 539.67 361.503 535.199 364.88 531.851C367.131 529.62 368.273 526.256 369.415 522.893C370.549 520.654 370.549 520.654 368.297 522.885C366.038 526.24 360.425 529.572 355.978 526.169C351.531 522.765 351.571 517.147 351.603 512.652C352.777 504.793 355.061 498.067 357.345 491.34C358.478 489.101 355.101 492.448 355.093 493.572C353.959 495.811 352.817 499.175 351.684 501.414Z" fill="#998000"/>
<path d="M422.883 705.316C432.87 715.502 442.857 725.687 455.088 734.765C455.088 734.765 479.919 701.228 477.692 700.088C466.579 691.019 455.465 681.949 445.486 670.639C445.486 670.639 434.196 686.292 433.071 687.408C430.803 691.887 427.426 695.234 425.158 699.713C425.15 700.837 421.773 704.184 422.883 705.316Z" fill="#998000"/>
<path d="M404.81 420.866C412.642 419.799 421.584 419.862 429.408 419.918C431.644 419.934 433.879 419.95 434.989 421.082L436.107 421.09C437.24 418.85 438.382 415.487 439.516 413.248C445.185 402.05 441.776 409.892 438.398 413.24C436.147 415.471 433.879 419.95 431.62 423.306C430.486 425.545 429.36 426.661 429.344 428.908C429.344 428.908 428.21 431.148 429.336 430.032C434.965 424.453 439.484 417.743 442.893 409.9C444.027 407.661 446.287 404.305 442.942 403.158C439.596 402.01 435.125 401.978 431.772 401.954C425.066 401.906 419.477 401.866 412.763 402.942C411.645 402.934 410.511 405.174 410.511 405.174C409.377 407.413 408.244 409.653 407.118 410.769C405.984 413.008 404.85 415.248 403.716 417.487C405.944 418.627 404.81 420.866 404.81 420.866Z" fill="#998000"/>
<path d="M433.863 421.098C433.863 421.098 414.757 435.571 410.286 435.539C405.807 436.631 409.152 437.778 411.396 436.67C414.757 435.571 428.178 434.543 432.689 428.956C436.082 423.361 437.248 416.626 433.863 421.098Z" fill="#998000"/>
<path d="M467.028 3.26854C462.541 5.48412 458.054 7.6997 454.669 12.1708L69.6655 392.642C46.0244 416.073 29.0737 441.8 17.6877 470.937C6.30964 498.951 0.504251 529.253 0.287552 559.594C0.0708523 589.936 5.44285 620.317 16.4196 648.491C27.3963 676.665 45.0875 703.763 67.2738 727.521L446.796 1114.58L458.053 1103.42L78.5234 717.487C57.4388 695.984 40.8493 671.142 30.9823 644.1C19.9975 617.05 15.7272 588.924 15.9279 560.83C16.1285 532.736 21.9179 504.682 32.1701 477.784C43.5401 450.893 59.365 426.282 80.7546 405.083L465.774 22.3644C468.026 20.1329 470.269 19.0251 473.63 17.9253C475.874 16.8175 479.227 16.8414 482.58 16.8654C485.934 16.8893 488.169 16.9053 491.514 18.053C493.742 19.1927 497.087 20.3404 499.306 22.6039L878.828 409.659C899.912 431.162 916.502 456.004 926.369 483.046C937.354 510.096 941.624 538.222 941.424 566.316C941.223 594.41 935.434 622.464 925.181 649.362C913.811 676.253 897.986 700.863 876.597 722.063L490.46 1104.77C488.208 1107.01 485.965 1108.11 482.603 1109.21C480.36 1110.32 477.007 1110.3 473.653 1110.27C470.3 1110.25 468.065 1110.23 464.719 1109.09C462.492 1107.95 459.147 1106.8 456.927 1104.53L445.67 1115.69C448.999 1119.09 453.446 1122.49 457.901 1124.77C462.356 1127.05 467.936 1128.21 472.407 1128.24C476.878 1128.28 482.475 1127.19 486.962 1124.98C491.449 1122.76 495.936 1120.55 499.321 1116.08L884.333 734.48C907.974 711.049 924.924 685.322 936.31 656.185C947.689 628.17 953.494 597.869 953.711 567.528C953.927 537.186 948.555 506.805 937.579 478.631C926.602 450.457 908.911 423.359 886.724 399.601L509.446 11.4382C506.117 8.04297 501.67 4.63977 497.215 2.36032C491.635 1.19665 487.172 0.0409631 481.583 0.00104857C475.994 -0.038866 472.633 1.06094 467.028 3.26854Z" fill="#998000"/>
</g>
</svg>
