<svg width="77" height="158" viewBox="0 0 77 158" fill="none" xmlns="http://www.w3.org/2000/svg">
<g style="mix-blend-mode:soft-light" clip-path="url(#clip0_243_3154)">
<path d="M65.8787 34.0041C64.4829 33.8829 63.087 33.8829 61.5749 33.7617C62.8544 35.0949 64.1339 36.4281 65.2971 38.0037C65.4134 37.6401 65.5297 36.7917 65.7624 35.5797C66.1113 33.8829 66.1113 34.1253 65.8787 34.0041ZM68.2051 58.0018C67.9724 56.305 67.6235 54.8506 66.1113 54.0022C65.1808 53.3962 64.0176 53.1538 63.2034 52.3054C63.3197 51.9418 63.5523 51.5782 63.785 51.2146C63.9013 51.0934 63.9013 50.851 63.9013 50.6086C63.9013 50.1238 63.9013 49.7602 63.785 49.2754C63.785 48.7906 63.6686 48.427 63.5523 47.9422L63.3197 47.4574C62.8544 48.3058 62.3891 49.1542 62.3891 50.1238C62.2728 50.851 62.3891 51.6994 62.5054 52.4266C62.6218 53.275 62.7381 54.0022 62.9707 54.8506C63.436 56.1838 64.8318 56.6686 65.995 57.2746C66.5766 57.6382 67.2745 58.0018 67.6235 58.6079L67.7398 58.729C67.5071 59.8199 67.2745 60.9107 66.8092 62.0015C64.4829 67.3343 59.7138 71.5763 54.1305 72.6671C51.1062 73.2731 47.733 72.6671 45.174 70.9703C44.825 70.7279 44.3598 70.4855 44.0108 70.1219C43.4292 70.2431 42.7313 70.4855 41.9171 70.4855C42.0334 70.7279 42.1497 70.9703 42.3824 71.2127C44.2435 74.2427 47.3841 75.9395 50.641 76.4243C56.6895 77.2727 62.6218 73.3943 65.8787 68.3039C66.8092 66.8495 67.5071 65.2739 68.0887 63.6983C68.554 61.7591 68.554 59.9411 68.2051 58.0018ZM40.6376 62.4863C40.6376 62.0015 40.6376 61.3955 40.7539 60.9107C40.8702 59.3351 41.3355 57.7594 41.8008 56.1838C42.9639 52.669 45.174 49.639 47.9656 47.4574C48.3146 47.215 48.7799 46.8514 49.1288 46.609C49.3615 46.9726 49.5941 47.3362 49.7104 47.821C49.9431 48.5482 49.8267 47.215 49.8267 47.0938C49.8267 46.7302 49.8267 46.4878 49.7104 46.1242C52.1531 44.5486 54.8284 43.3366 57.3874 42.1246C58.7833 41.3974 60.2954 40.7914 61.6912 40.0641C59.8301 38.0037 57.7364 36.0645 55.41 34.4889C55.0611 34.2465 54.7121 34.0041 54.3632 33.7617C53.3163 33.7617 52.2694 33.7617 51.1062 33.7617C48.5472 33.7617 46.1045 33.7617 43.5455 34.1253C42.8476 34.2465 42.0334 34.3677 41.3355 34.7313C40.8702 34.9737 40.2886 35.3373 40.056 35.8221C39.8233 36.1857 39.707 36.4281 39.707 36.7917C39.707 37.7613 39.8234 38.6097 39.9397 39.5793C40.1723 40.549 40.4049 41.2762 41.2192 41.8822C42.266 42.6094 43.5455 43.2154 44.5924 43.8214C45.174 44.185 45.7556 44.4274 46.2209 44.791C44.2434 46.609 42.7313 48.6694 41.5681 51.2146C40.2886 54.1234 39.707 57.2746 39.707 60.3047C39.707 61.8803 39.8233 63.4559 40.056 65.0315C40.1723 65.6375 40.1723 66.2435 40.2886 66.8495C40.5213 66.8495 40.7539 66.8495 40.9865 66.8495C40.9865 66.7283 40.8702 66.6071 40.8702 66.6071C40.6376 66.2435 40.5213 65.7587 40.4049 65.2739C40.4049 65.1527 40.2886 65.0315 40.2886 64.7891C40.2886 64.6679 40.2886 64.6679 40.2886 64.5467V64.1831C40.2886 64.0619 40.2886 63.8195 40.2886 63.6983C40.2886 63.5771 40.2886 63.3347 40.2886 63.2135V63.0923C40.6376 62.6075 40.6376 62.4863 40.6376 62.4863ZM46.2209 40.9126C45.2903 40.3066 44.2434 39.8217 43.3129 39.3369C42.7313 39.0945 42.1497 38.7309 41.6844 38.4885C41.8008 38.3673 42.0334 38.2461 42.1497 38.2461C42.8476 38.0037 43.6619 37.8825 44.3598 37.7613C46.6861 37.3977 49.1288 37.3977 51.4552 37.3977C53.8979 37.3977 56.3406 37.3977 58.7833 37.5189L57.7364 38.0037C54.5958 39.4581 51.4552 40.9126 48.5472 42.8518H48.4309C48.082 42.0034 47.1514 41.3974 46.2209 40.9126ZM40.7539 64.4255C40.7539 64.7891 40.7539 64.5467 40.7539 64.4255Z" fill="white" fill-opacity="0.8"/>
<path d="M63.3159 47.4609C61.5711 48.0669 61.4548 50.1273 60.059 51.2182C59.3611 51.703 58.5469 51.703 57.8489 51.097C57.151 50.491 57.151 49.5213 57.151 48.6729C57.151 48.6729 57.151 48.0669 57.0347 48.0669C56.9184 48.0669 56.8021 48.5517 56.8021 48.5517C56.5694 49.4001 56.4531 50.2486 56.4531 51.097C56.4531 52.0666 56.4531 53.2786 56.9184 54.127C57.3837 54.8542 58.1979 55.339 59.0121 55.0966C60.8732 54.3694 60.8732 51.703 62.7343 51.097C63.0833 50.9758 63.1996 49.6425 63.3159 49.2789C63.3159 49.2789 63.4322 47.4609 63.3159 47.4609Z" fill="white" fill-opacity="0.8"/>
<path d="M56.9206 48.3064C56.339 49.1548 55.7574 50.0032 55.1758 50.8516C54.5942 51.5788 54.0126 52.4272 53.1984 52.6696C52.3841 52.912 51.5699 52.6696 51.1046 52.0636C50.4067 51.3364 50.4067 50.2456 50.2904 49.276C50.2904 48.5488 49.9415 49.7608 49.8251 49.7608C49.5925 50.488 49.4762 51.3364 49.5925 52.0636C49.7088 53.0332 49.7088 54.2452 50.2904 55.0936C50.7557 55.8208 51.5699 56.3056 52.5005 56.0632C53.431 55.8208 54.1289 55.0936 54.7105 54.2452C55.4084 53.3968 55.99 52.4272 56.6879 51.4576C57.0369 50.8516 57.1532 50.1244 57.1532 49.3972C57.1532 49.0336 57.2695 48.67 57.1532 48.4276C57.0369 48.5488 57.0369 48.1852 56.9206 48.3064Z" fill="white" fill-opacity="0.8"/>
<path d="M38.427 53.7594C38.8923 54.0018 39.3575 54.123 39.8228 54.2442C39.7065 54.9714 39.4739 56.4258 39.2412 57.6379C38.427 57.3955 37.6128 57.0319 36.9149 56.6682C33.309 54.6078 31.7968 50.2446 31.5642 46.1238C31.3316 41.2758 32.7274 36.4277 35.1701 32.3069C37.4964 28.3073 40.986 25.1561 44.5919 22.4897C45.4061 21.8837 46.2203 21.3989 47.1509 20.9141L49.2446 22.6109C47.4998 23.8229 45.5224 24.9137 43.7776 26.2469C40.2881 28.6709 37.1475 31.8221 34.9374 35.4581C34.1232 36.6701 33.5416 38.0034 33.0763 39.4578C32.8437 40.185 32.6111 40.791 32.4948 41.5182V41.7606V41.8818V42.003C32.4948 42.2454 32.4948 42.3666 32.4948 42.609C32.4948 42.7302 32.4948 42.8514 32.4948 42.9726V43.3362C32.4948 43.6998 32.4948 44.0634 32.6111 44.3058C32.8437 48.4266 34.7048 52.1838 38.427 53.7594Z" fill="white" fill-opacity="0.8"/>
<path d="M50.1727 50.0057C50.1727 50.7329 50.0564 51.5814 49.7074 52.3086C49.5911 52.551 49.4748 52.9146 49.2421 53.157C48.0789 55.3386 46.1015 57.0354 43.7752 57.7626C43.1936 57.8838 42.612 58.005 41.9141 58.005C42.263 57.0354 42.8446 55.4598 43.4262 54.4902C44.3567 54.369 45.171 54.0054 46.1015 53.5206C47.73 52.551 49.1258 50.9754 49.8237 49.2785C50.1727 48.6725 50.1727 49.7633 50.1727 50.0057Z" fill="white" fill-opacity="0.8"/>
<path d="M56.1076 11.5865C56.1076 12.3137 55.9913 13.1621 55.7586 13.8893C54.9444 16.0709 53.8975 18.1313 52.3854 19.8281L50.6406 18.4949C50.8733 18.3737 51.1059 18.1313 51.3385 18.0101C53.3159 16.3133 54.9444 13.8893 55.7586 11.4653C55.7586 11.4653 55.875 10.9805 55.9913 10.9805C56.1076 11.1017 56.1076 11.4653 56.1076 11.5865Z" fill="white" fill-opacity="0.8"/>
<path d="M58.4286 60.182C57.0328 59.9396 55.6369 60.0608 54.3574 60.788C53.5432 61.2728 52.9616 62 52.2637 62.4848C50.17 64.1816 47.8436 65.7573 45.2846 66.6057C42.2603 67.5753 38.6544 67.5753 35.9791 65.5149C33.8854 63.9392 32.4896 61.2728 32.0243 58.7276C31.3264 55.4552 31.6753 52.0616 32.9548 49.0316L33.0711 48.668C32.9548 48.668 32.8385 49.0316 32.8385 49.0316C32.4896 49.6376 32.1406 50.2436 31.908 50.8496C29.8142 55.94 29.6979 62.8484 33.5364 67.0905C35.8628 69.6357 39.1197 70.2417 42.2603 69.7569C45.1683 69.2721 47.9599 67.6965 50.2863 65.8785C50.9842 65.2725 51.6821 64.6665 52.38 64.0605C53.7758 62.8484 55.4043 62.4848 57.1491 62.8484C57.3817 62.8484 57.847 61.7576 57.9633 61.6364C57.847 61.394 58.4286 60.182 58.4286 60.182Z" fill="white" fill-opacity="0.8"/>
<path d="M43.779 13.1611C43.779 15.8275 44.4769 18.6151 45.7564 21.0392L44.2443 22.13C43.0811 18.7363 42.9648 14.9791 43.3137 11.4643C43.3137 10.9795 43.43 10.6159 43.5464 10.1311C43.5464 10.0099 43.6627 9.4039 43.779 9.4039C44.1279 9.2827 43.8953 10.3735 43.8953 10.6159C43.779 11.4643 43.779 12.3127 43.779 13.1611Z" fill="white" fill-opacity="0.8"/>
<path d="M71.8062 58.2487C71.5736 52.3098 69.8288 46.4922 66.8045 41.523C64.8271 38.2506 62.2681 35.2206 59.3601 32.7965C57.1501 30.8573 54.7074 29.2817 52.2647 27.7061C50.7526 26.7365 49.2404 25.6457 47.9609 24.3125L45.8672 25.6457C46.7977 27.1001 47.9609 28.3121 49.3567 29.4029C51.4505 30.9785 53.7768 32.3117 55.9869 33.8874C58.8949 35.9478 61.5702 38.493 63.8966 41.4018C67.6187 46.1286 70.0614 51.7038 70.992 57.7639C71.2246 59.3395 71.3409 61.1575 71.2246 62.7331V62.8543V62.9755V63.0967V63.3391C71.2246 63.4603 71.1083 63.7027 71.1083 63.8239C70.992 64.4299 70.643 65.1571 70.4104 65.7631C69.1309 68.7931 67.1535 71.5808 64.7108 73.8836C63.5476 74.9744 62.1518 76.0652 60.756 76.7924C59.5928 77.5196 58.1969 77.8832 56.9174 78.4892C55.5216 79.0952 54.2421 79.8224 53.3116 81.0344C52.0321 82.61 51.4505 84.5492 51.1015 86.4884C50.8689 87.458 50.8689 88.5488 50.7526 89.5185C50.7526 89.5185 50.7526 90.0033 50.8689 90.0033C50.9852 90.0033 51.1015 89.5185 51.1015 89.5185C51.3342 88.7912 51.4505 87.9428 51.4505 87.2156C51.4505 87.2156 51.4505 87.0944 51.4505 86.9732V86.852C51.4505 86.6096 51.5668 86.3672 51.6831 86.246C52.0321 85.3976 52.4973 84.6704 53.0789 83.9432C54.1258 82.8524 55.4053 82.1252 56.8011 81.5192C58.0806 81.0344 59.3601 80.5496 60.6396 79.8224C62.0355 78.974 63.1986 78.1256 64.3618 77.0348C66.6882 74.8532 68.6656 72.0656 70.0614 69.0355C71.3409 65.5207 71.9225 61.8847 71.8062 58.2487Z" fill="white" fill-opacity="0.8"/>
<path d="M72.5067 51.0931C72.5067 51.8203 72.3904 52.6687 72.0414 53.3959C71.6925 54.0019 71.8088 52.9111 71.8088 52.7899C71.8088 52.5475 71.8088 52.3051 71.8088 52.1839C71.8088 52.0627 71.8088 51.9415 71.8088 51.8203C71.8088 51.3355 71.8088 50.8507 71.8088 50.4871C71.8088 49.5174 71.6925 48.4266 71.5762 47.457C71.2272 45.2754 70.5293 43.0938 69.4824 41.0334C68.5519 39.2154 67.505 37.6398 66.2255 36.0642C66.2255 35.943 66.2255 35.943 66.2255 35.8218C66.3418 35.337 66.3418 34.9734 66.4581 34.8522C66.4581 34.731 66.4581 34.6098 66.4581 34.6098V34.4886V34.3674C66.4581 34.3674 66.4581 34.2462 66.4581 34.125C66.4581 34.0038 66.4581 34.0038 66.3418 33.8826L66.2255 33.7614C66.1092 33.6402 65.9929 33.6402 65.9929 33.6402C65.8765 33.6402 65.8765 33.6402 65.8765 33.6402C65.8765 33.6402 65.8765 33.6402 65.7602 33.6402C65.0623 33.6402 64.4807 33.519 63.7828 33.519C61.3401 31.095 58.5485 28.9133 55.7568 26.9741C52.8489 24.7925 49.7083 22.9745 47.033 20.5505C44.8229 18.4901 43.1944 15.8237 43.0781 12.6725C43.0781 11.9452 43.1944 11.0968 43.3108 10.3696C43.3108 10.2484 43.6597 9.15764 43.776 9.88484C43.8924 13.6421 46.335 16.4297 49.1267 18.6113C52.0346 20.9141 55.0589 22.8533 57.9669 25.0349C60.5259 26.9741 63.0849 29.0345 65.295 31.4586C67.6213 34.0038 69.7151 36.9126 70.9946 40.185C72.5067 43.3362 72.8557 47.2146 72.5067 51.0931Z" fill="white" fill-opacity="0.8"/>
<path d="M53.4317 14.8589C52.8501 15.5861 51.9195 16.6769 51.4543 17.0405C50.989 16.6769 50.64 16.3133 50.1748 15.9497C48.43 14.3741 46.5689 12.5561 45.4057 10.4957C44.0099 7.95045 43.8936 5.16284 44.3588 2.37522C44.3588 2.25402 44.5915 0.678412 44.8241 0.799613C45.0568 0.799613 44.8241 2.37522 44.8241 2.49642V2.61762C44.8241 2.61762 44.8241 2.61762 44.8241 2.73882V2.86002C44.8241 3.22363 44.8241 3.58723 44.8241 3.82963C44.9404 4.55683 45.0568 5.28404 45.2894 5.89004C45.7547 7.22325 46.4526 8.31405 47.3831 9.40486C49.1279 11.4653 51.2216 13.2833 53.4317 14.8589Z" fill="white" fill-opacity="0.8"/>
<path d="M72.3909 52.4303C72.3909 52.5515 72.1583 53.7635 71.9256 53.5211C71.8093 53.3999 71.9256 52.7939 71.9256 52.6727C71.9256 52.1879 72.042 51.8243 72.042 51.3395C72.8562 46.9763 72.6235 42.007 70.9951 37.765C68.5524 30.8566 63.2017 25.1601 57.3858 21.0393C56.8042 20.6757 56.1063 20.1909 55.5247 19.8273C55.0595 19.5849 54.5942 19.2213 54.1289 18.9789C54.5942 18.3729 55.2921 17.0397 55.641 16.3125C56.9205 17.1609 58.0837 17.8881 59.2469 18.7365C62.1549 20.9181 64.7139 23.4633 66.9239 26.3722C69.3666 29.4022 71.2277 32.917 72.2746 36.7954C73.5541 41.8858 73.3215 47.2187 72.3909 52.4303Z" fill="white" fill-opacity="0.8"/>
<path d="M59.2454 45.6399C59.0128 45.5187 58.7802 45.2763 58.6638 45.1551C58.5475 45.0339 58.1986 44.9127 57.9659 44.7915C57.9659 44.7915 57.8496 44.3067 57.8496 44.6703C57.8496 44.7915 57.8496 44.7915 57.9659 44.9127C58.0822 44.9127 58.0822 45.0339 58.1986 45.0339C58.4312 45.1551 58.5475 45.3975 58.6638 45.6399C59.3617 46.6095 59.827 47.8215 60.176 48.9123C60.176 48.7911 60.6413 48.3063 60.6413 48.1851C60.6413 46.9731 60.6412 45.7611 60.7576 44.5491C60.7576 44.4279 60.8739 44.0643 60.8739 43.9431C60.7576 44.0643 60.7576 44.1855 60.6413 44.3067H60.7576C60.8739 44.3067 60.9902 44.1855 61.1065 44.1855C61.5718 44.1855 61.9208 44.5491 61.9208 45.0339C61.9208 44.9127 62.386 44.5491 62.386 44.3067C62.386 43.7007 61.8044 43.2159 61.2228 43.4583C60.8739 43.5795 60.7576 44.0643 60.6413 44.4279C60.4086 44.9127 60.4086 45.5187 60.4086 46.1247C60.4086 47.0943 60.2923 48.0639 60.2923 48.9123C60.4086 48.6699 60.5249 48.4275 60.7576 48.1851C60.4086 47.3367 60.0597 46.3671 59.5944 45.6399C59.3617 45.2763 58.7802 44.0643 58.1986 44.1855C57.8496 44.3067 57.617 45.0339 57.5007 45.2763C57.3843 45.6399 57.5006 45.6399 57.8496 45.7611C58.1986 45.8823 58.5475 46.2459 58.7802 46.4883C58.8965 46.4883 59.3617 45.7611 59.2454 45.6399Z" fill="white" fill-opacity="0.8"/>
<path d="M36.8001 46.3665C36.5675 46.2453 36.3348 46.0029 36.2185 45.8817C36.1022 45.7605 35.7532 45.6392 35.5206 45.518C35.5206 45.518 35.4043 45.0332 35.4043 45.3968C35.4043 45.518 35.4043 45.518 35.5206 45.6392C35.6369 45.6392 35.6369 45.7604 35.7532 45.7604C35.9859 45.8816 36.1022 46.124 36.2185 46.3665C36.9164 47.3361 37.3817 48.5481 37.7307 49.6389C37.7307 49.5177 38.1959 49.0329 38.1959 48.9117C38.1959 47.6997 38.1959 46.4877 38.3123 45.2756C38.3123 45.1544 38.4286 44.7908 38.4286 44.6696C38.3123 44.7908 38.3123 44.912 38.1959 45.0332H38.3123C38.4286 45.0332 38.5449 44.912 38.6612 44.912C39.1265 44.912 39.4754 45.2756 39.4754 45.7604C39.4754 45.6392 39.9407 45.2756 39.9407 45.0332C39.9407 44.4272 39.3591 43.9424 38.7775 44.1848C38.4286 44.306 38.3123 44.7908 38.1959 45.1544C37.9633 45.6392 37.9633 46.2453 37.9633 46.8513C37.9633 47.8209 37.847 48.7905 37.847 49.6389C37.9633 49.3965 38.0796 49.1541 38.3123 48.9117C37.9633 48.0633 37.6143 47.0937 37.1491 46.3665C36.8001 46.0028 36.2185 44.7908 35.6369 44.912C35.288 44.912 35.0553 45.6392 35.0553 46.0029C34.939 46.3665 35.0553 46.3665 35.4043 46.4877C35.7532 46.6089 36.1022 46.9725 36.3348 47.2149C36.3348 47.2149 36.8001 46.4877 36.8001 46.3665Z" fill="white" fill-opacity="0.8"/>
<path d="M60.8767 60.7931C60.5278 61.8839 60.1788 63.2171 60.0625 64.4292C60.0625 65.1564 60.1788 66.126 60.993 66.2472C61.691 66.3684 62.3889 65.6412 62.7378 65.1564C62.9705 64.7928 63.2031 64.308 63.3194 63.9444C63.4357 63.702 63.4357 63.5808 63.2031 63.8232C62.8541 64.4292 62.0399 64.7928 61.4583 64.308C60.8767 63.8232 60.8767 62.9748 60.993 62.3687C61.1094 61.3991 61.4583 60.4295 61.691 59.4599C61.8073 59.0963 61.4583 59.7023 61.4583 59.7023C61.2257 59.9447 60.993 60.4295 60.8767 60.7931Z" fill="white" fill-opacity="0.8"/>
<path d="M47.9627 79.09C47.6137 80.1808 47.2648 81.514 47.1484 82.726C47.1484 83.4532 47.2648 84.4228 48.079 84.544C48.7769 84.6652 49.4748 83.938 49.8238 83.4532C50.0564 83.0896 50.289 82.6048 50.4054 82.2412C50.5217 81.9988 50.5217 81.8776 50.289 82.12C49.9401 82.726 49.1258 83.0896 48.5443 82.6048C47.9627 82.12 47.9627 81.2716 48.079 80.6656C48.1953 79.696 48.5443 78.7264 48.7769 77.7568C48.8932 77.3932 48.5443 77.9992 48.5443 77.9992C48.3116 78.2416 48.079 78.7264 47.9627 79.09Z" fill="white" fill-opacity="0.8"/>
<path d="M41.4509 74.8517C41.102 75.9425 40.753 77.2758 40.6367 78.4878C40.6367 79.215 40.753 80.1846 41.5673 80.3058C42.2652 80.427 42.9631 79.6998 43.312 79.215C43.5447 78.8514 43.7773 78.3666 43.8936 78.003C44.01 77.7606 44.01 77.6394 43.7773 77.8818C43.4284 78.4878 42.6141 78.8514 42.0325 78.3665C41.4509 77.8817 41.4509 77.0333 41.5673 76.4273C41.6836 75.4577 42.0325 74.4881 42.2652 73.5185C42.3815 73.1549 42.0325 73.7609 42.0325 73.7609C41.7999 74.0033 41.5673 74.3669 41.4509 74.8517Z" fill="white" fill-opacity="0.8"/>
<path d="M51.2205 3.5822C50.8715 4.67301 50.5226 6.00621 50.4062 7.21822C50.4062 7.94542 50.5226 8.91503 51.3368 9.03623C52.0347 9.15743 52.7326 8.43023 53.0816 7.94542C53.3142 7.58182 53.5468 7.09702 53.6632 6.73342C53.7795 6.49102 53.7795 6.36982 53.5469 6.61222C53.1979 7.21822 52.3837 7.58182 51.8021 7.09702C51.2205 6.61222 51.2205 5.76381 51.3368 5.15781C51.4531 4.1882 51.8021 3.2186 52.0347 2.24899C52.151 1.88539 51.8021 2.4914 51.8021 2.4914C51.5694 2.7338 51.3368 3.0974 51.2205 3.5822Z" fill="white" fill-opacity="0.8"/>
<path d="M52.7361 66.1252C52.3871 67.216 52.0382 68.5492 51.9219 69.7612C51.9219 70.4884 52.0382 71.458 52.8524 71.5792C53.5503 71.7004 54.2482 70.9732 54.5972 70.4884C54.8298 70.1248 55.0625 69.64 55.1788 69.2764C55.2951 69.034 55.2951 68.9128 55.0625 69.1552C54.7135 69.7612 53.8993 70.1248 53.3177 69.64C52.7361 69.1552 52.7361 68.3068 52.8524 67.7008C52.9687 66.7312 53.3177 65.7616 53.5503 64.792C53.6667 64.4284 53.3177 65.0344 53.3177 65.0344C53.0851 65.2768 52.9687 65.6404 52.7361 66.1252Z" fill="white" fill-opacity="0.8"/>
<path d="M36.5642 59.215C36.2153 60.3058 35.8663 61.639 35.75 62.851C35.75 63.5782 35.8663 64.5478 36.6805 64.669C37.3785 64.7902 38.0764 64.063 38.4253 63.5782C38.658 63.2146 38.8906 62.7298 39.0069 62.3662C39.1232 62.1238 39.1232 62.0026 38.8906 62.245C38.5416 62.851 37.7274 63.2146 37.1458 62.7298C36.5642 62.245 36.5642 61.3966 36.6805 60.7906C36.7969 59.821 37.1458 58.8514 37.3785 57.8818C37.4948 57.5182 37.1458 58.1242 37.1458 58.1242C36.9132 58.3666 36.6805 58.8514 36.5642 59.215Z" fill="white" fill-opacity="0.8"/>
<path d="M36.7958 39.5825C36.4469 40.4309 36.0979 41.5217 36.2142 42.4913C36.2142 42.9761 36.4469 43.7033 37.0285 43.7033C37.4937 43.7033 37.8427 43.2185 38.1916 42.8549C38.4243 42.6125 38.5406 42.2489 38.6569 41.8853C38.7732 41.6429 38.7732 41.6429 38.5406 41.8853C38.308 42.2489 37.7264 42.6125 37.2611 42.2489C36.7958 41.8853 36.7958 41.2793 36.7958 40.7945C36.9121 39.9461 37.1448 39.2189 37.3774 38.4917C37.4937 38.2493 37.1448 38.6129 37.1448 38.7341C37.0285 38.9765 36.9121 39.3401 36.7958 39.5825Z" fill="white" fill-opacity="0.8"/>
<path d="M44.3558 61.515C45.4026 62.6058 46.4495 63.6966 47.729 64.6662C47.729 64.6662 50.288 61.0302 50.0554 60.909C48.8922 59.9394 47.729 58.9698 46.6821 57.7578C46.6821 57.7578 45.519 59.4546 45.4026 59.5758C45.17 60.0606 44.821 60.4242 44.5884 60.909C44.5884 61.0302 44.2395 61.3938 44.3558 61.515Z" fill="white" fill-opacity="0.8"/>
<path d="M42.2648 30.8534C43.079 30.7322 44.0095 30.7322 44.8238 30.7322C45.0564 30.7322 45.289 30.7322 45.4054 30.8534H45.5217C45.638 30.611 45.7543 30.2474 45.8706 30.005C46.4522 28.793 46.1033 29.6414 45.7543 30.005C45.5217 30.2474 45.289 30.7322 45.0564 31.0958C44.9401 31.3382 44.8238 31.4594 44.8238 31.7018C44.8238 31.7018 44.7074 31.9442 44.8238 31.823C45.4054 31.217 45.8706 30.4898 46.2196 29.6414C46.3359 29.399 46.5685 29.0354 46.2196 28.9142C45.8706 28.793 45.4054 28.793 45.0564 28.793C44.3585 28.793 43.7769 28.793 43.079 28.9142C42.9627 28.9142 42.8464 29.1566 42.8464 29.1566C42.73 29.399 42.6137 29.6414 42.4974 29.7626C42.3811 30.005 42.2648 30.2474 42.1484 30.4898C42.3811 30.611 42.2648 30.8534 42.2648 30.8534Z" fill="white" fill-opacity="0.8"/>
<path d="M45.2892 30.8537C45.2892 30.8537 43.3118 32.4293 42.8465 32.4293C42.3813 32.5505 42.7302 32.6717 42.9628 32.5505C43.3118 32.4293 44.7076 32.3081 45.1729 31.7021C45.5219 31.0961 45.6382 30.3689 45.2892 30.8537Z" fill="white" fill-opacity="0.8"/>
<path d="M48.4293 -14.2301C47.964 -13.9877 47.4987 -13.7453 47.1498 -13.2605L7.36886 28.0689C4.92618 30.6141 3.1814 33.4017 2.01821 36.5529C0.85503 39.5829 0.273438 42.8553 0.273438 46.1278C0.273438 49.4002 0.85503 52.6726 2.01821 55.7026C3.1814 58.7326 5.04249 61.6414 7.36886 64.1867L47.1498 105.637L47.7314 105.031L48.313 104.425L8.53205 63.0959C6.322 60.793 4.57722 58.1266 3.53036 55.2178C2.36717 52.309 1.9019 49.279 1.9019 46.249C1.9019 43.219 2.48349 40.1889 3.53036 37.2801C4.69354 34.3713 6.322 31.7049 8.53205 29.4021L48.313 -12.1697C48.5456 -12.4121 48.7782 -12.5333 49.1272 -12.6545C49.3598 -12.7757 49.7088 -12.7757 50.0577 -12.7757C50.4067 -12.7757 50.6393 -12.7757 50.9883 -12.6545C51.2209 -12.5333 51.5699 -12.4121 51.8025 -12.1697L91.5834 29.2809C93.7935 31.5837 95.5383 34.2501 96.5851 37.1589C97.7483 40.0677 98.2136 43.0977 98.2136 46.1278C98.2136 49.1578 97.632 52.1878 96.5851 55.0966C95.422 58.0054 93.7935 60.6718 91.5834 62.9747L51.6862 104.546C51.4536 104.789 51.2209 104.91 50.872 105.031C50.6393 105.152 50.2904 105.152 49.9414 105.152C49.5925 105.152 49.3598 105.152 49.0109 105.031C48.7782 104.91 48.4293 104.789 48.1967 104.546L47.6151 105.152L47.0335 105.758C47.3824 106.122 47.8477 106.486 48.313 106.728C48.7782 106.97 49.3598 107.092 49.8251 107.092C50.2904 107.092 50.872 106.97 51.3373 106.728C51.8025 106.486 52.2678 106.243 52.6168 105.758L92.3977 64.3079C94.8404 61.7626 96.5851 58.975 97.7483 55.8238C98.9115 52.7938 99.4931 49.5214 99.4931 46.249C99.4931 42.9766 98.9115 39.7041 97.7483 36.6741C96.5851 33.6441 94.724 30.7353 92.3977 28.1901L52.8494 -13.3817C52.5004 -13.7453 52.0352 -14.1089 51.5699 -14.3513C50.9883 -14.4725 50.523 -14.5938 49.9414 -14.5938C49.3598 -14.5938 49.0109 -14.4725 48.4293 -14.2301Z" fill="white" fill-opacity="0.8"/>
</g>
<defs>
<clipPath id="clip0_243_3154">
<rect width="76.7263" height="157.35" fill="white" transform="translate(0.273438 0.617188)"/>
</clipPath>
</defs>
</svg>
