<svg width="247" height="362" viewBox="0 0 247 362" fill="none" xmlns="http://www.w3.org/2000/svg">
<g style="mix-blend-mode:soft-light" clip-path="url(#clip0_222_2498)">
<path d="M211.198 103.155C206.705 102.781 202.211 102.781 197.343 102.406C201.462 106.525 205.581 110.644 209.326 115.512C209.7 114.389 210.075 111.768 210.824 108.023C211.947 102.781 211.947 103.53 211.198 103.155ZM218.687 177.298C217.938 172.055 216.815 167.562 211.947 164.94C208.951 163.068 205.207 162.319 202.585 159.698C202.96 158.575 203.709 157.451 204.458 156.328C204.832 155.953 204.832 155.205 204.832 154.456C204.832 152.958 204.832 151.834 204.458 150.337C204.458 148.839 204.083 147.715 203.709 146.218L202.96 144.72C201.462 147.341 199.964 149.962 199.964 152.958C199.59 155.205 199.964 157.826 200.339 160.073C200.713 162.694 201.088 164.94 201.837 167.562C203.334 171.681 207.828 173.178 211.572 175.051C213.445 176.174 215.691 177.298 216.815 179.17L217.189 179.544C216.44 182.914 215.691 186.284 214.194 189.655C206.705 206.131 191.352 219.237 173.378 222.607C163.642 224.479 152.783 222.607 144.545 217.364C143.421 216.615 141.924 215.867 140.8 214.743C138.928 215.118 136.681 215.867 134.06 215.867C134.434 216.615 134.809 217.364 135.558 218.113C141.549 227.475 151.659 232.717 162.144 234.215C181.616 236.836 200.713 224.853 211.198 209.126C214.194 204.633 216.44 199.765 218.313 194.897C219.81 188.906 219.81 183.289 218.687 177.298ZM129.941 191.152C129.941 189.655 129.941 187.782 130.315 186.284C130.69 181.417 132.188 176.549 133.686 171.681C137.43 160.821 144.545 151.46 153.532 144.72C154.655 143.971 156.153 142.848 157.276 142.099C158.025 143.222 158.774 144.345 159.149 145.843C159.897 148.09 159.523 143.971 159.523 143.596C159.523 142.473 159.523 141.724 159.149 140.601C167.012 135.733 175.625 131.988 183.863 128.244C188.356 125.997 193.224 124.125 197.718 121.878C191.726 115.512 184.986 109.521 177.497 104.653C176.374 103.904 175.25 103.155 174.127 102.406C170.757 102.406 167.387 102.406 163.642 102.406C155.404 102.406 147.54 102.406 139.302 103.53C137.056 103.904 134.434 104.279 132.188 105.402C130.69 106.151 128.818 107.274 128.069 108.772C127.32 109.895 126.945 110.644 126.945 111.768C126.945 114.763 127.32 117.385 127.694 120.38C128.443 123.376 129.192 125.623 131.813 127.495C135.183 129.742 139.302 131.614 142.672 133.486C144.545 134.609 146.417 135.358 147.915 136.482C141.549 142.099 136.681 148.464 132.937 156.328C128.818 165.315 126.945 175.051 126.945 184.412C126.945 189.28 127.32 194.148 128.069 199.016C128.443 200.888 128.443 202.761 128.818 204.633C129.567 204.633 130.315 204.633 131.064 204.633C131.064 204.258 130.69 203.884 130.69 203.884C129.941 202.761 129.567 201.263 129.192 199.765C129.192 199.39 128.818 199.016 128.818 198.267C128.818 197.893 128.818 197.893 128.818 197.518V196.395C128.818 196.02 128.818 195.271 128.818 194.897C128.818 194.522 128.818 193.774 128.818 193.399V193.025C129.941 191.527 129.941 191.152 129.941 191.152ZM147.915 124.499C144.919 122.627 141.549 121.129 138.553 119.631C136.681 118.882 134.809 117.759 133.311 117.01C133.686 116.636 134.434 116.261 134.809 116.261C137.056 115.512 139.677 115.138 141.924 114.763C149.413 113.64 157.276 113.64 164.765 113.64C172.629 113.64 180.493 113.64 188.356 114.014L184.986 115.512C174.876 120.006 164.765 124.499 155.404 130.49H155.03C153.906 127.869 150.911 125.997 147.915 124.499ZM130.315 197.144C130.315 197.518 130.315 198.267 130.315 197.144V197.144Z" fill="white" fill-opacity="0.8"/>
<path d="M202.952 144.729C197.335 146.601 196.961 152.967 192.468 156.337C190.221 157.834 187.6 157.834 185.353 155.962C183.106 154.09 183.106 151.094 183.106 148.473C183.106 148.473 183.106 146.601 182.732 146.601C182.357 146.601 181.983 148.099 181.983 148.099C181.234 150.72 180.859 153.341 180.859 155.962C180.859 158.958 180.859 162.702 182.357 165.324C183.855 167.57 186.476 169.068 189.097 168.319C195.089 166.073 195.089 157.834 201.08 155.962C202.203 155.588 202.578 151.469 202.952 150.345C202.952 150.345 203.327 144.729 202.952 144.729Z" fill="white" fill-opacity="0.8"/>
<path d="M182.363 147.342C180.49 149.963 178.618 152.585 176.746 155.206C174.874 157.453 173.001 160.074 170.38 160.823C167.759 161.572 165.138 160.823 163.64 158.95C161.393 156.704 161.393 153.333 161.019 150.338C161.019 148.091 159.895 151.836 159.521 151.836C158.772 154.082 158.397 156.704 158.772 158.95C159.146 161.946 159.146 165.691 161.019 168.312C162.516 170.558 165.138 172.056 168.133 171.307C171.129 170.558 173.376 168.312 175.248 165.691C177.495 163.069 179.367 160.074 181.614 157.078C182.737 155.206 183.112 152.959 183.112 150.712C183.112 149.589 183.486 148.466 183.112 147.717C182.737 148.091 182.737 146.968 182.363 147.342Z" fill="white" fill-opacity="0.8"/>
<path d="M122.822 164.192C124.32 164.94 125.818 165.315 127.316 165.689C126.941 167.936 126.192 172.43 125.443 176.174C122.822 175.425 120.201 174.302 117.954 173.178C106.346 166.813 101.478 153.332 100.729 140.601C99.9805 125.623 104.474 110.644 112.338 97.9128C119.827 85.5557 131.06 75.8198 142.668 67.5818C145.29 65.7095 147.911 64.2117 150.907 62.7139L157.647 67.9563C152.03 71.7008 145.664 75.0709 140.047 79.19C128.814 86.6791 118.703 96.4149 111.589 107.649C108.967 111.393 107.095 115.512 105.597 120.006C104.848 122.252 104.099 124.125 103.725 126.371V127.12V127.495V127.869C103.725 128.618 103.725 128.993 103.725 129.742C103.725 130.116 103.725 130.49 103.725 130.865V131.988C103.725 133.112 103.725 134.235 104.099 134.984C104.848 147.715 110.84 159.324 122.822 164.192Z" fill="white" fill-opacity="0.8"/>
<path d="M160.641 152.59C160.641 154.837 160.267 157.458 159.143 159.704C158.769 160.453 158.394 161.577 157.645 162.326C153.901 169.066 147.535 174.308 140.046 176.555C138.174 176.929 136.301 177.304 134.055 177.304C135.178 174.308 137.05 169.44 138.923 166.445C141.918 166.07 144.539 164.947 147.535 163.449C152.777 160.453 157.271 155.585 159.518 150.343C160.641 148.471 160.641 151.841 160.641 152.59Z" fill="white" fill-opacity="0.8"/>
<path d="M179.74 33.8889C179.74 36.1356 179.366 38.7568 178.617 41.0036C175.996 47.7438 172.625 54.1095 167.757 59.3519L162.141 55.2329C162.89 54.8584 163.638 54.1095 164.387 53.7351C170.753 48.4927 175.996 41.0036 178.617 33.5144C178.617 33.5144 178.991 32.0166 179.366 32.0166C179.74 32.3911 179.74 33.5144 179.74 33.8889Z" fill="white" fill-opacity="0.8"/>
<path d="M187.222 184.033C182.728 183.284 178.235 183.659 174.116 185.906C171.495 187.403 169.622 189.65 167.376 191.148C160.635 196.39 153.146 201.258 144.908 203.879C135.172 206.875 123.564 206.875 114.952 200.509C108.212 195.641 103.718 187.403 102.22 179.54C99.9735 169.43 101.097 158.945 105.216 149.583L105.59 148.46C105.216 148.46 104.841 149.583 104.841 149.583C103.718 151.456 102.595 153.328 101.846 155.2C95.1056 170.927 94.7311 192.271 107.088 205.377C114.577 213.241 125.062 215.113 135.172 213.615C144.534 212.118 153.521 207.25 161.01 201.633C163.257 199.76 165.503 197.888 167.75 196.016C172.244 192.271 177.486 191.148 183.103 192.271C183.852 192.271 185.35 188.901 185.724 188.527C185.35 187.778 187.222 184.033 187.222 184.033Z" fill="white" fill-opacity="0.8"/>
<path d="M140.051 38.7582C140.051 46.9962 142.298 55.6087 146.417 63.0978L141.549 66.4679C137.804 55.9832 137.43 44.375 138.553 33.5158C138.553 32.018 138.928 30.8946 139.302 29.3968C139.302 29.0223 139.677 27.15 140.051 27.15C141.175 26.7756 140.426 30.1457 140.426 30.8946C140.051 33.5158 140.051 36.137 140.051 38.7582Z" fill="white" fill-opacity="0.8"/>
<path d="M230.285 178.055C229.536 159.706 223.919 141.733 214.183 126.38C207.818 116.27 199.58 106.908 190.218 99.419C183.104 93.4277 175.24 88.5598 167.376 83.6918C162.508 80.6962 157.64 77.3261 153.521 73.207L146.781 77.3261C149.777 81.8195 153.521 85.5641 158.015 88.9342C164.755 93.8021 172.244 97.9212 179.359 102.789C188.72 109.155 197.333 117.018 204.822 126.005C216.805 140.609 224.668 157.834 227.664 176.557C228.413 181.425 228.787 187.042 228.413 191.91V192.284V192.659V193.033V193.782C228.413 194.156 228.038 194.905 228.038 195.28C227.664 197.152 226.54 199.399 225.792 201.271C221.673 210.633 215.307 219.245 207.443 226.36C203.699 229.73 199.205 233.1 194.712 235.347C190.967 237.593 186.474 238.717 182.355 240.589C177.861 242.461 173.742 244.708 170.746 248.453C166.627 253.321 164.755 259.312 163.632 265.303C162.883 268.299 162.883 271.669 162.508 274.665C162.508 274.665 162.508 276.162 162.883 276.162C163.257 276.162 163.632 274.665 163.632 274.665C164.381 272.418 164.755 269.797 164.755 267.55C164.755 267.55 164.755 267.175 164.755 266.801V266.426C164.755 265.678 165.13 264.929 165.504 264.554C166.627 261.933 168.125 259.686 169.998 257.44C173.368 254.069 177.487 251.823 181.98 249.95C186.099 248.453 190.218 246.955 194.337 244.708C198.831 242.087 202.575 239.466 206.32 236.096C213.809 229.355 220.175 220.743 224.668 211.381C228.787 200.522 230.659 189.288 230.285 178.055Z" fill="white" fill-opacity="0.8"/>
<path d="M232.542 155.952C232.542 158.199 232.168 160.82 231.044 163.067C229.921 164.939 230.295 161.569 230.295 161.194C230.295 160.445 230.295 159.696 230.295 159.322C230.295 158.947 230.295 158.573 230.295 158.199C230.295 156.701 230.295 155.203 230.295 154.08C230.295 151.084 229.921 147.714 229.546 144.718C228.423 137.978 226.176 131.238 222.806 124.872C219.811 119.255 216.441 114.387 212.321 109.519C212.321 109.145 212.321 109.145 212.321 108.77C212.696 107.273 212.696 106.149 213.07 105.775C213.07 105.4 213.07 105.026 213.07 105.026V104.651V104.277C213.07 104.277 213.07 103.902 213.07 103.528C213.07 103.154 213.07 103.154 212.696 102.779L212.321 102.405C211.947 102.03 211.573 102.03 211.573 102.03C211.198 102.03 211.198 102.03 211.198 102.03C211.198 102.03 211.198 102.03 210.824 102.03C208.577 102.03 206.705 101.656 204.458 101.656C196.594 94.1666 187.607 87.4263 178.62 81.435C169.259 74.6948 159.149 69.078 150.536 61.5889C143.422 55.2231 138.179 46.9851 137.805 37.2492C137.805 35.0025 138.179 32.3813 138.554 30.1345C138.554 29.7601 139.677 26.39 140.051 28.6367C140.426 40.2448 148.289 48.8573 157.276 55.5976C166.638 62.7122 176.374 68.7035 185.735 75.4437C193.973 81.435 202.211 87.8008 209.326 95.2899C216.815 103.154 223.555 112.14 227.674 122.251C232.542 131.987 233.666 143.969 232.542 155.952Z" fill="white" fill-opacity="0.8"/>
<path d="M171.127 43.9946C169.255 46.2413 166.259 49.6114 164.761 50.7348C163.263 49.6114 162.14 48.488 160.642 47.3647C155.025 42.4967 149.034 36.8799 145.29 30.5141C140.796 22.6506 140.422 14.0381 141.919 5.42557C141.919 5.05111 142.668 0.18318 143.417 0.557637C144.166 0.557637 143.417 5.42557 143.417 5.80003V6.17448C143.417 6.17448 143.417 6.17448 143.417 6.54894V6.92339C143.417 8.04676 143.417 9.17013 143.417 9.91905C143.792 12.1658 144.166 14.4125 144.915 16.2848C146.413 20.4038 148.66 23.7739 151.655 27.144C157.272 33.5098 164.012 39.1266 171.127 43.9946Z" fill="white" fill-opacity="0.8"/>
<path d="M232.165 160.077C232.165 160.452 231.416 164.196 230.667 163.447C230.292 163.073 230.667 161.201 230.667 160.826C230.667 159.328 231.041 158.205 231.041 156.707C233.662 143.227 232.914 127.874 227.671 114.768C219.808 93.424 202.583 75.8246 183.86 63.0931C181.987 61.9697 179.741 60.4719 177.868 59.3485C176.371 58.5996 174.873 57.4762 173.375 56.7273C174.873 54.855 177.12 50.736 178.243 48.4893C182.362 51.1105 186.107 53.3572 189.851 55.9784C199.212 62.7186 207.451 70.5822 214.565 79.5691C222.429 88.9305 228.42 99.7898 231.79 111.772C235.909 127.5 235.16 143.976 232.165 160.077Z" fill="white" fill-opacity="0.8"/>
<path d="M189.847 139.1C189.098 138.726 188.349 137.977 187.975 137.602C187.6 137.228 186.477 136.854 185.728 136.479C185.728 136.479 185.354 134.981 185.354 136.105C185.354 136.479 185.354 136.479 185.728 136.854C186.103 136.854 186.103 137.228 186.477 137.228C187.226 137.602 187.6 138.351 187.975 139.1C190.222 142.096 191.719 145.84 192.843 149.211C192.843 148.836 194.341 147.338 194.341 146.964C194.341 143.219 194.341 139.475 194.715 135.73C194.715 135.356 195.09 134.232 195.09 133.858C194.715 134.232 194.715 134.607 194.341 134.981H194.715C195.089 134.981 195.464 134.607 195.838 134.607C197.336 134.607 198.46 135.73 198.46 137.228C198.46 136.854 199.957 135.73 199.957 134.981C199.957 133.109 198.085 131.611 196.213 132.36C195.09 132.734 194.715 134.232 194.341 135.356C193.592 136.854 193.592 138.726 193.592 140.598C193.592 143.594 193.217 146.589 193.217 149.211C193.592 148.462 193.966 147.713 194.715 146.964C193.592 144.343 192.468 141.347 190.97 139.1C190.222 137.977 188.349 134.232 186.477 134.607C185.354 134.981 184.605 137.228 184.23 137.977C183.856 139.1 184.23 139.1 185.354 139.475C186.477 139.849 187.6 140.973 188.349 141.721C188.724 141.721 190.222 139.475 189.847 139.1Z" fill="white" fill-opacity="0.8"/>
<path d="M117.585 141.348C116.836 140.974 116.088 140.225 115.713 139.85C115.339 139.476 114.215 139.102 113.466 138.727C113.466 138.727 113.092 137.229 113.092 138.353C113.092 138.727 113.092 138.727 113.466 139.102C113.841 139.102 113.841 139.476 114.215 139.476C114.964 139.85 115.339 140.599 115.713 141.348C117.96 144.344 119.458 148.089 120.581 151.459C120.581 151.084 122.079 149.586 122.079 149.212C122.079 145.467 122.079 141.723 122.453 137.978C122.453 137.604 122.828 136.48 122.828 136.106C122.453 136.48 122.453 136.855 122.079 137.229H122.453C122.828 137.229 123.202 136.855 123.577 136.855C125.075 136.855 126.198 137.978 126.198 139.476C126.198 139.102 127.696 137.978 127.696 137.229C127.696 135.357 125.823 133.859 123.951 134.608C122.828 134.983 122.453 136.48 122.079 137.604C121.33 139.102 121.33 140.974 121.33 142.846C121.33 145.842 120.956 148.837 120.956 151.459C121.33 150.71 121.704 149.961 122.453 149.212C121.33 146.591 120.207 143.595 118.709 141.348C117.585 140.225 115.713 136.48 113.841 136.855C112.717 136.855 111.969 139.102 111.969 140.225C111.594 141.348 111.969 141.348 113.092 141.723C114.215 142.097 115.339 143.221 116.088 143.969C116.088 143.969 117.585 141.723 117.585 141.348Z" fill="white" fill-opacity="0.8"/>
<path d="M195.09 185.916C193.967 189.287 192.843 193.406 192.469 197.15C192.469 199.397 192.843 202.393 195.464 202.767C197.711 203.141 199.958 200.895 201.081 199.397C201.83 198.274 202.579 196.776 202.954 195.652C203.328 194.903 203.328 194.529 202.579 195.278C201.456 197.15 198.835 198.274 196.962 196.776C195.09 195.278 195.09 192.657 195.464 190.784C195.839 187.789 196.962 184.793 197.711 181.797C198.086 180.674 196.962 182.546 196.962 182.546C196.213 183.295 195.464 184.793 195.09 185.916Z" fill="white" fill-opacity="0.8"/>
<path d="M153.527 242.448C152.404 245.818 151.281 249.937 150.906 253.681C150.906 255.928 151.281 258.924 153.902 259.298C156.149 259.673 158.395 257.426 159.519 255.928C160.268 254.805 161.017 253.307 161.391 252.184C161.765 251.435 161.765 251.06 161.017 251.809C159.893 253.681 157.272 254.805 155.4 253.307C153.527 251.809 153.527 249.188 153.902 247.316C154.276 244.32 155.4 241.324 156.149 238.329C156.523 237.205 155.4 239.078 155.4 239.078C154.651 239.827 153.902 241.324 153.527 242.448Z" fill="white" fill-opacity="0.8"/>
<path d="M132.555 229.356C131.431 232.726 130.308 236.845 129.934 240.59C129.934 242.836 130.308 245.832 132.929 246.206C135.176 246.581 137.423 244.334 138.546 242.836C139.295 241.713 140.044 240.215 140.418 239.092C140.793 238.343 140.793 237.968 140.044 238.717C138.921 240.59 136.299 241.713 134.427 240.215C132.555 238.717 132.555 236.096 132.929 234.224C133.304 231.228 134.427 228.233 135.176 225.237C135.55 224.114 134.427 225.986 134.427 225.986C133.678 226.735 132.929 227.858 132.555 229.356Z" fill="white" fill-opacity="0.8"/>
<path d="M164.012 9.16156C162.888 12.5317 161.765 16.6507 161.391 20.3953C161.391 22.642 161.765 25.6376 164.386 26.0121C166.633 26.3866 168.88 24.1398 170.003 22.642C170.752 21.5186 171.501 20.0208 171.875 18.8974C172.25 18.1485 172.25 17.7741 171.501 18.523C170.378 20.3953 167.756 21.5186 165.884 20.0208C164.012 18.523 164.012 15.9018 164.386 14.0295C164.761 11.0338 165.884 8.03819 166.633 5.04254C167.007 3.91917 165.884 5.79146 165.884 5.79146C165.135 6.54037 164.386 7.66374 164.012 9.16156Z" fill="white" fill-opacity="0.8"/>
<path d="M168.883 202.389C167.76 205.759 166.636 209.878 166.262 213.623C166.262 215.87 166.636 218.865 169.257 219.24C171.504 219.614 173.751 217.367 174.874 215.87C175.623 214.746 176.372 213.248 176.746 212.125C177.121 211.376 177.121 211.002 176.372 211.751C175.249 213.623 172.627 214.746 170.755 213.248C168.883 211.751 168.883 209.129 169.257 207.257C169.632 204.261 170.755 201.266 171.504 198.27C171.879 197.147 170.755 199.019 170.755 199.019C170.006 199.768 169.632 200.891 168.883 202.389Z" fill="white" fill-opacity="0.8"/>
<path d="M116.824 181.037C115.701 184.407 114.578 188.526 114.203 192.27C114.203 194.517 114.578 197.513 117.199 197.887C119.446 198.262 121.692 196.015 122.816 194.517C123.565 193.394 124.313 191.896 124.688 190.772C125.062 190.024 125.062 189.649 124.313 190.398C123.19 192.27 120.569 193.394 118.697 191.896C116.824 190.398 116.824 187.777 117.199 185.904C117.573 182.909 118.697 179.913 119.446 176.918C119.82 175.794 118.697 177.666 118.697 177.666C117.948 178.415 117.199 179.913 116.824 181.037Z" fill="white" fill-opacity="0.8"/>
<path d="M117.579 120.38C116.455 123.001 115.332 126.371 115.706 129.367C115.706 130.865 116.455 133.111 118.327 133.111C119.825 133.111 120.949 131.614 122.072 130.49C122.821 129.741 123.195 128.618 123.57 127.495C123.944 126.746 123.944 126.746 123.195 127.495C122.446 128.618 120.574 129.741 119.076 128.618C117.579 127.495 117.579 125.622 117.579 124.124C117.953 121.503 118.702 119.256 119.451 117.01C119.825 116.261 118.702 117.384 118.702 117.759C118.327 118.508 117.953 119.631 117.579 120.38Z" fill="white" fill-opacity="0.8"/>
<path d="M141.916 188.151C145.286 191.521 148.656 194.891 152.776 197.887C152.776 197.887 161.014 186.653 160.265 186.279C156.52 183.283 152.775 180.288 149.405 176.543C149.405 176.543 145.661 181.785 145.286 182.16C144.537 183.658 143.414 184.781 142.665 186.279C142.665 186.653 141.542 187.777 141.916 188.151Z" fill="white" fill-opacity="0.8"/>
<path d="M135.179 93.4146C137.8 93.0401 140.796 93.0401 143.417 93.0401C144.166 93.0401 144.915 93.0401 145.289 93.4146H145.664C146.038 92.6657 146.413 91.5423 146.787 90.7934C148.66 87.0488 147.536 89.67 146.413 90.7934C145.664 91.5423 144.915 93.0401 144.166 94.1635C143.792 94.9124 143.417 95.2869 143.417 96.0358C143.417 96.0358 143.043 96.7847 143.417 96.4102C145.289 94.538 146.787 92.2912 147.911 89.67C148.285 88.9211 149.034 87.7977 147.911 87.4233C146.787 87.0488 145.289 87.0488 144.166 87.0488C141.919 87.0488 140.047 87.0488 137.8 87.4233C137.426 87.4233 137.051 88.1722 137.051 88.1722C136.677 88.9211 136.303 89.67 135.928 90.0445C135.554 90.7934 135.179 91.5423 134.805 92.2912C135.554 92.6657 135.179 93.4146 135.179 93.4146Z" fill="white" fill-opacity="0.8"/>
<path d="M144.914 93.423C144.914 93.423 138.549 98.2909 137.051 98.2909C135.553 98.6653 136.676 99.0398 137.425 98.6654C138.549 98.2909 143.042 97.9164 144.54 96.0442C145.663 94.1719 146.038 91.9251 144.914 93.423Z" fill="white" fill-opacity="0.8"/>
<path d="M155.025 -45.8766C153.527 -45.1277 152.029 -44.3788 150.906 -42.881L22.8418 84.8086C14.9783 92.6722 9.36141 101.285 5.61685 111.021C1.87228 120.382 0 130.492 0 140.603C0 150.713 1.87228 160.823 5.61685 170.185C9.36141 179.546 15.3527 188.533 22.8418 196.397L150.906 324.461L152.778 322.588L154.65 320.716L26.5864 193.026C19.4717 185.912 13.8549 177.674 10.4848 168.687C6.74022 159.7 5.24239 150.338 5.24239 140.977C5.24239 131.616 7.11467 122.254 10.4848 113.267C14.2293 104.28 19.4717 96.0423 26.5864 88.9276L154.65 -39.5109C155.399 -40.2598 156.148 -40.6342 157.272 -41.0087C158.021 -41.3832 159.144 -41.3832 160.267 -41.3832C161.391 -41.3832 162.14 -41.3832 163.263 -41.0087C164.012 -40.6342 165.135 -40.2598 165.884 -39.5109L293.948 88.5532C301.063 95.6679 306.68 103.906 310.05 112.893C313.794 121.88 315.292 131.241 315.292 140.603C315.292 149.964 313.42 159.325 310.05 168.312C306.305 177.299 301.063 185.537 293.948 192.652L165.51 321.091C164.761 321.839 164.012 322.214 162.889 322.588C162.14 322.963 161.016 322.963 159.893 322.963C158.769 322.963 158.021 322.963 156.897 322.588C156.148 322.214 155.025 321.839 154.276 321.091L152.404 322.963L150.531 324.835C151.655 325.958 153.153 327.082 154.65 327.831C156.148 328.58 158.021 328.954 159.518 328.954C161.016 328.954 162.889 328.58 164.386 327.831C165.884 327.082 167.382 326.333 168.505 324.835L296.569 196.771C304.433 188.907 310.05 180.295 313.794 170.559C317.539 161.198 319.411 151.087 319.411 140.977C319.411 130.867 317.539 120.756 313.794 111.395C310.05 102.034 304.059 93.0467 296.569 85.1831L169.254 -43.2554C168.131 -44.3788 166.633 -45.5022 165.135 -46.2511C163.263 -46.6255 161.765 -47 159.893 -47C158.021 -47 156.897 -46.6255 155.025 -45.8766Z" fill="white" fill-opacity="0.8"/>
</g>
<defs>
<clipPath id="clip0_222_2498">
<rect width="247" height="361.478" fill="white"/>
</clipPath>
</defs>
</svg>
