<svg width="954" height="1129" viewBox="0 0 954 1129" fill="none" xmlns="http://www.w3.org/2000/svg">
<g opacity="0.05">
<path d="M387.761 732.744C387.753 733.87 387.753 733.87 387.761 732.744V732.744Z" fill="#998000"/>
<path d="M631.228 452.4C617.823 451.181 604.41 451.085 589.887 449.857C602.094 462.306 614.301 474.756 625.374 489.444C626.516 486.081 627.69 478.223 630.005 467.001C633.471 451.292 633.455 453.54 631.228 452.4ZM651.993 675.064C649.87 659.315 646.613 645.806 632.139 637.836C623.237 632.153 612.076 629.826 604.308 621.904C605.45 618.541 607.709 615.185 609.969 611.83C611.094 610.714 611.11 608.467 611.126 606.219C611.159 601.724 611.183 598.353 610.097 593.85C610.129 589.355 609.035 585.975 607.95 581.472L605.746 576.962C601.219 584.796 596.692 592.63 596.628 601.62C595.462 608.355 596.524 616.229 597.593 622.98C598.655 630.854 599.724 637.604 601.904 645.487C606.286 657.88 619.667 662.471 630.804 668.169C636.369 671.581 643.051 675 646.364 680.643L647.474 681.774C645.166 691.872 642.859 701.97 638.315 712.052C615.608 761.337 569.499 800.342 515.776 810.072C486.674 815.484 454.3 809.633 429.822 793.725C426.485 791.453 422.03 789.174 418.701 785.779C413.104 786.863 406.382 789.062 398.558 789.006C399.659 791.262 400.761 793.517 402.98 795.781C420.664 824.003 450.73 839.951 481.995 844.669C540.061 852.951 597.322 817.398 628.956 770.423C637.994 757.002 644.805 742.441 650.498 727.872C655.098 709.924 655.218 693.068 651.993 675.064ZM386.792 714.751C386.824 710.256 386.864 704.637 388.014 700.15C389.236 685.549 393.812 670.972 398.387 656.395C409.797 623.886 431.235 595.944 458.205 575.908C461.574 573.684 466.069 570.345 469.439 568.121C471.65 571.509 473.861 574.896 474.947 579.399C477.134 586.157 476.105 573.788 476.113 572.664C476.137 569.293 476.153 567.045 475.059 563.666C498.636 549.225 524.424 538.171 549.095 527.109C562.556 520.462 577.127 514.947 590.588 508.301C572.84 489.069 552.849 470.945 530.599 456.177C527.262 453.905 523.925 451.634 520.587 449.362C510.528 449.29 500.468 449.219 489.291 449.139C464.701 448.963 441.228 448.796 416.614 451.991C409.899 453.067 402.067 454.135 395.337 457.458C390.85 459.674 385.237 463.005 382.969 467.484C380.71 470.84 379.576 473.079 379.552 476.45C379.488 485.44 380.549 493.315 381.603 502.313C383.774 511.319 385.961 518.077 393.745 523.752C403.757 530.566 416.012 536.273 426.031 541.964C431.596 545.375 437.169 547.662 441.615 551.065C422.493 567.786 407.826 586.786 396.481 610.305C383.993 637.188 378.195 666.365 377.995 694.459C377.89 709.068 378.904 723.685 381.035 738.31C382.113 743.936 382.072 749.555 383.15 755.182C385.386 755.198 387.621 755.214 389.857 755.23C389.865 754.106 388.755 752.974 388.755 752.974C386.543 749.587 385.458 745.084 384.372 740.581C384.38 739.457 383.27 738.326 383.287 736.078C383.295 734.954 383.295 734.954 383.303 733.831L383.327 730.459C383.335 729.336 383.351 727.088 383.359 725.964C383.367 724.841 383.383 722.593 383.391 721.469L383.399 720.346C386.784 715.874 386.792 714.751 386.792 714.751ZM441.872 515.105C432.97 509.422 422.943 504.856 414.033 500.297C408.46 498.009 402.896 494.598 398.441 492.319C399.567 491.203 401.81 490.095 402.928 490.103C409.65 487.903 417.483 486.836 424.197 485.76C446.576 482.548 470.049 482.716 492.403 482.875C515.876 483.043 539.348 483.211 562.813 484.502L552.721 488.925C522.446 502.195 492.171 515.464 464.099 533.245L462.981 533.237C459.684 525.347 450.782 519.664 441.872 515.105ZM387.782 732.739C387.758 736.11 387.774 733.862 387.782 732.739V732.739Z" fill="#998000"/>
<path d="M605.728 576.987C588.922 582.486 587.668 601.582 574.183 611.6C567.444 616.047 559.62 615.991 552.954 610.324C546.287 604.658 546.352 595.667 546.408 587.801C546.408 587.801 546.448 582.182 545.33 582.174C544.212 582.166 543.063 586.653 543.063 586.653C540.771 594.504 539.597 602.362 539.541 610.228C539.477 619.218 539.396 630.456 543.811 638.354C548.234 645.129 556.026 649.68 563.866 647.488C581.798 640.873 581.975 616.151 599.899 610.659C603.26 609.56 604.466 597.206 605.608 593.843C605.608 593.843 606.846 576.995 605.728 576.987Z" fill="#998000"/>
<path d="M544.202 584.389C538.557 592.216 532.913 600.042 527.268 607.868C521.631 614.571 515.986 622.397 508.146 624.589C500.306 626.781 492.497 624.477 488.067 618.826C481.408 612.036 481.481 601.922 480.427 592.924C480.475 586.182 477.042 597.395 475.924 597.387C473.64 604.114 472.466 611.972 473.536 618.723C474.59 627.721 474.509 638.958 480.042 646.865C484.465 653.639 492.257 658.19 501.215 656.006C510.173 653.823 516.927 647.128 522.572 639.302C529.335 631.483 534.988 622.533 541.758 613.591C545.152 607.996 546.318 601.262 546.366 594.519C546.39 591.148 547.532 587.784 546.43 585.529C545.304 586.645 545.328 583.273 544.202 584.389Z" fill="#998000"/>
<path d="M366.121 633.687C370.576 635.966 375.039 637.122 379.501 638.278C378.336 645.012 376.004 658.481 373.688 669.703C365.88 667.4 358.08 663.972 351.397 660.553C316.884 641.202 302.642 600.643 300.68 562.419C298.765 517.453 312.499 472.599 336.245 434.558C358.864 397.634 392.605 368.656 427.432 344.181C435.296 338.618 443.152 334.179 452.126 329.748L472.133 345.624C455.287 356.742 436.213 366.72 419.359 378.961C385.666 401.197 355.278 430.199 333.8 463.76C325.896 474.942 320.219 487.263 315.652 500.716C313.368 507.443 311.093 513.046 309.927 519.78L309.895 524.275C309.879 526.523 309.87 527.647 309.854 529.894C309.846 531.018 309.838 532.142 309.83 533.265L309.806 536.637C309.782 540.008 309.758 543.379 310.86 545.635C312.822 583.858 330.457 618.823 366.121 633.687Z" fill="#998000"/>
<path d="M479.263 599.677C479.215 606.42 478.041 614.278 474.64 620.996C473.506 623.236 472.364 626.599 470.113 628.831C458.791 648.979 439.677 664.576 417.274 671.158C411.677 672.242 406.081 673.326 399.374 673.278C402.792 664.312 408.485 649.743 414.138 640.793C423.087 639.733 430.936 636.418 439.91 631.987C455.622 623.108 469.139 608.595 475.958 592.91C479.352 587.316 479.279 597.43 479.263 599.677Z" fill="#998000"/>
<path d="M538.806 243.858C538.758 250.6 537.584 258.459 535.301 265.185C527.332 285.357 517.136 304.389 502.493 320.018L485.815 307.537C488.059 306.429 490.31 304.197 492.554 303.09C511.668 287.493 527.476 265.129 535.461 242.71C535.461 242.71 536.611 238.223 537.729 238.231C538.838 239.363 538.814 242.734 538.806 243.858Z" fill="#998000"/>
<path d="M557.925 694.606C544.528 692.262 531.108 693.29 518.764 699.945C510.908 704.384 505.271 711.087 498.533 715.534C478.301 731.123 455.842 745.572 431.195 753.263C402.07 762.045 367.42 761.798 341.849 742.51C321.834 727.758 308.597 702.939 304.295 679.309C297.805 648.919 301.383 617.478 313.879 589.472L315.021 586.109C313.903 586.101 312.761 589.464 312.761 589.464C309.368 595.059 305.974 600.654 303.699 606.256C283.242 653.31 281.667 717.357 318.272 756.952C340.458 780.71 371.715 786.552 401.926 782.273C429.901 777.977 456.831 763.56 479.306 746.864C486.053 741.293 492.799 735.722 499.546 730.151C513.039 719.009 528.712 715.75 545.454 719.241C547.689 719.257 552.232 709.175 553.358 708.059C552.256 705.803 557.925 694.606 557.925 694.606Z" fill="#998000"/>
<path d="M420.236 257.624C420.06 282.346 426.581 308.241 438.716 330.803L424.113 340.814C413.161 309.268 412.292 274.424 415.878 241.859C415.91 237.364 417.052 234.001 418.201 229.514C418.209 228.39 419.367 222.779 420.485 222.787C423.846 221.687 421.538 231.785 421.522 234.033C420.349 241.891 420.292 249.757 420.236 257.624Z" fill="#998000"/>
<path d="M686.602 677.581C684.759 622.501 668.379 568.441 639.646 522.159C620.862 491.682 596.472 463.412 568.689 440.738C547.58 422.606 524.212 407.829 500.844 393.053C486.378 383.959 471.919 373.742 459.712 361.292L439.505 373.51C448.35 387.059 459.448 398.376 472.788 408.586C492.803 423.338 515.07 435.859 536.202 450.62C564.009 469.923 589.549 493.706 611.711 520.836C647.166 564.918 670.269 616.778 678.81 673.03C680.941 687.655 681.938 704.519 680.716 719.12L680.676 724.739C680.668 725.862 679.534 728.102 679.526 729.226C678.368 734.836 674.967 741.555 672.691 747.158C660.195 775.164 641.009 800.875 617.384 822.058C606.135 832.092 592.649 842.11 579.188 848.757C567.963 855.42 554.526 858.695 542.191 864.226C528.738 869.749 516.395 876.404 507.372 887.578C494.973 902.099 489.256 920.039 485.774 937.995C483.474 946.969 483.402 957.083 482.22 966.065C482.22 966.065 482.188 970.56 483.306 970.568C484.424 970.576 485.573 966.089 485.573 966.089C487.857 959.362 489.031 951.504 489.079 944.762C489.079 944.762 489.087 943.638 489.095 942.514L489.103 941.39C489.119 939.143 490.253 936.903 491.379 935.787C494.788 927.945 499.307 921.235 504.944 914.532C515.076 904.49 527.419 897.835 540.872 892.312C553.2 887.905 565.527 883.498 577.87 876.843C591.339 869.073 602.573 861.286 613.822 851.252C636.322 831.184 655.508 805.473 669.121 777.475C681.649 744.974 687.479 711.301 686.602 677.581Z" fill="#998000"/>
<path d="M693.808 611.3C693.76 618.042 692.586 625.901 689.184 632.619C685.791 638.214 686.981 628.108 686.989 626.985C687.005 624.737 687.021 622.49 687.029 621.366C687.037 620.242 687.045 619.118 687.053 617.995C687.085 613.5 687.118 609.005 687.142 605.633C687.206 596.643 686.16 586.521 685.107 577.523C681.898 557.272 675.336 536.996 665.413 517.821C656.591 500.9 646.636 486.22 634.445 471.523C634.453 470.399 634.453 470.399 634.461 469.275C635.611 464.788 635.635 461.417 636.761 460.301C636.769 459.178 636.777 458.054 636.777 458.054L636.793 455.806C636.793 455.806 636.801 454.683 636.809 453.559C636.817 452.435 636.817 452.435 635.707 451.303L634.598 450.172C633.488 449.04 632.37 449.032 632.37 449.032C631.253 449.024 631.253 449.024 631.253 449.024C631.253 449.024 631.253 449.024 630.135 449.016C623.428 448.968 617.848 447.804 611.141 447.756C587.829 425.114 561.148 404.694 534.451 386.523C506.652 366.096 476.593 349.024 451.046 326.365C429.945 307.109 414.473 282.275 413.564 253.049C413.612 246.307 414.786 238.448 415.952 231.714C415.96 230.59 419.386 220.5 420.455 227.251C421.324 262.095 444.612 288.109 471.293 308.529C499.084 330.079 528.017 348.267 555.816 368.694C580.278 386.85 604.732 406.13 625.808 428.756C647.995 452.515 667.921 479.629 680 510.058C694.322 539.38 697.418 575.364 693.808 611.3Z" fill="#998000"/>
<path d="M512.886 274.002C507.249 280.705 498.235 290.755 493.74 294.094C489.293 290.691 485.964 287.296 481.517 283.892C464.855 269.164 447.091 252.18 436.051 232.996C422.806 209.301 421.873 183.447 426.529 157.632C426.537 156.509 428.876 141.916 431.104 143.055C433.339 143.071 431 157.664 430.992 158.788L430.984 159.912C430.984 159.912 430.984 159.912 430.975 161.036L430.967 162.159C430.943 165.531 430.919 168.902 430.903 171.149C431.973 177.9 433.042 184.65 435.238 190.285C439.62 202.678 446.255 212.84 455.124 223.018C471.754 242.241 491.753 259.241 512.886 274.002Z" fill="#998000"/>
<path d="M692.591 623.669C692.583 624.793 690.268 636.014 688.048 633.751C686.938 632.619 688.096 627.008 688.104 625.885C688.136 621.39 689.278 618.026 689.31 613.531C697.423 573.132 695.517 527.042 680.149 487.599C657.134 423.377 606.096 370.193 550.482 331.586C544.917 328.175 538.243 323.632 532.678 320.221C528.223 317.942 523.776 314.538 519.321 312.259C523.833 306.672 530.627 294.359 534.029 287.64C546.268 295.594 557.397 302.416 568.518 310.363C596.317 330.79 620.739 354.564 641.783 381.686C665.055 409.948 682.706 442.664 692.509 478.696C704.467 525.982 701.878 575.411 692.591 623.669Z" fill="#998000"/>
<path d="M566.725 559.816C564.498 558.676 562.278 556.412 561.169 555.281C560.059 554.149 556.714 553.001 554.486 551.862C554.486 551.862 553.401 547.358 553.376 550.73C553.368 551.854 553.368 551.853 554.478 552.985C555.596 552.993 555.588 554.117 556.706 554.125C558.933 555.265 560.035 557.52 561.136 559.776C567.779 568.814 572.169 580.083 575.45 590.221C575.458 589.097 579.961 584.634 579.969 583.51C580.05 572.273 580.13 561.035 581.328 549.806C581.336 548.682 582.478 545.318 582.486 544.195C581.36 545.311 581.352 546.434 580.226 547.55L581.344 547.558C582.462 547.566 583.588 546.45 584.705 546.458C589.176 546.49 592.505 549.885 592.473 554.38C592.481 553.257 596.976 549.917 596.992 547.67C597.033 542.051 591.476 537.516 585.871 539.724C582.51 540.824 581.36 545.311 580.218 548.674C577.951 553.153 577.911 558.772 577.87 564.39C577.806 573.381 576.624 582.363 576.568 590.229C577.702 587.989 578.836 585.75 581.087 583.518C577.79 575.628 574.501 566.614 570.078 559.84C567.867 556.452 562.359 545.175 556.762 546.259C553.401 547.358 551.117 554.085 549.983 556.325C548.841 559.688 549.959 559.696 553.304 560.844C556.649 561.991 559.979 565.386 562.198 567.65C563.316 567.658 567.835 560.947 566.725 559.816Z" fill="#998000"/>
<path d="M350.979 565.021C348.751 563.882 346.532 561.618 345.422 560.486C344.313 559.355 340.967 558.207 338.74 557.067C338.74 557.067 337.654 552.564 337.63 555.936C337.622 557.059 337.622 557.059 338.732 558.191C339.85 558.199 339.842 559.323 340.959 559.331C343.187 560.471 344.289 562.726 345.39 564.981C352.032 574.019 356.423 585.289 359.704 595.427C359.712 594.303 364.215 589.84 364.223 588.716C364.303 577.479 364.384 566.241 365.582 555.011C365.59 553.888 366.732 550.524 366.74 549.401C365.614 550.516 365.606 551.64 364.48 552.756L365.598 552.764C366.716 552.772 367.841 551.656 368.959 551.664C373.43 551.696 376.759 555.091 376.727 559.586C376.735 558.462 381.23 555.123 381.246 552.876C381.286 547.257 375.73 542.722 370.125 544.93C366.764 546.029 365.614 550.516 364.472 553.88C362.204 558.359 362.164 563.977 362.124 569.596C362.06 578.586 360.878 587.568 360.822 595.435C361.956 593.195 363.089 590.956 365.341 588.724C362.044 580.834 358.755 571.82 354.332 565.045C351.003 561.65 345.495 550.373 339.898 551.456C336.545 551.432 334.261 558.159 334.237 561.53C333.095 564.894 334.213 564.902 337.558 566.049C340.903 567.197 344.232 570.592 346.452 572.856C346.452 572.856 350.971 566.145 350.979 565.021Z" fill="#998000"/>
<path d="M581.377 700.426C577.952 710.516 574.51 722.853 573.312 734.083C573.264 740.825 574.318 749.823 582.134 751.003C588.832 752.175 595.587 745.48 598.972 741.009C601.232 737.654 603.499 733.175 604.641 729.811C605.775 727.572 605.783 726.448 603.531 728.68C600.138 734.274 592.29 737.59 586.733 733.055C581.176 728.52 581.233 720.654 582.391 715.043C583.572 706.061 586.99 697.095 589.29 688.121C590.431 684.757 587.038 690.352 587.038 690.352C584.786 692.584 582.519 697.063 581.377 700.426Z" fill="#998000"/>
<path d="M456.092 869.191C452.666 879.281 449.225 891.619 448.027 902.848C447.979 909.591 449.032 918.589 456.848 919.768C463.547 920.94 470.301 914.245 473.687 909.774C475.946 906.419 478.214 901.94 479.356 898.577C480.49 896.337 480.498 895.213 478.246 897.445C474.853 903.04 467.004 906.355 461.448 901.82C455.891 897.285 455.947 889.419 457.105 883.808C458.287 874.826 461.705 865.86 464.004 856.886C465.146 853.523 461.753 859.117 461.753 859.117C459.501 861.349 457.234 865.828 456.092 869.191Z" fill="#998000"/>
<path d="M393.775 829.455C390.35 839.545 386.908 851.882 385.71 863.112C385.662 869.855 386.716 878.853 394.532 880.032C401.23 881.204 407.985 874.509 411.37 870.038C413.63 866.683 415.897 862.204 417.039 858.841C418.173 856.601 418.181 855.477 415.929 857.709C412.536 863.304 404.688 866.619 399.131 862.084C393.574 857.549 393.631 849.683 394.789 844.072C395.97 835.09 399.388 826.124 401.688 817.15C402.829 813.786 399.436 819.381 399.436 819.381C397.185 821.613 394.925 824.968 393.775 829.455Z" fill="#998000"/>
<path d="M492.394 169.314C488.968 179.404 485.527 191.741 484.329 202.971C484.28 209.713 485.334 218.711 493.15 219.891C499.849 221.063 506.603 214.368 509.988 209.897C512.248 206.542 514.516 202.063 515.657 198.699C516.791 196.46 516.799 195.336 514.548 197.568C511.154 203.162 503.306 206.478 497.749 201.943C492.193 197.408 492.249 189.542 493.407 183.931C494.589 174.949 498.006 165.983 500.306 157.009C501.448 153.645 498.054 159.24 498.054 159.24C495.803 161.472 493.543 164.827 492.394 169.314Z" fill="#998000"/>
<path d="M502.791 749.3C499.365 759.39 495.924 771.727 494.726 782.957C494.678 789.7 495.731 798.698 503.547 799.877C510.246 801.049 517 794.354 520.386 789.883C522.645 786.528 524.913 782.049 526.055 778.685C527.188 776.446 527.197 775.322 524.945 777.554C521.552 783.149 513.703 786.464 508.147 781.929C502.59 777.394 502.646 769.528 503.804 763.917C504.986 754.935 508.404 745.969 510.703 736.995C511.845 733.631 508.452 739.226 508.452 739.226C506.2 741.458 505.058 744.821 502.791 749.3Z" fill="#998000"/>
<path d="M347.857 684.11C344.431 694.2 340.99 706.537 339.792 717.767C339.744 724.509 340.797 733.507 348.613 734.687C355.312 735.859 362.066 729.164 365.452 724.693C367.711 721.337 369.979 716.858 371.12 713.495C372.254 711.256 372.262 710.132 370.011 712.363C366.617 717.958 358.769 721.274 353.213 716.739C347.656 712.204 347.712 704.337 348.87 698.727C350.052 689.745 353.469 680.779 355.769 671.804C356.911 668.441 353.518 674.036 353.518 674.036C351.266 676.268 348.998 680.747 347.857 684.11Z" fill="#998000"/>
<path d="M351.402 502.096C347.993 509.938 344.568 520.028 345.621 529.026C345.589 533.521 347.776 540.279 353.365 540.319C357.836 540.351 361.221 535.88 364.599 532.533C366.85 530.301 367.992 526.938 369.134 523.575C370.267 521.335 370.268 521.335 368.016 523.567C365.756 526.922 360.144 530.253 355.697 526.85C351.25 523.447 351.29 517.828 351.322 513.333C352.496 505.475 354.78 498.748 357.063 492.022C358.197 489.782 354.82 493.13 354.812 494.253C353.678 496.493 352.536 499.856 351.402 502.096Z" fill="#998000"/>
<path d="M422.601 705.998C432.589 716.183 442.576 726.369 454.807 735.447C454.807 735.447 479.638 701.91 477.411 700.77C466.297 691.7 455.184 682.63 445.205 671.321C445.205 671.321 433.915 686.974 432.789 688.089C430.522 692.568 427.144 695.916 424.877 700.395C424.869 701.519 421.492 704.866 422.601 705.998Z" fill="#998000"/>
<path d="M404.529 421.548C412.361 420.48 421.303 420.544 429.127 420.6C431.363 420.616 433.598 420.632 434.708 421.764L435.825 421.772C436.959 419.532 438.101 416.169 439.235 413.929C444.904 402.732 441.494 410.574 438.117 413.921C435.866 416.153 433.598 420.632 431.338 423.987C430.205 426.227 429.079 427.342 429.063 429.59C429.063 429.59 427.929 431.829 429.055 430.714C434.684 425.135 439.203 418.424 442.612 410.582C443.746 408.342 446.005 404.987 442.66 403.839C439.315 402.692 434.844 402.66 431.491 402.636C424.784 402.588 419.196 402.548 412.481 403.624C411.364 403.616 410.23 405.855 410.23 405.855C409.096 408.095 407.962 410.334 406.836 411.45C405.703 413.69 404.569 415.929 403.435 418.169C405.663 419.309 404.529 421.548 404.529 421.548Z" fill="#998000"/>
<path d="M433.582 421.779C433.582 421.779 414.476 436.252 410.005 436.22C405.526 437.312 408.871 438.46 411.114 437.352C414.476 436.252 427.897 435.224 432.408 429.637C435.801 424.043 436.967 417.308 433.582 421.779Z" fill="#998000"/>
<path d="M466.747 3.95018C462.26 6.16576 457.773 8.38135 454.388 12.8524L69.3842 393.323C45.7432 416.755 28.7925 442.481 17.4064 471.619C6.02839 499.633 0.223001 529.935 0.00630171 560.276C-0.210398 590.617 5.1616 620.999 16.1383 649.173C27.1151 677.346 44.8063 704.444 66.9925 728.203L446.514 1115.26L457.772 1104.1L78.2421 718.169C57.1576 696.666 40.5681 671.823 30.701 644.781C19.7163 617.731 15.446 589.605 15.6466 561.512C15.8473 533.418 21.6366 505.364 31.8889 478.465C43.2589 451.575 59.0838 426.964 80.4733 405.764L465.493 23.0461C467.744 20.8145 469.988 19.7067 473.349 18.6069C475.593 17.4991 478.946 17.5231 482.299 17.547C485.652 17.571 487.888 17.5869 491.233 18.7346C493.46 19.8744 496.806 21.0221 499.025 23.2855L878.547 410.34C899.631 431.844 916.221 456.686 926.088 483.728C937.073 510.778 941.343 538.904 941.142 566.998C940.942 595.092 935.152 623.146 924.9 650.044C913.53 676.934 897.705 701.545 876.316 722.745L490.178 1105.46C487.927 1107.69 485.683 1108.79 482.322 1109.89C480.079 1111 476.725 1110.98 473.372 1110.95C470.019 1110.93 467.783 1110.91 464.438 1109.77C462.211 1108.63 458.866 1107.48 456.646 1105.22L445.388 1116.37C448.718 1119.77 453.165 1123.17 457.619 1125.45C462.074 1127.73 467.655 1128.89 472.126 1128.93C476.597 1128.96 482.194 1127.87 486.681 1125.66C491.168 1123.44 495.655 1121.23 499.04 1116.76L884.052 735.162C907.693 711.731 924.643 686.004 936.029 656.866C947.407 628.852 953.213 598.551 953.429 568.209C953.646 537.868 948.274 507.486 937.297 479.313C926.321 451.139 908.629 424.041 886.443 400.283L509.165 12.1198C505.836 8.72461 501.389 5.32141 496.934 3.04196C491.353 1.87829 486.89 0.722604 481.302 0.682689C475.713 0.642775 472.352 1.74258 466.747 3.95018Z" fill="#998000"/>
</g>
</svg>
