<svg width="164" height="46" viewBox="0 0 164 46" fill="none" xmlns="http://www.w3.org/2000/svg">
<g clip-path="url(#clip0_2344_10718)">
<path d="M101.769 12.7039C101.952 12.7039 102.09 12.6581 102.227 12.5205C102.365 12.3829 102.411 12.2453 102.411 12.0619C102.411 11.8784 102.365 11.7408 102.227 11.6032C102.09 11.4657 101.952 11.4198 101.769 11.4198C101.585 11.4198 101.447 11.4657 101.31 11.6032C101.172 11.7408 101.126 11.8784 101.126 12.0619C101.126 12.2453 101.172 12.3829 101.31 12.5205C101.447 12.6581 101.585 12.7039 101.769 12.7039Z" fill="black"/>
<path d="M99.98 12.7039C100.163 12.7039 100.301 12.6581 100.439 12.5205C100.576 12.3829 100.622 12.2453 100.622 12.0619C100.622 11.8784 100.576 11.7408 100.439 11.6032C100.301 11.4657 100.163 11.4198 99.98 11.4198C99.7965 11.4198 99.6589 11.4657 99.5213 11.6032C99.3838 11.7408 99.3379 11.8784 99.3379 12.0619C99.3379 12.2453 99.3838 12.3829 99.5213 12.5205C99.6589 12.6581 99.7965 12.7039 99.98 12.7039Z" fill="black"/>
<path d="M154.098 11.8325H153.96C153.593 11.8325 153.318 11.7407 153.135 11.5573C152.951 11.3738 152.86 11.1904 152.86 11.0069C152.86 10.7776 152.951 10.64 153.089 10.5483C153.227 10.4566 153.41 10.4107 153.593 10.4107C153.731 10.4107 153.823 10.4107 153.915 10.4566L154.006 9.95211C153.823 9.90625 153.639 9.90625 153.502 9.90625C153.135 9.90625 152.814 9.99797 152.63 10.2273C152.401 10.4107 152.309 10.6859 152.309 10.9611C152.309 11.0528 152.355 11.1904 152.401 11.3738C152.447 11.5573 152.584 11.6949 152.768 11.8325H151.988V12.337H154.052V11.8325H154.098Z" fill="black"/>
<path d="M163.591 15.9595C163.5 15.5926 163.316 15.2716 163.133 14.9964C162.903 14.7212 162.674 14.5378 162.353 14.4002C162.032 14.2626 161.665 14.1709 161.206 14.1709C160.84 14.1709 160.473 14.2626 160.152 14.4002C159.831 14.5378 159.555 14.7671 159.28 14.9964C159.051 15.2716 158.867 15.5467 158.73 15.9136C158.592 16.2805 158.546 16.6474 158.546 17.1061C158.546 18.2068 158.18 18.7571 157.4 18.7571H157.033C156.987 18.7571 156.987 18.7571 156.941 18.7571H155.749V16.7392C155.749 16.3723 155.703 16.0054 155.565 15.6843C155.474 15.3633 155.29 15.0881 155.061 14.8588C154.832 14.6295 154.602 14.446 154.281 14.3085C153.96 14.1709 153.639 14.125 153.226 14.125C152.814 14.125 152.447 14.2167 152.126 14.3543C151.805 14.5378 151.484 14.7212 151.254 15.0422C151.025 15.3174 150.842 15.6385 150.704 16.0054C150.566 16.3723 150.521 16.785 150.521 17.1978C150.521 17.5188 150.566 17.8399 150.658 18.1609C150.75 18.4819 150.933 18.7571 151.163 18.9864C151.392 19.2157 151.713 19.445 152.08 19.5826C152.447 19.7202 152.905 19.8119 153.456 19.8119H154.694C154.694 20.2247 154.602 20.5916 154.511 20.8668C154.373 21.1419 154.235 21.3713 154.006 21.5088C153.777 21.6464 153.547 21.784 153.272 21.8299C152.997 21.8757 152.722 21.9216 152.401 21.9216C152.217 21.9216 152.034 21.9216 151.851 21.9216C151.667 21.9216 151.438 21.8757 151.254 21.8757C151.254 22.0592 151.208 22.1968 151.208 22.3802C151.208 22.5637 151.163 22.7013 151.163 22.9306C151.392 22.9764 151.575 22.9764 151.759 22.9764C151.942 22.9764 152.172 22.9764 152.355 22.9764C152.859 22.9764 153.318 22.9306 153.731 22.793C154.144 22.7013 154.511 22.5178 154.786 22.2426C155.107 21.9675 155.336 21.6464 155.474 21.2795C155.657 20.8668 155.749 20.4082 155.749 19.8578H157.033H157.216H157.308C157.675 19.8578 158.042 19.7661 158.271 19.5826C158.501 19.3992 158.73 19.124 158.913 18.7112C159.097 18.9864 159.234 19.1699 159.464 19.3533C159.647 19.4909 159.831 19.6285 160.06 19.7202C160.243 19.8119 160.473 19.8578 160.656 19.9037C160.84 19.9495 161.069 19.9495 161.252 19.9495C161.711 19.9495 162.124 19.8578 162.445 19.7202C162.766 19.5826 163.041 19.3533 163.224 19.124C163.408 18.8947 163.591 18.5737 163.683 18.2526C163.775 17.9316 163.821 17.6105 163.821 17.2895C163.729 16.7392 163.683 16.3264 163.591 15.9595ZM154.648 18.7571H153.364C153.135 18.7571 152.905 18.7112 152.676 18.6654C152.447 18.6195 152.263 18.4819 152.08 18.3443C151.896 18.2068 151.759 18.0233 151.667 17.794C151.575 17.5647 151.529 17.2895 151.529 16.9685C151.529 16.6933 151.575 16.464 151.667 16.2347C151.759 16.0054 151.896 15.8219 152.034 15.6843C152.172 15.5467 152.355 15.4091 152.538 15.3174C152.722 15.2257 152.951 15.1798 153.135 15.1798C153.593 15.1798 153.96 15.3633 154.235 15.6843C154.511 16.0512 154.648 16.5098 154.648 17.1519V18.7571ZM162.674 17.794C162.628 17.9774 162.536 18.1609 162.399 18.3443C162.261 18.4819 162.124 18.6195 161.894 18.7112C161.711 18.803 161.436 18.8488 161.206 18.8488C160.931 18.8488 160.656 18.803 160.473 18.7112C160.289 18.6195 160.106 18.4819 159.968 18.3443C159.831 18.2068 159.739 18.0233 159.693 17.794C159.647 17.6105 159.601 17.3812 159.601 17.1519C159.601 16.8309 159.647 16.6016 159.739 16.3723C159.831 16.1429 159.922 15.9136 160.106 15.776C160.243 15.5926 160.427 15.5009 160.61 15.4091C160.794 15.3174 161.023 15.2716 161.252 15.2716C161.436 15.2716 161.665 15.3174 161.849 15.4091C162.032 15.5009 162.215 15.6385 162.353 15.776C162.491 15.9595 162.628 16.1429 162.72 16.3723C162.812 16.6016 162.857 16.8767 162.857 17.1519C162.766 17.3354 162.72 17.5647 162.674 17.794Z" fill="black"/>
<path d="M148.548 19.8578V14.6753H147.448V18.7571H146.347C146.072 18.7571 145.797 18.7112 145.613 18.6195C145.43 18.5278 145.246 18.4361 145.154 18.2985C145.017 18.1609 144.971 17.9774 144.925 17.794C144.879 17.6105 144.833 17.3812 144.833 17.1519V15.455H143.733V17.7023C143.733 18.0233 143.687 18.2985 143.595 18.4819C143.503 18.6654 143.274 18.7571 142.953 18.7571H142.586C142.311 18.7571 142.036 18.7112 141.852 18.6195C141.669 18.5278 141.485 18.4361 141.394 18.2985C141.256 18.1609 141.164 17.9774 141.119 17.794C141.073 17.6105 141.027 17.3812 141.027 17.1519V16.0512H139.926V17.7481C139.926 18.0692 139.88 18.2985 139.789 18.4819C139.697 18.6654 139.468 18.7571 139.146 18.7571H137.312H136.945H117.683H117.499H117.408C117.133 18.7571 116.857 18.7112 116.674 18.6195C116.49 18.5278 116.307 18.4361 116.215 18.2985C116.078 18.1609 115.986 17.9774 115.94 17.794C115.894 17.6105 115.848 17.3812 115.848 17.1519V14.6753H114.794V17.7023C114.794 18.0233 114.748 18.2526 114.656 18.4819C114.564 18.6654 114.335 18.7571 113.968 18.7571H113.647C113.372 18.7571 113.097 18.7112 112.913 18.6195C112.73 18.5278 112.546 18.4361 112.455 18.2985C112.317 18.1609 112.225 17.9774 112.179 17.794C112.134 17.6105 112.088 17.3812 112.088 17.1519V15.455H110.987V17.7023C110.987 18.0233 110.941 18.2526 110.849 18.4361C110.758 18.6195 110.528 18.7112 110.207 18.7112H109.932C109.657 18.7112 109.382 18.6654 109.198 18.5737C109.015 18.4819 108.831 18.3902 108.74 18.2068C108.602 18.0692 108.556 17.8857 108.465 17.7023C108.419 17.5188 108.373 17.2895 108.373 17.1061V16.0512H107.318V17.7481C107.318 18.0692 107.272 18.2985 107.135 18.4819C107.043 18.6654 106.814 18.7571 106.492 18.7571H104.475H104.291H103.42V16.7392C103.42 16.3723 103.374 16.0054 103.236 15.6843C103.099 15.3633 102.961 15.0881 102.732 14.8588C102.502 14.6295 102.273 14.446 101.952 14.3085C101.631 14.1709 101.31 14.125 100.943 14.125C100.53 14.125 100.163 14.2167 99.8424 14.3543C99.5214 14.5378 99.2003 14.7212 98.971 15.0422C98.7417 15.3174 98.5124 15.6385 98.3748 16.0054C98.2372 16.3723 98.1455 16.785 98.1455 17.1978C98.1455 17.5188 98.1914 17.8399 98.2831 18.1609C98.3748 18.4819 98.5583 18.7571 98.7876 18.9864C99.0169 19.2157 99.3379 19.445 99.7048 19.5826C100.072 19.7202 100.53 19.8119 101.081 19.8119H104.291H104.475H106.492C106.676 19.8119 106.859 19.8119 107.043 19.7661C107.226 19.7661 107.364 19.6744 107.547 19.6285C107.731 19.5826 107.822 19.445 107.96 19.3075C108.098 19.1699 108.189 18.9864 108.281 18.7571C108.419 19.1699 108.648 19.445 108.923 19.5826C109.198 19.7202 109.519 19.8119 109.932 19.8119H110.299C110.62 19.8119 110.941 19.7661 111.216 19.6285C111.491 19.4909 111.767 19.2157 111.95 18.803C112.088 19.2157 112.317 19.4909 112.592 19.6285C112.867 19.7661 113.188 19.8578 113.601 19.8578H114.06C114.243 19.8578 114.381 19.8578 114.564 19.8119C114.748 19.7661 114.885 19.7661 115.023 19.6744C115.16 19.5826 115.298 19.4909 115.436 19.3533C115.573 19.2157 115.665 19.0323 115.757 18.803C115.894 19.2157 116.078 19.4909 116.399 19.6285C116.674 19.7661 117.041 19.8578 117.408 19.8578H117.545H117.729H136.991H137.358H139.192C139.605 19.8578 139.926 19.7661 140.247 19.6285C140.522 19.445 140.798 19.2157 140.935 18.803C141.119 19.2157 141.302 19.4909 141.577 19.6285C141.852 19.7661 142.173 19.8578 142.586 19.8578H143.045C143.228 19.8578 143.412 19.8578 143.549 19.8119C143.733 19.7661 143.87 19.7202 144.008 19.6744C144.146 19.5826 144.283 19.4909 144.421 19.3533C144.558 19.2157 144.65 19.0323 144.696 18.803C144.833 19.2157 145.063 19.5368 145.338 19.6285C145.613 19.7661 145.934 19.8119 146.347 19.8119H148.548V19.8578ZM102.319 18.7571H101.035C100.806 18.7571 100.576 18.7112 100.347 18.6654C100.118 18.6195 99.9341 18.4819 99.7507 18.3443C99.5672 18.2068 99.4297 18.0233 99.3379 17.794C99.2462 17.5647 99.2003 17.2895 99.2003 16.9685C99.2003 16.6933 99.2462 16.464 99.3379 16.2347C99.4297 16.0054 99.5672 15.8219 99.7048 15.6843C99.8424 15.5467 100.026 15.4091 100.209 15.3174C100.393 15.2257 100.576 15.1798 100.806 15.1798C101.31 15.1798 101.677 15.3633 101.906 15.6843C102.136 16.0054 102.273 16.5098 102.273 17.1519V18.7571H102.319Z" fill="black"/>
<path d="M48.7515 26.5547H50.0357L53.0626 33.3882H51.3198L50.7236 31.9206H48.0177L47.4215 33.3882H45.7246L48.7515 26.5547ZM49.3477 28.5726L48.5222 30.6823H50.2191L49.3477 28.5726Z" fill="black"/>
<path d="M53.7964 26.5547H55.3098V32.0123H58.1533V33.3882H53.7964V26.5547Z" fill="black"/>
<path d="M60.9512 30.4062H58.5205V31.5528H60.9512V30.4062Z" fill="black"/>
<path d="M63.3816 26.5547H61.8682V33.3882H63.3816V26.5547Z" fill="black"/>
<path d="M64.8037 26.5547H66.3172V29.123H69.2982V26.5547H70.8117V33.3882H69.2982V30.453H66.3172V33.3882H64.8037V26.5547Z" fill="black"/>
<path d="M75.6732 28.2512C75.4439 27.9302 74.9394 27.7926 74.5725 27.7926C74.1598 27.7926 73.5635 27.976 73.5635 28.4805C73.5635 29.7188 76.7739 28.9391 76.7739 31.324C76.7739 32.8375 75.5356 33.5712 74.1139 33.5712C73.2425 33.5712 72.417 33.2961 71.7749 32.6999L72.8756 31.5074C73.1966 31.9202 73.7011 32.1495 74.2056 32.1495C74.7101 32.1495 75.2604 31.9202 75.2604 31.4157C75.2604 30.1774 72.0042 30.8195 72.0042 28.5722C72.0042 27.1046 73.2884 26.3708 74.6642 26.3708C75.4439 26.3708 76.2236 26.5543 76.7739 27.1046L75.6732 28.2512Z" fill="black"/>
<path d="M80.1216 26.5547H81.4058L84.4327 33.3882H82.6899L82.0937 31.9206H79.3878L78.7916 33.3882H77.0947L80.1216 26.5547ZM80.7179 28.5726L79.8923 30.6823H81.5892L80.7179 28.5726Z" fill="black"/>
<path d="M85.1206 26.5547H87.1844L90.1196 31.3244H90.1655V26.5547H91.6789V33.3882H89.661L86.6341 28.5268V33.3882H85.1206V26.5547Z" fill="black"/>
<path d="M98.2373 26.5547H102.824V27.9764H99.7508V29.3523H102.594V30.7282H99.7508V33.3882H98.2373V26.5547Z" fill="black"/>
<path d="M107.272 26.3708C109.428 26.3708 110.987 27.7926 110.987 29.9481C110.987 32.1495 109.428 33.5254 107.272 33.5254C105.116 33.5254 103.557 32.1037 103.557 29.9481C103.557 27.7926 105.116 26.3708 107.272 26.3708ZM107.272 32.1954C108.556 32.1954 109.428 31.2781 109.428 29.994C109.428 28.7098 108.602 27.7926 107.272 27.7926C105.988 27.7926 105.116 28.7098 105.116 29.994C105.116 31.2781 105.988 32.1954 107.272 32.1954Z" fill="black"/>
<path d="M117.821 30.774C117.821 32.3792 116.812 33.5716 114.931 33.5716C113.005 33.5716 112.042 32.3792 112.042 30.774V26.5547H113.555V30.6823C113.555 31.5078 114.152 32.1499 114.931 32.1499C115.711 32.1499 116.307 31.5078 116.307 30.6823V26.5547H117.821V30.774Z" fill="black"/>
<path d="M119.196 26.5547H121.26L124.195 31.3244V26.5547H125.709V33.3882H123.737L120.756 28.5268H120.71V33.3882H119.196V26.5547Z" fill="black"/>
<path d="M127.131 26.5547H129.424C131.625 26.5547 133.506 27.4719 133.506 29.9944C133.506 32.1958 131.671 33.3882 129.653 33.3882H127.177V26.5547H127.131ZM128.644 32.0123H129.424C130.846 32.0123 131.901 31.462 131.901 29.9026C131.901 28.5726 130.8 27.9306 129.562 27.9306H128.69V32.0123H128.644Z" fill="black"/>
<path d="M136.762 26.5547H138L140.981 33.3882H139.284L138.688 31.9206H136.028L135.478 33.3882H133.827L136.762 26.5547ZM137.358 28.5726L136.533 30.6823H138.229L137.358 28.5726Z" fill="black"/>
<path d="M142.128 27.8847H140.156V26.5547H145.613V27.8847H143.641V33.3882H142.128V27.8847Z" fill="black"/>
<path d="M147.861 26.5547H146.347V33.3882H147.861V26.5547Z" fill="black"/>
<path d="M152.584 26.3711C154.74 26.3711 156.299 27.7928 156.299 29.9484C156.299 32.1498 154.74 33.5256 152.584 33.5256C150.428 33.5256 148.869 32.1039 148.869 29.9484C148.869 27.7928 150.428 26.3711 152.584 26.3711ZM152.584 32.1956C153.868 32.1956 154.74 31.2784 154.74 29.9942C154.74 28.7101 153.914 27.7928 152.584 27.7928C151.3 27.7928 150.428 28.7101 150.428 29.9942C150.428 31.2784 151.3 32.1956 152.584 32.1956Z" fill="black"/>
<path d="M157.308 26.5547H159.372L162.307 31.3244V26.5547H163.821V33.3882H161.848L158.867 28.5268H158.822V33.3882H157.308V26.5547Z" fill="black"/>
<path d="M83.332 23.3448H85.4417V22.8403H85.3041C84.9372 22.8403 84.6162 22.7486 84.4786 22.5651C84.2951 22.3817 84.2034 22.1982 84.2034 22.0148C84.2034 21.7854 84.2951 21.6479 84.4327 21.5561C84.5703 21.4644 84.7538 21.4186 84.9831 21.4186C85.1207 21.4186 85.2124 21.4185 85.35 21.4644L85.4417 20.9599C85.2583 20.9141 85.0748 20.9141 84.9372 20.9141C84.5703 20.9141 84.2493 21.0058 84.02 21.2351C83.7907 21.4185 83.6989 21.6937 83.6989 21.9689C83.6989 22.0606 83.7448 22.1982 83.7907 22.3817C83.8365 22.5651 83.9741 22.7027 84.1576 22.8403H83.3779V23.3448H83.332Z" fill="black"/>
<path d="M88.5145 10.043H87.4138V18.711H84.9831V12.7489H83.8824V18.711H80.8555V19.8117H88.5145V10.043Z" fill="black"/>
<path d="M49.6689 12.337C49.8524 12.337 49.99 12.2911 50.1276 12.1536C50.2651 12.016 50.311 11.8784 50.311 11.6949C50.311 11.5115 50.2651 11.3739 50.1276 11.2363C49.99 11.0987 49.8524 11.0529 49.6689 11.0529C49.4855 11.0529 49.3479 11.0987 49.2103 11.2363C49.0727 11.3739 49.0269 11.5115 49.0269 11.6949C49.0269 11.8784 49.0727 12.016 49.2103 12.1536C49.3479 12.2453 49.4855 12.337 49.6689 12.337Z" fill="black"/>
<path d="M76.2693 18.711H76.0859H74.5724H74.389H72.9214H72.8755H72.7379H71.5455H71.2245H71.041H70.9034C70.5824 18.711 70.3531 18.6651 70.1696 18.5734C69.9862 18.4817 69.8027 18.3899 69.6651 18.2523C69.5275 18.1148 69.4358 17.9313 69.39 17.7479C69.3441 17.5644 69.2982 17.3351 69.2982 17.1058V14.6292H68.2434V17.6561C68.2434 17.9772 68.1975 18.2065 68.1058 18.4358C68.0141 18.6192 67.7848 18.711 67.4179 18.711H67.051C66.7299 18.711 66.5006 18.6651 66.3172 18.5734C66.1337 18.4817 65.9503 18.3899 65.8127 18.2523C65.6751 18.1148 65.5834 17.9313 65.5375 17.7479C65.4917 17.5644 65.4458 17.3351 65.4458 17.1058V15.4089H64.3451V17.6561C64.3451 17.9772 64.2992 18.2065 64.2075 18.3899C64.1158 18.5734 63.8865 18.6651 63.5196 18.6651H63.2903C62.9692 18.6651 62.7399 18.6192 62.5565 18.5275C62.373 18.4358 62.1896 18.3441 62.052 18.1606C61.9144 18.023 61.8227 17.8396 61.7768 17.6561C61.7309 17.4727 61.6851 17.2434 61.6851 17.0599V15.9592H60.5844V17.6561C60.5844 17.9772 60.5385 18.2065 60.4009 18.3899C60.3092 18.5734 60.0799 18.6651 59.7589 18.6651H57.695H57.4657H56.5944V10.043H55.4937V19.7658H57.4657H57.695H59.7589C59.9423 19.7658 60.1258 19.7658 60.3092 19.7199C60.4927 19.7199 60.6302 19.6282 60.8137 19.5824C60.9513 19.4906 61.0889 19.3989 61.2265 19.2613C61.364 19.1237 61.4558 18.9403 61.5475 18.711C61.6851 19.1237 61.9144 19.3989 62.1896 19.5365C62.4647 19.6741 62.8316 19.7658 63.2444 19.7658H63.6113C63.9782 19.7658 64.2992 19.7199 64.5744 19.5824C64.8496 19.4448 65.1248 19.1696 65.3082 18.7568C65.4458 19.1696 65.6751 19.4448 65.9503 19.5824C66.2255 19.7199 66.5465 19.8117 66.9593 19.8117H67.4179C67.6013 19.8117 67.7389 19.8117 67.9224 19.7658C68.1058 19.7199 68.2434 19.7199 68.381 19.6282C68.5186 19.5365 68.6562 19.4448 68.7938 19.3072C68.9313 19.1696 69.0231 18.9861 69.1148 18.7568C69.2524 19.1696 69.4358 19.4448 69.7569 19.5824C70.032 19.7199 70.3989 19.8117 70.8117 19.8117H70.9951H71.1786H72.6921H72.8296H72.8755H74.389H74.5724H76.0859H76.2693H77.9662H78.9752V18.711H77.7369H76.2693Z" fill="black"/>
<path d="M91.7707 10.043H90.7158V19.7658H91.7707V10.043Z" fill="black"/>
<path d="M53.6129 17.2447C53.6129 17.0153 53.5671 16.7402 53.5212 16.465C53.4754 16.1898 53.4295 15.9146 53.3378 15.6395C53.246 15.3643 53.1543 15.0891 53.0626 14.8598C52.9709 14.5846 52.8791 14.3553 52.7416 14.1719L51.7326 14.7681C51.9619 15.135 52.1453 15.5936 52.2829 16.0522C52.4205 16.5109 52.4664 16.9695 52.4664 17.4281C52.4664 17.795 52.4205 18.116 52.2829 18.3912C52.1453 18.7123 51.9619 18.9416 51.7326 19.1709C51.5033 19.4002 51.2281 19.5836 50.8612 19.7212C50.4943 19.8588 50.1274 19.9047 49.6688 19.9047C49.2102 19.9047 48.7974 19.8588 48.4305 19.7212C48.0636 19.5836 47.7884 19.4002 47.5591 19.1709C47.3298 18.9416 47.1463 18.7123 47.0546 18.4371C46.9629 18.1619 46.8712 17.8867 46.8712 17.5657C46.8712 17.2447 46.917 16.9236 47.0088 16.6026C47.1005 16.2815 47.2381 16.0064 47.3757 15.6853C47.1922 15.5936 47.0546 15.5019 46.917 15.4102C46.7794 15.3184 46.596 15.2726 46.4125 15.135C46.1832 15.5019 45.9998 15.8688 45.9081 16.2815C45.7705 16.6943 45.7246 17.1071 45.7246 17.5198C45.7246 17.9326 45.7705 18.3912 45.9081 18.804C46.0456 19.2167 46.275 19.5836 46.5501 19.9047C46.8712 20.2257 47.2381 20.5009 47.7426 20.6843C48.247 20.8678 48.8433 20.9595 49.5312 20.9595C50.1733 20.9595 50.7236 20.8678 51.2281 20.6843C51.7326 20.5009 52.1453 20.2257 52.4664 19.9047C52.7874 19.5836 53.0626 19.1709 53.2002 18.7123C53.5212 18.2078 53.6129 17.7491 53.6129 17.2447Z" fill="black"/>
<path d="M78.9752 18.711C78.7459 18.6193 78.5625 18.5276 78.4249 18.3441C78.2873 18.2065 78.1497 18.0231 78.058 17.8855C77.9663 17.7021 77.8746 17.5186 77.7828 17.3352C77.737 17.1517 77.6452 16.9683 77.5994 16.7848C77.5076 16.4638 77.3701 16.1427 77.2325 15.8676C77.0949 15.5924 76.8656 15.3631 76.6821 15.1796C76.4528 14.9962 76.2235 14.8586 75.9025 14.8127C75.6273 14.7669 75.2604 14.721 74.9394 14.8127C74.5725 14.8586 74.2056 14.9962 73.8845 15.1338C73.5176 15.2713 73.2424 15.4089 73.0131 15.5465C73.0131 15.5465 72.6462 15.7758 72.3252 16.1886L73.1966 16.6931C73.2883 16.6472 73.3342 16.5555 73.4259 16.5096C73.6552 16.372 73.8845 16.2345 74.1597 16.1427C74.389 16.051 74.6183 16.0051 74.8018 15.9593C75.6732 15.8217 76.2235 16.2345 76.5445 17.2434C76.6363 17.5186 76.7738 17.8396 77.0032 18.1607C77.1866 18.4817 77.4618 18.7569 77.7828 18.9862L79.0211 18.7569L78.9752 18.711Z" fill="black"/>
<mask id="mask0_2344_10718" style="mask-type:luminance" maskUnits="userSpaceOnUse" x="2" y="3" width="35" height="40">
<path d="M18.7578 3.57784L4.8615 17.52C1.83458 20.5469 1.83458 25.5001 4.8615 28.527L18.7578 42.4233C19.2623 42.9278 20.042 42.9278 20.5464 42.4233L34.4428 28.527C37.4697 25.5001 37.4697 20.5469 34.4428 17.52L20.5464 3.57784C20.2713 3.34852 19.9502 3.21094 19.6292 3.21094C19.3082 3.21094 18.9871 3.34852 18.7578 3.57784Z" fill="white"/>
</mask>
<g mask="url(#mask0_2344_10718)">
<path d="M37.4696 3.21094H1.83447V42.8819H37.4696V3.21094Z" fill="url(#paint0_linear_2344_10718)"/>
</g>
<path d="M25.9123 18.3906C25.362 18.3447 24.8116 18.3447 24.2154 18.2988C24.7199 18.8033 25.2244 19.3078 25.683 19.904C25.7289 19.7664 25.7747 19.4454 25.8664 18.9868C26.004 18.3447 26.004 18.4364 25.9123 18.3906ZM26.8296 27.4713C26.7378 26.8292 26.6002 26.2789 26.004 25.9578C25.6371 25.7285 25.1785 25.6368 24.8575 25.3158C24.9033 25.1782 24.9951 25.0406 25.0868 24.903C25.1326 24.8572 25.1326 24.7654 25.1326 24.6737C25.1326 24.4903 25.1326 24.3527 25.0868 24.1692C25.0868 23.9858 25.0409 23.8482 24.9951 23.6647L24.9033 23.4813C24.7199 23.8023 24.5364 24.1234 24.5364 24.4903C24.4906 24.7654 24.5364 25.0865 24.5823 25.3616C24.6282 25.6827 24.674 25.9578 24.7657 26.2789C24.9492 26.7834 25.4995 26.9668 25.9582 27.1961C26.1875 27.3337 26.4627 27.4713 26.6002 27.7006L26.6461 27.7465C26.5544 28.1592 26.4627 28.572 26.2792 28.9848C25.362 31.0027 23.4816 32.6079 21.2802 33.0207C20.0878 33.25 18.7578 33.0207 17.7488 32.3786C17.6112 32.2869 17.4278 32.1951 17.2902 32.0576C17.0609 32.1034 16.7857 32.1951 16.4646 32.1951C16.5105 32.2869 16.5564 32.3786 16.6481 32.4703C17.3819 33.6169 18.6202 34.2589 19.9043 34.4424C22.2892 34.7634 24.6282 33.2958 25.9123 31.3696C26.2792 30.8193 26.5544 30.2231 26.7837 29.6268C26.9671 28.893 26.9671 28.2051 26.8296 27.4713ZM15.9602 29.1682C15.9602 28.9848 15.9602 28.7555 16.006 28.572C16.0519 27.9758 16.2353 27.3796 16.4188 26.7834C16.8774 25.4534 17.7488 24.3068 18.8495 23.4813C18.9871 23.3896 19.1705 23.252 19.3081 23.1602C19.3998 23.2978 19.4916 23.4354 19.5374 23.6189C19.6292 23.894 19.5833 23.3896 19.5833 23.3437C19.5833 23.2061 19.5833 23.1144 19.5374 22.9768C20.5005 22.3806 21.5554 21.922 22.5643 21.4633C23.1147 21.1882 23.7109 20.9588 24.2613 20.6837C23.5275 19.904 22.7019 19.1702 21.7847 18.574C21.6471 18.4823 21.5095 18.3906 21.3719 18.2988C20.9592 18.2988 20.5464 18.2988 20.0878 18.2988C19.0788 18.2988 18.1157 18.2988 17.1067 18.4364C16.8315 18.4823 16.5105 18.5281 16.2353 18.6657C16.0519 18.7575 15.8226 18.895 15.7308 19.0785C15.6391 19.2161 15.5933 19.3078 15.5933 19.4454C15.5933 19.8123 15.6391 20.1333 15.685 20.5002C15.7767 20.8671 15.8684 21.1423 16.1895 21.3716C16.6022 21.6468 17.1067 21.8761 17.5195 22.1054C17.7488 22.243 17.9781 22.3347 18.1616 22.4723C17.3819 23.1602 16.7857 23.9399 16.3271 24.903C15.8226 26.0037 15.5933 27.1961 15.5933 28.3427C15.5933 28.9389 15.6391 29.5351 15.7308 30.1313C15.7767 30.3606 15.7767 30.59 15.8226 30.8193C15.9143 30.8193 16.006 30.8193 16.0977 30.8193C16.0977 30.7734 16.0519 30.7275 16.0519 30.7275C15.9602 30.59 15.9143 30.4065 15.8684 30.2231C15.8684 30.1772 15.8226 30.1313 15.8226 30.0396C15.8226 29.9937 15.8226 29.9937 15.8226 29.9479V29.8103C15.8226 29.7644 15.8226 29.6727 15.8226 29.6268C15.8226 29.581 15.8226 29.4893 15.8226 29.4434V29.3975C15.9602 29.2141 15.9602 29.1682 15.9602 29.1682ZM18.1616 21.0047C17.7947 20.7754 17.3819 20.5919 17.015 20.4085C16.7857 20.3168 16.5564 20.1792 16.3729 20.0875C16.4188 20.0416 16.5105 19.9957 16.5564 19.9957C16.8315 19.904 17.1526 19.8581 17.4278 19.8123C18.345 19.6747 19.3081 19.6747 20.2254 19.6747C21.1885 19.6747 22.1516 19.6747 23.1147 19.7206L22.7019 19.904C21.4637 20.4544 20.2254 21.0047 19.0788 21.7385H19.0329C18.8954 21.4175 18.5285 21.1882 18.1616 21.0047ZM16.006 29.902C16.006 29.9479 16.006 30.0396 16.006 29.902V29.902Z" fill="white"/>
<path d="M24.9031 23.4824C24.2152 23.7117 24.1693 24.4914 23.619 24.9042C23.3438 25.0876 23.0228 25.0876 22.7476 24.8583C22.4724 24.629 22.4724 24.2621 22.4724 23.941C22.4724 23.941 22.4724 23.7117 22.4266 23.7117C22.3807 23.7117 22.3349 23.8952 22.3349 23.8952C22.2431 24.2162 22.1973 24.5373 22.1973 24.8583C22.1973 25.2252 22.1973 25.6838 22.3807 26.0049C22.5642 26.28 22.8852 26.4635 23.2062 26.3718C23.94 26.0966 23.94 25.0876 24.6738 24.8583C24.8114 24.8124 24.8573 24.3079 24.9031 24.1704C24.9031 24.1704 24.949 23.4824 24.9031 23.4824Z" fill="white"/>
<path d="M22.381 23.8026C22.1516 24.1236 21.9223 24.4447 21.693 24.7657C21.4637 25.0409 21.2344 25.3619 20.9134 25.4536C20.5923 25.5454 20.2713 25.4536 20.0878 25.2243C19.8127 24.9491 19.8127 24.5364 19.7668 24.1695C19.7668 23.8943 19.6292 24.3529 19.5833 24.3529C19.4916 24.6281 19.4458 24.9491 19.4916 25.2243C19.5375 25.5912 19.5375 26.0498 19.7668 26.3709C19.9502 26.6461 20.2713 26.8295 20.6382 26.7378C21.0051 26.6461 21.2803 26.3709 21.5096 26.0498C21.7847 25.7288 22.0141 25.3619 22.2892 24.995C22.4268 24.7657 22.4727 24.4905 22.4727 24.2153C22.4727 24.0778 22.5185 23.9402 22.4727 23.8485C22.4268 23.8943 22.4268 23.7567 22.381 23.8026Z" fill="white"/>
<path d="M15.0888 25.8665C15.2723 25.9582 15.4557 26.004 15.6392 26.0499C15.5933 26.3251 15.5016 26.8754 15.4099 27.3341C15.0888 27.2423 14.7678 27.1047 14.4926 26.9672C13.0709 26.1875 12.4747 24.5364 12.383 22.9771C12.2912 21.1426 12.8416 19.3081 13.8047 17.7488C14.7219 16.2354 16.0978 15.0429 17.5196 14.034C17.8406 13.8046 18.1616 13.6212 18.5285 13.4377L19.354 14.0798C18.6661 14.5384 17.8864 14.9512 17.1985 15.4557C15.8226 16.3729 14.5844 17.5654 13.713 18.9412C13.3919 19.3999 13.1626 19.9043 12.9792 20.4547C12.8874 20.7299 12.7957 20.9592 12.7499 21.2344V21.3261V21.3719V21.4178C12.7499 21.5095 12.7499 21.5554 12.7499 21.6471C12.7499 21.693 12.7499 21.7388 12.7499 21.7847V21.9223C12.7499 22.0599 12.7499 22.1975 12.7957 22.2892C12.8874 23.8485 13.6212 25.2702 15.0888 25.8665Z" fill="white"/>
<path d="M19.7211 24.4452C19.7211 24.7204 19.6752 25.0414 19.5376 25.3166C19.4918 25.4083 19.4459 25.5459 19.3542 25.6376C18.8956 26.4631 18.1159 27.1052 17.1986 27.3804C16.9693 27.4262 16.74 27.4721 16.4648 27.4721C16.6024 27.1052 16.8317 26.509 17.0611 26.1421C17.428 26.0962 17.749 25.9586 18.1159 25.7752C18.758 25.4083 19.3083 24.8121 19.5835 24.17C19.7211 23.9407 19.7211 24.3535 19.7211 24.4452Z" fill="white"/>
<path d="M22.0598 9.90705C22.0598 10.1822 22.014 10.5033 21.9222 10.7784C21.6012 11.604 21.1884 12.3836 20.5922 13.0257L19.9043 12.5212C19.996 12.4753 20.0877 12.3836 20.1795 12.3378C20.9591 11.6957 21.6012 10.7784 21.9222 9.86118C21.9222 9.86118 21.9681 9.67773 22.014 9.67773C22.0598 9.7236 22.0598 9.86118 22.0598 9.90705Z" fill="white"/>
<path d="M22.9769 28.2964C22.4265 28.2047 21.8762 28.2505 21.3717 28.5257C21.0507 28.7091 20.8213 28.9843 20.5462 29.1678C19.7206 29.8098 18.8034 30.4061 17.7944 30.7271C16.602 31.094 15.1803 31.094 14.1254 30.3143C13.2999 29.7181 12.7496 28.7091 12.5661 27.746C12.2909 26.5077 12.4285 25.2236 12.933 24.077L12.9789 23.9395C12.933 23.9395 12.8871 24.077 12.8871 24.077C12.7496 24.3064 12.612 24.5357 12.5202 24.765C11.6947 26.6912 11.6489 29.3054 13.1623 30.9105C14.0796 31.8737 15.3637 32.103 16.602 31.9195C17.7486 31.7361 18.8493 31.1399 19.7665 30.4519C20.0417 30.2226 20.3169 29.9933 20.592 29.764C21.1424 29.3054 21.7845 29.1678 22.4724 29.3054C22.5641 29.3054 22.7476 28.8926 22.7934 28.8467C22.7476 28.755 22.9769 28.2964 22.9769 28.2964Z" fill="white"/>
<path d="M17.1985 10.5034C17.1985 11.5124 17.4736 12.5672 17.9781 13.4845L17.3819 13.8972C16.9233 12.6131 16.8774 11.1913 17.015 9.86133C17.015 9.67788 17.0609 9.54029 17.1067 9.35684C17.1067 9.31098 17.1526 9.08167 17.1985 9.08167C17.3361 9.03581 17.2443 9.44857 17.2443 9.54029C17.1985 9.86133 17.1985 10.1824 17.1985 10.5034Z" fill="white"/>
<path d="M28.2512 27.5641C28.1595 25.3169 27.4716 23.1155 26.2792 21.2351C25.4995 19.9968 24.4905 18.8503 23.344 17.933C22.4726 17.1992 21.5095 16.603 20.5464 16.0068C19.9501 15.6399 19.3539 15.2271 18.8494 14.7227L18.0239 15.2271C18.3908 15.7775 18.8494 16.2361 19.3998 16.6489C20.2253 17.2451 21.1426 17.7496 22.014 18.3458C23.1605 19.1254 24.2154 20.0886 25.1326 21.1893C26.6002 22.9779 27.5633 25.0876 27.9302 27.3807C28.0219 27.9769 28.0678 28.6648 28.0219 29.261V29.3069V29.3528V29.3986V29.4904C28.0219 29.5362 27.9761 29.6279 27.9761 29.6738C27.9302 29.9031 27.7926 30.1783 27.7009 30.4076C27.1964 31.5542 26.4167 32.609 25.4536 33.4804C24.995 33.8931 24.4447 34.3059 23.8943 34.5811C23.4357 34.8563 22.8853 34.9938 22.3809 35.2232C21.8305 35.4525 21.326 35.7276 20.9591 36.1863C20.4546 36.7825 20.2253 37.5163 20.0877 38.2501C19.996 38.617 19.996 39.0297 19.9501 39.3966C19.9501 39.3966 19.9501 39.5801 19.996 39.5801C20.0419 39.5801 20.0877 39.3966 20.0877 39.3966C20.1795 39.1215 20.2253 38.8004 20.2253 38.5252C20.2253 38.5252 20.2253 38.4794 20.2253 38.4335V38.3877C20.2253 38.2959 20.2712 38.2042 20.317 38.1583C20.4546 37.8373 20.6381 37.5621 20.8674 37.287C21.2802 36.8742 21.7846 36.599 22.335 36.3697C22.8395 36.1863 23.344 36.0028 23.8485 35.7276C24.3988 35.4066 24.8574 35.0856 25.316 34.6728C26.2333 33.8473 27.013 32.7924 27.5633 31.6459C28.0678 30.3159 28.2971 28.94 28.2512 27.5641Z" fill="white"/>
<path d="M28.5265 24.857C28.5265 25.1322 28.4807 25.4532 28.3431 25.7284C28.2055 25.9577 28.2514 25.545 28.2514 25.4991C28.2514 25.4074 28.2514 25.3157 28.2514 25.2698C28.2514 25.2239 28.2514 25.1781 28.2514 25.1322C28.2514 24.9488 28.2514 24.7653 28.2514 24.6277C28.2514 24.2608 28.2055 23.8481 28.1596 23.4812C28.022 22.6556 27.7469 21.8301 27.3341 21.0505C26.9672 20.3625 26.5544 19.7663 26.05 19.1701C26.05 19.1242 26.05 19.1242 26.05 19.0784C26.0958 18.8949 26.0958 18.7573 26.1417 18.7115C26.1417 18.6656 26.1417 18.6197 26.1417 18.6197V18.5739V18.528C26.1417 18.528 26.1417 18.4822 26.1417 18.4363C26.1417 18.3904 26.1417 18.3904 26.0958 18.3446L26.05 18.2987C26.0041 18.2528 25.9582 18.2528 25.9582 18.2528C25.9124 18.2528 25.9124 18.2528 25.9124 18.2528C25.9124 18.2528 25.9124 18.2528 25.8665 18.2528C25.5913 18.2528 25.362 18.207 25.0868 18.207C24.1237 17.2897 23.023 16.4642 21.9223 15.7304C20.7758 14.9049 19.5375 14.217 18.4827 13.2997C17.6113 12.52 16.9692 11.5111 16.9233 10.3186C16.9233 10.0435 16.9692 9.72243 17.0151 9.44726C17.0151 9.4014 17.1527 8.98864 17.1985 9.26381C17.2444 10.6855 18.2075 11.7404 19.3082 12.5659C20.4547 13.4373 21.6472 14.1711 22.7937 14.9966C23.8027 15.7304 24.8117 16.5101 25.6831 17.4273C26.6003 18.3904 27.4258 19.4911 27.9303 20.7294C28.5265 21.9218 28.6641 23.3894 28.5265 24.857Z" fill="white"/>
<path d="M21.0051 11.1448C20.7758 11.42 20.4089 11.8328 20.2255 11.9703C20.042 11.8328 19.9044 11.6952 19.721 11.5576C19.0331 10.9614 18.2993 10.2734 17.8406 9.49377C17.2903 8.53066 17.2444 7.47583 17.4279 6.42099C17.4279 6.37513 17.5196 5.77892 17.6113 5.82478C17.7031 5.82478 17.6113 6.42099 17.6113 6.46685V6.51272C17.6113 6.51272 17.6113 6.51272 17.6113 6.55858V6.60444C17.6113 6.74203 17.6113 6.87962 17.6113 6.97134C17.6572 7.24651 17.703 7.52169 17.7948 7.751C17.9782 8.25549 18.2534 8.66825 18.6203 9.08101C19.3082 9.86067 20.1338 10.5486 21.0051 11.1448Z" fill="white"/>
<path d="M28.4807 25.3623C28.4807 25.4082 28.3889 25.8668 28.2972 25.7751C28.2514 25.7292 28.2972 25.4999 28.2972 25.454C28.2972 25.2706 28.3431 25.133 28.3431 24.9496C28.6641 23.2985 28.5724 21.4181 27.9303 19.813C26.9672 17.1988 24.8575 15.0433 22.5644 13.4839C22.3351 13.3464 22.0599 13.1629 21.8306 13.0253C21.6472 12.9336 21.4637 12.796 21.2803 12.7043C21.4637 12.475 21.7389 11.9705 21.8765 11.6953C22.381 12.0163 22.8396 12.2915 23.2982 12.6126C24.4448 13.4381 25.4538 14.4012 26.3251 15.5019C27.2882 16.6485 28.022 17.9785 28.4348 19.4461C28.9393 21.3723 28.8476 23.3902 28.4807 25.3623Z" fill="white"/>
<path d="M23.2979 22.793C23.2062 22.7471 23.1145 22.6554 23.0686 22.6096C23.0227 22.5637 22.8851 22.5178 22.7934 22.472C22.7934 22.472 22.7476 22.2885 22.7476 22.4261C22.7476 22.472 22.7476 22.472 22.7934 22.5178C22.8393 22.5178 22.8393 22.5637 22.8851 22.5637C22.9769 22.6096 23.0227 22.7013 23.0686 22.793C23.3438 23.1599 23.5272 23.6185 23.6648 24.0313C23.6648 23.9854 23.8483 23.802 23.8483 23.7561C23.8483 23.2975 23.8483 22.8389 23.8941 22.3802C23.8941 22.3344 23.94 22.1968 23.94 22.1509C23.8941 22.1968 23.8941 22.2427 23.8483 22.2885H23.8941C23.94 22.2885 23.9858 22.2427 24.0317 22.2427C24.2152 22.2427 24.3527 22.3802 24.3527 22.5637C24.3527 22.5178 24.5362 22.3802 24.5362 22.2885C24.5362 22.0592 24.3069 21.8758 24.0776 21.9675C23.94 22.0133 23.8941 22.1968 23.8483 22.3344C23.7565 22.5178 23.7565 22.7471 23.7565 22.9765C23.7565 23.3434 23.7107 23.7103 23.7107 24.0313C23.7565 23.9396 23.8024 23.8478 23.8941 23.7561C23.7565 23.4351 23.6189 23.0682 23.4355 22.793C23.3438 22.6554 23.1145 22.1968 22.8851 22.2427C22.7476 22.2885 22.6558 22.5637 22.61 22.6554C22.5641 22.793 22.61 22.793 22.7476 22.8389C22.8851 22.8847 23.0227 23.0223 23.1145 23.114C23.1603 23.114 23.3438 22.8389 23.2979 22.793Z" fill="white"/>
<path d="M14.4468 23.0684C14.3551 23.0225 14.2634 22.9308 14.2175 22.8849C14.1717 22.8391 14.0341 22.7932 13.9423 22.7474C13.9423 22.7474 13.8965 22.5639 13.8965 22.7015C13.8965 22.7474 13.8965 22.7474 13.9423 22.7932C13.9882 22.7932 13.9882 22.8391 14.0341 22.8391C14.1258 22.8849 14.1717 22.9767 14.2175 23.0684C14.4927 23.4353 14.6761 23.8939 14.8137 24.3067C14.8137 24.2608 14.9972 24.0774 14.9972 24.0315C14.9972 23.5729 14.9972 23.1143 15.043 22.6556C15.043 22.6098 15.0889 22.4722 15.0889 22.4263C15.043 22.4722 15.043 22.518 14.9972 22.5639H15.043C15.0889 22.5639 15.1348 22.518 15.1806 22.518C15.3641 22.518 15.5017 22.6556 15.5017 22.8391C15.5017 22.7932 15.6851 22.6556 15.6851 22.5639C15.6851 22.3346 15.4558 22.1511 15.2265 22.2429C15.0889 22.2887 15.043 22.4722 14.9972 22.6098C14.9055 22.7932 14.9055 23.0225 14.9055 23.2518C14.9055 23.6187 14.8596 23.9856 14.8596 24.3067C14.9055 24.215 14.9513 24.1232 15.043 24.0315C14.9055 23.7105 14.7679 23.3436 14.5844 23.0684C14.4468 22.9308 14.2175 22.4722 13.9882 22.518C13.8506 22.518 13.7589 22.7932 13.7589 22.9308C13.713 23.0684 13.7589 23.0684 13.8965 23.1143C14.0341 23.1601 14.1717 23.2977 14.2634 23.3894C14.2634 23.3894 14.4468 23.1143 14.4468 23.0684Z" fill="white"/>
<path d="M23.9402 28.527C23.8026 28.9397 23.665 29.4442 23.6191 29.9028C23.6191 30.178 23.665 30.5449 23.986 30.5908C24.2612 30.6366 24.5364 30.3615 24.674 30.178C24.7657 30.0404 24.8574 29.857 24.9033 29.7194C24.9492 29.6277 24.9492 29.5818 24.8574 29.6735C24.7198 29.9028 24.3988 30.0404 24.1695 29.857C23.9402 29.6735 23.9402 29.3525 23.986 29.1232C24.0319 28.7563 24.1695 28.3894 24.2612 28.0225C24.3071 27.8849 24.1695 28.1142 24.1695 28.1142C24.0778 28.2059 23.986 28.3894 23.9402 28.527Z" fill="white"/>
<path d="M18.8494 35.4508C18.7118 35.8636 18.5742 36.368 18.5283 36.8267C18.5283 37.1018 18.5742 37.4687 18.8952 37.5146C19.1704 37.5605 19.4456 37.2853 19.5832 37.1018C19.6749 36.9643 19.7666 36.7808 19.8125 36.6432C19.8583 36.5515 19.8583 36.5056 19.7666 36.5974C19.629 36.8267 19.308 36.9643 19.0787 36.7808C18.8494 36.5974 18.8494 36.2763 18.8952 36.047C18.9411 35.6801 19.0787 35.3132 19.1704 34.9463C19.2163 34.8087 19.0787 35.038 19.0787 35.038C18.9869 35.1298 18.8952 35.3132 18.8494 35.4508Z" fill="white"/>
<path d="M16.281 33.8473C16.1434 34.26 16.0058 34.7645 15.96 35.2232C15.96 35.4983 16.0058 35.8652 16.3269 35.9111C16.602 35.957 16.8772 35.6818 17.0148 35.4983C17.1065 35.3607 17.1982 35.1773 17.2441 35.0397C17.29 34.948 17.29 34.9021 17.1982 34.9938C17.0607 35.2232 16.7396 35.3607 16.5103 35.1773C16.281 34.9938 16.281 34.6728 16.3269 34.4435C16.3727 34.0766 16.5103 33.7097 16.602 33.3428C16.6479 33.2052 16.5103 33.4345 16.5103 33.4345C16.4186 33.5262 16.3269 33.6638 16.281 33.8473Z" fill="white"/>
<path d="M20.1335 6.87853C19.9959 7.29129 19.8584 7.79578 19.8125 8.2544C19.8125 8.52957 19.8584 8.89647 20.1794 8.94234C20.4546 8.9882 20.7297 8.71302 20.8673 8.52957C20.9591 8.39199 21.0508 8.20854 21.0966 8.07095C21.1425 7.97923 21.1425 7.93336 21.0508 8.02509C20.9132 8.2544 20.5922 8.39199 20.3628 8.20854C20.1335 8.02509 20.1335 7.70405 20.1794 7.47474C20.2253 7.10784 20.3628 6.74094 20.4546 6.37404C20.5004 6.23645 20.3628 6.46577 20.3628 6.46577C20.2711 6.55749 20.1794 6.69508 20.1335 6.87853Z" fill="white"/>
<path d="M20.7297 30.5444C20.5921 30.9572 20.4546 31.4617 20.4087 31.9203C20.4087 32.1955 20.4546 32.5624 20.7756 32.6082C21.0508 32.6541 21.3259 32.3789 21.4635 32.1955C21.5553 32.0579 21.647 31.8744 21.6928 31.7368C21.7387 31.6451 21.7387 31.5993 21.647 31.691C21.5094 31.9203 21.1884 32.0579 20.959 31.8744C20.7297 31.691 20.7297 31.3699 20.7756 31.1406C20.8215 30.7737 20.959 30.4068 21.0508 30.0399C21.0966 29.9023 20.959 30.1317 20.959 30.1317C20.8673 30.2234 20.8215 30.361 20.7297 30.5444Z" fill="white"/>
<path d="M14.3547 27.9293C14.2171 28.3421 14.0796 28.8466 14.0337 29.3052C14.0337 29.5804 14.0796 29.9473 14.4006 29.9931C14.6758 30.039 14.9509 29.7638 15.0885 29.5804C15.1803 29.4428 15.272 29.2593 15.3178 29.1217C15.3637 29.03 15.3637 28.9841 15.272 29.0759C15.1344 29.3052 14.8134 29.4428 14.584 29.2593C14.3547 29.0759 14.3547 28.7548 14.4006 28.5255C14.4465 28.1586 14.584 27.7917 14.6758 27.4248C14.7216 27.2872 14.584 27.5165 14.584 27.5165C14.4923 27.6083 14.4006 27.7917 14.3547 27.9293Z" fill="white"/>
<path d="M14.4468 20.5005C14.3092 20.8215 14.1716 21.2343 14.2175 21.6012C14.2175 21.7846 14.3092 22.0598 14.5385 22.0598C14.722 22.0598 14.8596 21.8764 14.9972 21.7388C15.0889 21.6471 15.1347 21.5095 15.1806 21.3719C15.2265 21.2802 15.2265 21.2802 15.1347 21.3719C15.043 21.5095 14.8137 21.6471 14.6303 21.5095C14.4468 21.3719 14.4468 21.1426 14.4468 20.9591C14.4927 20.6381 14.5844 20.3629 14.6761 20.0877C14.722 19.996 14.5844 20.1336 14.5844 20.1795C14.5385 20.2712 14.4927 20.4088 14.4468 20.5005Z" fill="white"/>
<path d="M17.4278 28.8006C17.8406 29.2134 18.2533 29.6262 18.7578 29.9931C18.7578 29.9931 19.7668 28.6172 19.6751 28.5713C19.2165 28.2044 18.7578 27.8375 18.3451 27.3789C18.3451 27.3789 17.8864 28.021 17.8406 28.0668C17.7489 28.2503 17.6113 28.3879 17.5195 28.5713C17.5195 28.6172 17.382 28.7548 17.4278 28.8006Z" fill="white"/>
<path d="M16.602 17.1976C16.9231 17.1518 17.29 17.1518 17.611 17.1518C17.7027 17.1518 17.7944 17.1518 17.8403 17.1976H17.8862C17.932 17.1059 17.9779 16.9683 18.0237 16.8766C18.2531 16.418 18.1155 16.739 17.9779 16.8766C17.8862 16.9683 17.7944 17.1518 17.7027 17.2894C17.6569 17.3811 17.611 17.4269 17.611 17.5187C17.611 17.5187 17.5651 17.6104 17.611 17.5645C17.8403 17.3352 18.0237 17.06 18.1613 16.739C18.2072 16.6473 18.2989 16.5097 18.1613 16.4638C18.0237 16.418 17.8403 16.418 17.7027 16.418C17.4275 16.418 17.1982 16.418 16.9231 16.4638C16.8772 16.4638 16.8313 16.5556 16.8313 16.5556C16.7855 16.6473 16.7396 16.739 16.6937 16.7849C16.6479 16.8766 16.602 16.9683 16.5562 17.06C16.6479 17.1059 16.602 17.1976 16.602 17.1976Z" fill="white"/>
<path d="M17.7947 17.1984C17.7947 17.1984 17.0151 17.7946 16.8316 17.7946C16.6482 17.8404 16.7858 17.8863 16.8775 17.8404C17.0151 17.7946 17.5654 17.7487 17.7489 17.5194C17.8865 17.2901 17.9323 17.0149 17.7947 17.1984Z" fill="white"/>
<mask id="mask1_2344_10718" style="mask-type:luminance" maskUnits="userSpaceOnUse" x="0" y="0" width="40" height="47">
<path d="M19.0329 0.137587C18.8495 0.229312 18.666 0.321037 18.5285 0.504487L2.84351 16.1436C1.88039 17.1067 1.19246 18.1615 0.733835 19.3539C0.27521 20.5005 0.0458984 21.7388 0.0458984 22.9771C0.0458984 24.2154 0.27521 25.4536 0.733835 26.6002C1.19246 27.7468 1.92626 28.8475 2.84351 29.8106L18.5285 45.4955L18.7578 45.2662L18.9871 45.0369L3.30213 29.3978C2.43074 28.5264 1.74281 27.5174 1.33005 26.4167C0.871422 25.316 0.687972 24.1695 0.687972 23.0229C0.687972 21.8764 0.917284 20.7298 1.33005 19.6291C1.78867 18.5284 2.43074 17.5194 3.30213 16.6481L18.9871 0.917248C19.0788 0.825523 19.1705 0.779661 19.3081 0.733799C19.3998 0.687936 19.5374 0.687936 19.675 0.687936C19.8126 0.687936 19.9043 0.687936 20.0419 0.733799C20.1336 0.779661 20.2712 0.825523 20.3629 0.917248L36.0479 16.6022C36.9193 17.4736 37.6072 18.4826 38.02 19.5833C38.4786 20.6839 38.6621 21.8305 38.6621 22.9771C38.6621 24.1236 38.4327 25.2702 38.02 26.3709C37.5614 27.4716 36.9193 28.4806 36.0479 29.3519L20.3171 45.0827C20.2254 45.1745 20.1336 45.2203 19.996 45.2662C19.9043 45.3121 19.7667 45.3121 19.6291 45.3121C19.4916 45.3121 19.3998 45.3121 19.2623 45.2662C19.1705 45.2203 19.0329 45.1745 18.9412 45.0827L18.7119 45.3121L18.4826 45.5414C18.6202 45.679 18.8036 45.8165 18.9871 45.9083C19.1705 46 19.3998 46.0459 19.5833 46.0459C19.7667 46.0459 19.996 46 20.1795 45.9083C20.3629 45.8165 20.5464 45.7248 20.684 45.5414L36.3689 29.8564C37.332 28.8933 38.02 27.8385 38.4786 26.6461C38.9372 25.4995 39.1665 24.2612 39.1665 23.0229C39.1665 21.7846 38.9372 20.5464 38.4786 19.3998C38.02 18.2532 37.2862 17.1525 36.3689 16.1894L20.7757 0.458624C20.6381 0.321037 20.4547 0.18345 20.2712 0.0917248C20.0419 0.0458624 19.8585 0 19.6291 0C19.3998 0 19.2623 0.0458624 19.0329 0.137587Z" fill="white"/>
</mask>
<g mask="url(#mask1_2344_10718)">
<path d="M39.3041 0H0V46H39.3041V0Z" fill="url(#paint1_linear_2344_10718)"/>
</g>
</g>
<defs>
<linearGradient id="paint0_linear_2344_10718" x1="19.6442" y1="34.3398" x2="19.6442" y2="15.1718" gradientUnits="userSpaceOnUse">
<stop stop-color="#1E3F76"/>
<stop offset="0.4286" stop-color="#234683"/>
<stop offset="1" stop-color="#2C559B"/>
</linearGradient>
<linearGradient id="paint1_linear_2344_10718" x1="0.0163289" y1="23.0019" x2="39.3056" y2="23.0019" gradientUnits="userSpaceOnUse">
<stop stop-color="#1E3F76"/>
<stop offset="0.4286" stop-color="#234683"/>
<stop offset="1" stop-color="#2C559B"/>
</linearGradient>
<clipPath id="clip0_2344_10718">
<rect width="164" height="46" fill="white"/>
</clipPath>
</defs>
</svg>
